<?xml version="1.0" encoding="utf-8"?>
<!-- Generator: Adobe Illustrator 19.2.1, SVG Export Plug-In . SVG Version: 6.00 Build 0)  -->
<svg version="1.1" id="Layer_1" xmlns="http://www.w3.org/2000/svg" xmlns:xlink="http://www.w3.org/1999/xlink" x="0px" y="0px"
	 viewBox="0 0 596 595" style="enable-background:new 0 0 596 595;" xml:space="preserve">
<style type="text/css">
	.st0{fill:url(#SVGID_1_);}
	.st1{fill:none;stroke:url(#SVGID_2_);stroke-width:16;stroke-miterlimit:10;}
</style>
<g>
	<g>
		<g>
			<linearGradient id="SVGID_1_" gradientUnits="userSpaceOnUse" x1="53.6768" y1="298.9" x2="542.0516" y2="298.9">
				<stop  offset="0" style="stop-color:#642B73"/>
				<stop  offset="1" style="stop-color:#C6426E"/>
			</linearGradient>
			<path class="st0" d="M531.2,412.9c-61.6-10.1-89.6-72.4-92.6-79.5c-0.1-0.1-0.3-0.6-0.4-0.8c-3.1-6.3-3.9-11.4-2.2-15.1
				c3.2-7.6,16.9-12,25.7-14.8c2.5-0.8,4.8-1.5,6.6-2.3c17.7-7,26.6-15.9,26.4-26.6c-0.2-8.5-6.8-16.2-16.6-19.7
				c-3.4-1.4-7.4-2.2-11.3-2.2c-2.7,0-6.7,0.4-10.6,2.2c-7.5,3.5-14.2,5.4-19.2,5.6c-2.2-0.1-3.9-0.5-5.2-0.9
				c0.2-2.7,0.3-5.4,0.5-8.2l0.1-1.4c2.1-33.2,4.7-74.5-6.4-99.3C393.3,76.7,324,71,303.5,71l-9.6,0.1c-20.5,0-89.7,5.7-122.4,78.9
				c-11.1,24.8-8.5,66.1-6.4,99.3c0.2,3.3,0.4,6.4,0.6,9.5c-1.4,0.5-3.4,0.9-6.2,0.9c-5.9,0-12.9-1.9-20.9-5.6
				c-11.6-5.4-32.7,1.8-35.6,16.8c-1.6,8.1,1.7,19.8,26.1,29.5c1.9,0.7,4.3,1.5,7.2,2.4c8.2,2.6,21.9,6.9,25.1,14.6
				c1.6,3.8,0.8,8.9-2.5,15.8c-1.2,2.8-30.2,68.8-94.2,79.3c-6.6,1.1-11.4,7-11,13.7c0.1,1.9,0.5,3.7,1.3,5.6
				c5.4,12.6,25.9,21.3,64.4,27.4c0.8,2.2,1.8,6.7,2.4,9.3c0.8,3.7,1.7,7.6,2.8,11.5c1.2,4,4.7,10.8,14.7,10.8
				c3.4,0,7.4-0.8,11.6-1.6c6.2-1.2,14.6-2.9,25.1-2.9c5.8,0,11.8,0.5,18,1.5c11.5,1.9,21.7,9.1,33.4,17.4
				c17.3,12.2,33,21.6,64.4,21.6c0.8,0,1.7,0,2.5-0.1c1.2,0.1,2.3,0.1,3.5,0.1c27.5,0,51.8-7.3,72-21.6
				c11.2-7.9,21.8-15.4,33.3-17.3c6.1-1,12.2-1.5,18-1.5c10,0,18,1.3,25.2,2.7c4.8,1,8.6,1.4,12.1,1.4c7,0,12.2-3.9,14.2-10.6
				c1.1-3.9,2-7.7,2.8-11.5c0.4-2,1.5-6.9,2.4-9.2c38-6,57.4-14.4,62.8-27c0.8-1.8,1.3-3.7,1.4-5.8
				C542.6,419.9,537.9,414,531.2,412.9z"/>
		</g>
	</g>
</g>
<linearGradient id="SVGID_2_" gradientUnits="userSpaceOnUse" x1="1.3" y1="298.8" x2="596.3" y2="298.8">
	<stop  offset="0" style="stop-color:#642B73"/>
	<stop  offset="1" style="stop-color:#C6426E"/>
</linearGradient>
<rect x="9.3" y="9.3" class="st1" width="579" height="579"/>
</svg>
