<?xml version="1.0" encoding="utf-8"?>
<!-- Generator: Adobe Illustrator 19.2.1, SVG Export Plug-In . SVG Version: 6.00 Build 0)  -->
<svg version="1.1" id="Capa_1" xmlns="http://www.w3.org/2000/svg" xmlns:xlink="http://www.w3.org/1999/xlink" x="0px" y="0px"
	 viewBox="0 0 596 596.7" style="enable-background:new 0 0 596 596.7;" xml:space="preserve">
<style type="text/css">
	.st0{fill:url(#SVGID_1_);}
	.st1{fill:none;stroke:url(#SVGID_2_);stroke-width:16;stroke-miterlimit:10;}
</style>
<g>
	<g>
		<g>
			<linearGradient id="SVGID_1_" gradientUnits="userSpaceOnUse" x1="122.9" y1="299.9" x2="472.5" y2="299.9">
				<stop  offset="0" style="stop-color:#642B73"/>
				<stop  offset="1" style="stop-color:#C6426E"/>
			</linearGradient>
			<path class="st0" d="M472.5,191.6c-12.9,5.7-26.7,9.6-41.2,11.3c14.8-8.9,26.2-22.9,31.5-39.7c-13.9,8.2-29.2,14.2-45.6,17.4
				c-13.1-14-31.7-22.7-52.3-22.7c-39.6,0-71.7,32.1-71.7,71.7c0,5.6,0.6,11.1,1.9,16.3c-59.6-3-112.4-31.5-147.8-74.9
				c-6.2,10.6-9.7,22.9-9.7,36c0,24.9,12.7,46.8,31.9,59.7c-11.8-0.4-22.8-3.6-32.5-9v0.9c0,34.7,24.7,63.7,57.5,70.3
				c-6,1.6-12.3,2.5-18.9,2.5c-4.6,0-9.1-0.5-13.5-1.3c9.1,28.5,35.6,49.2,67,49.8c-24.5,19.2-55.5,30.7-89.1,30.7
				c-5.8,0-11.5-0.3-17.1-1c31.7,20.4,69.4,32.3,109.9,32.3c131.9,0,204.1-109.3,204.1-204.1l-0.2-9.3
				C450.7,218.6,462.9,206,472.5,191.6z"/>
		</g>
	</g>
</g>
<linearGradient id="SVGID_2_" gradientUnits="userSpaceOnUse" x1="1" y1="298.8" x2="596" y2="298.8">
	<stop  offset="0" style="stop-color:#642B73"/>
	<stop  offset="1" style="stop-color:#C6426E"/>
</linearGradient>
<rect x="9" y="9.3" class="st1" width="579" height="579"/>
</svg>
