<?xml version="1.0" encoding="utf-8"?>
<!-- Generator: Adobe Illustrator 19.2.1, SVG Export Plug-In . SVG Version: 6.00 Build 0)  -->
<svg version="1.1" id="Capa_1" xmlns="http://www.w3.org/2000/svg" xmlns:xlink="http://www.w3.org/1999/xlink" x="0px" y="0px"
	 viewBox="0 0 593.3 595.3" style="enable-background:new 0 0 593.3 595.3;" xml:space="preserve">
<style type="text/css">
	.st0{fill:url(#Facebook_1_);}
	.st1{fill:none;stroke:url(#SVGID_1_);stroke-width:16;stroke-miterlimit:10;}
</style>
<g>
	<g>
		<linearGradient id="Facebook_1_" gradientUnits="userSpaceOnUse" x1="206.8" y1="295.3" x2="388" y2="295.3">
			<stop  offset="0" style="stop-color:#642B73"/>
			<stop  offset="1" style="stop-color:#C6426E"/>
		</linearGradient>
		<path id="Facebook_8_" class="st0" d="M246,176.5c0,9.7,0,53.4,0,53.4h-39.2v65.3H246v194.2h80.4V295.2h54c0,0,5.1-31.3,7.5-65.6
			c-7,0-61.2,0-61.2,0s0-38,0-44.7s8.8-15.7,17.4-15.7s26.9,0,43.9,0c0-8.9,0-39.6,0-68c-22.6,0-48.3,0-59.6,0
			C244,101.2,246,166.6,246,176.5z"/>
	</g>
</g>
<linearGradient id="SVGID_1_" gradientUnits="userSpaceOnUse" x1="0.3" y1="297.8" x2="595.3" y2="297.8">
	<stop  offset="0" style="stop-color:#642B73"/>
	<stop  offset="1" style="stop-color:#C6426E"/>
</linearGradient>
<rect x="8.3" y="8.3" class="st1" width="579" height="579"/>
</svg>
