<?xml version="1.0" encoding="utf-8"?>
<!-- Generator: Adobe Illustrator 19.2.1, SVG Export Plug-In . SVG Version: 6.00 Build 0)  -->
<svg version="1.1" id="Capa_1" xmlns="http://www.w3.org/2000/svg" xmlns:xlink="http://www.w3.org/1999/xlink" x="0px" y="0px"
	 viewBox="0 0 593.3 595.3" style="enable-background:new 0 0 593.3 595.3;" xml:space="preserve">
<style type="text/css">
	.st0{fill:none;stroke:#000000;stroke-width:16;stroke-miterlimit:10;}
</style>
<g>
	<path id="Facebook" d="M246,176.5c0,9.7,0,53.4,0,53.4h-39.2v65.3H246v194.2h80.4V295.2h54c0,0,5.1-31.3,7.5-65.6
		c-7,0-61.2,0-61.2,0s0-38,0-44.7c0-6.7,8.8-15.7,17.4-15.7s26.9,0,43.9,0c0-8.9,0-39.6,0-68c-22.6,0-48.3,0-59.6,0
		C244,101.2,246,166.6,246,176.5z"/>
</g>
<rect x="8.3" y="8.3" class="st0" width="579" height="579"/>
</svg>
