<?xml version="1.0" encoding="utf-8"?>
<!-- Generator: Adobe Illustrator 19.0.0, SVG Export Plug-In . SVG Version: 6.00 Build 0)  -->
<svg version="1.1" id="Layer_1" xmlns="http://www.w3.org/2000/svg" xmlns:xlink="http://www.w3.org/1999/xlink" x="0px" y="0px"
	 viewBox="0 0 960 560" style="enable-background:new 0 0 960 560;" xml:space="preserve">
<style type="text/css">
	.st0{fill:#FFFFFF;}
</style>
<g id="XMLID_2_">
	<path id="XMLID_3_" class="st0" d="M451.3,314.1c0,3.3-3.7,8.8-16.5,8.8c-26,0-32.1-27.3-32.1-43.8c0-16.4,7.1-29.5,7.1-29.5
		l-2.3,0.2c-5.5,1.3-11.3,2.6-16.8,3.9c-7.5,8-34.1,34.5-56.3,34.5c-17.4,0-27.5-14-27.5-30.9c0-28,36.5-48.5,62-48.5
		c15.6,0,20.2,16.3,20.2,20.2s-3.1,1.5-3.1,1.5s-2.7-9.8-21.1-9.8c-28.7,0-54.2,22.5-54.2,36.7c0,0-0.2,20,20.4,20
		c15.5,0,35.9-13.8,44.9-20.6c-5,1-9.3,1.8-12.3,2.2c-17,2.2-22.3-9.6-23.1-15.2c-0.7-5.6,2.3-1.8,2.3-1.8c0.6,4.3,19.6,6.7,32.4,5
		c5.8-0.7,11.1-1.4,15-1.9l0.7-0.6c0,0,33.5-32.7,33.5-38.7c0-3,12.3,4.5,12.3,14.5c0,2-5.8,13.2-9.1,19.3l11.5-1.9
		c5.7-0.7,3.8-1.3,5-1.4c1.1-0.2,1.3,0.6,1.3,1.7c0,1.8-2.3,3-8.3,4.6c0,0-5.1,1.3-12.6,3.1l-1.2,2.4c0,0-10.6,23.1-10.6,38
		c0,25.1,14.2,35.1,20.8,35.1l2.5,0.1c4.8,0,11.6-2.7,11.6-7S451.3,310.8,451.3,314.1z M413.1,241.8c3.4-7.3,15.9-28.1,15.9-28.1
		l-28.6,30l8.2-1.3L413.1,241.8z"/>
	<path id="XMLID_6_" class="st0" d="M428.6,278.3c0-9.2,16.9-33.5,24.8-33.5c3.1,0,3.9,3.7,3.9,3.7c0-0.9,4.4-3.8,4.4-5.8
		c0-1.8,4.3,1,4.3,8.9c0,11.2-6.8,8.4-6.8,18.5c-7.2,0-8-11.2-8-11.2s-11.7,11.8-11.7,24.6c0,4.7,2.8,6.3,5.4,6.3
		c3.1,0,20.9-17.1,29.8-30.4c1.5-2.2,4.5-1.2,2.4,2.1c-2.2,3.2-26,33.5-35.1,33.5C432,295,428.6,287.5,428.6,278.3z"/>
	<path id="XMLID_8_" class="st0" d="M528.4,240.5c0-2.9-6.3-8.8-17.4-8.8c-2.1,0-4.2,0-6.2,0.1c-12.3,22.3-36,58-28.7,58
		c3,0,19.5-16.5,28.4-29.8c1.4-2.2,4.5-1.2,2.3,2.1c-2.1,3.2-24.5,32.9-33.7,32.9c-7.5,0-8.7-6.8-8.7-11.6
		c0-6.9,14.4-30.6,25.4-50.7c-3.5,0.2-7.2,0.2-11.2,0.2c-11.1,0-15.2-4.4-16.7-8.4c-1.2-3.5,0.4-4.2,2.1-2.7
		c2.9,2.4,7.9,4.7,14.8,4.7c6,0,11.3-0.4,14.8-0.8c5-9.4,8.5-17.1,8.5-20.4c0-2.9,9.7,0.6,9.7,10.7c0,1.7-1.3,5-3.5,9.3
		c1,0,1.9,0,2.9,0c12.5,0,18.2,6.7,19.7,12.1C531.9,240.9,528.4,240.5,528.4,240.5z"/>
	<path id="XMLID_10_" class="st0" d="M536.5,261.8c-2.2,3.2-23.9,33-33.1,33c-7.6,0-9.4-8.2-8.9-13.6c0.6-7.2,10.8-19.4,15.5-31.4
		c0.7-1.9,0.2-4.4,2.6-4.4c2.4,0,6.9,3.9,6.2,11.7c-0.7,7.8-22.9,32.5-12.4,32.5c3,0,18.8-16.5,27.7-30
		C535.6,257.5,538.6,258.5,536.5,261.8z M518.4,231c0.6-7.3,5.2-9.7,7.5-9.7c2.3,0,9.3,3.1,9,6.5c-0.3,3.4-3.4,3.9-6.5,9.3
		c-3.1,5.3-2.9,5.4-4.4,5.4C521.7,242.5,517.7,238.3,518.4,231z"/>
	<path id="XMLID_13_" class="st0" d="M556.3,281.7c-0.3,0.4-0.7,0.9-1.1,1.3c0,0-0.5,0.6-1.4,1.6c-4.8,5-10.7,9.4-16.2,10.2
		c-0.1,0.1-0.2,0.1-0.3,0.1c-0.2,0-0.4,0-0.5,0.1c-0.4,0-0.7,0-1,0c-4,0-10.7-2-10.7-12.6c0-17.9,19.2-37.2,30.1-37.2
		c5.6,0,9.6,3.7,12.1,7.9c0.4,0.7-0.4,2.1-4.9,2.1c-16.6,0-33.6,35.6-24.9,35.6c5.9,0,16.8-11.8,16.8-11.8s-0.9-2.5-0.9-6.1
		c0-8.1,9.9-11.7,9.9-3.3c0,1.8-1.8,5-5,9.2c0.3,0.3,1.4,0.7,1.9,0.7c4.8,0,9.4-7.5,17.5-19.7c1.4-2.2,4.5-1.1,2.3,2.1
		c-1.9,3-11.6,21.1-20.1,21.1C558.4,283,557.1,282.3,556.3,281.7z"/>
	<path id="XMLID_15_" class="st0" d="M588.4,282.3c0-8.4,14.8-28.4,14.8-28.4c-3.3,0-31.9,33.3-31.9,38c0,7.4-6.8,0-6.8-7.9
		c0-8.2,19.8-28.9,19.8-38.9c0-3.5,7.3,0.3,7.3,10.3c0,4.9-3.4,8.2-3.4,8.2s18.2-18.5,21.6-18.5c3.5,0,5.6,5.1,5.6,10
		s-23.4,34.8-18.8,34.8c6,0,20.6-17.2,29.5-30.5c1.4-2.2,4.4-1.2,2.3,2.1c-2.1,3.2-23.3,33.5-33.2,33.5
		C591.3,295,588.4,289.8,588.4,282.3z"/>
</g>
</svg>
