<?xml version="1.0" encoding="utf-8"?>
<!-- Generator: Adobe Illustrator 19.2.1, SVG Export Plug-In . SVG Version: 6.00 Build 0)  -->
<svg version="1.1" id="Layer_1" xmlns="http://www.w3.org/2000/svg" xmlns:xlink="http://www.w3.org/1999/xlink" x="0px" y="0px"
	 viewBox="0 0 612 129.7" style="enable-background:new 0 0 612 129.7;" xml:space="preserve">
<style type="text/css">
	.st0{fill:#FFFFFF;}
</style>
<g>
	<path class="st0" d="M541.5,101.2c0,3.7,7.5,3.9,10.2-7.1C551.8,94.1,541.5,96.5,541.5,101.2z"/>
	<path class="st0" d="M351.1,81.4c-2.9,0-4.7,8.1-4.7,8.1C347.6,89.5,353.9,81.4,351.1,81.4z"/>
	<path class="st0" d="M435.6,54.8c-1.8,0-3.5,0-5.2,0.1c-10.3,18.7-30.2,48.7-24.1,48.7c2.2,0,13.1-10.7,20.8-20.8
		c5.1-8.5,11.5-18.3,16.3-26.6C441.3,55.4,438.6,54.8,435.6,54.8z"/>
	<path class="st0" d="M0,0v129.7h612V0H0z M308,54.8c-1.8,0-3.5,0-5.2,0.1c-10.3,18.7-30.2,48.7-24.1,48.7c2.5,0,16.4-13.9,23.9-25
		c1.2-1.8,3.8-1,1.9,1.8c-1.8,2.7-20.6,27.6-28.3,27.6c-6.3,0-7.3-5.7-7.3-9.7c0-1.8,1.1-4.9,3-8.8c-7,8.2-16.9,18.6-21.8,18.6
		c-8.4,0-11.3-6.3-11.3-14c0-0.8,0.2-1.7,0.4-2.8C232,99,222.1,108,215.6,108c0,0-8.1-0.1-8.1-10.4c0-1.2,0.1-2.4,0.4-3.5
		c-5.9,7-12.8,14-17.2,14c-3.3,0-5.7-4.4-5.7-10.7c0-7.1,12.4-23.9,12.4-23.9c-2.8,0-26.8,28-26.8,31.9c0,6.2-5.7,0-5.7-6.6
		c0-0.5,0.1-1.2,0.3-1.8c-5.3,5.9-10.9,11.1-14.7,11.1c-3.3,0-5.7-4.4-5.7-10.7c0-7.1,12.4-23.9,12.4-23.9c-2.8,0-26.8,28-26.8,31.9
		c0,6.2-5.7,0-5.7-6.6c0-0.7,0.2-1.5,0.5-2.5c-1.5,1-2.9,1.6-4.4,1.6c-1.3,0-2.4-0.6-3-1.1c-0.3,0.3-0.6,0.8-0.9,1.1
		c0,0-0.4,0.5-1.2,1.3c-4,4.2-9,7.9-13.6,8.6c-0.1,0.1-0.2,0.1-0.3,0.1c-0.2,0-0.3,0-0.4,0.1c-0.3,0-0.6,0-0.8,0
		c-3.4,0-9-1.7-9-10.6c0-0.4,0-0.7,0-1.1c-7.7,8.2-20,16.5-38.2,16.5c-12.4,0-22.8-8.2-20.2-27.2c0.7-4.7,2.4-9.9,5.2-15.5
		c1-2,2.9-5.1,3.9-6.9c0.9-1.8,2.2-3.7,3.5-5.5c2.7-3.9,6.1-7.8,9.8-11.8c3.7-3.8,7.5-7.2,11.4-9.8c8-5.6,15.3-8.3,21.5-8.3
		c5.5,0,8.8,2.4,10.6,5.4c0.8-2.4,1.6-5.2,2.2-8c-1.8-2.5-2-4.8-2-5.8c0-1.6,1.3-2.8,2.4-2.7c0.1,0,0.2,0,0.3,0
		c2.4,0,7.2,4.6,8.4,10.7c0,0,0.3,1.6,0,4.5c-0.7,6.2-4.6,11.9-7,17.3c-2.7,6,2.9,10-1.6,10c-2.6,0-5.6-8.3-5.6-8.3s-1.2-3.1-1.2-6
		c0-0.7,0.2-1.3,0.3-2.1c-0.2-2.2-2.4-3.5-4.2-3.5c-3.7,0-8.9,2.4-16.1,6.8c-1.8,1.2-4.8,3.4-8.7,6.8c-3,2.7-5.5,5.4-7.7,8.1
		c-0.8,1.1-1.7,2.3-2.5,3.4c-0.6,1-2.4,3.4-3.2,5c-4.2,6.9-9,16-10.1,23l-0.2,1.8c-1.4,10.7,3.6,15,10.7,15
		C73.3,109.3,86,98.6,93,90c3.9-12.5,16.4-23.8,24.1-23.8c4.7,0,8.1,3.1,10.2,6.6c0.3,0.6-0.3,1.8-4.1,1.8
		c-13.9,0-28.2,29.9-20.9,29.9c5,0,14.1-9.9,14.1-9.9s-0.8-2.1-0.8-5.1c0-6.8,8.3-9.8,8.3-2.8c0,1.5-1.5,4.2-4.2,7.7
		c0.3,0.3,1.2,0.6,1.6,0.6c4,0,7.9-6.3,14.7-16.5c0.2-0.3,0.4-0.5,0.6-0.6c2.8-4.5,5-8.7,5-11.7c0-2.9,6.1,0.3,6.1,8.7
		c0,3.8-2.5,6.5-2.8,6.8c0.9-0.9,15.3-15.5,18.1-15.5c2.9,0,4.7,4.3,4.7,8.4s-19.7,29.2-15.8,29.2c4.7,0,15.7-12.6,23.3-23.4
		c3.5-5.4,6.6-10.6,6.6-14.2c0-2.9,6.1,0.3,6.1,8.7c0,3.8-2.5,6.5-2.8,6.8c0.9-0.9,15.3-15.5,18.1-15.5c2.9,0,4.7,4.3,4.7,8.4
		s-19.7,29.2-15.8,29.2c3.8,0,11.8-8.3,18.7-17.3c5.9-11.1,18.3-20.4,22.5-20.4c2.2,0,5.9,1.5,5.9,9.5s-17.8,21.8-22.2,21.8
		c0,0-3.1,5.6,1.3,5.6c4.7,0,16.2-9.3,24.1-18.9c4.6-8.5,12.8-18.2,17.3-18.2c2.6,0,3.3,3.1,3.3,3.1c0-0.8,3.7-3.2,3.7-4.9
		c0-1.5,3.6,0.8,3.6,7.5c0,9.4-5.7,7.1-5.7,15.5c-6,0-6.7-9.4-6.7-9.4s-9.8,9.9-9.8,20.7c0,3.9,2.4,5.3,4.5,5.3
		c2.6,0,17.6-14.4,25-25.5c0.1-0.2,0.3-0.4,0.5-0.5c3.8-7,8.3-14.7,12.2-21.9c-2.9,0.2-6,0.2-9.4,0.2c-9.3,0-12.8-3.7-14-7.1
		c-1-2.9,0.3-3.5,1.8-2.3c2.4,2,6.6,3.9,12.4,3.9c5,0,9.5-0.3,12.4-0.7c4.2-7.9,7.1-14.4,7.1-17.1c0-2.4,8.1,0.5,8.1,9
		c0,1.4-1.1,4.2-2.9,7.8c0.8,0,1.6,0,2.4,0c10.5,0,15.3,5.6,16.5,10.2c0.8,2.9-2.1,2.6-2.1,2.6C322.6,59.8,317.3,54.8,308,54.8z
		 M350.7,108c-6.7,0-8.6-5.4-8.7-10.6c-3.9,4.8-9.8,10.6-13.5,10.6c-3.4,0-7.1-2.7-7.1-9c0-6.1,12.2-23.6,12.2-33.2
		c0-2,8.7,0.6,8.7,8.4s-18.6,30.3-12.6,30.3c1.6,0,8.4-6.6,12.7-11.8c0.4-2.4,2.9-13.9,8.8-13.9c2.1,0,3.1,1.3,2.8,3.8
		c-0.8,6-8,10.9-8,10.9s-1.4,11.2,3.4,11.2c10.2,0,19.5-35.9,19.5-46.2c0-10.4-8-12-8-12s-0.8,0.8-3.4,0.8c-2.6,0-1.4-3,2.4-3
		c3.9,0,17.8,5.8,17.8,19.7C377.6,80.4,359.6,108,350.7,108z M476.6,80.4c-1.8,2.7-20,27.6-27.6,27.6c-5.5,0-7.8-7.1-7.8-11.9
		s12.1-22.4,12.1-22.4s-27.8,25-27.8,32.9c0,3.3-7.1-0.2-7.1-5.7c0-1.3,0.7-3.3,1.9-5.9c-5.9,6.6-12.7,13-16.6,13
		c-6.3,0-7.3-5.7-7.3-9.7c0-1.7,1-4.4,2.6-8c-6.5,8-15.3,17.6-20.1,17.6c-6.4,0-7.9-6.9-7.5-11.4c0.5-6,9.1-16.3,13-26.4
		c0.6-1.6,0.2-3.7,2.2-3.7s5.8,3.3,5.2,9.8s-19.2,27.3-10.4,27.3c2.5,0,15.8-13.9,23.3-25.2c0.2-0.3,0.5-0.6,0.8-0.7
		c3.8-7,8.3-14.7,12.2-21.9c-2.9,0.2-6,0.2-9.4,0.2c-2,0-3.8-0.2-5.3-0.5c-0.9,0.9-2,2.1-3.1,4c-2.6,4.5-2.4,4.5-3.7,4.5
		c-1.9,0-5.3-3.5-4.7-9.7c0.2-3,1.3-5,2.5-6.3c-0.5-2.2,0.7-2.6,2-1.4c0,0,0,0,0,0c0.7-0.3,1.3-0.4,1.8-0.4c1.6,0,6,1.8,7.2,4.1
		c1.1,0.2,2.2,0.3,3.4,0.3c5,0,9.5-0.3,12.4-0.7c4.2-7.9,7.1-14.4,7.1-17.1c0-2.4,8.1,0.5,8.1,9c0,1.4-1.1,4.2-2.9,7.8
		c0.8,0,1.6,0,2.4,0c4.3,0,7.6,1,10.2,2.4c2.9-5.2,4.8-9.5,4.8-11.8c0-1.7,6.6,1.8,6.6,8.7c0,2.2-2,6.5-4.8,11.4
		c0.2,1.3-0.5,1.8-1.1,2c-6.3,10.7-15.4,23.3-15.4,23.3s19.9-19.1,23.3-19.1s4.6,4.8,4.6,8.8c0,4.1-20.2,28.6-12.3,28.6
		c2.5,0,15.7-13.9,23.2-25C476,76.8,478.5,77.6,476.6,80.4z M578.4,79.9c-1.4,2.2-5.9,10-18.7,12.4c0,0.2,0,0.3,0,0.6
		c-0.2,12.4-8.2,15.1-12.7,15.1c-1.9,0-8.2-1.8-8.2-7.3c0-7.1,13.1-9.7,13.1-9.7s1.8-9.9,0.3-18.3c0,0-0.1-0.4-0.1-1.2
		c-1.7,2.8-3.8,6.2-6.1,9.3c-3,4.3-20.2,27.2-27.5,27.2c-6,0-8.5-9.7-5.1-14c0,0-10,14-15.1,14c-3.6,0-7.4-2.6-6.9-9
		c0.4-5.9,15.2-24.5,15.8-32.4c0.2-1.9,7.8,1,7.3,7.7s-20.2,30.2-14.7,30.2c2.1,0,27.7-28.4,28.4-38c0.2-1.9,7.4,1.8,6.9,8.7
		s-19.6,29.5-14.5,29.5c2.4,0,15.3-13.7,23-24.7c0.1-0.2,0.2-0.4,0.3-0.5c2.9-4.2,7.9-11.8,9.3-16.7c0.5-2,1.7-6.2,3.2-5
		c1.9,1.5,7.5,5.3,7.5,10.1c0,4.5-3.6,4.5-4,21.8c7.2-1.6,12.5-5,16.7-11.3C577.7,76.2,580.2,77.1,578.4,79.9z"/>
	<path class="st0" d="M232.3,76.5c-2.9,0-14,17.6-14,17.6C229.7,87.4,235.1,76.5,232.3,76.5z"/>
</g>
</svg>
