<?xml version="1.0" encoding="utf-8"?>
<!-- Generator: Adobe Illustrator 19.2.1, SVG Export Plug-In . SVG Version: 6.00 Build 0)  -->
<svg version="1.1" id="Layer_1" xmlns="http://www.w3.org/2000/svg" xmlns:xlink="http://www.w3.org/1999/xlink" x="0px" y="0px"
	 viewBox="0 0 297.1 85" style="enable-background:new 0 0 297.1 85;" xml:space="preserve">
<style type="text/css">
	.st0{fill:url(#SVGID_1_);}
	.st1{fill:url(#SVGID_2_);}
	.st2{
		fill:none;
		stroke:url(#SVGID_3_);
		stroke-miterlimit:10;
		stroke-dasharray:50, 750;
		stroke-dashoffset: 0;
		animation: dash 5s linear infinite;
	}
	@keyframes dash {
  		to {
    	stroke-dashoffset: -800;
  		}
	}
</style>
<g>
	<linearGradient id="SVGID_1_" gradientUnits="userSpaceOnUse" x1="209.7493" y1="27.0359" x2="213.9619" y2="27.0359">
		<stop  offset="0" style="stop-color:#642B73"/>
		<stop  offset="1" style="stop-color:#C6426E"/>
	</linearGradient>
	<path class="st0" d="M209.8,26.4c0,0.5,0.1,1,0.5,1.5c0.1,0.2,0.3,0.6,0.7,0.9c0.2,0.2,0.5,0.4,0.8,0.4s0.6,0,0.8,0
		c0,0,0.1-0.1,0.1-0.1c0.1-0.2,0.4-0.4,0.6-0.7c0.1-0.4,0.3-0.9,0.3-1.3c0.1-0.4,0.2-0.9,0.3-1.3c-0.4-0.7-1.1-0.9-1.9-0.8
		c-0.2,0-0.4,0-0.6,0c-0.2,0-0.4,0-0.5,0c0-0.1-0.1-0.1-0.3,0c-0.2,0-0.3,0-0.5,0.1c-0.1,0-0.3,0.1-0.4,0.1c0,0.2,0,0.4,0,0.6
		C209.8,26,209.8,26.2,209.8,26.4z"/>
	<linearGradient id="SVGID_2_" gradientUnits="userSpaceOnUse" x1="11.8517" y1="43.3988" x2="286.1758" y2="43.3988">
		<stop  offset="0" style="stop-color:#642B73"/>
		<stop  offset="1" style="stop-color:#C6426E"/>
	</linearGradient>
	<path class="st1" d="M285.2,43.1c-0.1,0.2-0.2,0.4-0.3,0.6c-0.1,0.2-0.2,0.4-0.3,0.6c-0.1,0.2-0.2,0.5-0.4,0.6
		c-0.1,0.2-0.3,0.4-0.4,0.6c-0.1,0.2-0.3,0.5-0.4,0.7c-0.1,0.2-0.3,0.5-0.4,0.7c-0.2,0.4-0.4,0.8-0.6,1.1c-0.2,0.4-0.4,0.7-0.6,1.1
		c-0.2,0.4-0.5,0.9-0.7,1.3c-0.2,0.5-0.5,0.9-0.8,1.3c-0.6,0.8-1.1,1.5-1.4,2.3c-0.5,1-1,1.9-1.4,2.8c-0.5,0.9-1,1.8-1.5,2.8
		c-0.4,0.7-0.8,1.3-1.2,2c-0.4,0.7-0.9,1.3-1.3,2c-0.1,0.1-0.2,0.2-0.2,0.2c0,0-0.1,0.1-0.2,0.2l-0.2,0.2c-0.1-0.2-0.2-0.3-0.3-0.4
		c0-0.1,0-0.2,0-0.3c0.1-0.2,0.1-0.4,0.1-0.5c0-0.3-0.1-0.6,0-0.9c0-0.3,0.1-0.6,0.1-0.9c0.1-1.7,0.2-3.4,0.3-5.1
		c0.1-1.7,0.3-3.4,0.7-5.1c0.3-1.7,0.7-3.3,1.1-4.9c0.4-1.6,0.8-3.2,1.2-4.9c0.1-0.3,0.2-0.7,0.2-1c0-0.3,0.1-0.7,0.1-1
		c0.1-0.8,0.1-1.8,0.1-2.8c0-1.1-0.2-1.9-0.4-2.7c-0.1-0.2-0.2-0.4-0.2-0.6c0-0.2,0-0.4,0-0.6c0-0.2-0.1-0.5-0.4-0.9
		c-0.2-0.2-0.5-0.5-0.7-0.7c-0.2-0.2-0.4-0.4-0.7-0.7c-0.5-0.4-1-0.6-1.5-0.5h-1.7c-1.5-0.1-2.7,0.3-3.7,1.2c-0.5,0.4-1,1-1.6,1.7
		c-0.2,0.4-0.5,0.8-0.8,1.1c-0.3,0.4-0.5,0.7-0.8,1.1c-0.2,0.4-0.5,0.8-0.7,1.1s-0.4,0.7-0.7,1.1l-2.4,4.3c-0.2,0.4-0.4,0.7-0.5,0.9
		c-0.1,0.2-0.3,0.5-0.4,0.8c-0.1,0.3-0.2,0.6-0.3,0.8c-0.2,0.5-0.3,0.8-0.4,1c-0.1,0.2-0.2,0.4-0.3,0.5c-0.1,0.1-0.2,0.3-0.3,0.5
		c-0.3,0.5-0.6,1.1-0.8,1.6c-0.3,0.6-0.5,1.1-0.8,1.6c0,0.1-0.1,0.2-0.1,0.3c0,0.1-0.1,0.1-0.3,0.1c0-0.3-0.1-0.6-0.1-0.8
		c0-0.3,0-0.5,0-0.8c0-0.6,0-1.3,0-1.9c0-0.2,0-0.5,0-0.8c0-0.3,0.1-0.5,0.1-0.8c0-0.2,0-0.5-0.1-0.6c-0.1-0.2-0.1-0.4-0.1-0.6
		c0-0.6,0-1.1,0-1.7c0.1-0.6,0.2-1.1,0.3-1.7c0.1-0.5,0.2-0.9,0.2-1.4c0-0.5,0.1-0.9,0.1-1.5c0.1-0.4,0.1-0.8-0.1-1.1
		c-0.1-0.4-0.3-0.7-0.4-1.1c-0.1-0.4-0.2-0.9-0.2-1.3c0-0.5,0-0.9,0-1.3c-0.1-0.7-0.4-1.2-1-1.5l-0.1-0.1c0-0.1-0.1-0.3-0.1-0.5
		c0-0.2-0.1-0.3-0.1-0.5c-0.1-0.1-0.3-0.2-0.5-0.3c-0.2-0.1-0.3-0.2-0.4-0.4c0-0.1,0-0.1-0.1-0.1c-0.8-0.4-1.6-0.5-2.6-0.4
		c-0.4,0.1-0.7,0.3-0.7,0.6c-0.1,0.2-0.2,0.5-0.2,0.8c0,0.3-0.1,0.5-0.1,0.8c-0.1,0.6-0.2,1.2-0.2,1.8c0,0.6-0.1,1.2-0.1,1.8
		c-0.1,1-0.2,2-0.2,3c0,1-0.1,2-0.2,3v0.5c0,0.2,0.1,0.4,0.1,0.6c0,0.2,0,0.4,0,0.6c0,0.6,0,1.2,0,1.8c0,0.6,0,1.2,0.1,1.8v0.2
		c-0.5,0.4-1.1,0.8-1.7,1.1c-1.3,0.8-2.7,1.3-4.1,1.5c-0.2,0-0.5,0.1-0.7,0.1c-0.2,0-0.5,0-0.7,0c-0.1,0-0.2,0-0.3-0.1
		c-0.1,0-0.2-0.1-0.3-0.1c0.1-0.3,0.1-0.6,0.1-0.8c0-0.2,0-0.5,0.1-0.7c0-0.3,0.2-0.6,0.3-0.9c0.2-0.3,0.3-0.6,0.3-1
		c0-0.4,0.1-0.9,0-1.4c0-0.5-0.1-1-0.2-1.4c0-0.2-0.1-0.4-0.1-0.5c0-0.2-0.1-0.4-0.1-0.6c0-0.5-0.1-1-0.2-1.4
		c-0.1-0.4-0.3-0.9-0.6-1.4c-0.3-0.6-0.7-1-1.3-1.3c-0.6-0.3-1.1-0.6-1.6-0.9c-0.4-0.2-0.8-0.5-1.2-0.6c-0.4-0.2-0.8-0.2-1.4-0.1
		c-0.4,0.1-0.7,0.1-0.9,0.1c-0.3,0-0.6,0.2-0.8,0.4c-0.2,0.2-0.4,0.4-0.7,0.5l-0.1,0.1c-0.2,0.5-0.5,1-0.7,1.5
		c-0.2,0.5-0.4,1-0.5,1.6c-0.2,1-0.3,1.9-0.3,2.8c0.1,0.9,0.3,1.8,0.8,2.7c0.1,0.2,0.3,0.5,0.5,0.8c0.2,0.3,0.3,0.5,0.5,0.8
		c0.8,1.1,1.9,2,3.2,2.9c0.2,0.1,0.5,0.3,0.6,0.4c0.2,0.1,0.4,0.3,0.6,0.4c0,0.1-0.1,0.2-0.1,0.3c0,0.1,0,0.2-0.1,0.3
		c-0.3,0.4-0.5,0.8-0.6,1.2c0,0,0,0.1-0.1,0.1c-0.4,0.6-0.9,1.2-1.5,1.9c-0.1,0.1-0.3,0.3-0.4,0.4s-0.3,0.3-0.5,0.4
		c-0.2,0.2-0.5,0.4-0.8,0.6c-0.3,0.2-0.6,0.3-0.8,0.5c-0.5,0.4-1.1,0.7-1.7,0.9c-0.6,0.2-1.2,0.4-1.8,0.6c-0.4,0.1-0.7,0.1-1.1-0.2
		c-0.1-0.1-0.3-0.3-0.5-0.4s-0.3-0.3-0.5-0.4c-0.3-0.2-0.5-0.5-0.5-0.9c-0.1-0.5-0.2-1-0.2-1.5c0-0.5-0.1-1-0.1-1.5
		c0-0.5,0-0.9,0-1.4c0.1-0.5,0.3-0.9,0.5-1.3c0.1-0.2,0.1-0.3,0.1-0.4c0.1-0.5,0.3-1,0.5-1.5c0.2-0.5,0.4-0.9,0.5-1.5
		c0.1-0.5,0.3-1,0.4-1.5c0.1-0.5,0.3-1,0.5-1.5c0.2-0.8,0.5-1.5,0.6-2.3c0.2-0.8,0.4-1.5,0.6-2.3c0.1-0.4,0.2-0.7,0.3-1
		c0.1-0.3,0.3-0.6,0.4-0.9c0.1-0.2,0.2-0.4,0.4-0.5c0.1-0.2,0.3-0.4,0.4-0.6c0.3-0.1,0.5-0.4,0.6-0.9c0-0.1,0.2-0.2,0.4-0.4
		c0.4-0.4,0.6-0.9,0.6-1.4c-0.6-0.4-1.3-0.6-2-0.7c-0.4,0-0.8,0-1.1,0.2c-0.4,0.3-0.9,0.6-1.3,0.8c-0.4,0.2-0.8,0.5-1.2,0.8
		c-0.2,0.2-0.5,0.4-0.8,0.5c-0.3,0.2-0.5,0.4-0.8,0.6c-0.2,0.3-0.5,0.6-0.7,0.9c-0.2,0.3-0.4,0.6-0.7,0.8c-0.4,0.4-0.7,0.9-0.9,1.4
		c-0.4,0.8-0.8,1.6-1.1,2.4c-0.4,0.8-0.7,1.7-1,2.5c-0.4,1.2-0.6,2.4-0.8,3.6c0,0.7-0.1,1.3,0,1.9c0,0.5,0.1,1.1,0.2,1.6
		c-0.1,0.2-0.2,0.4-0.3,0.6c-0.2,0.3-0.4,0.6-0.5,1c-0.4,0.8-0.9,1.5-1.4,2.2c-0.5,0.7-1.1,1.4-1.7,2.1c-0.1,0.2-0.2,0.4-0.4,0.5
		c-0.1,0.1-0.3,0.3-0.4,0.4c-0.2,0.2-0.5,0.4-0.7,0.6c-0.2,0.2-0.5,0.3-0.8,0.4c-0.1,0-0.4,0.1-0.7,0.1c-0.2,0-0.3,0-0.4-0.1
		c-0.3-0.5-0.5-1-0.5-1.6c0-0.7,0-1.4-0.1-2.1c0-0.2-0.1-0.5,0-0.7c0-0.2,0.1-0.4,0.1-0.7c0-0.2,0-0.4,0-0.6s0-0.4-0.1-0.7
		c0,0,0-0.1,0-0.2c0-0.1,0-0.2,0-0.3c0-0.4,0.1-0.8,0.2-1.2c0.1-0.4,0.1-0.8,0-1.2l0.1-0.1v-0.9c0-0.5,0.1-1,0.1-1.4
		c0-0.4,0-0.8,0.1-1.3c0.1-0.4,0.1-0.7,0.1-1c0-0.3,0-0.6-0.1-1c0-0.1,0-0.3,0-0.4c0-0.1,0-0.3,0-0.4c0.1-0.5,0.2-1,0.1-1.5
		c0-0.6,0-1.2,0.1-1.8c0-0.6,0-1.2-0.1-1.9c-0.1-0.3-0.1-0.7-0.1-1c0-0.3,0-0.6-0.1-1c0-0.1,0-0.2-0.1-0.3c0-0.1-0.1-0.2-0.1-0.3
		c-0.1-0.2-0.2-0.4-0.3-0.6c-0.1-0.1-0.2-0.3-0.3-0.6c-0.1-0.2-0.4-0.4-0.7-0.6c-0.2-0.1-0.5-0.2-0.8-0.2c-0.3,0-0.5,0-0.8-0.1
		c-0.3,0-0.5,0.1-0.5,0.3c-0.1,0.5-0.3,0.9-0.4,1.3c-0.1,0.4-0.3,0.8-0.4,1.3c-0.1,0.5-0.2,1-0.3,1.5c-0.1,0.5-0.1,0.9-0.2,1.5
		c-0.1,0.5-0.2,1-0.2,1.5c0,0.5-0.1,1-0.2,1.5c-0.1,0.9-0.1,1.9-0.2,2.8c-0.2,0.4-0.4,0.7-0.6,1c-0.1,0.2-0.3,0.5-0.4,0.7
		c-0.1,0.2-0.3,0.4-0.4,0.7c0,0-0.1,0.1-0.1,0.1c0,0,0,0.1-0.1,0.2c-0.4,0.6-0.8,1.2-1.2,1.7c-0.4,0.6-0.8,1.2-1.2,1.8
		c-0.2,0.3-0.5,0.6-0.6,0.9c-0.2,0.3-0.4,0.6-0.6,0.9c-0.2,0.4-0.5,0.8-0.8,1.2c-0.3,0.4-0.5,0.8-0.8,1.2c-0.2,0.4-0.5,0.8-0.7,1.1
		c-0.2,0.4-0.5,0.7-0.7,1.1c-0.1,0-0.2,0.2-0.3,0.5c-0.7,1-1.4,2-2.1,3.1c-0.7,1-1.4,2.1-2.2,3.1c-0.2,0.3-0.5,0.6-0.7,0.9
		c-0.2,0.3-0.4,0.6-0.7,0.9c-0.2,0.2-0.3,0.3-0.5,0.4c-0.1,0.1-0.3,0.2-0.4,0.4c-0.2,0.1-0.5,0.2-0.7,0.1c-0.3-0.1-0.5-0.3-0.6-0.5
		c-0.1-0.3-0.2-0.5-0.1-0.8c0-0.2,0-0.4,0-0.5c0-0.2,0-0.3,0-0.5v-0.3c0-0.1,0-0.3,0-0.4c0-0.1,0-0.3,0-0.4v-0.7
		c0-2.2,0.1-4.3,0.2-6.4c0.1-2.1,0.2-4.3,0.3-6.4c0.1-2.1,0.2-4.3,0.2-6.4c0-2.1,0-4.3-0.2-6.4c-0.1-0.4-0.1-0.7,0.1-1v-0.4v-0.9
		c0-0.5,0.1-1,0-1.5c0-0.5,0-1,0-1.5c0-0.2,0-0.5,0-0.8c0-0.3,0-0.6,0-0.8h0.6h0.4c0.2,0,0.5,0.1,0.7,0.1s0.5,0,0.7,0
		c0.2,0,0.5,0.1,0.8,0c0.3,0,0.5-0.1,0.8-0.2l0.1-0.1c0.3,0,0.5-0.1,0.6-0.2c0.1-0.1,0.3-0.2,0.4-0.2c0.1,0,0.2-0.1,0.3-0.1
		c0.2,0.1,0.4,0.2,0.5,0.2c0.1,0,0.2-0.1,0.3-0.3c0,0,0.1,0,0.1-0.1c0.1-0.2,0.3-0.4,0.6-0.4c0.1,0,0.2,0,0.3-0.1
		c0.1,0,0.2-0.1,0.3-0.1c0.1-0.1,0.2-0.2,0.3-0.2c0.1,0,0.2-0.1,0.3-0.1c0.1,0,0.2-0.1,0.2-0.1s0.1,0,0.2-0.1
		c0.2-0.1,0.4-0.2,0.5-0.3c0.2,0,0.4-0.1,0.6-0.2h0.2c0.2-0.1,0.5-0.3,0.8-0.4c0.3-0.1,0.6-0.2,0.8-0.3c0.2-0.1,0.3-0.2,0.4-0.2
		c0.2-0.1,0.4-0.3,0.6-0.4c0.2-0.1,0.4-0.3,0.6-0.6c-0.1-0.2-0.1-0.4,0-0.5c0.1-0.1,0.1-0.3,0.1-0.6c-0.4-0.3-0.9-0.3-1.3-0.1
		c-0.1,0.1-0.3,0.2-0.5,0.2c-0.2,0-0.4,0.1-0.5,0.2c-0.7,0.2-1.3,0.5-2,0.8c-0.7,0.3-1.3,0.5-2,0.8c-0.9,0.3-1.9,0.5-3.1,0.4
		c-0.1,0-0.3,0-0.5-0.1c-0.4-0.1-0.8-0.3-1.3-0.4c-0.5-0.1-0.9-0.3-1.3-0.5c-0.5-0.2-0.7-0.5-0.7-1c0-0.1,0.1-0.2,0-0.3
		c0-0.1,0-0.2,0-0.3v-0.4c-0.1-0.3-0.2-0.7-0.2-1c0-0.3-0.1-0.7-0.1-1c0-0.1,0-0.2,0-0.4c0-0.2,0-0.3,0.1-0.4
		c0.2-0.4,0.2-0.8-0.1-1.3c0-0.1-0.1-0.2-0.1-0.3c0-0.1-0.1-0.3-0.2-0.4c-0.2-0.3-0.6-0.5-1.2-0.5l-0.1,0.1c-0.3,0.7-0.5,1.4-0.6,2
		c-0.1,0.6-0.2,1.2-0.3,1.7c-0.1,0.6-0.2,1.2-0.3,1.7c0,0.1,0,0.2,0,0.3c0,0.1-0.1,0.2-0.2,0.3c-0.2,0-0.5,0-0.8-0.1
		c-0.8,0-1.6,0-2.4,0c-0.5,0.1-1,0.1-1.5-0.1c-0.1,0-0.3-0.1-0.5-0.1c-0.2,0-0.3,0-0.5-0.1c-0.3,0-0.7-0.1-1-0.1c-0.3,0-0.6,0-1,0
		c-0.4,0-0.9-0.1-1.3-0.1c-0.5,0-0.9,0-1.3,0c-0.4,0-0.9,0.1-1.3,0.1c-0.4,0-0.8,0.2-1.3,0.4c-0.2,0.1-0.5,0.2-0.7,0.4
		s-0.5,0.3-0.7,0.4c0,0,0,0.1-0.1,0.2c-0.2,0.1-0.2,0.2,0.1,0.3c0.1,0,0.3,0,0.5,0c0.2,0,0.3,0,0.5,0c0.2,0,0.4,0,0.6,0
		c0.2,0,0.4,0,0.7,0c0.4-0.1,0.7-0.1,1-0.1c0.3,0,0.6,0.1,1,0.2c0.2,0.1,0.4,0.2,0.6,0.3c0.2,0.1,0.4,0.1,0.6,0.2c1,0,1.9,0.3,3,0.6
		c0.2,0.1,0.5,0.2,0.7,0.4c0.2,0.1,0.5,0.2,0.8,0.2c0.3,0,0.6,0.1,0.8,0.2c0.3,0.1,0.7,0.2,1,0.3c0.4,0.1,0.7,0.2,1.1,0.3
		c0.1,0.1,0.3,0.2,0.4,0.3c0.1,0.1,0.3,0.1,0.5,0.2c0,0.2-0.1,0.4-0.1,0.6s0,0.3-0.1,0.5c0,0.4-0.1,0.8-0.1,1.2
		c0,0.4-0.1,0.8-0.2,1.2c-0.2,0.8-0.3,1.7-0.4,2.5c-0.1,0.9-0.2,1.7-0.3,2.5c0,0.5-0.1,1-0.1,1.5c0,0.5-0.1,1-0.1,1.5
		c-0.1,0.7-0.3,1.5-0.4,2.2c-0.1,0.7-0.2,1.5-0.2,2.3c0,0.4,0,0.7-0.1,0.9l-0.1,1.3c-0.3,0.5-0.6,1-1,1.4c-0.4,0.6-0.9,1.1-1.4,1.6
		c0,0-0.1,0.1-0.1,0.1c0,0,0,0.1-0.1,0.1c-0.5,0.7-1,1.3-1.5,1.9c-0.5,0.6-1.1,1.2-1.6,1.7c-0.4,0.4-0.8,0.8-1.2,1.2
		c-0.4,0.4-0.8,0.8-1.2,1.2c-0.3,0.3-0.6,0.6-0.9,0.9s-0.6,0.6-0.9,0.9c-0.2,0.2-0.4,0.5-0.6,0.6c-0.2,0.2-0.4,0.4-0.6,0.5
		c-0.6,0.3-1.2,0.6-1.7,0.9s-1.2,0.4-1.8,0.5c-0.1,0-0.4,0-0.6,0.1c-0.4,0.2-0.9,0.1-1.4-0.3c-0.3-0.3-0.5-0.6-0.6-0.9
		c-0.1-0.2-0.2-0.5-0.2-0.6c0-0.2-0.1-0.4-0.1-0.6c-0.1-0.2-0.2-0.4-0.2-0.5c0-0.2-0.1-0.3-0.2-0.5c-0.2-0.4-0.2-0.9-0.1-1.5v-0.8
		c0-0.3,0-0.6-0.1-0.9c-0.1-0.3-0.1-0.6,0-0.9V52c-0.1-0.4-0.1-0.7-0.1-0.9c0-0.5,0-1,0-1.4c0-0.5,0.1-1,0.1-1.5
		c0-0.1,0-0.2,0.1-0.3c0.1-0.4,0.2-0.8,0.3-1.1c0.1-0.4,0.1-0.7,0.2-1.1c0.1-0.7,0.3-1.4,0.5-2.1c0-0.1,0.1-0.2,0.1-0.4
		c0-0.1,0.1-0.3,0.1-0.4c0-0.3,0.1-0.7,0.2-1c0.1-0.3,0.2-0.6,0.3-0.9c0.1-0.5,0.3-0.9,0.4-1.4c0.1-0.5,0.2-0.9,0.3-1.4
		c0-0.1,0-0.3,0.1-0.5c0.1-0.4,0.2-0.7,0.4-1c0.1-0.3,0.3-0.7,0.4-1c0.2-0.7,0.5-1.3,1-1.9c0.6-0.7,1-1.4,1.3-2.2
		c0.1-0.2,0.2-0.4,0.4-0.5c0.2-0.1,0.4-0.3,0.5-0.4c0.2-0.1,0.3-0.3,0.5-0.4c0.2-0.1,0.4-0.1,0.7,0c0.2,0.1,0.4,0.2,0.6,0.3
		c0.2,0.1,0.4,0.2,0.6,0.3c0.2,0.1,0.4,0.2,0.6,0.3c0.1,0.1,0.3,0.2,0.4,0.3c0.2,0.2,0.4,0.5,0.4,0.7c0,0.3,0.1,0.6,0.1,0.8
		c0,0.3,0,0.5-0.1,0.8c-0.1,0.2-0.1,0.5-0.1,0.7c0,0.2,0,0.5-0.1,0.7c0,0.1,0,0.3,0.2,0.4c0.2,0.1,0.6,0.1,1,0
		c0.4-0.1,0.7-0.3,0.9-0.6c0.1-0.3,0.3-0.6,0.4-0.9c0.1-0.3,0.2-0.7,0.2-1c-0.1-0.1-0.1-0.3,0-0.4c0-0.3,0-0.6,0-0.8
		c-0.1-0.2-0.2-0.5-0.3-0.7c0-0.1-0.1-0.3-0.1-0.4c0-0.1-0.1-0.3-0.1-0.4c0-0.3-0.1-0.5-0.4-0.6c-0.1-0.1-0.2-0.2-0.3-0.3
		c-0.1-0.1-0.2-0.1-0.3-0.2c-0.7-0.3-1.3-0.6-2-0.8c-0.7-0.2-1.4-0.2-2.2-0.1c-0.4,0-0.7,0-0.9,0.1c-0.2,0-0.5,0.1-0.8,0.1
		c-0.3,0-0.6,0.1-0.8,0.1c-0.3,0.1-0.6,0.2-0.8,0.2c-0.3,0-0.5,0.1-0.8,0.2c-0.5,0.2-0.9,0.4-1.4,0.6c-0.4,0.2-0.9,0.4-1.4,0.6
		c-0.4,0.2-0.7,0.5-1,0.8c-0.3,0.3-0.6,0.6-0.8,1c0,0,0,0.2-0.1,0.4c-0.2,0.3-0.4,0.6-0.5,0.9c-0.2,0.3-0.3,0.6-0.5,1
		c-0.2,0.4-0.4,0.8-0.6,1.2c-0.2,0.4-0.4,0.9-0.6,1.3c-0.2,0.4-0.3,0.8-0.5,1.2c-0.1,0.4-0.2,0.8-0.3,1.2c0,0.1-0.1,0.2-0.1,0.2
		c0,0,0,0.1-0.1,0.2c-0.1,0.9-0.3,1.7-0.5,2.5c-0.2,0.8-0.4,1.7-0.5,2.5c-0.1,0.5-0.1,0.9-0.2,1.4c-0.1,0.2-0.2,0.3-0.3,0.5
		c0,0.1-0.2,0.4-0.4,0.6c-0.5,0.7-0.9,1.5-1.4,2.2c-0.4,0.8-0.9,1.5-1.5,2.2c-0.1,0.1-0.2,0.2-0.3,0.3c-0.1,0.1-0.2,0.3-0.3,0.4
		c-0.3,0.7-0.7,1.3-1.1,1.8c-0.4,0.6-0.8,1.1-1.3,1.7c-0.3,0.3-0.6,0.6-0.9,0.9c-0.4,0.3-0.8,0.6-1.2,0.9c-0.4,0.3-0.8,0.6-1.3,0.9
		c-0.5,0.4-1.1,0.7-1.9,0.9c-0.4,0.1-0.7,0.1-0.9-0.1c-0.6-0.2-1.1-0.6-1.4-1.1c-0.6-0.8-0.9-1.7-1-2.8c-0.1-1.1,0-2.2,0.1-3.3
		c0.1-1.2,0.3-2.3,0.4-3.5c0.2-1.2,0.3-2.2,0.3-3.1c0-0.1,0-0.3,0-0.4c0-0.1,0.1-0.3,0.1-0.5c0.1-0.5,0.3-0.8,0.4-0.9
		c0.1-0.1,0.5-0.2,1.2-0.3c0.4-0.1,0.8-0.2,1.2-0.4c0.4-0.1,0.8-0.3,1.3-0.4c0.2-0.1,0.4-0.2,0.6-0.3c0.2-0.1,0.3-0.2,0.5-0.3
		c0.1,0,0.3-0.1,0.4-0.2c0.1-0.2,0.3-0.3,0.5-0.5c0.2-0.1,0.4-0.2,0.6-0.3c0.6-0.5,1.2-1.3,1.7-2.4c0.5-1.1,0.8-2.3,0.9-3.5
		c0.1-1.2,0-2.3-0.4-3.2c-0.4-0.9-1.2-1.4-2.3-1.4c-0.1,0-0.2,0-0.2,0c0,0-0.1,0-0.2,0c-0.5-0.1-0.9-0.1-1.2-0.1
		c-0.4-0.1-0.8-0.1-1.2,0c-0.4,0.1-0.8,0.2-1.2,0.3c-0.7,0.1-1.3,0.3-1.9,0.5c-0.6,0.2-1.2,0.5-1.9,0.9c-0.2,0.1-0.4,0.2-0.5,0.4
		c-0.4,0.4-0.7,0.8-1.1,1.2c-0.3,0.4-0.6,0.9-0.7,1.4c0,0,0,0.1,0,0.1c0,0,0,0.1,0,0.1c-0.1,0.2-0.2,0.5-0.3,0.7
		c-0.1,0.2-0.3,0.5-0.5,0.7c0,0.1-0.1,0.2-0.1,0.3c0,0.1-0.1,0.2-0.1,0.3c-0.3,0.7-0.6,1.4-0.8,2.1c-0.3,0.7-0.5,1.4-0.7,2.2
		c-0.1,0.6-0.2,1.2-0.3,1.8s-0.3,1.2-0.4,1.7c0,0.1-0.1,0.3-0.1,0.4c0,0.1,0,0.3,0,0.4c0,0.6-0.1,1.2-0.1,1.8c0,0.3-0.1,0.6-0.1,0.9
		c-0.2,0.3-0.3,0.6-0.5,1c-0.2,0.4-0.5,0.9-0.7,1.3c-0.2,0.5-0.5,0.9-0.8,1.3c-0.6,0.8-1.1,1.5-1.4,2.3c-0.5,1-1,1.9-1.4,2.8
		c-0.5,0.9-1,1.8-1.5,2.8c-0.4,0.7-0.8,1.3-1.2,2c-0.4,0.7-0.9,1.3-1.3,2c-0.1,0.1-0.2,0.2-0.2,0.2c0,0-0.1,0.1-0.2,0.2l-0.2,0.2
		c-0.1-0.2-0.2-0.3-0.3-0.4c0-0.1,0-0.2,0-0.3c0.1-0.2,0.1-0.4,0.1-0.5c0-0.3-0.1-0.6,0-0.9c0-0.3,0.1-0.6,0.1-0.9
		c0.1-1.7,0.2-3.4,0.3-5.1c0.1-1.7,0.3-3.4,0.7-5.1c0.3-1.7,0.7-3.3,1.1-4.9c0.4-1.6,0.8-3.2,1.2-4.9c0.1-0.3,0.2-0.7,0.2-1
		c0-0.3,0.1-0.7,0.1-1c0.1-0.8,0.1-1.8,0.1-2.8c0-1.1-0.2-1.9-0.4-2.7c-0.1-0.2-0.2-0.4-0.2-0.6c0-0.2,0-0.4,0-0.6
		c0-0.2-0.1-0.5-0.4-0.9c-0.2-0.2-0.5-0.5-0.7-0.7c-0.2-0.2-0.4-0.4-0.7-0.7c-0.5-0.4-1-0.6-1.5-0.5h-1.7c-1.5-0.1-2.7,0.3-3.7,1.2
		c-0.5,0.4-1,1-1.6,1.7c-0.2,0.4-0.5,0.8-0.8,1.1c-0.3,0.4-0.5,0.7-0.8,1.1c-0.2,0.4-0.5,0.8-0.7,1.1s-0.4,0.7-0.7,1.1l-2.4,4.3
		c-0.2,0.4-0.4,0.7-0.5,0.9c-0.1,0.2-0.3,0.5-0.4,0.8c-0.1,0.3-0.2,0.6-0.3,0.8c-0.2,0.5-0.3,0.8-0.4,1c-0.1,0.2-0.2,0.4-0.3,0.5
		c-0.1,0.1-0.2,0.3-0.3,0.5c-0.3,0.5-0.6,1.1-0.8,1.6c-0.3,0.6-0.5,1.1-0.8,1.6c0,0.1-0.1,0.2-0.1,0.3c0,0.1-0.1,0.1-0.3,0.1
		c0-0.3-0.1-0.6-0.1-0.8c0-0.3,0-0.5,0-0.8c0-0.6,0-1.3,0-1.9c0-0.2,0-0.5,0-0.8c0-0.3,0.1-0.5,0.1-0.8c0-0.2,0-0.5-0.1-0.6
		c-0.1-0.2-0.1-0.4-0.1-0.6c0-0.6,0-1.1,0-1.7c0.1-0.6,0.2-1.1,0.3-1.7c0.1-0.5,0.2-0.9,0.2-1.4c0-0.5,0.1-0.9,0.1-1.5
		c0.1-0.4,0.1-0.8-0.1-1.1c-0.1-0.4-0.3-0.7-0.4-1.1c-0.1-0.4-0.2-0.9-0.2-1.3c0-0.5,0-0.9,0-1.3c-0.1-0.7-0.4-1.2-1-1.5l-0.1-0.1
		c0-0.1-0.1-0.3-0.1-0.5c0-0.2-0.1-0.3-0.1-0.5c-0.1-0.1-0.3-0.2-0.5-0.3c-0.2-0.1-0.3-0.2-0.4-0.4c0-0.1,0-0.1-0.1-0.1
		c-0.8-0.4-1.6-0.5-2.6-0.4c-0.4,0.1-0.7,0.3-0.7,0.6c-0.1,0.2-0.2,0.5-0.2,0.8c0,0.3-0.1,0.5-0.1,0.8c-0.1,0.6-0.2,1.2-0.2,1.8
		c0,0.6-0.1,1.2-0.1,1.8c-0.1,1-0.2,2-0.2,3c0,1-0.1,2-0.2,3v0.5c0,0.2,0.1,0.4,0.1,0.6c0,0.2,0,0.4,0,0.6c0,0.6,0,1.2,0,1.8
		c0,0.6,0,1.2,0.1,1.8V47c0,0.4,0,0.9,0,1.3c0,0,0,0,0,0c-0.1,0.3-0.3,0.6-0.5,0.9c-0.2,0.4-0.5,0.9-0.7,1.3
		c-0.2,0.5-0.5,0.9-0.8,1.3c-0.6,0.8-1.1,1.5-1.4,2.3c-0.5,1-1,1.9-1.4,2.8c-0.5,0.9-1,1.8-1.5,2.8c-0.4,0.7-0.8,1.3-1.2,2
		c-0.4,0.7-0.9,1.3-1.3,2C99.1,63.9,99,64,99,64c0,0-0.1,0.1-0.2,0.2l-0.2,0.2c-0.1-0.2-0.2-0.3-0.3-0.4c0-0.1,0-0.2,0-0.3
		c0.1-0.2,0.1-0.4,0.1-0.5c0-0.3-0.1-0.6,0-0.9c0-0.3,0.1-0.6,0.1-0.9c0.1-1.7,0.2-3.4,0.3-5.1c0.1-1.7,0.3-3.4,0.7-5.1
		c0.3-1.7,0.7-3.3,1.1-4.9c0.4-1.6,0.8-3.2,1.2-4.9c0.1-0.3,0.2-0.7,0.2-1c0-0.3,0.1-0.7,0.1-1c0.1-0.8,0.1-1.8,0.1-2.8
		c0-1.1-0.2-1.9-0.4-2.7c-0.1-0.2-0.2-0.4-0.2-0.6c0-0.2,0-0.4,0-0.6c0-0.2-0.1-0.5-0.4-0.9c-0.2-0.2-0.5-0.5-0.7-0.7
		c-0.2-0.2-0.4-0.4-0.7-0.7c-0.5-0.4-1-0.6-1.5-0.5h-1.7c-1.5-0.1-2.7,0.3-3.7,1.2c-0.5,0.4-1,1-1.6,1.7c-0.2,0.4-0.5,0.8-0.8,1.1
		c-0.3,0.4-0.5,0.7-0.8,1.1c-0.2,0.4-0.5,0.8-0.7,1.1s-0.4,0.7-0.7,1.1l-2.4,4.3c-0.2,0.4-0.4,0.7-0.5,0.9c-0.1,0.2-0.3,0.5-0.4,0.8
		c-0.1,0.3-0.2,0.6-0.3,0.8c-0.2,0.5-0.3,0.8-0.4,1c-0.1,0.2-0.2,0.4-0.3,0.5c-0.1,0.1-0.2,0.3-0.3,0.5c-0.3,0.5-0.6,1.1-0.8,1.6
		c-0.3,0.6-0.5,1.1-0.8,1.6c0,0.1-0.1,0.2-0.1,0.3c0,0.1-0.1,0.1-0.3,0.1c0-0.3-0.1-0.6-0.1-0.8c0-0.3,0-0.5,0-0.8
		c0-0.6,0-1.3,0-1.9c0-0.2,0-0.5,0-0.8c0-0.3,0.1-0.5,0.1-0.8c0-0.2,0-0.5-0.1-0.6c-0.1-0.2-0.1-0.4-0.1-0.6c0-0.6,0-1.1,0-1.7
		c0.1-0.6,0.2-1.1,0.3-1.7c0.1-0.5,0.2-0.9,0.2-1.4c0-0.5,0.1-0.9,0.1-1.5c0.1-0.4,0.1-0.8-0.1-1.1c-0.1-0.4-0.3-0.7-0.4-1.1
		c-0.1-0.4-0.2-0.9-0.2-1.3c0-0.5,0-0.9,0-1.3c-0.1-0.7-0.4-1.2-1-1.5l-0.1-0.1c0-0.1-0.1-0.3-0.1-0.5c0-0.2-0.1-0.3-0.1-0.5
		c-0.1-0.1-0.3-0.2-0.5-0.3c-0.2-0.1-0.3-0.2-0.4-0.4c0-0.1,0-0.1-0.1-0.1c-0.8-0.4-1.6-0.5-2.6-0.4c-0.4,0.1-0.7,0.3-0.7,0.6
		c-0.1,0.2-0.2,0.5-0.2,0.8c0,0.3-0.1,0.5-0.1,0.8c-0.1,0.6-0.2,1.2-0.2,1.8c0,0.6-0.1,1.2-0.1,1.8c-0.1,1-0.2,2-0.2,3
		c0,1-0.1,2-0.2,3v0.5c0,0.2,0.1,0.4,0.1,0.6c0,0.2,0,0.4,0,0.6c0,0.6,0,1.2,0,1.8c0,0.6,0,1.2,0.1,1.8v0.2
		c-0.5,0.4-1.1,0.8-1.7,1.1c-1.3,0.8-2.7,1.3-4.1,1.5c-0.2,0-0.5,0.1-0.7,0.1c-0.2,0-0.5,0-0.7,0c-0.1,0-0.2,0-0.3-0.1
		c-0.1,0-0.2-0.1-0.3-0.1c0.1-0.3,0.1-0.6,0.1-0.8c0-0.2,0-0.5,0.1-0.7c0-0.3,0.2-0.6,0.3-0.9c0.2-0.3,0.3-0.6,0.3-1
		c0-0.4,0.1-0.9,0-1.4c0-0.5-0.1-1-0.2-1.4c0-0.2-0.1-0.4-0.1-0.5c0-0.2-0.1-0.4-0.1-0.6c0-0.5-0.1-1-0.2-1.4
		c-0.1-0.4-0.3-0.9-0.6-1.4c-0.3-0.6-0.7-1-1.3-1.3c-0.6-0.3-1.1-0.6-1.6-0.9c-0.4-0.2-0.8-0.5-1.2-0.6c-0.4-0.2-0.8-0.2-1.4-0.1
		c-0.4,0.1-0.7,0.1-0.9,0.1c-0.3,0-0.6,0.2-0.8,0.4c-0.2,0.2-0.4,0.4-0.7,0.5l-0.1,0.1c-0.2,0.5-0.5,1-0.7,1.5
		c-0.2,0.5-0.4,1-0.5,1.6c-0.2,1-0.3,1.9-0.3,2.8c0.1,0.9,0.3,1.8,0.8,2.7c0.1,0.2,0.3,0.5,0.5,0.8c0.2,0.3,0.3,0.5,0.5,0.8
		c0.8,1.1,1.9,2,3.2,2.9c0.2,0.1,0.5,0.3,0.6,0.4c0.2,0.1,0.4,0.3,0.6,0.4c0,0.1-0.1,0.2-0.1,0.3c0,0.1,0,0.2-0.1,0.3
		c-0.3,0.4-0.5,0.8-0.6,1.2c0,0,0,0.1-0.1,0.1c-0.4,0.6-0.9,1.2-1.5,1.9c-0.1,0.1-0.3,0.3-0.4,0.4s-0.3,0.3-0.5,0.4
		c-0.2,0.2-0.5,0.4-0.8,0.6c-0.3,0.2-0.6,0.3-0.8,0.5c-0.5,0.4-1.1,0.7-1.7,0.9c-0.6,0.2-1.2,0.4-1.8,0.6c-0.4,0.1-0.7,0.1-1.1-0.2
		c-0.1-0.1-0.3-0.3-0.5-0.4s-0.3-0.3-0.5-0.4c-0.3-0.2-0.5-0.5-0.5-0.9c-0.1-0.5-0.2-1-0.2-1.5c0-0.5-0.1-1-0.1-1.5
		c0-0.5,0-0.9,0-1.4c0.1-0.5,0.3-0.9,0.5-1.3c0.1-0.2,0.1-0.3,0.1-0.4c0.1-0.5,0.3-1,0.5-1.5c0.2-0.5,0.4-0.9,0.5-1.5
		c0.1-0.5,0.3-1,0.4-1.5c0.1-0.5,0.3-1,0.5-1.5c0.2-0.8,0.5-1.5,0.6-2.3c0.2-0.8,0.4-1.5,0.6-2.3c0.1-0.4,0.2-0.7,0.3-1
		c0.1-0.3,0.3-0.6,0.4-0.9c0.1-0.2,0.2-0.4,0.4-0.5c0.1-0.2,0.3-0.4,0.4-0.6c0.3-0.1,0.5-0.4,0.6-0.9c0-0.1,0.2-0.2,0.4-0.4
		c0.4-0.4,0.6-0.9,0.6-1.4c-0.6-0.4-1.3-0.6-2-0.7c-0.4,0-0.8,0-1.1,0.2c-0.4,0.3-0.9,0.6-1.3,0.8c-0.4,0.2-0.8,0.5-1.2,0.8
		c-0.2,0.2-0.5,0.4-0.8,0.5c-0.3,0.2-0.5,0.4-0.8,0.6c-0.2,0.3-0.5,0.6-0.7,0.9c-0.2,0.3-0.4,0.6-0.7,0.8c-0.4,0.4-0.7,0.9-0.9,1.4
		c-0.4,0.8-0.8,1.6-1.1,2.4c-0.4,0.8-0.7,1.7-1,2.5c-0.4,1.2-0.6,2.4-0.8,3.6c0,0.7-0.1,1.3,0,1.9c0,0.1,0,0.2,0,0.3
		c-0.4,0.6-0.8,1.3-1.1,1.9c-0.7,1.2-1.4,2.3-2.2,3.3c-0.8,1-1.7,2-2.7,3c-1,1.1-2,2.2-3,3.2c-1,1.1-2.1,2.1-3.2,3
		c-0.8,0.6-1.5,1.3-2.2,1.9s-1.6,1.2-2.5,1.5c-2,0.9-4.2,1.2-6.6,0.8c-0.9-0.2-1.6-0.6-2.1-1.3c-0.5-0.7-0.8-1.5-0.8-2.4
		c0-1.1,0-2.2-0.1-3.2c-0.1-1.1-0.1-2.1,0-3.2c0.1-0.8,0.2-1.5,0.3-2.3c0.1-0.8,0.2-1.6,0.3-2.3c0.3-2.1,0.8-4.2,1.4-6.1
		c0.6-2,1.1-4,1.7-6c0.2-1,0.5-1.9,0.9-2.8c0.3-0.9,0.7-1.9,1.1-2.8c0.4-1,0.8-1.9,1.2-2.9c0.4-1,0.8-2,1.2-2.9
		c0.5-1.3,1.1-2.7,1.8-3.9c0.6-1.3,1.3-2.5,2-3.8c0.3-0.6,0.7-1.2,1-1.8c0.3-0.6,0.8-1.1,1.3-1.6c0.3-0.3,0.8-0.6,1.3-0.9
		c0.6-0.3,1.1-0.5,1.7-0.6c0.6-0.1,1.1,0,1.6,0.1c0.5,0.2,0.8,0.6,0.9,1.3c0.1,0.6,0.3,1.2,0.3,1.9c0.1,0.6,0.1,1.3,0,1.9
		c-0.1,1-0.3,1.9-0.5,2.9c-0.2,1-0.5,1.8-0.9,2.7l0.5,1c0.1,0.2,0.2,0.4,0.4,0.4c0.2,0.1,0.5,0.2,0.6,0.2c0.2,0,0.4,0.1,0.5,0.1
		c0.5-0.6,0.9-1.2,1.2-1.7c0.1-0.1,0.2-0.2,0.2-0.4s0.1-0.3,0.2-0.4c0.4-0.7,0.7-1.4,0.9-2.1c0.1-0.7,0.3-1.4,0.5-2.1
		c0.1-0.4,0.2-0.7,0.2-1c0-0.3,0.1-0.6,0.1-1c0-0.4,0-0.7,0-1.1c0-0.3-0.1-0.7-0.1-1.1c0-0.3-0.1-0.7-0.1-1c0-0.3-0.1-0.7-0.2-1.1
		c-0.2-0.8-0.6-1.5-1.1-2.1c-0.5-0.6-1.2-0.9-2.2-1C39.4,13,38,13,36.5,13.3c-1.5,0.3-2.8,0.6-4.1,1c-2.6,0.7-4.9,2-6.8,3.7
		c-2.3,2.1-4,4.4-5.2,6.9c-1.2,2.6-2.3,5.2-3.3,8c-0.5,1.5-1,3-1.3,4.4c-0.4,1.4-0.7,2.9-1.1,4.5c-0.5,2-0.9,3.9-1.4,5.9
		c-0.4,1.9-0.8,3.9-1,5.9c-0.2,2-0.4,4-0.4,5.9c0,2,0.1,4,0.4,6c0.2,1.3,0.6,2.5,1.1,3.6s1.3,2.1,2.4,2.9c0.9,0.8,1.9,1.2,2.9,1.4
		c2.1,0.3,4.1,0.1,6.1-0.6c4-1.6,7.7-3.9,11-6.7c3.4-2.8,6.4-5.8,9.2-9c1.1-1.3,2.1-2.8,2.9-4.3c0.1,0.3,0.2,0.6,0.4,1
		c0.5,1,1.2,1.8,2.2,2.7c0.9,0.8,1.8,1.5,2.8,2c0.5,0.2,1,0.5,1.5,0.8c0.5,0.3,1.1,0.4,1.6,0.5c0.5,0,1-0.1,1.4-0.3s0.9-0.5,1.3-0.8
		c0.3-0.2,0.6-0.5,0.9-0.7c0.3-0.2,0.6-0.5,0.9-0.7c0.3-0.2,0.6-0.4,0.8-0.8c0.2-0.3,0.5-0.6,0.7-0.9c0.3-0.4,0.6-0.8,1.1-1.2
		c0.4-0.3,0.8-0.8,1-1.3c0.1-0.4,0.3-0.7,0.4-1.1c0.1-0.3,0.3-0.7,0.5-1c0.2-0.5,0.4-0.7,0.7-0.8c0.2,0,0.5-0.1,0.8-0.2
		c0.3-0.1,0.5-0.1,0.8,0c0.6,0.1,1.2,0.1,1.7,0c0.5-0.1,1.1-0.3,1.7-0.5c0.7-0.2,1.3-0.5,1.9-0.9c0.6-0.4,1.2-0.7,1.9-0.9
		c0.1,0,0.1-0.1,0.2-0.1c0,0.2,0,0.4,0,0.6c0,0.4,0,0.8,0.1,1.2c0,0.1,0.1,0.4,0.1,0.6c0,0.6,0,1.2,0,1.8c0,0.6,0,1.2,0.1,1.8
		c0,0.1,0.1,0.2,0,0.3c0,0.1,0,0.2,0,0.3c0,0.1,0.1,0.4,0.1,0.7c0,0.4,0,0.7,0,1c0,0.3,0.1,0.7,0.1,1c0,0.1,0.1,0.3,0.1,0.4
		c0,0.1,0,0.3,0.1,0.4c0.2,0.4,0.4,0.7,0.6,0.7c0.4,0.1,0.7,0.2,1.1,0.2c0.3,0,0.7,0,1.1-0.2c0.2-0.1,0.5-0.2,0.7-0.3
		s0.5-0.2,0.8-0.1c0,0,0.1-0.1,0.3-0.2c0.3-0.2,0.6-0.2,0.9-0.1c0.3,0,0.5,0,0.6-0.3c0.1-0.3,0.3-0.6,0.4-0.8
		c0.1-0.3,0.3-0.5,0.4-0.8c0.1-0.2,0.1-0.3,0.1-0.4c-0.1-0.2-0.1-0.5,0-0.6c0.1-0.2,0.2-0.4,0.3-0.6c0.1-0.2,0.2-0.4,0.3-0.6
		c0.1-0.2,0.2-0.4,0.2-0.6c0.1-0.3,0.2-0.7,0.3-1c0.1-0.3,0.2-0.6,0.5-0.8c0,0,0.1,0,0.1-0.1c0.2-0.6,0.5-1.2,0.9-1.8
		c0.3-0.6,0.6-1.2,0.9-1.8c0.3-0.7,0.7-1.3,1-2s0.7-1.3,1.2-1.9c0.5-0.7,1-1.3,1.4-1.9c0.5-0.6,0.9-1.3,1.4-1.9
		c0.3-0.5,0.7-1.1,1-1.8c0.3-0.6,0.8-1.1,1.3-1.5c0.1-0.1,0.2-0.2,0.2-0.3c0-0.1,0.1-0.2,0.2-0.3c0.1-0.1,0.2-0.2,0.2-0.4
		c0-0.1,0.1-0.3,0.2-0.4c0.1-0.2,0.2-0.3,0.3-0.4c0.2-0.2,0.6-0.4,0.9-0.5V35c0,0.7,0,1.3-0.1,1.9c-0.1,0.6-0.2,1.2-0.3,1.9
		c-0.1,0.5-0.2,1.1-0.3,1.6c-0.1,0.6-0.2,1.1-0.3,1.6c-0.1,0.7-0.2,1.4-0.3,2.1c-0.1,0.7-0.2,1.4-0.3,2.1c-0.1,0.5-0.2,1.1-0.3,1.6
		c-0.1,0.6-0.2,1.1-0.3,1.6c-0.6,2.7-0.9,5.4-1.1,8v1.9c0,1.6,0.1,3.2,0.4,4.8c0,0.3,0.1,0.6,0.3,0.9c0.1,0.3,0.2,0.6,0.3,0.9
		c0.4,0.9,1,1.4,1.8,1.6c1.3,0.2,2.6,0,3.8-0.7c1.2-0.7,2.3-1.5,3.1-2.5c0.8-1,1.5-2.1,2.1-3.2c0.6-1.1,1.1-2.2,1.7-3.3
		c0.5-1,1-1.9,1.5-3c0.4-0.8,0.8-1.7,1.3-2.5c0,0.5,0.1,1,0.1,1.5c0,0.1,0.1,0.2,0,0.3c0,0.1,0,0.2,0,0.3c0,0.1,0.1,0.4,0.1,0.7
		c0,0.4,0,0.7,0,1c0,0.3,0.1,0.7,0.1,1c0,0.1,0.1,0.3,0.1,0.4c0,0.1,0,0.3,0.1,0.4c0.2,0.4,0.4,0.7,0.6,0.7c0.4,0.1,0.7,0.2,1.1,0.2
		c0.3,0,0.7,0,1.1-0.2c0.2-0.1,0.5-0.2,0.7-0.3s0.5-0.2,0.8-0.1c0,0,0.1-0.1,0.3-0.2c0.3-0.2,0.6-0.2,0.9-0.1c0.3,0,0.5,0,0.6-0.3
		c0.1-0.3,0.3-0.6,0.4-0.8c0.1-0.3,0.3-0.5,0.4-0.8c0.1-0.2,0.1-0.3,0.1-0.4c-0.1-0.2-0.1-0.5,0-0.6c0.1-0.2,0.2-0.4,0.3-0.6
		c0.1-0.2,0.2-0.4,0.3-0.6c0.1-0.2,0.2-0.4,0.2-0.6c0.1-0.3,0.2-0.7,0.3-1c0.1-0.3,0.2-0.6,0.5-0.8c0,0,0.1,0,0.1-0.1
		c0.2-0.6,0.5-1.2,0.9-1.8c0.3-0.6,0.6-1.2,0.9-1.8c0.3-0.7,0.7-1.3,1-2s0.7-1.3,1.2-1.9c0.5-0.7,1-1.3,1.4-1.9
		c0.5-0.6,0.9-1.3,1.4-1.9c0.3-0.5,0.7-1.1,1-1.8c0.3-0.6,0.8-1.1,1.3-1.5c0.1-0.1,0.2-0.2,0.2-0.3c0-0.1,0.1-0.2,0.2-0.3
		c0.1-0.1,0.2-0.2,0.2-0.4c0-0.1,0.1-0.3,0.2-0.4c0.1-0.2,0.2-0.3,0.3-0.4c0.2-0.2,0.6-0.4,0.9-0.5V35c0,0.7,0,1.3-0.1,1.9
		c-0.1,0.6-0.2,1.2-0.3,1.9c-0.1,0.5-0.2,1.1-0.3,1.6c-0.1,0.6-0.2,1.1-0.3,1.6c-0.1,0.7-0.2,1.4-0.3,2.1c-0.1,0.7-0.2,1.4-0.3,2.1
		c-0.1,0.5-0.2,1.1-0.3,1.6c-0.1,0.6-0.2,1.1-0.3,1.6c-0.6,2.7-0.9,5.4-1.1,8v1.9c0,1.6,0.1,3.2,0.4,4.8c0,0.3,0.1,0.6,0.3,0.9
		c0.1,0.3,0.2,0.6,0.3,0.9c0.4,0.9,1,1.4,1.8,1.6c1.3,0.2,2.6,0,3.8-0.7c1.2-0.7,2.3-1.5,3.1-2.5c0.8-1,1.5-2.1,2.1-3.2
		c0.6-1.1,1.1-2.2,1.7-3.3c0.5-1,1-1.9,1.5-3c0.3-0.6,0.6-1.2,0.9-1.8c0,0.5,0,1,0,1.6c0.1,1.7,0.6,3.2,1.4,4.5
		c0.3,0.4,0.7,0.8,1.1,1.1c0.4,0.3,0.8,0.6,1.2,0.9l0.3,0.1c0.5,0.1,1.1,0.3,1.6,0.5s1.1,0.3,1.6,0.3c0.8,0,1.5,0,2.2-0.3
		c0.7-0.2,1.3-0.5,1.9-0.9c0.6-0.4,1.2-0.8,1.8-1.2c0.6-0.5,1.2-0.9,1.7-1.3c0.7-0.5,1.4-1.1,1.9-1.8c0.6-0.6,1.1-1.3,1.5-2.1
		c0.5-0.7,0.9-1.4,1.3-2.2c0.4-0.7,0.9-1.4,1.4-2.1c0.2-0.3,0.4-0.6,0.5-0.9c0,0,0,0.1,0,0.1c0,0.4,0,0.9,0.1,1.3c0,0.5,0,1.1,0,1.7
		c0,0.6,0,1.2,0.1,1.7c0,0.6,0.1,1.1,0.2,1.6c0.1,0.2,0.2,0.4,0.2,0.5c0,0.1,0.1,0.3,0.2,0.5c0.2,0.6,0.4,1.1,0.6,1.7
		c0.2,0.5,0.6,1,1.1,1.4c0,0,0.2,0.2,0.4,0.5c0.6,0.6,1.2,1,1.9,1.4c0.2,0,0.5,0.2,0.9,0.4c0.2,0.1,0.6,0.1,1.1,0.1
		c0.7-0.1,1.3-0.2,1.9-0.4c0.6-0.2,1.2-0.3,1.9-0.5c0.8-0.2,1.6-0.6,2.3-0.9c0.7-0.4,1.4-0.8,2.1-1.2c0.6-0.3,1.1-0.7,1.5-1.2
		c0.4-0.5,0.8-0.9,1.2-1.5l0.6-0.9c0.4-0.5,0.9-0.9,1.4-1.3c0.5-0.4,0.9-0.9,1.3-1.4l0.1-0.1c0.2-0.2,0.5-0.5,0.6-0.8
		c0.2-0.3,0.4-0.5,0.7-0.7c0.1-0.1,0.2-0.2,0.2-0.3c0.1-0.2,0.3-0.5,0.4-0.6c0.1-0.2,0.3-0.4,0.4-0.6c0.1-0.1,0.2-0.3,0.3-0.4
		c0.1-0.1,0.2-0.3,0.1-0.5c0.1-0.1,0.2-0.2,0.3-0.4l0,0.2c0,0.3,0,0.6,0,0.9c0,0.3,0,0.6,0,0.9c0,0.2,0,0.4,0,0.6s0,0.3-0.1,0.6
		c0,0.4,0,0.8,0,1.2c0,0.4,0,0.8,0,1.2V56v1.1c0,0.3,0,0.7,0,1s0.1,0.6,0.1,1c0,0.2,0.1,0.4,0.1,0.7c0,0.2,0.1,0.5,0.1,0.7
		c0,0.2,0.1,0.4,0.1,0.7c0,0.5,0.1,1,0.2,1.5c0.1,0.5,0.2,1,0.5,1.5c0.6,1.7,1.7,2.7,3.3,3c0.5,0.1,1,0.2,1.5,0.3c0.5,0,1,0,1.4,0
		c0.3,0,0.6-0.1,0.9-0.3c0,0,0.1,0,0.1-0.1c0,0,0.1-0.1,0.2-0.1c0.5-0.1,0.9-0.5,1.3-1c0.5-0.5,1.1-1,1.7-1.4c0.6-0.4,1.1-1,1.5-1.7
		c0.4-0.7,0.8-1.3,1.2-2c0.3-0.7,0.7-1.3,1.1-2c0.7-1.5,1.4-2.9,2.3-4.2c0.9-1.3,1.8-2.7,2.7-4c0.5-0.8,1-1.7,1.4-2.5
		c0.2-0.3,0.3-0.6,0.5-0.9c0,0.6,0,1.2,0,1.8c0,0.6,0,1.2,0,1.8c0,0.5,0,1.1,0,1.6c0,0.5,0,1.1,0.1,1.6c0.1,0.5,0.2,1,0.3,1.5
		c0.1,0.5,0.2,1,0.5,1.5c0.2,0.5,0.5,0.9,0.9,1.3c0.3,0.4,0.8,0.7,1.3,0.9c0.3,0.1,0.7,0.3,1,0.4c0.4,0.1,0.7,0.2,1.1,0.4
		c0.2,0.1,0.6,0.2,1.2,0.1c0.2-0.1,0.5-0.2,0.8-0.2c0.3,0,0.6-0.1,1-0.2c0.1-0.1,0.2-0.1,0.3-0.1c0.3-0.1,0.6-0.2,0.9-0.4
		s0.6-0.4,0.8-0.6c0.4-0.3,0.9-0.7,1.3-1c0.5-0.3,0.8-0.7,1-1.1c0.2-0.3,0.4-0.6,0.6-0.8c0.1-0.3,0.3-0.5,0.5-0.8l0.1-0.1
		c0.1-0.2,0.2-0.5,0.2-0.7c0.5,1,1.2,1.8,2.1,2.6c0.9,0.8,1.8,1.5,2.8,2c0.5,0.2,1,0.5,1.5,0.8c0.5,0.3,1.1,0.4,1.6,0.5
		c0.5,0,1-0.1,1.4-0.3s0.9-0.5,1.3-0.8c0.3-0.2,0.6-0.5,0.9-0.7c0.3-0.2,0.6-0.5,0.9-0.7c0.3-0.2,0.6-0.4,0.8-0.8
		c0.2-0.3,0.5-0.6,0.7-0.9c0.3-0.4,0.6-0.8,1.1-1.2c0.4-0.3,0.8-0.8,1-1.3c0.1-0.4,0.3-0.7,0.4-1.1c0.1-0.3,0.3-0.7,0.5-1
		c0.2-0.5,0.4-0.7,0.7-0.8c0.2,0,0.5-0.1,0.8-0.2c0.3-0.1,0.5-0.1,0.8,0c0.6,0.1,1.2,0.1,1.7,0c0.5-0.1,1.1-0.3,1.7-0.5
		c0.7-0.2,1.3-0.5,1.9-0.9c0.6-0.4,1.2-0.7,1.9-0.9c0.1,0,0.1-0.1,0.2-0.1c0,0.2,0,0.4,0,0.6c0,0.4,0,0.8,0.1,1.2
		c0,0.1,0.1,0.4,0.1,0.6c0,0.6,0,1.2,0,1.8c0,0.6,0,1.2,0.1,1.8c0,0.1,0.1,0.2,0,0.3c0,0.1,0,0.2,0,0.3c0,0.1,0.1,0.4,0.1,0.7
		c0,0.4,0,0.7,0,1c0,0.3,0.1,0.7,0.1,1c0,0.1,0.1,0.3,0.1,0.4c0,0.1,0,0.3,0.1,0.4c0.2,0.4,0.4,0.7,0.6,0.7c0.4,0.1,0.7,0.2,1.1,0.2
		c0.3,0,0.7,0,1.1-0.2c0.2-0.1,0.5-0.2,0.7-0.3s0.5-0.2,0.8-0.1c0,0,0.1-0.1,0.3-0.2c0.3-0.2,0.6-0.2,0.9-0.1c0.3,0,0.5,0,0.6-0.3
		c0.1-0.3,0.3-0.6,0.4-0.8c0.1-0.3,0.3-0.5,0.4-0.8c0.1-0.2,0.1-0.3,0.1-0.4c-0.1-0.2-0.1-0.5,0-0.6c0.1-0.2,0.2-0.4,0.3-0.6
		c0.1-0.2,0.2-0.4,0.3-0.6c0.1-0.2,0.2-0.4,0.2-0.6c0.1-0.3,0.2-0.7,0.3-1c0.1-0.3,0.2-0.6,0.5-0.8c0,0,0.1,0,0.1-0.1
		c0.2-0.6,0.5-1.2,0.9-1.8c0.3-0.6,0.6-1.2,0.9-1.8c0.3-0.7,0.7-1.3,1-2s0.7-1.3,1.2-1.9c0.5-0.7,1-1.3,1.4-1.9
		c0.5-0.6,0.9-1.3,1.4-1.9c0.3-0.5,0.7-1.1,1-1.8c0.3-0.6,0.8-1.1,1.3-1.5c0.1-0.1,0.2-0.2,0.2-0.3c0-0.1,0.1-0.2,0.2-0.3
		c0.1-0.1,0.2-0.2,0.2-0.4c0-0.1,0.1-0.3,0.2-0.4c0.1-0.2,0.2-0.3,0.3-0.4c0.2-0.2,0.6-0.4,0.9-0.5V35c0,0.7,0,1.3-0.1,1.9
		c-0.1,0.6-0.2,1.2-0.3,1.9c-0.1,0.5-0.2,1.1-0.3,1.6c-0.1,0.6-0.2,1.1-0.3,1.6c-0.1,0.7-0.2,1.4-0.3,2.1c-0.1,0.7-0.2,1.4-0.3,2.1
		c-0.1,0.5-0.2,1.1-0.3,1.6c-0.1,0.6-0.2,1.1-0.3,1.6c-0.6,2.7-0.9,5.4-1.1,8v1.9c0,1.6,0.1,3.2,0.4,4.8c0,0.3,0.1,0.6,0.3,0.9
		c0.1,0.3,0.2,0.6,0.3,0.9c0.4,0.9,1,1.4,1.8,1.6c1.3,0.2,2.6,0,3.8-0.7c1.2-0.7,2.3-1.5,3.1-2.5c0.8-1,1.5-2.1,2.1-3.2
		c0.6-1.1,1.1-2.2,1.7-3.3c0.5-1,1-1.9,1.5-3c0.5-1,1-2,1.6-3c0.2-0.3,0.4-0.7,0.6-1c0.2-0.3,0.3-0.7,0.5-1.1
		c0.2-0.4,0.4-0.8,0.5-1.2c0.1-0.4,0.3-0.9,0.5-1.3c0.2-0.5,0.4-1.1,0.5-1.7v-0.4c0-0.2,0.1-0.5,0.1-0.7c0-0.2,0.1-0.5,0.3-0.7
		c0.1-0.1,0.2-0.3,0.2-0.4c0-0.1,0.1-0.3,0.2-0.4C285.8,42.7,285.5,42.8,285.2,43.1z M149.2,41.1c0-0.2,0.1-0.4,0.2-0.6
		c0.1-0.3,0.2-0.6,0.2-0.9s0.1-0.6,0.1-0.9c0.1-0.4,0.2-0.8,0.2-1.2c0-0.4,0.2-0.8,0.4-1.2c0.1-0.2,0.2-0.4,0.2-0.7
		c0-0.5,0.2-0.9,0.3-1.3c0.2-0.4,0.3-0.8,0.5-1.2c0.2-0.7,0.8-1.2,1.7-1.3c0.5-0.1,1,0,1.4,0.1c0.4,0.2,0.8,0.5,1.2,0.9
		c0.1,0.1,0.2,0.2,0.2,0.4c0.1,0.5,0.4,0.9,0.7,1.3c0,0.1-0.1,0.2-0.1,0.4s-0.1,0.3-0.1,0.4c-0.1,0.4-0.2,0.7-0.1,1
		c0.1,0.1,0.1,0.3-0.1,0.6c-0.3,0.5-0.6,0.9-0.8,1.4c-0.3,0.4-0.6,0.9-0.9,1.3c-0.4,0.6-1,1.1-1.7,1.4c-1,0.5-2.1,0.8-3.4,0.9
		C149.1,41.4,149.1,41.2,149.2,41.1z M65.7,44.8c-0.1,0.5-0.3,1-0.5,1.3c0,0.1-0.1,0.2-0.1,0.4c0,0.2,0,0.4-0.1,0.6
		c-0.1,0.2-0.3,0.3-0.4,0.5c-0.2,0-0.4-0.2-0.6-0.3c-0.2-0.2-0.3-0.3-0.5-0.5c-0.6-0.7-1-1.6-1.3-2.5c-0.3-0.9-0.2-1.8,0.2-2.7
		c0.1-0.2,0.1-0.3,0.1-0.4c0.1-0.9,0.4-1.7,0.7-2.4c0.1-0.1,0.2-0.2,0.2-0.4c0-0.1,0.1-0.3,0.1-0.4c0-0.2,0.2-0.3,0.4-0.3
		c0.1,0,0.2,0,0.2,0.1c0,0,0.1,0.1,0.2,0.1V38c0.1,0.4,0.2,0.7,0.4,1c0.2,0.3,0.3,0.6,0.5,0.9c0.3,0.5,0.4,1.1,0.5,1.8
		c0,0.6,0.1,1.2,0.1,1.8C65.8,43.8,65.8,44.3,65.7,44.8z M239.8,44.8c-0.1,0.5-0.3,1-0.5,1.3c0,0.1-0.1,0.2-0.1,0.4
		c0,0.2,0,0.4-0.1,0.6c-0.1,0.2-0.3,0.3-0.4,0.5c-0.2,0-0.4-0.2-0.6-0.3c-0.2-0.2-0.3-0.3-0.5-0.5c-0.6-0.7-1-1.6-1.3-2.5
		c-0.3-0.9-0.2-1.8,0.2-2.7c0.1-0.2,0.1-0.3,0.1-0.4c0.1-0.9,0.4-1.7,0.7-2.4c0.1-0.1,0.2-0.2,0.2-0.4c0-0.1,0.1-0.3,0.1-0.4
		c0-0.2,0.2-0.3,0.4-0.3c0.1,0,0.2,0,0.2,0.1c0,0,0.1,0.1,0.2,0.1V38c0.1,0.4,0.2,0.7,0.4,1c0.2,0.3,0.3,0.6,0.5,0.9
		c0.3,0.5,0.4,1.1,0.5,1.8c0,0.6,0.1,1.2,0.1,1.8C239.9,43.8,239.9,44.3,239.8,44.8z"/>
</g>
<linearGradient id="SVGID_3_" gradientUnits="userSpaceOnUse" x1="4.5" y1="43.0304" x2="293" y2="43.0304">
	<stop  offset="0" style="stop-color:#642B73"/>
	<stop  offset="1" style="stop-color:#C6426E"/>
</linearGradient>
<rect x="5" y="6.1" class="st2" width="287.5" height="73.9"/>
</svg>
