<?xml version="1.0" encoding="utf-8"?>
<!-- Generator: Adobe Illustrator 19.2.1, SVG Export Plug-In . SVG Version: 6.00 Build 0)  -->
<svg version="1.1" id="Layer_1" xmlns="http://www.w3.org/2000/svg" xmlns:xlink="http://www.w3.org/1999/xlink" x="0px" y="0px"
	 viewBox="0 0 297.1 85" style="enable-background:new 0 0 297.1 85;" xml:space="preserve">
<style type="text/css">
	.st0{fill:#FFFFFF;}
</style>
<g>
	<path class="st0" d="M20.6,67.2c0.4,0.4,0.2,1-0.3,1.1c-3.2,0.2-15.8,2.9-17.4,3.1c-0.8,0.1-1.4-0.5-1.7-1.4
		c-0.1-0.4-0.9-3.2-1.2-3.5c0.1-0.5,0.4-0.5,0.8-0.6c0.6,0,1.1-0.1,1.8-0.2c1.4-0.1,1.3-0.4,0.9-1.4c-0.9-1.6-0.9-6.6-0.8-8.5
		C2.2,46.7,6.8,19,7.4,16.3c0.2-0.7,0-1.2-0.5-1.6c-1.4-0.7-2.9-1.6-3.4-3c-0.1-0.6,0-0.8,0.6-0.9c2.1-0.3,15.4-1,17.4,0.9
		c0.4,0.5,0.6,1.3,0.7,2c0.2,0.5-0.8,1.4-1.3,1.3c-0.9,0-2.1,0.1-3,0.3c-2.5,0.6-3.3,0.3-2.7,2.9c0.9,3.1,0.9,42.9-0.4,45.7
		c-1.4,2.2-0.4,1.3,1.4,1.7C16.8,65.8,20.7,66,20.6,67.2z"/>
	<path class="st0" d="M37,53.8c-0.2,0,0.3,15.8-2.2,17.1c-0.9,1-1.7,1.4-2.7,0.9c-1.4-0.4-3.1-0.8-4.6-1.6c-2.2-1.1-3-3.9-3.4-7.3
		c-0.6-6.8,0.6-21,1.5-27.6c0.5-3.8,1.9-10.3,6.1-11.1c1,0.2,1.1,0.1,1.6,1.2c1.4,0,2.3,21,2.9,23.3c0.2,1.4,1,1,1.4,0.2
		c2.6-5.5,3.2-6.7,6-10.4c1.4-1.3,4.1,0.4,4.9,1.7c2.8,5.5,2.2,14.3,2.9,17.8c0.4,2.2,0.9,4.2,2.7,1.5c2.4-4.6,4.2-9.7,5.6-14.1
		c0.6-2.1,2-0.6,1.3,0.9c-1.3,3.7-4.5,18.1-9.9,16.6c-8.1-2.7-7.1-7.6-7.8-14.3c-0.1-1.2,0.6-8.1-1.2-4C41.5,46.3,37.6,52.1,37,53.8
		z"/>
	<path class="st0" d="M79.3,45.7c0.3-0.6,0.2-0.7,0.8-1c0.3-0.1,0.5,0,0.6,0.1c0.1,0.2,0.2,0.5,0.2,0.7c-1.3,6-5.4,9.1-8.3,11.3
		c-1.4,1.1-0.4,1.4,0.1,4.1c0.8,2.4,0.2,10.9-3.5,13.6c-4,2.2-13.8,2.7-12.5-3.7c0.5-2.4,5.1-8.9,5.2-9.2c-0.3-4-5.2-16.3-2.4-25.2
		c1.7-5,6-11.7,10.9-13.9c1.7,1.1,4.2,3.5,3.3,5.2c-1.4,2.3-6.6,8.7-8.1,9.9c-2.7,2,0.4,8.2,2.6,13.5c0.6,1.4,2.2,5,3.5,4.5
		C76.5,52.6,78.5,48.5,79.3,45.7z M57.8,72.1c2,0,3.2-0.1,3.4-1.2c0.4-2.1,0.9-4,0.6-6.1C59.5,67.2,58.2,69.3,57.8,72.1z M71.7,25.9
		c-1.2-0.4-2,0.6-3,1.8c-1,1.2-5.1,6.6-4.9,8.6C65.7,34.3,70.9,28.9,71.7,25.9z"/>
	<path class="st0" d="M115.1,45.7c0.2-0.8,1.6-1.7,1.4-0.1c-3,18.6-13.8,18.3-24.3,16.3c-0.4-0.1-0.6-0.1-1-0.2
		c-0.1,0.4-0.3,0.7-0.3,0.9c0.2,2,0.3,14.9,1.1,16.6c0.3,1.7-1.4,5.5-3,5.9c-12-3-11.7-35.4-8.4-51.7c1.4-6.5,4.4-14.5,8.4-16.2
		c1.9-0.9,2.6-1.3,3.7,0.7c1.7,4.5-1.7,8.4-3,11.9c0.1,4.2,0,5.5,1.2,2.7c0.6-1.4,5.3-7.3,6.1-8.5c1.4-1.7,7.1-2,8.6-0.5
		c3.2,2.2,5.1,27.4,1.7,32.5c-1.4,2.7-5.2,4.8,0.2,2.9C111.2,56.5,113.3,51.2,115.1,45.7z M89.1,27.1c1.2-1.4,1.7-3.1,1.9-4.6
		c0.4-0.9,0.4-4.8-0.8-4.2C89.1,19.6,88.8,24.3,89.1,27.1z M90.3,39.7c-0.1,1.7,0.9,17.5,0.6,19.6c0.1,0.2,0,0.4,0,0.5
		c9-3,10.2-27.5,9.1-34.5c0-0.9-1.5-0.9-2.5,0.5C95.9,28.2,90.6,36.9,90.3,39.7z"/>
	<path class="st0" d="M123.7,39.7c0.7,6.2-1,14.3-1.4,19.1c-0.4,1.9,0.3,3.2,2.2,1.2c1.6-1.7,3.7-6.6,5.5-10.3
		c0.6-1.3,1.4-4.8,2.4-5.9c1.2,0.1,0.4,3.2,0,4.2c-1.8,5.3-7.7,17.1-10.8,16.9c-10.1,3.3-7.8-18.3-6.2-23.9c0.3-3.2,6.1-4.4,7.6-5
		C123.3,36.9,123.6,39,123.7,39.7z M123.2,33.6c-0.1-0.9-4-5.9-4.1-6.8c-0.4-1.2,0.1-2.5,1.2-2.8c1.4-0.5,2.7-0.4,4.2,0
		c1,0.3,1.3,1.3,1.7,2.2c0.4,1.2,1.7,3.1,0.8,3.8L123.2,33.6z"/>
	<path class="st0" d="M149,62.9c2.8-5.3,3.2-6.8,6.1-16.7c0.1-0.3,0.1-0.6,0.3-1c0.4-1.1,1.2-1,1.1,1.2c-1.5,8.5-6.5,21-10.4,22.1
		c-4.4,0.4-13.1-5.8-12.6-7.1c0.5-4.1,2.7-11.8,3.6-16.6c0.1-1.7,2-11.5,0.4-12c-0.5-0.1-0.7-0.2-1.3-0.4c-0.3-0.1-2.6,12-3.5,14.5
		c-0.4,1.2-0.9,0.6-1,0.6c-1.2-0.8,3.7-14.3,1.4-15.8c-0.7-0.7-1.4-1-1.9-2.1c-0.4-0.8,0.3-3.1,0.6-3.9c0.4-0.8,0.8-1.6,1.2-2.3
		c0.9-1.6,3.1-1.3,4.2-0.4c0.2,0.2,0.4,0.5,0.4,0.7c0.1,0.9,0.2,1.9,0,2.8c-0.4,0.9-0.5,2.8-0.8,3.8c0,0.5,0.1,0.7,0.6,0.8
		c3.6,1.6,7.6,6,8.4,9.2c1.4,9.6,0.6,17.6-1.2,25.6C144.9,67.2,147.5,65.6,149,62.9z M135.4,23.9c-1.2,1.4-1.4,3-1,4.5
		C135,27.1,135.8,25.7,135.4,23.9z"/>
	<path class="st0" d="M191.2,53.4c-3.7,16.3-7.2,17.6-15.3,12.2c-1.9-1.3-2.9-3.8-3.3-6.8c-1-6.6,0.5-13.9-0.6-11.4
		c-1.4,3.2-5.7,13.8-8,14.2c-1.2,0.1-6.1-1.4-7.9-2.8c-1.4-1.1-1.7-1.2-2.2-4c-1.3-11.1,5.3-30.1,18.2-33.7c1.2-0.4,5.3,3,5.3,4.2
		c-0.1,1-4.7,3.7-4,3.6c2.7-0.5,9.8,6.6,9.7,8.2c-0.4,3.4-0.7,4.8-1,7.7c-0.3,4.7-0.6,15.5,0.5,19.2c0.2,1.2,0.9,1,1.7,0.6
		c3.4-1.7,6-15.9,7.3-19.7c0.4-1.2,0.4-1.7,0.9-1.6C193.7,43.6,192.3,48.6,191.2,53.4z M160,52.9c3-5.5,7-13.3,10-18.4
		c2-3.4-0.4-3-3.2-0.1c-2.7,2.7-5.5,7.3-7.2,12.8C158.2,51.6,157.7,57.2,160,52.9z"/>
	<path class="st0" d="M189.9,23.9c-0.1-0.6-0.1-1.1-0.3-1.6c-0.1-1.5,3.8-2.9,5-3.1c0.6-0.1,1.8-1.4,1.8-1.9
		c2.4-6.8,5.5-17.3,11.3-17.4c1.1,0.2,1.4,0.1,1.9,1c0.4,1.6-1,8.9-1.9,11.6c-0.6,1.9-0.9,3.4-1.2,4.9c2.8-0.3,7.8-2.3,10.7-1.9
		c-0.3,0.3,0.6,0.7,0.4,0.9c0,0.1-0.3,0.1-0.5,0.4c-1.6,1.9-10.2,2.6-12.3,4c-1.4,11.9-2.5,51.1-0.2,51.1c2.8-0.6,6.3-21.7,8-26.5
		c0.7-2.4,1.8-0.1,1.5,0.4c-2.3,9.8-6.1,30.7-11.4,29.9c-6.8-1.1-12.2-8.4-12.5-14c-0.8-15.9,3.2-30.7,4.4-38.7
		C193.4,23,190.9,23.8,189.9,23.9z M207.6,3c-0.7,1.2-4.3,13.3-2.7,14.3c0.8-3,3.5-10.7,3.2-14C208.1,3.2,207.8,3.1,207.6,3z"/>
	<path class="st0" d="M221.1,39.7c0.7,6.2-1,14.3-1.4,19.1c-0.4,1.9,0.3,3.2,2.2,1.2c1.6-1.7,3.7-6.6,5.5-10.3
		c0.6-1.3,1.4-4.8,2.4-5.9c1.2,0.1,0.4,3.2,0,4.2C228,53.4,222.1,65.2,219,65c-10.1,3.3-7.8-18.3-6.2-23.9c0.3-3.2,6.1-4.4,7.6-5
		C220.7,36.9,221,39,221.1,39.7z M220.6,33.6c-0.1-0.9-4-5.9-4.1-6.8c-0.4-1.2,0.1-2.5,1.2-2.8c1.4-0.5,2.7-0.4,4.2,0
		c1,0.3,1.3,1.3,1.7,2.2c0.4,1.2,1.7,3.1,0.8,3.8L220.6,33.6z"/>
	<path class="st0" d="M249,60c-4.6,4.8-14.3,2.4-15,2c-9.9-4.8-4.9-34.7,4.7-37.9c1.2,0.4,1.8,0.4,0.6,2.2c-0.4,0.3,0.3,0.6,0.6,0.7
		c0.5,0.2,1,0.3,1.7,0.8c8.1,2.8,12,9.7,11.7,16.6c-0.4,2.7,2.1,5,4.2,4.5c2.4-0.6,3-2.5,3.4-3.7c0.1-0.2,0.3-0.4,0.4-0.6
		c0.6,0.4,1,0.6,0.7,1.2c-0.8,4.6-3.6,6.1-6.6,5.9c-3-0.4-2.4-0.4-2.6,0.4C252.4,55.5,251.7,58,249,60z M235.9,30.3
		c-4.5,5.1-7.1,32.7,1.5,29.7c2.1-3.7,2.4-10.3,3.3-14.6c0.2-0.8,0.1-1.3-0.4-1.8c-2.3-2.5-3.6-5-4.1-8.4L235.9,30.3z M241.3,39.6
		c0-0.1,0-0.3,0-0.4c0.1-3.2-0.9-8.5-3.6-9.9c-0.5-0.2-0.9-0.1-0.8,0.7c-0.1,3.2,1.9,7.9,4.2,10.1C241.1,39.9,241.3,39.7,241.3,39.6
		z"/>
	<path class="st0" d="M272.9,53.8c-0.2,0,0.3,15.8-2.2,17.1c-0.9,1-1.7,1.4-2.7,0.9c-1.4-0.4-3.1-0.8-4.6-1.6
		c-2.2-1.1-3-3.9-3.4-7.3c-0.6-6.8,0.6-21,1.5-27.6c0.5-3.8,1.9-10.3,6.1-11.1c1,0.2,1.1,0.1,1.6,1.2c1.4,0,2.3,21,2.9,23.3
		c0.2,1.4,1,1,1.4,0.2c2.6-5.5,3.2-6.7,6-10.4c1.4-1.3,4.1,0.4,4.9,1.7c2.8,5.5,2.2,14.3,2.9,17.8c0.4,2.2,0.9,4.2,2.7,1.5
		c2.4-4.6,4.2-9.7,5.6-14.1c0.6-2.1,2-0.6,1.3,0.9c-1.3,3.7-4.5,18.1-9.9,16.6c-8.1-2.7-7.1-7.6-7.8-14.3c-0.1-1.2,0.6-8.1-1.2-4
		C277.3,46.3,273.5,52.1,272.9,53.8z"/>
</g>
</svg>
