<?xml version="1.0" encoding="utf-8"?>
<!-- Generator: Adobe Illustrator 19.2.1, SVG Export Plug-In . SVG Version: 6.00 Build 0)  -->
<svg version="1.1" id="Layer_1" xmlns="http://www.w3.org/2000/svg" xmlns:xlink="http://www.w3.org/1999/xlink" x="0px" y="0px"
	 viewBox="0 0 623.1 471.4" style="enable-background:new 0 0 623.1 471.4;" xml:space="preserve">
<style type="text/css">
	.st0{fill:#FFFFFF;}
</style>
<polygon class="st0" points="500.2,169.4 441.1,202.6 382.1,169.4 382.1,103.3 441.1,70.1 500.2,103.3 "/>
<polygon id="XMLID_3_" class="st0" points="66.9,230.3 33.5,249 0,230.3 0,192.7 33.5,173.9 66.9,192.7 "/>
<polygon id="XMLID_2_" class="st0" points="291.2,372.7 257.9,392.7 224.4,372.7 224.4,332.6 257.9,312.7 291.2,332.6 "/>
<polygon class="st0" points="588.9,411.7 555.9,430.3 523,411.7 523,374.8 555.9,356.3 588.9,374.8 "/>
<g>
	<path class="st0" d="M82.7,131.3c-0.8,0-1.4,0.2-1.9,0.6c-0.5,0.3-0.7,0.9-0.7,1.5s0.1,1.2,0.5,1.5s0.7,0.6,1.3,0.6
		c1.2,0,2.1-0.5,3.1-1.5v-2.4c-0.4,0-0.7-0.1-1.1-0.1C83.5,131.3,83.1,131.3,82.7,131.3z"/>
	<path class="st0" d="M106.8,92.7c-0.4-0.7-0.7-1.3-1.3-1.7c-0.6-0.5-1.4-0.7-2.4-0.7s-1.7,0.2-2.3,0.6c-0.6,0.5-1.1,1-1.4,1.7
		c-0.4,0.7-0.5,1.5-0.6,2.2s-0.2,1.5-0.2,2.3c0,0.9,0.1,1.7,0.2,2.7c0.1,0.8,0.4,1.6,0.7,2.3c0.4,0.7,0.8,1.3,1.4,1.6
		c0.6,0.5,1.3,0.6,2.3,0.6s1.8-0.2,2.4-0.7c0.6-0.5,1.1-1,1.3-1.7c0.4-0.7,0.5-1.5,0.6-2.3s0.1-1.5,0.1-2.2s0-1.4-0.1-2.3
		C107.4,94.2,107.1,93.5,106.8,92.7z"/>
	<path class="st0" d="M88.1,32.2L17.3,71.9v79.4L88.1,191l70.8-39.7V71.9L88.1,32.2z M126.1,119.7c0.2,0.1,0.4,0.6,0.4,1.3
		c0,0.6-0.1,1-0.4,1.2c-0.2,0.1-0.6,0.2-1.3,0.2s-1.2-0.1-1.5-0.3c-0.1-0.3-0.2-0.7-0.2-1.2c0-0.7,0.1-1.2,0.4-1.3
		c0.2-0.1,0.7-0.2,1.3-0.2C125.5,119.4,125.9,119.4,126.1,119.7z M59,102.4c1.9,1.2,3.7,1.7,5.3,1.7c1.1,0,1.9-0.2,2.5-0.7
		c0.6-0.5,1-1,1-1.7c0-1.2-0.8-2.1-2.4-2.8l-3.1-1.3c-2.5-1-3.7-2.5-3.7-4.5c0-0.7,0.1-1.4,0.5-2s0.7-1.2,1.3-1.6
		c0.5-0.5,1.2-0.8,1.9-1s1.5-0.3,2.5-0.3c1.9,0,3.7,0.5,5.6,1.4c0,0.8-0.4,1.5-1.1,2.2c-1.7-0.8-3.2-1.3-4.5-1.3
		c-1,0-1.8,0.2-2.4,0.7c-0.6,0.5-0.8,1-0.8,1.6c0,0.7,0.2,1.2,0.6,1.5c0.4,0.3,1,0.7,1.7,0.9l3.1,1.3c1.3,0.6,2.4,1.3,3,2
		c0.7,0.8,1,1.7,1,2.8c0,1.5-0.6,2.8-1.7,3.8c-1.1,0.9-2.9,1.4-5.1,1.4s-4.3-0.7-6.2-2C58,103.6,58.3,102.9,59,102.4z M59.6,137.3
		c-0.6,0-1-0.1-1.3-0.3c-0.2-0.2-0.5-0.6-0.6-1.2l-1-3h-1.5h-3.7H50l-1.4,4.3c-0.4,0.1-0.7,0.1-1.2,0.1s-1-0.1-1.4-0.2l-0.1-0.1
		l6.1-17.5c0.4-0.1,1-0.1,1.7-0.1s1.2,0,1.5,0.1l5.9,17.5C60.7,137.2,60.2,137.3,59.6,137.3z M73,137.3c-0.6,0-1.1-0.1-1.2-0.5
		c-0.2-0.2-0.4-0.7-0.4-1.3v-6.6c0-0.9-0.1-1.5-0.4-2c-0.2-0.3-0.6-0.6-1.2-0.6c-0.6,0-1.2,0.1-1.8,0.5c-0.6,0.2-1.2,0.7-1.7,1.2v9
		c-0.4,0.1-0.7,0.1-1.3,0.1c-0.2,0-0.6,0-0.8,0s-0.5,0-0.6-0.1v-12.7l0.1-0.1h1.1c1,0,1.4,0.6,1.5,1.6c1.3-1.2,2.7-1.7,4.3-1.7
		c1.2,0,2.1,0.3,2.6,1.2c0.6,0.8,0.8,1.8,0.8,3.1v6c0,1,0.1,1.8,0.5,2.3C74.2,137.2,73.6,137.3,73,137.3z M87.4,137.3
		c-1.1-0.2-1.8-0.7-2.1-1.6c-1.3,1.2-2.6,1.7-3.9,1.7c-0.7,0-1.3-0.1-1.8-0.3c-0.5-0.2-1-0.5-1.3-0.8c-0.4-0.3-0.6-0.8-0.8-1.3
		c-0.1-0.5-0.2-0.9-0.2-1.4c0-1.4,0.5-2.5,1.4-3.2c1-0.7,2.1-1,3.7-1c0.5,0,0.8,0,1.3,0s0.8,0.1,1.3,0.1v-1c0-1.5-0.7-2.3-2.1-2.3
		c-1.1,0-2.4,0.3-4.2,1c-0.5-0.5-0.8-1-0.8-2c1.8-0.8,3.7-1.2,5.5-1.2c1.4,0,2.5,0.3,3.2,1s1.2,1.8,1.2,3.2v5.3c0,1,0.2,1.8,0.7,2.2
		C88.2,136.6,87.9,137.1,87.4,137.3z M87.8,106.3c-0.7,0-1.3-0.1-1.5-0.2c-0.2-0.2-0.5-0.6-0.6-1l-1.3-6.9c-0.5-2.5-0.8-4.6-1.1-6.3
		h-0.2c-0.4,2.2-0.7,4.3-1.2,6.3l-1.7,8.2c-0.7,0.1-1.5,0.1-2.1,0.1c-0.7,0-1.2-0.1-1.5-0.2c-0.4-0.2-0.5-0.6-0.6-1.2l-3.3-16.3
		c0.5-0.2,1.1-0.3,1.5-0.3s0.8,0.1,1.1,0.3c0.2,0.2,0.4,0.6,0.5,1.2l1.7,8.8c0.4,2.2,0.7,3.8,0.8,5c0,0.2,0.1,0.3,0.2,0.3l2.9-15
		C82,89,82.6,89,83.3,89s1.3,0,1.8,0.1l2.6,14.8c0,0.2,0.1,0.3,0.2,0.3c0.1-1.2,0.5-3,1-5.3l2-10c0.4-0.1,0.8-0.1,1.3-0.1
		s1,0,1.3,0.1l0.1,0.2l-3.8,17.4C89.3,106.2,88.6,106.3,87.8,106.3z M96.7,137.1c-0.7,0.1-1.4,0.2-2.3,0.2c-1.8,0-2.6-0.9-2.6-2.7
		v-16.3l0.2-0.1h1.1c0.6,0,1,0.1,1.2,0.3c0.2,0.2,0.4,0.7,0.4,1.3V134c0,0.8,0.4,1.2,1.1,1.2h1c0.1,0.5,0.2,0.8,0.2,1.2
		C96.7,136.6,96.7,136.9,96.7,137.1z M105.8,136.8c-0.4,1-0.6,2-1,2.8s-0.7,1.4-1.2,1.8c-0.5,0.5-1,0.8-1.5,1
		c-0.6,0.2-1.3,0.3-2.1,0.3c-0.1,0-0.4,0-0.6,0c-0.2,0-0.6,0-0.8-0.1c-0.2,0-0.5-0.1-0.7-0.1c-0.2-0.1-0.4-0.1-0.4-0.2
		c0-0.3,0-0.6,0.1-1c0.1-0.3,0.2-0.7,0.5-0.8c0.6,0.2,1.3,0.3,2.1,0.3c0.7,0,1.4-0.2,1.9-0.8c0.5-0.6,0.8-1.4,1.2-2.4l0.1-0.3
		c-0.6,0-1.1-0.1-1.3-0.3c-0.4-0.2-0.6-0.6-0.7-1l-3.5-11.5c0.6-0.2,1.2-0.3,1.7-0.3c0.7,0,1.2,0.3,1.4,1.2l1.8,6
		c0.1,0.2,0.2,0.7,0.4,1.4c0.1,0.6,0.4,1.5,0.6,2.4c0,0.1,0.1,0.2,0.2,0.2l3-11c0.1,0,0.4-0.1,0.5-0.1c0.2,0,0.4,0,0.6,0
		c0.2,0,0.5,0,0.7,0s0.5,0.1,0.7,0.1l0.1,0.1L105.8,136.8z M108.7,104c-0.6,0.8-1.4,1.4-2.4,1.8c-1,0.5-2,0.6-3.2,0.6
		c-1.9,0-3.4-0.5-4.6-1.5c-1.9-1.6-2.9-4.2-2.9-7.6c0-1.4,0.1-2.7,0.5-3.8c0.4-1.2,0.8-2.1,1.4-2.9c0.6-0.8,1.4-1.4,2.4-1.8
		c1-0.5,2-0.7,3.2-0.7s2.3,0.2,3.2,0.6c1,0.5,1.7,1,2.4,1.8c0.6,0.8,1.1,1.7,1.4,2.9c0.4,1.2,0.5,2.4,0.5,3.8c0,1.4-0.1,2.7-0.5,3.8
		C109.7,102.2,109.3,103.2,108.7,104z M119,136.5c-1,0.7-2.3,1-3.8,1s-3.2-0.5-4.6-1.3c0-0.3,0.1-0.6,0.2-1c0.1-0.3,0.4-0.7,0.6-0.9
		c1.4,0.8,2.6,1.2,3.4,1.2c1,0,1.5-0.1,2-0.5c0.5-0.3,0.6-0.7,0.6-1.2c0-0.8-0.6-1.4-1.7-1.7l-1.5-0.6c-2.3-0.8-3.3-2.1-3.3-3.7
		c0-1.2,0.5-2.1,1.3-2.8c0.8-0.7,2-1,3.4-1s2.9,0.3,4.3,0.9c0,0.3-0.1,0.7-0.2,1c-0.1,0.3-0.4,0.7-0.6,0.9c-1.3-0.6-2.5-0.8-3.6-0.8
		c-0.6,0-1.1,0.1-1.4,0.5c-0.4,0.3-0.5,0.6-0.5,1c0,0.5,0.1,0.7,0.4,0.9c0.2,0.2,0.7,0.5,1.3,0.7l1.5,0.6c2.3,0.8,3.4,2.2,3.4,3.9
		C120.4,134.9,120,135.8,119,136.5z M119.2,90.7v15.4c-0.4,0.1-1,0.1-1.4,0.1c-0.6,0-1.1,0-1.4-0.1V92.5v-2l0,0h-1.5h-3.2
		c-0.1-0.3-0.1-0.8-0.1-1.2c0-0.5,0-0.8,0.1-1.2h12.2c0.1,0.5,0.1,0.8,0.1,1.2c0,0.8-0.5,1.2-1.5,1.2h-1.8L119.2,90.7z M126.6,137.2
		c-0.4,0.1-0.8,0.1-1.4,0.1c-0.6,0-1.1,0-1.4-0.1v-9.5c0-0.5-0.1-0.8-0.2-1c-0.1-0.2-0.5-0.3-1-0.3h-0.2c-0.1-0.3-0.1-0.7-0.1-0.9
		c0-0.2,0-0.6,0.1-1c0.6-0.1,1.2-0.1,1.7-0.1h0.4c0.7,0,1.2,0.2,1.5,0.6c0.4,0.5,0.6,0.9,0.6,1.7v10.6L126.6,137.2L126.6,137.2z
		 M138,136.5c-1,0.7-2.3,1-3.8,1c-1.7,0-3.2-0.5-4.6-1.3c0-0.3,0.1-0.6,0.2-1c0.1-0.3,0.4-0.7,0.6-0.9c1.4,0.8,2.6,1.2,3.4,1.2
		c1,0,1.5-0.1,2-0.5c0.5-0.3,0.6-0.7,0.6-1.2c0-0.8-0.6-1.4-1.7-1.7l-1.5-0.6c-2.3-0.8-3.3-2.1-3.3-3.7c0-1.2,0.5-2.1,1.3-2.8
		c0.8-0.7,2-1,3.4-1s2.9,0.3,4.3,0.9c0,0.3-0.1,0.7-0.2,1c-0.1,0.3-0.4,0.7-0.6,0.9c-1.3-0.6-2.5-0.8-3.6-0.8
		c-0.6,0-1.1,0.1-1.4,0.5c-0.4,0.2-0.5,0.6-0.5,1c0,0.5,0.1,0.7,0.4,0.9c0.2,0.2,0.7,0.5,1.3,0.7l1.5,0.6c2.3,0.8,3.4,2.2,3.4,3.9
		C139.3,134.9,138.8,135.8,138,136.5z"/>
	<path class="st0" d="M53.4,122.2L53.4,122.2c-0.4,0.9-0.7,2.2-1.2,3.8l-1.5,4.7H52h2.6c0.7,0,1.2,0,1.3,0l-1.2-3.8
		C54.1,125,53.7,123.4,53.4,122.2z"/>
</g>
<g>
	<path class="st0" d="M263.2,117.7c-1.2,0-2.1,0.6-3,1.7v6.3c0.5,0.3,1,0.6,1.3,0.7c0.5,0.1,0.8,0.2,1.2,0.2c0.8,0,1.5-0.3,2-1.2
		c0.5-0.8,0.7-2,0.7-3.5s-0.2-2.7-0.7-3.3C264.5,118.1,263.9,117.7,263.2,117.7z"/>
	<path class="st0" d="M257.6,0l-90.3,50.7v101.4l90.3,50.7l90.3-50.7V50.6L257.6,0z M276.4,88.3c0.2-0.8,0.6-1.5,1.1-2.2
		c0.5-0.6,1.1-1,1.8-1.4c0.7-0.3,1.5-0.5,2.5-0.5s1.8,0.1,2.5,0.5c0.7,0.3,1.3,0.8,1.8,1.4c0.5,0.6,0.8,1.3,1.1,2.2
		c0.2,0.8,0.4,1.7,0.4,2.8c0,2.3-0.6,4-1.9,5.3c-1,0.9-2.3,1.4-3.9,1.4c-1,0-1.8-0.1-2.5-0.5c-0.7-0.3-1.3-0.8-1.8-1.4
		c-0.5-0.6-0.8-1.3-1.1-2.1c-0.2-0.8-0.4-1.7-0.4-2.8C276,90,276.2,89.2,276.4,88.3z M269.6,79.8c0.2-0.1,0.7-0.2,1.3-0.2
		c0.7,0,1.2,0.1,1.3,0.2c0.2,0.1,0.4,0.6,0.4,1.3c0,0.6-0.1,1-0.4,1.2c-0.2,0.1-0.6,0.2-1.3,0.2c-0.7,0-1.2-0.1-1.5-0.3
		c-0.1-0.3-0.2-0.7-0.2-1.2C269.3,80.4,269.4,80,269.6,79.8z M222.7,84.6h2.1c-0.1-1-0.1-1.8-0.1-2.3c0-0.6,0.1-1.2,0.2-1.6
		c0.2-0.5,0.5-0.9,0.8-1.3c0.4-0.3,0.8-0.7,1.3-0.8c0.5-0.2,1.1-0.3,1.7-0.3c1.2,0,2.4,0.2,3.4,0.6c0,0.8-0.2,1.4-0.6,1.8
		c-0.4-0.1-0.8-0.2-1.2-0.2c-0.4-0.1-0.7-0.1-1-0.1c-0.7,0-1.3,0.2-1.7,0.6c-0.4,0.3-0.5,0.9-0.5,1.7c0,0.3,0,0.6,0,0.9
		s0.1,0.7,0.1,1h3.8c0,0.1,0.1,0.3,0.1,0.5c0,0.1,0,0.3,0,0.6c0,0.1,0,0.3,0,0.5c0,0.1,0,0.3-0.1,0.5h-3.6v10.9
		c-0.2,0-0.4,0.1-0.6,0.1s-0.5,0-0.7,0s-0.5,0-0.7,0s-0.5,0-0.6-0.1V86.5h-2.3c0-0.1-0.1-0.3-0.1-0.5c0-0.1,0-0.3,0-0.5
		C222.6,85.3,222.6,84.9,222.7,84.6z M194,124.2c-0.4,1.3-1.2,2.3-2.3,3.2c-0.2,0.2-0.6,0.3-1,0.6c-0.4,0.1-0.7,0.3-1.2,0.5
		c-0.5,0.1-0.8,0.2-1.3,0.2c-0.5,0.1-0.8,0.1-1.2,0.1s-1.1,0-2,0c-1,0-2.3,0-3.8-0.1l-0.1-0.2v-17.4l0.1-0.2c1.5,0,3.4-0.1,5.8-0.1
		c1.4,0,2.6,0.2,3.6,0.7s1.8,1.2,2.3,2c0.6,0.8,1,1.7,1.2,2.9c0.2,1.2,0.4,2.3,0.4,3.5C194.6,121.5,194.4,122.9,194,124.2z
		 M195.1,90.8c-0.7,0.2-1.5,0.3-2.5,0.3h-2.9v6.2c-0.2,0-0.5,0.1-0.7,0.1s-0.5,0-0.8,0c-0.2,0-0.5,0-0.7,0s-0.5,0-0.6-0.1V79.8
		l0.1-0.2l5.5-0.1c1,0,1.8,0.1,2.5,0.3s1.4,0.6,1.9,1.2c0.5,0.5,1,1,1.2,1.8c0.2,0.7,0.5,1.5,0.5,2.4s-0.1,1.7-0.5,2.5
		c-0.2,0.7-0.7,1.4-1.2,1.8C196.5,90.2,195.9,90.6,195.1,90.8z M208,122c0,0.3-0.1,0.7-0.1,1h-7.8c0,1.2,0.4,2.1,0.8,2.8
		c0.5,0.7,1.3,0.9,2.4,0.9c0.5,0,1.1-0.1,1.7-0.2s1.3-0.5,1.9-0.8c0.5,0.3,0.7,0.9,0.8,1.7c-1.4,0.9-3.1,1.5-5,1.5
		c-1.1,0-1.9-0.1-2.6-0.5c-0.7-0.3-1.3-0.8-1.7-1.4c-0.5-0.6-0.7-1.3-1-2.2c-0.2-0.8-0.2-1.7-0.2-2.7s0.1-1.8,0.4-2.7
		c0.2-0.8,0.6-1.5,1.1-2.1s1.1-1,1.7-1.4c0.7-0.3,1.4-0.5,2.3-0.5c0.8,0,1.7,0.1,2.3,0.5c0.6,0.3,1.2,0.7,1.7,1.2s0.8,1,1.1,1.7
		s0.4,1.4,0.4,2.2C208,121.3,208,121.6,208,122z M208.2,87.1c-0.1,0-0.5-0.1-1.1-0.1c-1.2,0-2.1,0.7-2.9,2v8.4
		c-0.4,0.1-0.8,0.1-1.4,0.1s-1.1,0-1.4-0.1v-8.9c0-1.2-0.4-2.1-1-2.7c0.1-0.7,0.5-1.2,1.1-1.4c1.2,0.2,2,1,2.4,2.3
		c0.7-1.5,1.9-2.3,3.4-2.3c0.5,0,1,0,1.4,0.1C208.9,85.6,208.7,86.4,208.2,87.1z M216.8,128.6c-0.5,0.1-1.1,0.1-1.8,0.1
		s-1.2-0.1-1.4-0.2c-0.2-0.2-0.5-0.6-0.7-1.2l-3.7-11.2c0.6-0.2,1.1-0.3,1.5-0.3c0.8,0,1.3,0.3,1.5,1.2l1.8,5.7
		c0.4,1,0.7,2.3,1.1,3.8c0,0.1,0.1,0.2,0.2,0.2l3.1-10.6c0.4-0.1,0.7-0.1,1.2-0.1s0.8,0.1,1.2,0.2l0.1,0.1
		C219.6,120.4,218.2,124.5,216.8,128.6z M219.4,96.3c-1,0.9-2.3,1.4-3.9,1.4c-1,0-1.8-0.1-2.5-0.5c-0.7-0.3-1.3-0.8-1.8-1.4
		c-0.5-0.6-0.8-1.3-1.1-2.1c-0.2-0.8-0.4-1.7-0.4-2.8c0-1,0.1-2,0.4-2.8c0.2-0.8,0.6-1.5,1.1-2.2c0.5-0.6,1.1-1,1.8-1.4
		c0.7-0.3,1.5-0.5,2.5-0.5s1.8,0.1,2.5,0.5s1.3,0.8,1.8,1.4c0.5,0.6,0.8,1.3,1.1,2.2c0.2,0.8,0.4,1.7,0.4,2.8
		C221.3,93.3,220.6,95.2,219.4,96.3z M232.7,122c0,0.3-0.1,0.7-0.1,1h-7.8c0,1.2,0.4,2.1,0.8,2.8c0.5,0.7,1.3,0.9,2.4,0.9
		c0.5,0,1.1-0.1,1.7-0.2s1.3-0.5,1.9-0.8c0.5,0.3,0.7,0.9,0.8,1.7c-1.4,0.9-3.1,1.5-5,1.5c-1.1,0-1.9-0.1-2.6-0.5
		c-0.7-0.3-1.3-0.8-1.7-1.4c-0.5-0.6-0.7-1.3-1-2.2c-0.2-0.8-0.2-1.7-0.2-2.7s0.1-1.8,0.4-2.7c0.2-0.8,0.6-1.5,1.1-2.1
		s1.1-1,1.7-1.4c0.7-0.3,1.4-0.5,2.3-0.5s1.7,0.1,2.3,0.5c0.6,0.3,1.2,0.7,1.7,1.2s0.8,1,1.1,1.7c0.2,0.7,0.4,1.4,0.4,2.2
		C232.7,121.3,232.7,121.6,232.7,122z M241,128.4c-0.7,0.1-1.4,0.2-2.3,0.2c-1.8,0-2.6-0.9-2.6-2.7v-16.3l0.2-0.1h1.1
		c0.6,0,1,0.1,1.2,0.3c0.2,0.2,0.4,0.7,0.4,1.3v14.2c0,0.8,0.4,1.2,1.1,1.2h1c0.1,0.5,0.2,0.8,0.2,1.2
		C241.1,128,241,128.3,241,128.4z M235.6,94.6c0.5,0.7,1.3,0.9,2.4,0.9c0.5,0,1.1-0.1,1.7-0.2s1.3-0.5,1.9-0.8
		c0.5,0.3,0.7,0.9,0.8,1.7c-1.4,0.9-3.1,1.5-5,1.5c-1.1,0-1.9-0.1-2.6-0.5c-0.7-0.3-1.3-0.8-1.7-1.4c-0.5-0.6-0.7-1.3-1-2.2
		c-0.2-0.8-0.2-1.7-0.2-2.7s0.1-1.8,0.4-2.7c0.2-0.8,0.6-1.5,1.1-2.1s1.1-1,1.7-1.4c0.7-0.3,1.4-0.5,2.3-0.5c0.8,0,1.7,0.1,2.3,0.5
		c0.7,0.2,1.2,0.7,1.7,1.2s0.8,1,1.1,1.7c0.2,0.7,0.4,1.4,0.4,2.2c0,0.3,0,0.7,0,1s-0.1,0.7-0.1,1H235
		C234.9,93.1,235.2,94,235.6,94.6z M252.4,127.5c-1,0.9-2.3,1.4-3.9,1.4c-1,0-1.8-0.1-2.5-0.5c-0.7-0.3-1.3-0.8-1.8-1.4
		s-0.8-1.3-1.1-2.1c-0.2-0.8-0.4-1.7-0.4-2.8c0-1,0.1-2,0.4-2.8c0.2-0.8,0.6-1.5,1.1-2.2c0.5-0.6,1.1-1,1.8-1.4s1.5-0.5,2.5-0.5
		s1.8,0.1,2.5,0.5c0.7,0.3,1.3,0.8,1.8,1.4s0.8,1.3,1.1,2.2c0.2,0.8,0.4,1.7,0.4,2.8C254.3,124.5,253.7,126.2,252.4,127.5z
		 M253.6,96.8c-1,0.7-2.3,1-3.8,1s-3.2-0.5-4.6-1.3c0-0.3,0.1-0.6,0.2-1c0.1-0.3,0.4-0.7,0.6-0.9c1.4,0.8,2.6,1.2,3.4,1.2
		c1,0,1.5-0.1,2-0.5c0.5-0.3,0.6-0.7,0.6-1.2c0-0.8-0.6-1.4-1.7-1.7l-1.5-0.6c-2.3-0.8-3.3-2.1-3.3-3.7c0-1.2,0.5-2.1,1.3-2.8
		s2-1,3.4-1s2.9,0.3,4.3,0.9c0,0.3-0.1,0.7-0.2,1s-0.4,0.7-0.6,0.9c-1.3-0.6-2.5-0.8-3.6-0.8c-0.6,0-1.1,0.1-1.4,0.5
		c-0.4,0.2-0.5,0.6-0.5,1c0,0.5,0.1,0.7,0.4,0.9c0.2,0.2,0.7,0.5,1.3,0.7l1.5,0.6c2.3,0.8,3.4,2.2,3.4,3.9
		C255,95.1,254.5,96.1,253.6,96.8z M257,95.5c0.1-0.3,0.4-0.7,0.6-0.9c1.4,0.8,2.6,1.2,3.4,1.2c1,0,1.5-0.1,2-0.5
		c0.5-0.3,0.6-0.7,0.6-1.2c0-0.8-0.6-1.4-1.7-1.7l-1.5-0.6c-2.3-0.8-3.3-2.1-3.3-3.7c0-1.2,0.5-2.1,1.3-2.8s2-1,3.4-1
		s2.9,0.3,4.3,0.9c0,0.3-0.1,0.7-0.2,1s-0.4,0.7-0.6,0.9c-1.3-0.6-2.5-0.8-3.6-0.8c-0.6,0-1.1,0.1-1.4,0.5c-0.4,0.2-0.5,0.6-0.5,1
		c0,0.5,0.1,0.7,0.4,0.9c0.2,0.2,0.7,0.5,1.3,0.7L263,90c2.3,0.8,3.4,2.2,3.4,3.9c0,1.2-0.5,2.1-1.4,2.8c-1,0.7-2.3,1-3.8,1
		s-3.2-0.5-4.6-1.3C256.8,96.2,256.9,95.9,257,95.5z M268.1,125c-0.2,0.8-0.6,1.5-1.1,2.1s-1.1,1-1.7,1.3s-1.3,0.5-2,0.5
		c-1,0-2-0.2-3.1-0.8v4.5c0,0.6-0.1,1-0.4,1.3c-0.2,0.2-0.6,0.3-1.2,0.3h-1.1l-0.1-0.1V116l0.1-0.1h0.8c0.8,0,1.4,0.5,1.7,1.3
		c1.1-1,2.3-1.5,3.7-1.5c0.7,0,1.3,0.1,1.9,0.5c0.6,0.3,1.1,0.8,1.4,1.4s0.7,1.3,0.8,2.1c0.2,0.8,0.4,1.7,0.4,2.8
		C268.4,123.1,268.3,124.1,268.1,125z M270.1,97.5v-9.6c0-0.5-0.1-0.8-0.2-1s-0.5-0.3-1-0.3h-0.2c-0.1-0.3-0.1-0.7-0.1-0.9
		s0-0.6,0.1-1c0.6-0.1,1.2-0.1,1.7-0.1h0.4c0.7,0,1.2,0.2,1.5,0.6c0.4,0.5,0.6,0.9,0.6,1.7v10.6c-0.4,0.1-0.8,0.1-1.4,0.1
		C270.9,97.5,270.5,97.5,270.1,97.5z M287.7,128.8c-1,0-1.4-0.6-1.4-1.7v-6.6c0-0.9-0.1-1.5-0.4-1.8c-0.2-0.3-0.7-0.6-1.2-0.6
		c-1,0-1.9,0.6-2.9,1.6v9c-0.1,0-0.4,0.1-0.6,0.1s-0.5,0-0.7,0s-0.5,0-0.7,0s-0.5,0-0.6-0.1v-8.1c0-0.9-0.1-1.5-0.4-2
		c-0.2-0.3-0.7-0.6-1.2-0.6c-1,0-1.9,0.6-2.9,1.6v9c-0.4,0.1-0.7,0.1-1.3,0.1c-0.2,0-0.6,0-0.8,0c-0.2,0-0.5,0-0.6-0.1v-12.7
		l0.1-0.2h1.1c1,0,1.4,0.6,1.5,1.6c1.3-1.2,2.6-1.7,3.9-1.7c1.4,0,2.4,0.7,2.9,2c1.4-1.3,2.9-2,4.3-2c1.1,0,2,0.3,2.6,1.2
		c0.6,0.8,0.8,1.7,0.8,2.9v6.2c0,1,0.1,1.8,0.5,2.3C288.9,128.6,288.3,128.8,287.7,128.8z M290.8,97.5V84.8l0.1-0.1h1.1
		c1,0,1.4,0.6,1.5,1.6c1.3-1.2,2.7-1.7,4.3-1.7c1.2,0,2.1,0.3,2.6,1.2c0.6,0.8,0.8,1.8,0.8,3.1v6c0,1,0.1,1.8,0.5,2.3
		c-0.5,0.3-1,0.6-1.7,0.6c-0.6,0-1.1-0.1-1.2-0.5c-0.2-0.2-0.4-0.7-0.4-1.3v-6.6c0-0.9-0.1-1.5-0.4-2c-0.2-0.3-0.6-0.6-1.2-0.6
		s-1.2,0.1-1.8,0.5c-0.6,0.2-1.2,0.7-1.7,1.2v9c-0.4,0.1-0.7,0.1-1.3,0.1c-0.2,0-0.6,0-0.8,0C291.2,97.5,291,97.5,290.8,97.5z
		 M302.9,122c0,0.3-0.1,0.7-0.1,1H295c0,1.2,0.4,2.1,0.8,2.8c0.5,0.7,1.3,0.9,2.4,0.9c0.5,0,1.1-0.1,1.7-0.2s1.3-0.5,1.9-0.8
		c0.5,0.3,0.7,0.9,0.8,1.7c-1.4,0.9-3.1,1.5-5,1.5c-1.1,0-1.9-0.1-2.6-0.5c-0.7-0.3-1.3-0.8-1.7-1.4c-0.5-0.6-0.7-1.3-1-2.2
		c-0.2-0.8-0.2-1.7-0.2-2.7s0.1-1.8,0.4-2.7c0.2-0.8,0.6-1.5,1.1-2.1s1.1-1,1.7-1.4c0.6-0.3,1.4-0.5,2.3-0.5c0.8,0,1.7,0.1,2.3,0.5
		c0.6,0.3,1.2,0.7,1.7,1.2s0.8,1,1.1,1.7s0.4,1.4,0.4,2.2C302.9,121.3,302.9,121.6,302.9,122z M304.7,95.4c-0.1-0.5-0.2-0.9-0.2-1.4
		c0-1.4,0.5-2.5,1.4-3.2c1-0.7,2.1-1,3.7-1c0.5,0,0.8,0,1.3,0s0.8,0.1,1.3,0.1v-1c0-1.5-0.7-2.3-2.1-2.3c-1.1,0-2.4,0.3-4.2,1
		c-0.5-0.5-0.8-1-0.8-2c1.8-0.8,3.7-1.2,5.5-1.2c1.4,0,2.5,0.3,3.2,1s1.2,1.8,1.2,3.2v5.3c0,1,0.2,1.8,0.7,2.2
		c-0.2,0.6-0.6,1-1.1,1.4c-1.1-0.2-1.8-0.7-2.1-1.6c-1.3,1.2-2.6,1.7-3.9,1.7c-0.7,0-1.3-0.1-1.8-0.3s-1-0.5-1.3-0.8
		C305.1,96.2,304.9,95.9,304.7,95.4z M315.6,128.8c-0.6,0-1.1-0.1-1.2-0.5c-0.2-0.2-0.4-0.7-0.4-1.3v-6.5c0-0.9-0.1-1.5-0.4-2
		c-0.2-0.3-0.7-0.6-1.2-0.6c-0.6,0-1.2,0.1-1.8,0.5c-0.6,0.2-1.2,0.7-1.7,1.2v9c-0.4,0.1-0.7,0.1-1.3,0.1c-0.2,0-0.6,0-0.8,0
		s-0.5,0-0.6-0.1v-12.7l0.1-0.1h1.1c1,0,1.4,0.6,1.5,1.6c1.3-1.2,2.7-1.7,4.3-1.7c1.2,0,2.1,0.3,2.6,1.2c0.6,0.8,0.8,1.8,0.8,3.1v6
		c0,1,0.1,1.8,0.5,2.3C316.8,128.6,316.3,128.8,315.6,128.8z M318.8,78.6l0.2-0.1h1.1c0.6,0,1,0.1,1.2,0.3s0.4,0.7,0.4,1.3v14.2
		c0,0.8,0.4,1.2,1.1,1.2h1c0.1,0.5,0.2,0.8,0.2,1.2c0,0.3,0,0.6-0.1,0.8c-0.7,0.1-1.4,0.2-2.3,0.2c-1.8,0-2.6-0.9-2.6-2.7V78.6
		H318.8z M327.3,117.7H324v7.7c0,0.8,0.4,1.2,1.1,1.2h1.8c0.1,0.3,0.2,0.8,0.2,1.2c0,0.3,0,0.7,0,0.8c-1.1,0.1-2,0.2-3,0.2
		c-1.9,0-2.9-0.9-2.9-2.7v-8.3h-2c-0.1-0.3-0.1-0.6-0.1-0.9s0-0.7,0.1-1h2v-2.4c0-0.6,0.1-1,0.4-1.3c0.2-0.2,0.6-0.3,1.2-0.3h1.1
		l0.2,0.2v3.8l3.3-0.1c0.1,0.3,0.1,0.6,0.1,1C327.5,117.1,327.5,117.5,327.3,117.7z"/>
	<path class="st0" d="M195,83c-0.2-0.3-0.6-0.6-1-0.8c-0.5-0.2-1-0.2-1.5-0.2s-1.2,0-1.7,0s-0.8,0-1.2,0v7.2h2.7
		c0.6,0,1.1-0.1,1.5-0.3c0.5-0.2,0.7-0.5,1-0.8c0.2-0.3,0.5-0.7,0.6-1.2s0.1-0.9,0.1-1.4s0-0.9-0.1-1.4
		C195.5,83.7,195.3,83.2,195,83z"/>
	<path class="st0" d="M248.6,117.5c-1.9,0-2.9,1.6-2.9,4.7s1,4.7,2.9,4.7s3-1.6,3-4.7S250.5,117.5,248.6,117.5z"/>
	<path class="st0" d="M227.5,117.4c-1.7,0-2.6,1.3-2.7,3.7h5.3v-0.3c0-1-0.2-1.7-0.6-2.4C229,117.7,228.3,117.4,227.5,117.4z"/>
	<path class="st0" d="M215.5,86.3c-1.9,0-2.9,1.6-2.9,4.7s1,4.7,2.9,4.7s3-1.6,3-4.7S217.5,86.3,215.5,86.3z"/>
	<path class="st0" d="M202.6,117.4c-1.7,0-2.6,1.3-2.7,3.7h5.3v-0.3c0-1-0.2-1.7-0.6-2.4C204.3,117.7,203.6,117.4,202.6,117.4z"/>
	<path class="st0" d="M237.7,86.3c-1.7,0-2.6,1.3-2.7,3.7h5.3v-0.3c0-1-0.2-1.7-0.6-2.4C239.2,86.7,238.5,86.3,237.7,86.3z"/>
	<path class="st0" d="M308.9,95.7c1.2,0,2.1-0.5,3.1-1.5v-2.4c-0.4,0-0.7-0.1-1.1-0.1s-0.8,0-1.2,0c-0.8,0-1.4,0.2-1.9,0.6
		c-0.5,0.3-0.7,0.9-0.7,1.5s0.1,1.2,0.5,1.5C308,95.5,308.5,95.7,308.9,95.7z"/>
	<path class="st0" d="M187.1,113h-3.2v13.5h3.2c3,0,4.5-2.2,4.5-6.7c0-2.3-0.4-4-1.2-5.1C189.8,113.5,188.6,113,187.1,113z"/>
	<path class="st0" d="M297.7,117.4c-1.7,0-2.6,1.3-2.7,3.7h5.3v-0.3c0-1-0.2-1.7-0.7-2.4C299.2,117.7,298.5,117.4,297.7,117.4z"/>
	<path class="st0" d="M281.9,95.8c1.9,0,3-1.6,3-4.7s-1-4.7-3-4.7c-1.9,0-2.9,1.6-2.9,4.7C278.9,94.2,279.8,95.8,281.9,95.8z"/>
</g>
<g>
	<path class="st0" d="M118.5,273c-1.9,0-2.9,1.6-2.9,4.7s1,4.7,2.9,4.7s3-1.6,3-4.7S120.5,273,118.5,273z"/>
	<path class="st0" d="M122.7,242.4c0.4-0.1,0.7-0.3,1-0.6c0.2-0.2,0.4-0.6,0.5-0.8c0.1-0.2,0.1-0.7,0.1-1c0-1.7-1-2.7-3-2.7
		c-0.7,0-1.2,0-1.7,0s-0.8,0-1.2,0v5.3h2.7C121.9,242.6,122.3,242.5,122.7,242.4z"/>
	<path class="st0" d="M186.9,245.1c0-1-0.2-1.7-0.6-2.4c-0.5-0.6-1.1-0.9-2-0.9c-1.7,0-2.6,1.3-2.7,3.7h5.3L186.9,245.1L186.9,245.1
		z"/>
	<path class="st0" d="M189.6,278.2c-0.8,0-1.4,0.2-1.9,0.6c-0.5,0.3-0.7,0.9-0.7,1.5s0.1,1.2,0.5,1.5s0.7,0.6,1.3,0.6
		c1.2,0,2.1-0.5,3.1-1.5v-2.4c-0.4,0-0.7-0.1-1.1-0.1C190.4,278.2,189.9,278.2,189.6,278.2z"/>
	<path class="st0" d="M124.3,245.7c-0.2-0.3-0.7-0.6-1.2-0.7c-0.5-0.2-1.1-0.2-1.7-0.2h-3.1v6.2h3.2c0.7,0,1.2-0.1,1.7-0.2
		s0.8-0.3,1.1-0.7c0.2-0.2,0.5-0.6,0.6-0.9s0.1-0.8,0.1-1.2s-0.1-0.8-0.2-1.2C124.7,246.5,124.7,246,124.3,245.7z"/>
	<path class="st0" d="M220.2,273c-1.9,0-2.9,1.6-2.9,4.7s1,4.7,2.9,4.7s3-1.6,3-4.7S222.1,273,220.2,273z"/>
	<path class="st0" d="M163.1,160.5l-88,49.4v98.8l88,49.4l88-49.4v-98.8L163.1,160.5z M157.7,235.3c0.2-0.1,0.7-0.2,1.3-0.2
		c0.7,0,1.2,0.1,1.3,0.2c0.2,0.1,0.4,0.6,0.4,1.3c0,0.6-0.1,1-0.4,1.2c-0.2,0.1-0.6,0.2-1.3,0.2s-1.2-0.1-1.5-0.3
		c-0.1-0.3-0.2-0.7-0.2-1.2C157.4,235.9,157.5,235.4,157.7,235.3z M156.8,240.2c0.6-0.1,1.2-0.1,1.7-0.1h0.4c0.7,0,1.2,0.2,1.5,0.6
		c0.4,0.5,0.6,0.9,0.6,1.7V253c-0.4,0.1-0.8,0.1-1.4,0.1s-1.1,0-1.4-0.1v-9.5c0-0.5-0.1-0.8-0.2-1s-0.5-0.3-1-0.3h-0.2
		c-0.1-0.3-0.1-0.7-0.1-0.9C156.5,240.9,156.7,240.5,156.8,240.2z M145.1,251c0.1-0.3,0.4-0.7,0.6-0.9c1.4,0.8,2.6,1.2,3.4,1.2
		c1,0,1.5-0.1,2-0.5c0.5-0.3,0.6-0.7,0.6-1.2c0-0.8-0.6-1.4-1.7-1.7l-1.5-0.6c-2.3-0.8-3.3-2.1-3.3-3.7c0-1.2,0.5-2.1,1.3-2.8
		c0.8-0.7,2-1,3.4-1s2.9,0.3,4.3,0.9c0,0.3-0.1,0.7-0.2,1s-0.4,0.7-0.6,0.9c-1.3-0.6-2.5-0.8-3.6-0.8c-0.6,0-1.1,0.1-1.4,0.5
		s-0.5,0.6-0.5,1s0.1,0.7,0.4,0.9c0.2,0.2,0.7,0.5,1.3,0.7l1.5,0.6c2.3,0.8,3.4,2.2,3.4,3.9c0,1.2-0.5,2.1-1.4,2.8
		c-1,0.7-2.3,1-3.8,1s-3.2-0.5-4.6-1.3C144.9,251.7,144.9,251.4,145.1,251z M101.1,280.2c0.7,1.2,1.9,1.7,3.4,1.7s3.1-0.7,4.6-2
		c0.7,0.5,1.2,1,1.4,1.7c-0.4,0.3-0.8,0.7-1.3,1s-1.1,0.6-1.5,0.8c-0.6,0.2-1.2,0.5-1.8,0.6s-1.2,0.2-1.8,0.2
		c-1.4,0-2.5-0.2-3.4-0.8s-1.7-1.2-2.1-2.1c-0.5-0.8-1-1.8-1.2-2.9c-0.2-1.2-0.4-2.2-0.4-3.5c0-1.5,0.2-2.9,0.6-4s0.8-2.1,1.5-2.9
		c0.6-0.8,1.4-1.4,2.3-1.7c0.8-0.3,1.8-0.6,2.7-0.6c1.1,0,1.9,0.1,2.7,0.5c0.8,0.2,1.5,0.7,2.1,1.2s1.1,1,1.3,1.6
		c0.4,0.6,0.5,1.3,0.5,2c0,1-0.5,1.5-1.5,1.5c-0.4,0-0.7,0-1.2-0.1c0-0.6-0.1-1-0.2-1.6s-0.4-0.9-0.6-1.4c-0.4-0.3-0.7-0.7-1.2-0.9
		c-0.5-0.2-1.1-0.3-1.8-0.3c-1.4,0-2.4,0.6-3.1,1.7s-1.1,2.9-1.1,5.1C100,277.4,100.4,279.1,101.1,280.2z M122.4,283
		c-1,0.9-2.3,1.4-3.9,1.4c-1,0-1.8-0.1-2.5-0.5c-0.7-0.3-1.3-0.8-1.8-1.4s-0.8-1.3-1.1-2.1c-0.2-0.8-0.4-1.7-0.4-2.8
		c0-1,0.1-2,0.4-2.8c0.2-0.8,0.6-1.5,1.1-2.2c0.5-0.6,1.1-1,1.8-1.4c0.7-0.3,1.5-0.5,2.5-0.5s1.8,0.1,2.5,0.5s1.3,0.8,1.8,1.4
		s0.8,1.3,1.1,2.2c0.2,0.8,0.4,1.7,0.4,2.8C124.3,280,123.6,281.7,122.4,283z M121.7,253.1h-5.9l-0.1-0.2v-17.4l0.1-0.2l5.6-0.1
		c1.9,0,3.4,0.5,4.4,1.3s1.4,2,1.4,3.5c0,0.8-0.2,1.6-0.7,2.2c-0.5,0.7-1.1,1.2-1.8,1.4c0.5,0.1,0.8,0.3,1.3,0.7
		c0.5,0.3,0.8,0.7,1.1,1c0.4,0.3,0.6,0.8,0.7,1.3c0.2,0.5,0.2,1,0.2,1.5c0,1.5-0.5,2.8-1.5,3.7C125.5,252.6,123.9,253.1,121.7,253.1
		z M136.9,284.3c-0.6,0-1.1-0.1-1.2-0.5c-0.2-0.2-0.4-0.7-0.4-1.3v-6.6c0-0.9-0.1-1.5-0.4-2c-0.2-0.3-0.6-0.6-1.2-0.6
		c-0.6,0-1.2,0.1-1.8,0.5c-0.6,0.2-1.2,0.7-1.7,1.2v9c-0.4,0.1-0.7,0.1-1.3,0.1c-0.2,0-0.6,0-0.8,0s-0.5,0-0.6-0.1v-12.7l0.1-0.1
		h1.1c1,0,1.4,0.6,1.5,1.6c1.3-1.2,2.7-1.7,4.3-1.7c1.2,0,2.1,0.3,2.6,1.2c0.6,0.8,0.8,1.8,0.8,3.1v6c0,1,0.1,1.8,0.5,2.3
		C138,284,137.5,284.3,136.9,284.3z M139.3,251.3c-1.4,1.3-2.9,2-4.4,2c-1.2,0-2-0.3-2.6-1.2c-0.6-0.8-0.8-1.8-0.8-3.1v-6
		c0-1-0.1-1.8-0.5-2.3c0.5-0.3,1.1-0.6,1.8-0.6c1,0,1.4,0.6,1.4,1.7v6.6c0,0.9,0.1,1.5,0.4,2c0.2,0.3,0.6,0.6,1.2,0.6
		c0.6,0,1.2-0.1,1.8-0.5c0.6-0.2,1.2-0.7,1.7-1.2v-9c0.5-0.1,1-0.1,1.3-0.1s0.8,0,1.4,0.1v9.1c0,1.2,0.2,2.1,0.7,2.4
		c-0.2,0.6-0.6,1-1.1,1.4C140.5,253,139.8,252.3,139.3,251.3z M149.3,283.4c-1,0.7-2.3,1-3.8,1c-1.7,0-3.2-0.5-4.6-1.3
		c0-0.3,0.1-0.6,0.2-1c0.1-0.3,0.4-0.7,0.6-0.9c1.4,0.8,2.6,1.2,3.4,1.2c1,0,1.5-0.1,2-0.5c0.5-0.3,0.6-0.7,0.6-1.2
		c0-0.8-0.6-1.4-1.7-1.7l-1.5-0.6c-2.3-0.8-3.3-2.1-3.3-3.7c0-1.2,0.5-2.1,1.3-2.8c0.8-0.7,2-1,3.4-1s2.9,0.3,4.3,0.9
		c0,0.3-0.1,0.7-0.2,1s-0.4,0.7-0.6,0.9c-1.3-0.6-2.5-0.8-3.6-0.8c-0.6,0-1.1,0.1-1.4,0.5c-0.4,0.2-0.5,0.6-0.5,1s0.1,0.7,0.4,0.9
		c0.2,0.2,0.7,0.5,1.3,0.7l1.5,0.6c2.3,0.8,3.4,2.2,3.4,3.9C150.7,281.7,150.2,282.7,149.3,283.4z M163.9,284.3
		c-1.1-0.2-1.9-0.8-2.3-1.8c-1.4,1.3-2.9,2-4.4,2c-1.2,0-2-0.3-2.6-1.2c-0.6-0.8-0.8-1.8-0.8-3.1v-6c0-1-0.1-1.8-0.5-2.3
		c0.5-0.3,1.1-0.6,1.8-0.6c1,0,1.4,0.6,1.4,1.7v6.6c0,0.9,0.1,1.5,0.4,2c0.2,0.3,0.6,0.6,1.2,0.6s1.2-0.1,1.8-0.5
		c0.6-0.2,1.2-0.7,1.7-1.2v-9c0.5-0.1,1-0.1,1.3-0.1s0.8,0,1.4,0.1v9.1c0,1.2,0.2,2.1,0.7,2.4C164.7,283.5,164.4,283.9,163.9,284.3z
		 M167.8,253c-0.4,0.1-0.7,0.1-1.3,0.1c-0.2,0-0.6,0-0.8,0s-0.5,0-0.6-0.1v-12.7l0.1-0.1h1.1c1,0,1.4,0.6,1.5,1.6
		c1.3-1.2,2.7-1.7,4.3-1.7c1.2,0,2.1,0.3,2.6,1.2c0.6,0.8,0.8,1.8,0.8,3.1v6c0,1,0.1,1.8,0.5,2.3c-0.5,0.3-1,0.6-1.7,0.6
		c-0.6,0-1.1-0.1-1.2-0.5c-0.2-0.2-0.4-0.7-0.4-1.3v-6.6c0-0.9-0.1-1.5-0.4-2c-0.2-0.3-0.6-0.6-1.2-0.6s-1.2,0.1-1.8,0.5
		c-0.6,0.2-1.2,0.7-1.7,1.2v9H167.8z M173.3,283.9c-0.7,0.1-1.4,0.2-2.3,0.2c-1.8,0-2.6-0.9-2.6-2.7v-16.3l0.2-0.1h1.1
		c0.6,0,1,0.1,1.2,0.3c0.2,0.2,0.4,0.7,0.4,1.3v14.2c0,0.8,0.4,1.2,1.1,1.2h1c0.1,0.5,0.2,0.8,0.2,1.2
		C173.3,283.5,173.3,283.8,173.3,283.9z M182.3,273.2H179v7.7c0,0.8,0.4,1.2,1.1,1.2h1.8c0.1,0.3,0.2,0.8,0.2,1.2c0,0.3,0,0.7,0,0.8
		c-1.1,0.1-2,0.2-3,0.2c-1.9,0-2.9-0.9-2.9-2.7v-8.3h-2c-0.1-0.3-0.1-0.6-0.1-0.9s0-0.7,0.1-1h2v-2.3c0-0.6,0.1-1,0.4-1.3
		c0.2-0.2,0.6-0.3,1.2-0.3h1.1l0.2,0.2v3.8l3.3-0.1c0.1,0.3,0.1,0.6,0.1,1S182.3,273,182.3,273.2z M181.6,252.8
		c-0.7-0.3-1.3-0.8-1.7-1.4c-0.5-0.6-0.7-1.3-1-2.2c-0.2-0.8-0.2-1.7-0.2-2.7c0-0.9,0.1-1.8,0.4-2.7c0.2-0.8,0.6-1.5,1.1-2.1
		s1.1-1,1.7-1.4c0.7-0.3,1.4-0.5,2.3-0.5c0.8,0,1.7,0.1,2.3,0.5c0.6,0.3,1.2,0.7,1.7,1.2s0.8,1,1.1,1.7c0.2,0.7,0.4,1.4,0.4,2.2
		c0,0.3,0,0.7,0,1s-0.1,0.7-0.1,1h-7.8c0,1.2,0.4,2.1,0.8,2.8c0.5,0.7,1.3,0.9,2.4,0.9c0.5,0,1.1-0.1,1.7-0.2s1.3-0.5,1.9-0.8
		c0.5,0.3,0.7,0.9,0.8,1.7c-1.4,0.9-3.1,1.5-5,1.5C183.1,253.3,182.3,253.1,181.6,252.8z M194.3,284.3c-1.1-0.2-1.8-0.7-2.1-1.6
		c-1.3,1.2-2.6,1.7-3.9,1.7c-0.7,0-1.3-0.1-1.8-0.3c-0.5-0.2-1-0.5-1.3-0.8s-0.6-0.8-0.8-1.3c-0.1-0.5-0.2-0.9-0.2-1.4
		c0-1.4,0.5-2.5,1.4-3.2c1-0.7,2.1-1,3.7-1c0.5,0,0.8,0,1.3,0s0.8,0.1,1.3,0.1v-1c0-1.5-0.7-2.3-2.1-2.3c-1.1,0-2.4,0.3-4.2,1
		c-0.5-0.5-0.8-1-0.8-2c1.8-0.8,3.7-1.2,5.5-1.2c1.4,0,2.5,0.3,3.2,1s1.2,1.8,1.2,3.2v5.3c0,1,0.2,1.8,0.7,2.2
		C195.1,283.5,194.8,283.9,194.3,284.3z M191.7,252c0-0.3,0.1-0.6,0.2-1c0.1-0.3,0.4-0.7,0.6-0.9c1.4,0.8,2.6,1.2,3.4,1.2
		c1,0,1.5-0.1,2-0.5c0.5-0.3,0.6-0.7,0.6-1.2c0-0.8-0.6-1.4-1.7-1.7l-1.5-0.6c-2.3-0.8-3.3-2.1-3.3-3.7c0-1.2,0.5-2.1,1.3-2.8
		s2-1,3.4-1s2.9,0.3,4.3,0.9c0,0.3-0.1,0.7-0.2,1s-0.4,0.7-0.6,0.9c-1.3-0.6-2.5-0.8-3.6-0.8c-0.6,0-1.1,0.1-1.4,0.5
		c-0.4,0.2-0.5,0.6-0.5,1c0,0.5,0.1,0.7,0.4,0.9s0.7,0.5,1.3,0.7l1.5,0.6c2.3,0.8,3.4,2.2,3.4,3.9c0,1.2-0.5,2.1-1.4,2.8
		c-1,0.7-2.3,1-3.8,1C194.7,253.3,193.1,252.9,191.7,252z M204.9,273.2h-3.3v7.7c0,0.8,0.4,1.2,1.1,1.2h1.8c0.1,0.3,0.2,0.8,0.2,1.2
		c0,0.3,0,0.7,0,0.8c-1.1,0.1-2,0.2-3,0.2c-1.9,0-2.9-0.9-2.9-2.7v-8.3h-2c-0.1-0.3-0.1-0.6-0.1-0.9s0-0.7,0.1-1h2v-2.3
		c0-0.6,0.1-1,0.4-1.3c0.2-0.2,0.6-0.3,1.2-0.3h1.1l0.2,0.2v3.8l3.3-0.1c0.1,0.3,0.1,0.6,0.1,1S204.9,273,204.9,273.2z M211.2,284
		c-0.4,0.1-0.8,0.1-1.4,0.1s-1.1,0-1.4-0.1v-9.5c0-0.5-0.1-0.8-0.2-1s-0.5-0.3-1-0.3H207c-0.1-0.3-0.1-0.7-0.1-0.9
		c0-0.2,0-0.6,0.1-1c0.6-0.1,1.2-0.1,1.7-0.1h0.4c0.7,0,1.2,0.2,1.5,0.6c0.4,0.5,0.6,0.9,0.6,1.7v10.6V284L211.2,284z M207.6,267.7
		c0-0.7,0.1-1.2,0.4-1.3c0.2-0.1,0.7-0.2,1.3-0.2c0.7,0,1.2,0.1,1.3,0.2c0.2,0.1,0.4,0.6,0.4,1.3c0,0.6-0.1,1-0.4,1.2
		c-0.2,0.1-0.6,0.2-1.3,0.2s-1.2-0.1-1.5-0.3C207.7,268.6,207.6,268.1,207.6,267.7z M211.9,252.3c-1,0.7-2.3,1-3.8,1
		s-3.2-0.5-4.6-1.3c0-0.3,0.1-0.6,0.2-1c0.1-0.3,0.4-0.7,0.6-0.9c1.4,0.8,2.6,1.2,3.4,1.2c1,0,1.5-0.1,2-0.5
		c0.5-0.3,0.6-0.7,0.6-1.2c0-0.8-0.6-1.4-1.7-1.7l-1.5-0.6c-2.3-0.8-3.3-2.1-3.3-3.7c0-1.2,0.5-2.1,1.3-2.8s2-1,3.4-1
		s2.9,0.3,4.3,0.9c0,0.3-0.1,0.7-0.2,1s-0.4,0.7-0.6,0.9c-1.3-0.6-2.5-0.8-3.6-0.8c-0.6,0-1.1,0.1-1.4,0.5c-0.4,0.2-0.5,0.6-0.5,1
		s0.1,0.7,0.4,0.9c0.2,0.2,0.7,0.5,1.3,0.7l1.5,0.6c2.3,0.8,3.4,2.2,3.4,3.9C213.3,250.6,212.8,251.6,211.9,252.3z M224,283
		c-1,0.9-2.3,1.4-3.9,1.4c-1,0-1.8-0.1-2.5-0.5c-0.7-0.3-1.3-0.8-1.8-1.4s-0.8-1.3-1.1-2.1c-0.2-0.8-0.4-1.7-0.4-2.8
		c0-1,0.1-2,0.4-2.8c0.2-0.8,0.6-1.5,1.1-2.2c0.5-0.6,1.1-1,1.8-1.4c0.7-0.3,1.5-0.5,2.5-0.5s1.8,0.1,2.5,0.5
		c0.7,0.3,1.3,0.8,1.8,1.4s0.8,1.3,1.1,2.2c0.2,0.8,0.4,1.7,0.4,2.8C225.9,280,225.3,281.7,224,283z M238.5,284.3
		c-0.6,0-1.1-0.1-1.2-0.5c-0.2-0.2-0.4-0.7-0.4-1.3v-6.6c0-0.9-0.1-1.5-0.4-2c-0.2-0.3-0.6-0.6-1.2-0.6s-1.2,0.1-1.8,0.5
		c-0.6,0.2-1.2,0.7-1.7,1.2v9c-0.4,0.1-0.7,0.1-1.3,0.1c-0.2,0-0.6,0-0.8,0s-0.5,0-0.6-0.1v-12.7l0.1-0.1h1.1c1,0,1.4,0.6,1.5,1.6
		c1.3-1.2,2.7-1.7,4.3-1.7c1.2,0,2.1,0.3,2.6,1.2c0.6,0.8,0.8,1.8,0.8,3.1v6c0,1,0.1,1.8,0.5,2.3C239.7,284,239.1,284.3,238.5,284.3
		z"/>
</g>
<g>
	<path class="st0" d="M358.5,239.4c0-1-0.2-1.7-0.7-2.4c-0.5-0.6-1.1-0.9-2-0.9c-1.7,0-2.6,1.3-2.7,3.7h5.3L358.5,239.4L358.5,239.4
		z"/>
	<path class="st0" d="M371.9,239.4c0-1-0.2-1.7-0.7-2.4c-0.5-0.6-1.1-0.9-2-0.9c-1.7,0-2.6,1.3-2.7,3.7h5.3L371.9,239.4L371.9,239.4
		z"/>
	<path class="st0" d="M332.8,241.3c-0.8,0-1.4,0.2-1.9,0.6c-0.5,0.3-0.7,0.9-0.7,1.5s0.1,1.2,0.5,1.5s0.7,0.6,1.3,0.6
		c1.2,0,2.1-0.5,3.2-1.5v-2.4c-0.4,0-0.7-0.1-1.1-0.1C333.6,241.3,333.2,241.3,332.8,241.3z"/>
	<path class="st0" d="M370.1,267.2c-1.7,0-2.6,1.3-2.7,3.7h5.3v-0.4c0-1-0.2-1.7-0.7-2.4C371.7,267.4,370.9,267.2,370.1,267.2z"/>
	<path class="st0" d="M418.6,268.5c-0.5,0.8-0.7,2-0.7,3.5s0.2,2.7,0.7,3.3c0.5,0.7,1.1,1,1.8,1c1.1,0,2.1-0.5,3-1.5v-6.3
		c-0.8-0.8-1.8-1.2-2.6-1.2C419.8,267.3,419,267.7,418.6,268.5z"/>
	<path class="st0" d="M349.2,161.9l-86.8,48.7V308l86.8,48.7L436,308v-97.4L349.2,161.9z M394.1,260.7c0.2-0.1,0.7-0.2,1.3-0.2
		c0.7,0,1.2,0.1,1.3,0.2c0.2,0.1,0.4,0.6,0.4,1.3c0,0.6-0.1,1-0.4,1.2c-0.2,0.1-0.6,0.2-1.3,0.2s-1.2-0.1-1.5-0.3
		c-0.1-0.3-0.2-0.7-0.2-1.2C393.7,261.2,393.9,260.8,394.1,260.7z M342.2,234.2c1.2,0.2,2,1,2.4,2.3c0.7-1.5,1.9-2.3,3.4-2.3
		c0.5,0,1,0,1.4,0.1c0,1-0.2,1.8-0.7,2.5c-0.1,0-0.5-0.1-1.1-0.1c-1.2,0-2.1,0.7-2.9,2v8.4c-0.4,0.1-0.8,0.1-1.4,0.1s-1.1,0-1.4-0.1
		v-8.9c0-1.2-0.4-2.1-1-2.7C341.4,235,341.6,234.5,342.2,234.2z M298.1,274.5c0.7,1.2,1.9,1.7,3.4,1.7s3.1-0.7,4.6-2
		c0.7,0.5,1.2,1,1.4,1.7c-0.4,0.3-0.8,0.7-1.3,1s-1.1,0.6-1.5,0.8c-0.6,0.2-1.2,0.5-1.8,0.6c-0.6,0.1-1.2,0.2-1.8,0.2
		c-1.4,0-2.5-0.2-3.4-0.8c-1-0.5-1.7-1.2-2.1-2.1c-0.5-0.8-1-1.8-1.2-2.9c-0.2-1.2-0.4-2.2-0.4-3.5c0-1.5,0.2-2.9,0.6-4
		c0.4-1.2,0.8-2.1,1.5-2.9c0.6-0.8,1.4-1.4,2.3-1.7c0.8-0.3,1.8-0.6,2.7-0.6c1.1,0,1.9,0.1,2.7,0.5c0.8,0.2,1.5,0.7,2.1,1.2
		s1.1,1,1.3,1.6c0.4,0.6,0.5,1.3,0.5,2c0,1-0.5,1.5-1.5,1.5c-0.4,0-0.7,0-1.2-0.1c0-0.6-0.1-1-0.2-1.6s-0.4-0.9-0.6-1.4
		c-0.4-0.3-0.7-0.7-1.2-0.9c-0.5-0.2-1.1-0.3-1.8-0.3c-1.4,0-2.4,0.6-3.1,1.7c-0.7,1.2-1.1,2.9-1.1,5.1
		C297.1,271.6,297.4,273.3,298.1,274.5z M319.5,277.2c-1,0.9-2.3,1.4-3.9,1.4c-1,0-1.8-0.1-2.5-0.5c-0.7-0.3-1.3-0.8-1.8-1.4
		s-0.8-1.3-1.1-2.1c-0.2-0.8-0.4-1.7-0.4-2.8s0.1-2,0.4-2.8c0.2-0.8,0.6-1.5,1.1-2.2c0.5-0.6,1.1-1,1.8-1.4c0.7-0.3,1.5-0.5,2.5-0.5
		s1.8,0.1,2.5,0.5s1.3,0.8,1.8,1.4s0.8,1.3,1.1,2.2c0.2,0.8,0.4,1.7,0.4,2.8C321.4,274.2,320.7,276,319.5,277.2z M322.2,246.8
		c-0.6,0.2-1.2,0.5-1.8,0.6c-0.6,0.1-1.2,0.2-1.8,0.2c-1.4,0-2.5-0.2-3.4-0.8c-1-0.5-1.7-1.2-2.1-2.1c-0.5-0.9-1-1.8-1.2-2.9
		c-0.2-1.2-0.4-2.2-0.4-3.5c0-1.5,0.2-2.9,0.6-4s0.8-2.1,1.5-2.9c0.6-0.8,1.4-1.4,2.3-1.7c0.8-0.3,1.8-0.6,2.7-0.6
		c1.1,0,1.9,0.1,2.7,0.5c0.8,0.2,1.5,0.7,2.1,1.2s1.1,1,1.3,1.6c0.4,0.6,0.5,1.3,0.5,2c0,1-0.5,1.5-1.5,1.5c-0.4,0-0.7,0-1.2-0.1
		c0-0.6-0.1-1-0.2-1.6c-0.1-0.5-0.4-0.9-0.6-1.4c-0.4-0.3-0.7-0.7-1.2-0.9c-0.5-0.2-1.1-0.3-1.8-0.3c-1.4,0-2.4,0.6-3.1,1.7
		s-1.1,2.9-1.1,5.1s0.4,3.9,1.2,5.1c0.7,1.2,1.9,1.7,3.4,1.7s3.1-0.7,4.6-2c0.7,0.5,1.2,1,1.4,1.7c-0.4,0.3-0.8,0.7-1.3,1
		C323.4,246.3,322.8,246.5,322.2,246.8z M334.7,278.5c-1.1-0.2-1.9-0.8-2.3-1.8c-1.4,1.3-2.9,2-4.4,2c-1.2,0-2-0.3-2.6-1.2
		s-0.8-1.8-0.8-3.1v-6c0-1-0.1-1.8-0.5-2.3c0.5-0.3,1.1-0.6,1.8-0.6c1,0,1.4,0.6,1.4,1.7v6.6c0,0.9,0.1,1.5,0.4,2
		c0.2,0.3,0.6,0.6,1.2,0.6s1.2-0.1,1.8-0.5c0.6-0.2,1.2-0.7,1.7-1.2v-9c0.5-0.1,1-0.1,1.3-0.1c0.4,0,0.8,0,1.4,0.1v9.1
		c0,1.2,0.2,2.1,0.7,2.4C335.5,277.7,335.2,278.2,334.7,278.5z M337.6,247.3c-1.1-0.2-1.8-0.7-2.1-1.6c-1.3,1.2-2.6,1.7-3.9,1.7
		c-0.7,0-1.3-0.1-1.8-0.3c-0.5-0.2-1-0.5-1.3-0.8c-0.4-0.3-0.6-0.8-0.8-1.3c-0.1-0.5-0.2-0.9-0.2-1.4c0-1.4,0.5-2.5,1.4-3.2
		c1-0.7,2.1-1,3.7-1c0.5,0,0.8,0,1.3,0s0.8,0.1,1.3,0.1v-1c0-1.5-0.7-2.3-2.1-2.3c-1.1,0-2.4,0.3-4.2,1c-0.5-0.5-0.8-1-0.8-2
		c1.8-0.8,3.7-1.2,5.5-1.2c1.4,0,2.5,0.3,3.2,1s1.2,1.8,1.2,3.2v5.3c0,1,0.2,1.8,0.7,2.2C338.4,246.6,338,247.1,337.6,247.3z
		 M348.5,278.5c-0.6,0-1.1-0.1-1.2-0.5c-0.2-0.2-0.4-0.7-0.4-1.3v-6.6c0-0.9-0.1-1.5-0.4-2c-0.2-0.3-0.6-0.6-1.2-0.6
		s-1.2,0.1-1.8,0.5c-0.6,0.2-1.2,0.7-1.7,1.2v9c-0.4,0.1-0.7,0.1-1.3,0.1c-0.2,0-0.6,0-0.8,0s-0.5,0-0.6-0.1v-12.7l0.1-0.1h1.1
		c1,0,1.4,0.6,1.5,1.6c1.3-1.2,2.7-1.7,4.3-1.7c1.2,0,2.1,0.3,2.6,1.2c0.6,0.8,0.8,1.8,0.8,3.1v6c0,1,0.1,1.8,0.5,2.3
		C349.7,278.3,349.2,278.5,348.5,278.5z M351.6,245.6c-0.5-0.6-0.7-1.3-1-2.2c-0.2-0.8-0.2-1.7-0.2-2.7s0.1-1.8,0.4-2.7
		c0.2-0.8,0.6-1.5,1.1-2.1s1.1-1,1.7-1.4c0.7-0.3,1.4-0.5,2.3-0.5c0.8,0,1.7,0.1,2.3,0.5c0.7,0.2,1.2,0.7,1.7,1.2s0.8,1,1.1,1.7
		c0.2,0.7,0.4,1.4,0.4,2.2c0,0.3,0,0.7,0,1s-0.1,0.7-0.1,1h-7.8c0,1.2,0.4,2.1,0.8,2.8c0.5,0.7,1.3,0.9,2.4,0.9
		c0.5,0,1.1-0.1,1.7-0.2s1.3-0.5,1.9-0.8c0.5,0.3,0.7,0.9,0.8,1.7c-1.4,0.9-3.1,1.5-5,1.5c-1.1,0-1.9-0.2-2.6-0.5
		C352.5,246.6,351.9,246.2,351.6,245.6z M361,277.6c-1,0.7-2.3,1-3.8,1s-3.2-0.5-4.6-1.3c0-0.3,0.1-0.6,0.2-1
		c0.1-0.3,0.4-0.7,0.6-0.9c1.4,0.8,2.6,1.2,3.4,1.2c1,0,1.5-0.1,2-0.5c0.5-0.3,0.6-0.7,0.6-1.2c0-0.8-0.6-1.4-1.7-1.7l-1.5-0.6
		c-2.3-0.8-3.3-2.1-3.3-3.7c0-1.2,0.5-2.1,1.3-2.8s2-1,3.4-1s2.9,0.3,4.3,0.9c0,0.3-0.1,0.7-0.2,1s-0.4,0.7-0.6,0.9
		c-1.3-0.6-2.5-0.8-3.6-0.8c-0.6,0-1.1,0.1-1.4,0.5c-0.4,0.2-0.5,0.6-0.5,1s0.1,0.7,0.4,0.9c0.2,0.2,0.7,0.5,1.3,0.7l1.5,0.6
		c2.3,0.8,3.4,2.2,3.4,3.9C362.4,276,361.9,276.9,361,277.6z M363.6,240.8c0-0.9,0.1-1.8,0.4-2.7c0.2-0.8,0.6-1.5,1.1-2.1
		s1.1-1,1.7-1.4c0.7-0.3,1.4-0.5,2.3-0.5c0.8,0,1.7,0.1,2.3,0.5c0.7,0.2,1.2,0.7,1.7,1.2s0.8,1,1.1,1.7c0.2,0.7,0.4,1.4,0.4,2.2
		c0,0.3,0,0.7,0,1s-0.1,0.7-0.1,1h-7.8c0,1.2,0.4,2.1,0.8,2.8c0.5,0.7,1.3,0.9,2.4,0.9c0.5,0,1.1-0.1,1.7-0.2s1.3-0.5,1.9-0.8
		c0.5,0.3,0.7,0.9,0.8,1.7c-1.4,0.9-3.1,1.5-5,1.5c-1.1,0-1.9-0.2-2.6-0.5s-1.3-0.8-1.7-1.4c-0.5-0.6-0.7-1.3-1-2.2
		C363.7,242.6,363.6,241.7,363.6,240.8z M375.3,271.7c0,0.3-0.1,0.7-0.1,1h-7.8c0,1.2,0.4,2.1,0.8,2.8c0.5,0.7,1.3,0.9,2.4,0.9
		c0.5,0,1.1-0.1,1.7-0.2s1.3-0.5,1.9-0.8c0.5,0.3,0.7,0.9,0.8,1.7c-1.4,0.9-3.1,1.5-5,1.5c-1.1,0-1.9-0.1-2.6-0.5
		c-0.7-0.3-1.3-0.8-1.7-1.4c-0.5-0.6-0.7-1.3-1-2.2c-0.2-0.8-0.2-1.7-0.2-2.7c0-0.9,0.1-1.8,0.4-2.7c0.2-0.8,0.6-1.5,1.1-2.1
		s1.1-1,1.7-1.4c0.7-0.3,1.4-0.5,2.3-0.5c0.8,0,1.7,0.1,2.3,0.5c0.7,0.2,1.2,0.7,1.7,1.2s0.8,1,1.1,1.7c0.2,0.7,0.4,1.4,0.4,2.2
		C375.3,271,375.3,271.3,375.3,271.7z M383.7,278.3c-0.7,0.1-1.4,0.2-2.3,0.2c-1.8,0-2.6-0.9-2.6-2.7v-16.3l0.2-0.1h1.1
		c0.6,0,1,0.1,1.2,0.3c0.2,0.2,0.4,0.7,0.4,1.3v14.2c0,0.8,0.4,1.2,1.1,1.2h1c0.1,0.5,0.2,0.8,0.2,1.2
		C383.7,277.8,383.7,278,383.7,278.3z M384.8,237c-0.1,0-0.5-0.1-1.1-0.1c-1.2,0-2.1,0.7-2.9,2v8.4c-0.4,0.1-0.8,0.1-1.4,0.1
		s-1.1,0-1.4-0.1v-8.9c0-1.2-0.4-2.1-1-2.7c0.1-0.7,0.5-1.2,1.1-1.4c1.2,0.2,2,1,2.4,2.3c0.7-1.5,1.9-2.3,3.4-2.3c0.5,0,1,0,1.4,0.1
		C385.4,235.3,385.2,236.3,384.8,237z M391.1,278.3c-0.7,0.1-1.4,0.2-2.3,0.2c-1.8,0-2.6-0.9-2.6-2.7v-16.3l0.2-0.1h1.1
		c0.6,0,1,0.1,1.2,0.3c0.2,0.2,0.4,0.7,0.4,1.3v14.2c0,0.8,0.4,1.2,1.1,1.2h1c0.1,0.5,0.2,0.8,0.2,1.2
		C391.3,277.8,391.3,278,391.1,278.3z M397.3,278.3c-0.4,0.1-0.8,0.1-1.4,0.1s-1.1,0-1.4-0.1v-9.5c0-0.5-0.1-0.8-0.2-1
		s-0.5-0.3-1-0.3h-0.2c-0.1-0.3-0.1-0.7-0.1-0.9c0-0.2,0-0.6,0.1-1c0.6-0.1,1.2-0.1,1.7-0.1h0.4c0.7,0,1.2,0.2,1.5,0.6
		c0.4,0.5,0.6,0.9,0.6,1.7V278.3L397.3,278.3z M410.7,278.5c-0.6,0-1.1-0.1-1.2-0.5c-0.2-0.2-0.4-0.7-0.4-1.3v-6.6
		c0-0.9-0.1-1.5-0.4-2c-0.2-0.3-0.7-0.6-1.2-0.6c-0.6,0-1.2,0.1-1.8,0.5c-0.6,0.2-1.2,0.7-1.7,1.2v9c-0.4,0.1-0.7,0.1-1.3,0.1
		c-0.2,0-0.6,0-0.8,0c-0.2,0-0.5,0-0.6-0.1v-12.7l0.1-0.1h1.1c1,0,1.4,0.6,1.5,1.6c1.3-1.2,2.7-1.7,4.3-1.7c1.2,0,2.1,0.3,2.6,1.2
		c0.6,0.8,0.8,1.8,0.8,3.1v6c0,1,0.1,1.8,0.5,2.3C411.9,278.3,411.3,278.5,410.7,278.5z M425.9,269.2v7.6c0,1.4-0.1,2.4-0.4,3.3
		c-0.2,0.9-0.6,1.6-1.1,2.2s-1.1,0.9-1.8,1.3c-0.7,0.2-1.5,0.3-2.6,0.3c-1.5,0-3.1-0.2-4.6-0.8c0-0.8,0.2-1.5,0.7-2.1
		c1.1,0.6,2.4,0.8,3.7,0.8c1.3,0,2.1-0.3,2.6-0.9s0.7-1.5,0.7-2.7V277c-1.1,0.9-2.3,1.4-3.7,1.4s-2.5-0.6-3.3-1.7
		c-0.8-1.2-1.2-2.9-1.2-5c0-1,0.1-2,0.4-2.8c0.2-0.8,0.6-1.5,1.1-2.1s1.1-1,1.7-1.3s1.3-0.5,2-0.5c1.4,0,2.6,0.5,3.7,1.4
		c0.4-0.6,1-1,1.8-1.2c0.2,0.1,0.5,0.3,0.6,0.6c0.2,0.2,0.4,0.6,0.4,0.8C426.2,267.2,425.9,268,425.9,269.2z"/>
	<path class="st0" d="M315.6,267.2c-1.9,0-2.9,1.6-2.9,4.7s1,4.7,2.9,4.7s3-1.6,3-4.7C318.6,268.8,317.6,267.2,315.6,267.2z"/>
</g>
<g>
	<path class="st0" d="M544.6,278.2c-0.8,0-1.4,0.2-1.9,0.6c-0.5,0.3-0.7,0.9-0.7,1.5s0.1,1.2,0.5,1.5s0.7,0.6,1.3,0.6
		c1.2,0,2.1-0.5,3.1-1.5v-2.4c-0.4,0-0.7-0.1-1.1-0.1C545.4,278.2,545.1,278.2,544.6,278.2z"/>
	<path class="st0" d="M498.4,241.8c-1.7,0-2.6,1.3-2.7,3.7h5.3v-0.3c0-1-0.2-1.7-0.7-2.4C499.9,242.1,499.2,241.8,498.4,241.8z"/>
	<path class="st0" d="M601,249.6v-2.4c-0.4,0-0.7-0.1-1.1-0.1s-0.8,0-1.2,0c-0.8,0-1.4,0.2-1.9,0.6c-0.5,0.3-0.7,0.9-0.7,1.5
		s0.1,1.2,0.5,1.5s0.7,0.6,1.3,0.6C599,251.1,600.1,250.7,601,249.6z"/>
	<path class="st0" d="M522.2,251c0.8,0,1.5-0.3,2-1.2c0.5-0.8,0.7-2,0.7-3.5s-0.2-2.7-0.7-3.3c-0.5-0.7-1.1-1-1.8-1
		c-1.2,0-2.1,0.6-3,1.7v6.3c0.5,0.3,1,0.6,1.3,0.7C521.4,251,521.8,251,522.2,251z"/>
	<path class="st0" d="M538.3,245.1c0-1-0.2-1.7-0.7-2.4c-0.5-0.6-1.1-0.9-2-0.9c-1.7,0-2.6,1.3-2.7,3.7h5.3L538.3,245.1L538.3,245.1
		z"/>
	<path class="st0" d="M535.1,160.5l-88,49.4v98.8l88,49.4l88-49.4v-98.8L535.1,160.5z M578.2,266.5c0.2,0.1,0.4,0.6,0.4,1.3
		c0,0.6-0.1,1-0.4,1.2c-0.2,0.1-0.6,0.2-1.3,0.2c-0.7,0-1.2-0.1-1.5-0.3c-0.1-0.3-0.2-0.7-0.2-1.2c0-0.7,0.1-1.2,0.4-1.3
		s0.7-0.2,1.3-0.2C577.5,266.3,578,266.4,578.2,266.5z M565.3,243.8c0.2-0.8,0.6-1.5,1.1-2.2c0.5-0.6,1.1-1,1.8-1.4
		c0.7-0.3,1.5-0.5,2.5-0.5s1.8,0.1,2.5,0.5s1.3,0.8,1.8,1.4s0.8,1.3,1.1,2.2c0.2,0.8,0.4,1.7,0.4,2.8c0,2.3-0.6,4-1.9,5.3
		c-1,0.9-2.3,1.4-3.9,1.4c-1,0-1.8-0.1-2.5-0.5c-0.7-0.3-1.3-0.8-1.8-1.4s-0.8-1.3-1.1-2.1c-0.2-0.8-0.4-1.7-0.4-2.8
		C564.9,245.6,565,244.7,565.3,243.8z M530.5,243.9c0.2-0.8,0.6-1.5,1.1-2.1s1.1-1,1.7-1.4c0.7-0.3,1.4-0.5,2.3-0.5
		c0.8,0,1.7,0.1,2.3,0.5c0.7,0.2,1.2,0.7,1.7,1.2s0.8,1,1.1,1.7c0.2,0.7,0.4,1.4,0.4,2.2c0,0.3,0,0.7,0,1s-0.1,0.7-0.1,1h-7.8
		c0,1.2,0.4,2.1,0.8,2.8s1.3,0.9,2.4,0.9c0.5,0,1.1-0.1,1.7-0.2s1.3-0.5,1.9-0.8c0.5,0.3,0.7,0.9,0.8,1.7c-1.4,0.9-3.1,1.5-5,1.5
		c-1.1,0-1.9-0.2-2.6-0.5s-1.3-0.8-1.7-1.4c-0.5-0.6-0.7-1.3-1-2.2c-0.2-0.8-0.2-1.7-0.2-2.7C530.1,245.5,530.2,244.7,530.5,243.9z
		 M462.6,235.2c0.4-0.1,0.8-0.1,1.4-0.1s1.1,0,1.4,0.1V253c-0.4,0.1-0.8,0.1-1.4,0.1s-1.1,0-1.4-0.1V235.2z M472.3,283
		c-1.1,0.9-2.9,1.4-5.1,1.4c-2.3,0-4.3-0.7-6.2-2c0.1-0.8,0.5-1.5,1.2-2.1c1.9,1.2,3.7,1.7,5.3,1.7c1.1,0,1.9-0.2,2.5-0.7s1-1,1-1.7
		c0-1.2-0.8-2.1-2.4-2.8l-3.1-1.3c-2.5-1-3.7-2.5-3.7-4.5c0-0.7,0.1-1.4,0.5-2s0.7-1.2,1.3-1.6c0.5-0.5,1.2-0.8,1.9-1
		s1.5-0.3,2.5-0.3c1.9,0,3.7,0.5,5.6,1.4c0,0.8-0.4,1.5-1.1,2.2c-1.7-0.8-3.2-1.3-4.5-1.3c-1,0-1.8,0.2-2.4,0.7s-0.8,1-0.8,1.6
		c0,0.7,0.2,1.2,0.6,1.5s1,0.7,1.7,0.9l3.1,1.3c1.3,0.6,2.4,1.3,3,2c0.7,0.8,1,1.7,1,2.8C473.9,280.7,473.3,282,472.3,283z
		 M474.4,242.8c-0.6,0.2-1.2,0.7-1.7,1.2v9c-0.4,0.1-0.7,0.1-1.3,0.1c-0.2,0-0.6,0-0.8,0c-0.2,0-0.5,0-0.6-0.1v-12.7l0.1-0.1h1.1
		c1,0,1.4,0.6,1.5,1.6c1.3-1.2,2.7-1.7,4.3-1.7c1.2,0,2.1,0.3,2.6,1.2c0.6,0.8,0.8,1.8,0.8,3.1v6c0,1,0.1,1.8,0.5,2.3
		c-0.5,0.3-1,0.6-1.7,0.6c-0.6,0-1.1-0.1-1.2-0.5c-0.2-0.2-0.4-0.7-0.4-1.3v-6.6c0-0.9-0.1-1.5-0.4-2c-0.2-0.3-0.7-0.6-1.2-0.6
		C475.7,242.4,475,242.5,474.4,242.8z M486,284.3c-0.5,0-0.8-0.1-1.1-0.3c-0.2-0.2-0.5-0.6-0.7-1.2l-1.1-2.5c-0.2-0.7-0.6-1.2-1-1.4
		c-0.4-0.2-0.7-0.3-1.1-0.3c-0.5,0-1,0-1.5,0v5.5c-0.4,0.1-0.8,0.1-1.3,0.1c-0.6,0-1,0-1.3-0.1v-18.9l0.1-0.1h1.1
		c0.6,0,1,0.1,1.2,0.3c0.2,0.2,0.4,0.7,0.4,1.3v9.6h1c0.2,0,0.5-0.1,0.6-0.3l2.4-3.6c0.5-0.8,1.1-1.2,1.7-1.2c0.7,0,1.2,0,1.5,0
		l0.1,0.2l-2.9,4.5c-0.2,0.5-0.6,0.8-0.8,1c1.1,0.2,1.9,1,2.5,2.3l1,2.2c0.4,1,0.8,1.7,1.3,2.1C487.5,283.9,486.8,284.3,486,284.3z
		 M485.1,250.3V242h-2c-0.1-0.3-0.1-0.6-0.1-0.9s0-0.7,0.1-1h2v-2.3c0-0.6,0.1-1,0.4-1.3c0.2-0.2,0.6-0.3,1.2-0.3h1.1l0.2,0.2v3.8
		l3.3-0.1c0.1,0.3,0.1,0.6,0.1,1c0,0.3,0,0.7-0.1,1H488v7.7c0,0.8,0.4,1.2,1.1,1.2h1.8c0.1,0.3,0.2,0.8,0.2,1.2s0,0.7,0,0.8
		c-1.1,0.1-2,0.2-3,0.2C486,253.1,485.1,252.2,485.1,250.3z M491.6,266.3c0.7,0,1.2,0.1,1.3,0.2c0.2,0.1,0.4,0.6,0.4,1.3
		c0,0.6-0.1,1-0.4,1.2c-0.2,0.1-0.6,0.2-1.3,0.2s-1.2-0.1-1.5-0.3c-0.1-0.3-0.2-0.7-0.2-1.2c0-0.7,0.1-1.2,0.4-1.3
		C490.4,266.3,490.9,266.3,491.6,266.3z M493.4,284c-0.4,0.1-0.8,0.1-1.4,0.1s-1.1,0-1.4-0.1v-9.5c0-0.5-0.1-0.8-0.2-1
		s-0.5-0.3-1-0.3h-0.2c-0.1-0.3-0.1-0.7-0.1-0.9c0-0.2,0-0.6,0.1-1c0.6-0.1,1.2-0.1,1.7-0.1h0.4c0.7,0,1.2,0.2,1.5,0.6
		c0.4,0.5,0.6,0.9,0.6,1.7V284L493.4,284z M502.3,283.9c-0.7,0.1-1.4,0.2-2.3,0.2c-1.8,0-2.6-0.9-2.6-2.7v-16.3l0.2-0.1h1.1
		c0.6,0,1,0.1,1.2,0.3c0.2,0.2,0.4,0.7,0.4,1.3v14.2c0,0.8,0.4,1.2,1.1,1.2h1c0.1,0.5,0.2,0.8,0.2,1.2
		C502.4,283.5,502.4,283.8,502.3,283.9z M503.6,246.4c0,0.3-0.1,0.7-0.1,1h-7.8c0,1.2,0.4,2.1,0.8,2.8c0.5,0.7,1.3,0.9,2.4,0.9
		c0.5,0,1.1-0.1,1.7-0.2s1.3-0.5,1.9-0.8c0.5,0.3,0.7,0.9,0.8,1.7c-1.4,0.9-3.1,1.5-5,1.5c-1.1,0-1.9-0.2-2.6-0.5s-1.3-0.8-1.7-1.4
		c-0.5-0.6-0.7-1.3-1-2.2c-0.2-0.8-0.2-1.7-0.2-2.7c0-0.9,0.1-1.8,0.4-2.7c0.2-0.8,0.6-1.5,1.1-2.1s1.1-1,1.7-1.4
		c0.7-0.3,1.4-0.5,2.3-0.5c0.8,0,1.7,0.1,2.3,0.5c0.7,0.2,1.2,0.7,1.7,1.2s0.8,1,1.1,1.7c0.2,0.7,0.4,1.4,0.4,2.2
		C503.6,245.7,503.6,246.1,503.6,246.4z M509.9,283.9c-0.7,0.1-1.4,0.2-2.3,0.2c-1.8,0-2.6-0.9-2.6-2.7v-16.3l0.2-0.1h1.1
		c0.6,0,1,0.1,1.2,0.3c0.2,0.2,0.4,0.7,0.4,1.3v14.2c0,0.8,0.4,1.2,1.1,1.2h1c0.1,0.5,0.2,0.8,0.2,1.2
		C510,283.5,509.9,283.8,509.9,283.9z M514,242.7c-0.1,0-0.5-0.1-1.1-0.1c-1.2,0-2.1,0.7-2.9,2v8.4c-0.4,0.1-0.8,0.1-1.4,0.1
		s-1.1,0-1.4-0.1v-8.9c0-1.2-0.4-2.1-1-2.7c0.1-0.7,0.5-1.2,1.1-1.4c1.2,0.2,2,1,2.4,2.3c0.7-1.5,1.9-2.3,3.4-2.3c0.5,0,1,0,1.4,0.1
		C514.7,241.1,514.4,242,514,242.7z M516.9,240.2l0.1-0.1h0.8c0.8,0,1.4,0.5,1.7,1.3c1.1-1,2.3-1.5,3.7-1.5c0.7,0,1.3,0.1,1.9,0.5
		s1.1,0.8,1.4,1.4c0.4,0.6,0.7,1.3,0.8,2.1c0.2,0.8,0.4,1.7,0.4,2.8s-0.1,2-0.4,2.8c-0.2,0.8-0.6,1.5-1.1,2.1s-1.1,1-1.7,1.3
		s-1.3,0.5-2,0.5c-1,0-2-0.2-3.1-0.8v4.5c0,0.6-0.1,1-0.4,1.3c-0.2,0.2-0.6,0.3-1.2,0.3h-1.1l-0.1-0.1v-18.1L516.9,240.2
		L516.9,240.2z M528,268.7h-1.8h-1.5v15.4c-0.4,0.1-1,0.1-1.4,0.1c-0.6,0-1.1,0-1.4-0.1v-13.6v-2l0,0h-1.5h-3.2
		c-0.1-0.3-0.1-0.8-0.1-1.2c0-0.3,0-0.8,0.1-1.2h12.2c0.1,0.5,0.1,0.8,0.1,1.2C529.6,268.3,529,268.7,528,268.7z M537.6,273.8
		c-0.1,0-0.5-0.1-1.1-0.1c-1.2,0-2.1,0.7-2.9,2v8.4c-0.4,0.1-0.8,0.1-1.4,0.1s-1.1,0-1.4-0.1v-8.9c0-1.2-0.4-2.1-1-2.7
		c0.1-0.7,0.5-1.2,1.1-1.4c1.2,0.2,2,1,2.4,2.3c0.7-1.5,1.9-2.3,3.4-2.3c0.5,0,1,0,1.4,0.1C538.2,272.3,538,273.1,537.6,273.8z
		 M549.5,284.3c-1.1-0.2-1.8-0.7-2.1-1.6c-1.3,1.2-2.6,1.7-3.9,1.7c-0.7,0-1.3-0.1-1.8-0.3c-0.5-0.2-1-0.5-1.3-0.8
		c-0.4-0.3-0.6-0.8-0.8-1.3c-0.1-0.5-0.2-0.9-0.2-1.4c0-1.4,0.5-2.5,1.4-3.2c1-0.7,2.1-1,3.7-1c0.5,0,0.8,0,1.3,0s0.8,0.1,1.3,0.1
		v-1c0-1.5-0.7-2.3-2.1-2.3c-1.1,0-2.4,0.3-4.2,1c-0.5-0.5-0.8-1-0.8-2c1.8-0.8,3.7-1.2,5.5-1.2c1.4,0,2.5,0.3,3.2,1
		s1.2,1.8,1.2,3.2v5.3c0,1,0.2,1.8,0.7,2.2C550.2,283.5,549.9,283.9,549.5,284.3z M551.3,242.7c-0.1,0-0.5-0.1-1.1-0.1
		c-1.2,0-2.1,0.7-2.9,2v8.4c-0.4,0.1-0.8,0.1-1.4,0.1s-1.1,0-1.4-0.1v-8.9c0-1.2-0.4-2.1-1-2.7c0.1-0.7,0.5-1.2,1.1-1.4
		c1.2,0.2,2,1,2.4,2.3c0.7-1.5,1.9-2.3,3.4-2.3c0.5,0,1,0,1.4,0.1C552,241.1,551.7,242,551.3,242.7z M556.8,284
		c-0.4,0.1-0.8,0.1-1.4,0.1s-1.1,0-1.4-0.1v-9.5c0-0.5-0.1-0.8-0.2-1s-0.5-0.3-1-0.3h-0.2c-0.1-0.3-0.1-0.7-0.1-0.9
		c0-0.2,0-0.6,0.1-1c0.6-0.1,1.2-0.1,1.7-0.1h0.4c0.7,0,1.2,0.2,1.5,0.6c0.4,0.5,0.6,0.9,0.6,1.7V284L556.8,284z M553.3,267.7
		c0-0.7,0.1-1.2,0.4-1.3c0.2-0.1,0.7-0.2,1.3-0.2c0.7,0,1.2,0.1,1.3,0.2c0.2,0.1,0.4,0.6,0.4,1.3c0,0.6-0.1,1-0.4,1.2
		c-0.2,0.1-0.6,0.2-1.3,0.2c-0.7,0-1.2-0.1-1.5-0.3C553.4,268.6,553.3,268.1,553.3,267.7z M552.9,252c0-0.3,0.1-0.6,0.2-1
		c0.1-0.3,0.4-0.7,0.6-0.9c1.4,0.8,2.6,1.2,3.4,1.2c1,0,1.5-0.1,2-0.5c0.5-0.3,0.6-0.7,0.6-1.2c0-0.8-0.6-1.4-1.7-1.7l-1.5-0.6
		c-2.3-0.8-3.3-2.1-3.3-3.7c0-1.2,0.5-2.1,1.3-2.8s2-1,3.4-1s2.9,0.3,4.3,0.9c0,0.3-0.1,0.7-0.2,1s-0.4,0.7-0.6,0.9
		c-1.3-0.6-2.5-0.8-3.6-0.8c-0.6,0-1.1,0.1-1.4,0.5c-0.4,0.2-0.5,0.6-0.5,1c0,0.5,0.1,0.7,0.4,0.9c0.2,0.2,0.7,0.5,1.3,0.7l1.5,0.6
		c2.3,0.8,3.4,2.2,3.4,3.9c0,1.2-0.5,2.1-1.4,2.8c-1,0.7-2.3,1-3.8,1C555.9,253.3,554.3,252.9,552.9,252z M570.4,284.3
		c-0.6,0-1.1-0.1-1.2-0.5c-0.2-0.2-0.4-0.7-0.4-1.3v-6.6c0-0.9-0.1-1.5-0.4-2c-0.2-0.3-0.7-0.6-1.2-0.6c-0.6,0-1.2,0.1-1.8,0.5
		c-0.6,0.2-1.2,0.7-1.7,1.2v9c-0.4,0.1-0.7,0.1-1.3,0.1c-0.2,0-0.6,0-0.8,0c-0.2,0-0.5,0-0.6-0.1v-12.7l0.1-0.1h1.1
		c1,0,1.4,0.6,1.5,1.6c1.3-1.2,2.7-1.7,4.3-1.7c1.2,0,2.1,0.3,2.6,1.2c0.6,0.8,0.8,1.8,0.8,3.1v6c0,1,0.1,1.8,0.5,2.3
		C571.4,284,571,284.3,570.4,284.3z M578.7,284c-0.4,0.1-0.8,0.1-1.4,0.1s-1.1,0-1.4-0.1v-9.5c0-0.5-0.1-0.8-0.2-1s-0.5-0.3-1-0.3
		h-0.2c-0.1-0.3-0.1-0.7-0.1-0.9c0-0.2,0-0.6,0.1-1c0.6-0.1,1.2-0.1,1.7-0.1h0.4c0.7,0,1.2,0.2,1.5,0.6c0.4,0.5,0.6,0.9,0.6,1.7V284
		L578.7,284z M582.5,253c-0.4,0.1-0.7,0.1-1.3,0.1c-0.2,0-0.6,0-0.8,0s-0.5,0-0.6-0.1v-12.7l0.1-0.1h1.1c1,0,1.4,0.6,1.5,1.6
		c1.3-1.2,2.7-1.7,4.3-1.7c1.2,0,2.1,0.3,2.6,1.2c0.6,0.8,0.8,1.8,0.8,3.1v6c0,1,0.1,1.8,0.5,2.3c-0.5,0.3-1,0.6-1.7,0.6
		c-0.6,0-1.1-0.1-1.2-0.5c-0.2-0.2-0.4-0.7-0.4-1.3v-6.6c0-0.9-0.1-1.5-0.4-2c-0.2-0.3-0.7-0.6-1.2-0.6c-0.6,0-1.2,0.1-1.8,0.5
		c-0.6,0.2-1.2,0.7-1.7,1.2L582.5,253L582.5,253z M592.1,284.3c-0.6,0-1.1-0.1-1.2-0.5c-0.2-0.2-0.4-0.7-0.4-1.3v-6.6
		c0-0.9-0.1-1.5-0.4-2c-0.2-0.3-0.7-0.6-1.2-0.6c-0.6,0-1.2,0.1-1.8,0.5c-0.6,0.2-1.2,0.7-1.7,1.2v9c-0.4,0.1-0.7,0.1-1.3,0.1
		c-0.2,0-0.6,0-0.8,0c-0.2,0-0.5,0-0.6-0.1v-12.7l0.1-0.1h1.1c1,0,1.4,0.6,1.5,1.6c1.3-1.2,2.7-1.7,4.3-1.7c1.2,0,2.1,0.3,2.6,1.2
		c0.6,0.8,0.8,1.8,0.8,3.1v6c0,1,0.1,1.8,0.5,2.3C593.3,284,592.7,284.3,592.1,284.3z M594.4,252.2c-0.4-0.3-0.6-0.8-0.8-1.3
		c-0.1-0.5-0.2-0.9-0.2-1.4c0-1.4,0.5-2.5,1.4-3.2c1-0.7,2.1-1,3.7-1c0.5,0,0.8,0,1.3,0s0.8,0.1,1.3,0.1v-1c0-1.5-0.7-2.3-2.1-2.3
		c-1.1,0-2.4,0.3-4.2,1c-0.5-0.5-0.8-1-0.8-2c1.8-0.8,3.7-1.2,5.5-1.2c1.4,0,2.5,0.3,3.2,1s1.2,1.8,1.2,3.2v5.3c0,1,0.2,1.8,0.7,2.2
		c-0.2,0.6-0.6,1-1.1,1.4c-1.1-0.2-1.8-0.7-2.1-1.6c-1.3,1.2-2.6,1.7-3.9,1.7c-0.7,0-1.3-0.1-1.8-0.3
		C595.1,252.8,594.7,252.5,594.4,252.2z M607.3,274.9v7.6c0,1.4-0.1,2.4-0.4,3.3s-0.6,1.6-1.1,2.2s-1.1,0.9-1.8,1.3
		c-0.7,0.2-1.5,0.3-2.6,0.3c-1.5,0-3.1-0.2-4.6-0.8c0-0.8,0.2-1.5,0.7-2.1c1.1,0.6,2.4,0.8,3.7,0.8s2.1-0.3,2.6-0.9s0.7-1.5,0.7-2.7
		v-1.2c-1.1,0.9-2.3,1.4-3.7,1.4c-1.4,0-2.5-0.6-3.3-1.7c-0.8-1.2-1.2-2.9-1.2-5c0-1,0.1-2,0.4-2.8c0.2-0.8,0.6-1.5,1.1-2.1
		s1.1-1,1.7-1.3s1.3-0.5,2-0.5c1.4,0,2.6,0.5,3.7,1.4c0.4-0.6,1-1,1.8-1.2c0.2,0.1,0.5,0.3,0.6,0.6c0.2,0.2,0.4,0.6,0.4,0.8
		C607.6,273,607.3,273.8,607.3,274.9z M612.7,252.9c-0.7,0.1-1.4,0.2-2.3,0.2c-1.8,0-2.6-0.9-2.6-2.7v-16.3l0.2-0.1h1.1
		c0.6,0,1,0.1,1.2,0.3c0.2,0.2,0.4,0.7,0.4,1.3v14.2c0,0.8,0.4,1.2,1.1,1.2h1c0.1,0.5,0.2,0.8,0.2,1.2
		C612.8,252.4,612.7,252.6,612.7,252.9z"/>
	<path class="st0" d="M570.7,251.3c1.9,0,3-1.6,3-4.7s-1-4.7-3-4.7c-1.9,0-2.9,1.6-2.9,4.7C567.9,249.6,568.8,251.3,570.7,251.3z"/>
	<path class="st0" d="M600,274.2c-0.5,0.8-0.7,2-0.7,3.5s0.2,2.7,0.7,3.3c0.5,0.7,1.1,1,1.8,1c1.1,0,2.1-0.5,3-1.5v-6.3
		c-0.8-0.8-1.8-1.2-2.6-1.2C601.1,273.1,600.4,273.4,600,274.2z"/>
</g>
<g>
	<path class="st0" d="M490,405.3c-0.5,0.8-0.7,2-0.7,3.5s0.2,2.7,0.7,3.3c0.5,0.7,1.1,1,1.8,1c1.1,0,2.1-0.5,3-1.5v-6.3
		c-0.8-0.8-1.8-1.2-2.6-1.2S490.4,404.4,490,405.3z"/>
	<path class="st0" d="M455.8,376.2c0-1-0.2-1.7-0.7-2.4c-0.5-0.6-1.1-0.9-2-0.9c-1.7,0-2.6,1.3-2.7,3.7h5.3L455.8,376.2L455.8,376.2
		z"/>
	<path class="st0" d="M416.3,404c-1.9,0-2.9,1.6-2.9,4.7c0,3.1,1,4.7,2.9,4.7s3-1.6,3-4.7S418.3,404,416.3,404z"/>
	<path class="st0" d="M429.7,409.2c-0.8,0-1.4,0.2-1.9,0.6c-0.5,0.3-0.7,0.9-0.7,1.5s0.1,1.2,0.5,1.5s0.7,0.6,1.3,0.6
		c1.2,0,2.1-0.5,3.1-1.5v-2.4c-0.4,0-0.7-0.1-1.1-0.1C430.6,409.2,430.2,409.2,429.7,409.2z"/>
	<path class="st0" d="M441.1,316.7l-69,38.7v77.3l69,38.7l69-38.7v-77.3L441.1,316.7z M465.5,397.5c0.2-0.1,0.7-0.2,1.3-0.2
		c0.7,0,1.2,0.1,1.3,0.2c0.2,0.1,0.4,0.6,0.4,1.3c0,0.6-0.1,1-0.4,1.2c-0.2,0.1-0.6,0.2-1.3,0.2s-1.2-0.1-1.5-0.3
		c-0.1-0.3-0.2-0.7-0.2-1.2C465.1,398,465.3,397.6,465.5,397.5z M438.1,371.2h2.1c-0.1-1-0.1-1.8-0.1-2.3c0-0.6,0.1-1.2,0.2-1.6
		c0.1-0.5,0.5-0.9,0.8-1.3c0.4-0.3,0.8-0.7,1.3-0.8s1.1-0.3,1.7-0.3c1.2,0,2.4,0.2,3.4,0.6c0,0.8-0.2,1.4-0.6,1.8
		c-0.4-0.1-0.8-0.2-1.2-0.2c-0.4-0.1-0.7-0.1-1-0.1c-0.7,0-1.3,0.2-1.7,0.6c-0.4,0.3-0.5,0.9-0.5,1.7c0,0.3,0,0.6,0,0.9
		c0,0.3,0.1,0.7,0.1,1h3.8c0,0.1,0.1,0.3,0.1,0.5c0,0.1,0,0.3,0,0.6c0,0.1,0,0.3,0,0.5c0,0.1,0,0.3-0.1,0.5h-3.6v10.9
		c-0.2,0-0.4,0.1-0.6,0.1s-0.5,0-0.7,0s-0.5,0-0.7,0s-0.5,0-0.6-0.1v-11h-2.3c0-0.1-0.1-0.3-0.1-0.5c0-0.1,0-0.3,0-0.5
		C437.9,371.8,438.1,371.4,438.1,371.2z M432.6,366.4c0.2-0.1,0.7-0.2,1.3-0.2c0.7,0,1.2,0.1,1.3,0.2c0.2,0.1,0.4,0.6,0.4,1.3
		c0,0.6-0.1,1-0.4,1.2c-0.2,0.1-0.6,0.2-1.3,0.2s-1.2-0.1-1.5-0.3c-0.1-0.3-0.2-0.7-0.2-1.2C432.2,366.9,432.4,366.5,432.6,366.4z
		 M419.4,366.4l0.2-0.1h1.1c0.6,0,1.1,0.1,1.3,0.5c0.2,0.2,0.4,0.7,0.4,1.4v13.7c0.7-0.1,1.5-0.1,2.4-0.1h5.3c0,0.3,0,0.8-0.1,1.2
		c-0.1,0.9-0.8,1.4-1.8,1.4h-7c-0.5,0-1-0.1-1.2-0.5c-0.4-0.3-0.5-0.7-0.5-1.3L419.4,366.4L419.4,366.4z M399,411.3
		c0.7,1.2,1.9,1.7,3.4,1.7s3.1-0.7,4.6-2c0.7,0.5,1.2,1,1.4,1.7c-0.4,0.3-0.8,0.7-1.3,1s-1.1,0.6-1.5,0.8c-0.6,0.2-1.2,0.5-1.8,0.6
		c-0.6,0.1-1.2,0.2-1.8,0.2c-1.4,0-2.5-0.2-3.4-0.8c-1-0.5-1.7-1.2-2.1-2.1c-0.5-0.8-1-1.8-1.2-2.9c-0.2-1.2-0.4-2.2-0.4-3.5
		c0-1.5,0.2-2.9,0.6-4s0.8-2.1,1.5-2.9c0.6-0.8,1.4-1.4,2.3-1.7c0.8-0.3,1.8-0.6,2.7-0.6c1.1,0,1.9,0.1,2.7,0.5
		c0.8,0.2,1.5,0.7,2.1,1.2s1.1,1,1.3,1.6c0.4,0.6,0.5,1.3,0.5,2c0,1-0.5,1.5-1.5,1.5c-0.4,0-0.7,0-1.2-0.1c0-0.6-0.1-1-0.2-1.6
		c-0.1-0.5-0.4-0.9-0.6-1.4c-0.4-0.3-0.7-0.7-1.2-0.9s-1.1-0.3-1.8-0.3c-1.4,0-2.4,0.6-3.1,1.7c-0.7,1.2-1.1,2.9-1.1,5.1
		C397.8,408.4,398.1,410.1,399,411.3z M420.2,414c-1,0.9-2.3,1.4-3.9,1.4c-1,0-1.8-0.1-2.5-0.5c-0.7-0.3-1.3-0.8-1.8-1.4
		c-0.5-0.6-0.8-1.3-1.1-2.1s-0.4-1.7-0.4-2.8c0-1,0.1-2,0.4-2.8c0.2-0.8,0.6-1.5,1.1-2.2c0.5-0.6,1.1-1,1.8-1.4
		c0.7-0.3,1.5-0.5,2.5-0.5s1.8,0.1,2.5,0.5c0.7,0.3,1.3,0.8,1.8,1.4c0.5,0.6,0.8,1.3,1.1,2.2c0.2,0.8,0.4,1.7,0.4,2.8
		C422.1,411,421.4,412.8,420.2,414z M434.5,415.3c-1.1-0.2-1.8-0.7-2.1-1.6c-1.3,1.2-2.6,1.7-3.9,1.7c-0.7,0-1.3-0.1-1.8-0.3
		s-1-0.5-1.3-0.8c-0.4-0.3-0.6-0.8-0.8-1.3c-0.1-0.5-0.2-0.9-0.2-1.4c0-1.4,0.5-2.5,1.4-3.2c1-0.7,2.1-1,3.7-1c0.5,0,0.8,0,1.3,0
		s0.8,0.1,1.3,0.1v-1c0-1.5-0.7-2.3-2.1-2.3c-1.1,0-2.4,0.3-4.2,1c-0.5-0.5-0.8-1-0.8-2c1.8-0.8,3.7-1.2,5.5-1.2
		c1.4,0,2.5,0.3,3.2,1s1.2,1.8,1.2,3.2v5.3c0,1,0.2,1.8,0.7,2.2C435.3,414.5,435,415,434.5,415.3z M435.8,384
		c-0.4,0.1-0.8,0.1-1.4,0.1s-1.1,0-1.4-0.1v-9.5c0-0.5-0.1-0.8-0.2-1s-0.5-0.3-1-0.3h-0.2c-0.1-0.3-0.1-0.7-0.1-0.9s0-0.6,0.1-1
		c0.6-0.1,1.2-0.1,1.7-0.1h0.4c0.7,0,1.2,0.2,1.5,0.6c0.4,0.5,0.6,0.9,0.6,1.7V384L435.8,384z M443.2,404c-0.8,0-1.5,0.3-2,1.2
		c-0.5,0.8-0.7,2-0.7,3.6c0,3,1,4.5,3,4.5c1,0,2-0.5,3.2-1.3c0.2,0.1,0.5,0.3,0.7,0.7c0.2,0.3,0.4,0.6,0.5,0.9c-1.3,1.3-2.9,2-4.8,2
		c-1,0-1.8-0.1-2.5-0.5c-0.7-0.3-1.3-0.8-1.7-1.4c-0.5-0.6-0.8-1.4-1.1-2.2c-0.2-0.8-0.4-1.7-0.4-2.8s0.1-2,0.5-2.8s0.7-1.5,1.2-2.1
		s1.1-0.9,1.8-1.3c0.7-0.3,1.4-0.5,2.1-0.5s1.4,0.1,2,0.3s1.1,0.5,1.5,0.9c0.5,0.3,0.7,0.8,1,1.3c0.2,0.5,0.4,0.9,0.4,1.4
		c0,1-0.5,1.5-1.4,1.5c-0.5,0-0.8,0-1.2-0.1v-0.2C445.4,405,444.7,404,443.2,404z M448.7,382.4c-0.5-0.6-0.7-1.3-1-2.2
		c-0.2-0.8-0.2-1.7-0.2-2.7s0.1-1.8,0.4-2.7c0.2-0.8,0.6-1.5,1.1-2.1s1.1-1,1.7-1.4c0.7-0.3,1.4-0.5,2.3-0.5c0.8,0,1.7,0.1,2.3,0.5
		c0.7,0.2,1.2,0.7,1.7,1.2s0.8,1,1.1,1.7c0.2,0.7,0.4,1.4,0.4,2.2c0,0.3,0,0.7,0,1s-0.1,0.7-0.1,1h-7.8c0,1.2,0.4,2.1,0.8,2.8
		c0.5,0.7,1.3,0.9,2.4,0.9c0.5,0,1.1-0.1,1.7-0.2c0.6-0.1,1.3-0.5,1.9-0.8c0.5,0.3,0.7,0.9,0.8,1.7c-1.4,0.9-3.1,1.5-5,1.5
		c-1.1,0-1.9-0.1-2.6-0.5C449.7,383.4,449.2,383,448.7,382.4z M460.3,415.3c-0.6,0-1-0.1-1.2-0.5c-0.2-0.2-0.4-0.7-0.4-1.3v-6.6
		c0-0.9-0.1-1.5-0.4-2c-0.2-0.3-0.7-0.6-1.2-0.6c-0.6,0-1.2,0.1-1.8,0.5c-0.6,0.3-1.2,0.7-1.7,1.2v9c-0.1,0-0.4,0.1-0.6,0.1
		s-0.5,0-0.7,0s-0.5,0-0.7,0s-0.5,0-0.6-0.1v-18.9l0.1-0.1h1.1c0.6,0,1,0.1,1.2,0.3s0.4,0.7,0.4,1.3v6c1.3-1.2,2.7-1.7,4.2-1.7
		c1.2,0,2.1,0.3,2.6,1.2c0.6,0.8,0.8,1.8,0.8,3.1v6c0,1,0.1,1.8,0.5,2.3C461.5,415.1,460.9,415.3,460.3,415.3z M468.7,415.1
		c-0.4,0.1-0.8,0.1-1.4,0.1s-1.1,0-1.4-0.1v-9.5c0-0.5-0.1-0.8-0.2-1s-0.5-0.3-1-0.3h-0.2c-0.1-0.3-0.1-0.7-0.1-0.9s0-0.6,0.1-1
		c0.6-0.1,1.2-0.1,1.7-0.1h0.4c0.7,0,1.2,0.2,1.5,0.6c0.4,0.5,0.6,0.9,0.6,1.7V415.1L468.7,415.1z M482.1,415.3
		c-0.6,0-1.1-0.1-1.2-0.5c-0.2-0.2-0.4-0.7-0.4-1.3v-6.6c0-0.9-0.1-1.5-0.4-2c-0.2-0.3-0.7-0.6-1.2-0.6c-0.6,0-1.2,0.1-1.8,0.5
		c-0.6,0.2-1.2,0.7-1.7,1.2v9c-0.4,0.1-0.7,0.1-1.3,0.1c-0.2,0-0.6,0-0.8,0c-0.2,0-0.5,0-0.6-0.1v-12.7l0.1-0.1h1.1
		c1,0,1.4,0.6,1.5,1.6c1.3-1.2,2.7-1.7,4.3-1.7c1.2,0,2.1,0.3,2.6,1.2c0.6,0.8,0.8,1.8,0.8,3.1v6c0,1,0.1,1.8,0.5,2.3
		C483.3,415.1,482.7,415.3,482.1,415.3z M497.3,405.9v7.6c0,1.4-0.1,2.4-0.4,3.3c-0.2,0.9-0.6,1.6-1.1,2.2c-0.5,0.6-1.1,0.9-1.8,1.3
		c-0.7,0.2-1.5,0.3-2.6,0.3c-1.5,0-3.1-0.2-4.6-0.8c0-0.8,0.2-1.5,0.7-2.1c1.1,0.6,2.4,0.8,3.7,0.8c1.3,0,2.1-0.3,2.6-0.9
		c0.5-0.6,0.7-1.5,0.7-2.7v-1.2c-1.1,0.9-2.3,1.4-3.7,1.4c-1.4,0-2.5-0.6-3.3-1.7c-0.8-1.2-1.2-2.9-1.2-5c0-1,0.1-2,0.4-2.8
		c0.2-0.8,0.6-1.5,1.1-2.1s1.1-1,1.7-1.3s1.3-0.5,2-0.5c1.4,0,2.6,0.5,3.7,1.4c0.4-0.6,1-1,1.8-1.2c0.2,0.1,0.5,0.3,0.6,0.6
		c0.2,0.2,0.4,0.6,0.4,0.8C497.6,404,497.3,404.8,497.3,405.9z"/>
</g>
</svg>
