<?xml version="1.0" encoding="utf-8"?>
<!-- Generator: Adobe Illustrator 19.2.1, SVG Export Plug-In . SVG Version: 6.00 Build 0)  -->
<svg version="1.1" id="Layer_1" xmlns="http://www.w3.org/2000/svg" xmlns:xlink="http://www.w3.org/1999/xlink" x="0px" y="0px"
	 viewBox="0 0 457.4 669.8" style="enable-background:new 0 0 457.4 669.8;" xml:space="preserve">
<style type="text/css">
	.st0{fill:#B76969;}
</style>
<circle class="st0" cx="105.7" cy="638.6" r="31.2"/>
<circle class="st0" cx="280.2" cy="393.9" r="29.2"/>
<circle class="st0" cx="51.1" cy="13.2" r="12.2"/>
<circle class="st0" cx="288.2" cy="93.8" r="22.6"/>
<g>
	<path class="st0" d="M104.3,171.7c0,1.4,1,2,2,2c1.6,0,2.5-1,2.9-2c0.1-0.2,0.1-0.5,0.1-0.7v-2
		C106.9,168.9,104.3,169.3,104.3,171.7z"/>
	<path class="st0" d="M51.9,164.5c-2.3,0-3.6,2-3.6,4.7c0,2.4,1.2,4.4,3.6,4.4c1.4,0,2.7-1,3.2-2.6c0.1-0.2,0.1-0.6,0.1-1v-2
		c0-0.2,0-0.6-0.1-1C54.7,165.7,53.5,164.5,51.9,164.5z"/>
	<path class="st0" d="M44.7,201.5c0,1.4,1,2,2,2c1.6,0,2.5-1,2.9-2c0.1-0.2,0.1-0.5,0.1-0.7v-2C47.3,198.7,44.7,199.2,44.7,201.5z"
		/>
	<path class="st0" d="M42.9,96.3c0-2,0.1-4.1,0.2-6.2h-0.2c-1.1,2.2-1.9,4.1-3.1,6.2l-4.4,7.3v0.1h7.4L42.9,96.3L42.9,96.3z"/>
	<path class="st0" d="M137.9,194.2c-2.2,0-3.2,2-3.3,3.6h6.3C141,196.3,140.4,194.2,137.9,194.2z"/>
	<path class="st0" d="M119.6,141.9c0,1.4,1,2,2,2c1.6,0,2.5-1,2.9-2c0.1-0.2,0.1-0.5,0.1-0.7v-2
		C122.2,139.2,119.6,139.6,119.6,141.9z"/>
	<path class="st0" d="M120,164.5c-2.3,0-3.6,2-3.6,4.7c0,2.4,1.2,4.4,3.6,4.4c1.4,0,2.7-1,3.2-2.6c0.1-0.2,0.1-0.6,0.1-1v-2
		c0-0.2,0-0.6-0.1-1C122.8,165.7,121.6,164.5,120,164.5z"/>
	<path class="st0" d="M65.6,164.4c-2.2,0-3.2,2-3.3,3.6h6.3C68.6,166.6,68,164.4,65.6,164.4z"/>
	<path class="st0" d="M104.1,194.3c-2.6,0-3.7,2.4-3.7,4.7c0,2.6,1.6,4.7,3.7,4.7c2,0,3.7-1.9,3.7-4.7
		C107.7,196.8,106.6,194.3,104.1,194.3z"/>
	<path class="st0" d="M111,100.4c2.2,0,3.6-1.1,4.3-2.2c0.2-0.5,0.4-1,0.4-1.9c0-3.6-1.3-7.1-4.9-7.1c-2.6,0-4.7,2.4-4.5,5.9
		C106.3,98,107.9,100.4,111,100.4z"/>
	<path class="st0" d="M136,99.8c2.2,0,3.2-2.3,3.2-6c0-3.3-1-6-3.3-6c-2.3,0-3.3,2.6-3.3,6C132.5,97.2,133.7,99.8,136,99.8z"/>
	<path class="st0" d="M167.2,164.4c-2.2,0-3.2,2-3.3,3.6h6.3C170.3,166.6,169.7,164.4,167.2,164.4z"/>
	<path class="st0" d="M57.4,144c2,0,3.7-1.9,3.7-4.7c0-2-1.1-4.7-3.6-4.7s-3.7,2.4-3.7,4.7C53.8,141.9,55.3,144,57.4,144z"/>
	<path class="st0" d="M86.2,173.4c1.3,0,2.5-0.8,3-2.3c0.1-0.4,0.1-0.8,0.1-1.2v-2.2c0-0.4,0-0.7-0.1-1c-0.4-1.3-1.4-2.3-3.1-2.3
		c-2,0-3.6,1.8-3.6,4.5C82.7,171.5,83.9,173.4,86.2,173.4z"/>
	<path class="st0" d="M96.3,41.7c-52.8,0-95.7,42.8-95.7,95.7c0,52.8,42.8,95.7,95.7,95.7c52.8,0,95.7-42.8,95.7-95.7
		S149.2,41.7,96.3,41.7z M169,107.3c0,6.9-4.4,10.6-9.2,10.6c-5,0-9-3.8-9.1-10c0-6,3.6-10.4,9.3-10.4
		C165.7,97.4,169,101.6,169,107.3z M159.5,83.5l-19.1,34.3h-4.2l19.1-34.3H159.5z M135.5,134.9c-1.4,0-2.5,1.1-3,2.3
		c-0.1,0.2-0.1,0.6-0.1,1.1v7.2h-2.2v-8.7c0-1.2,0-2.3-0.1-3.2h1.9l0.1,2l0,0c0.6-1.2,2-2.3,3.9-2.3c1.7,0,4.3,1,4.3,5.1v7.2h-2.2
		v-6.9C138.4,136.4,137.7,134.9,135.5,134.9z M136.1,83.5c5.7,0,9,4.2,9,9.9c0,6.9-4.4,10.6-9.2,10.6c-5,0-9.1-3.8-9.1-10
		C126.8,88,130.4,83.5,136.1,83.5z M126.8,138v4.5c0,1.1,0,2,0.2,2.9h-2l-0.1-1.5h-0.1c-0.7,1-1.9,1.8-3.7,1.8
		c-2.4,0-3.7-1.7-3.7-3.5c0-2.9,2.6-4.5,7.2-4.4v-0.4c0-1-0.2-2.7-2.7-2.7c-1.1,0-2.3,0.4-3.1,0.8l-0.5-1.4c1-0.6,2.4-1.1,3.9-1.1
		C125.8,133,126.8,135.5,126.8,138z M125.5,175.2h-1.9l-0.1-2l0,0c-0.7,1.3-2.2,2.4-4.1,2.4c-2.9,0-5.1-2.5-5.1-6.1
		c0-3.9,2.5-6.5,5.4-6.5c1.8,0,3.1,0.8,3.6,1.8l0,0v-7.2h2.2v14.5C125.3,173.1,125.5,174.3,125.5,175.2z M111.1,83.5
		c8.5,0,12.5,6.6,12.5,14.3c0,6.9-2.2,11.9-5.9,15.3c-3.2,2.9-7.5,4.4-12.7,4.7c-1.3,0.1-2.6,0-3.6,0v-6.1c1,0.1,1.8,0.1,3.3,0
		c2.4-0.1,4.8-0.8,6.6-2c2.2-1.4,3.6-3.6,4.2-6.1h-0.1c-1.4,1.6-3.6,2.4-6.7,2.4c-5.6,0-10.4-3.9-10.4-10.4
		C98.6,89,103.7,83.5,111.1,83.5z M103,133c1.8,0,3.1,0.8,3.6,1.8l0,0v-7.2h2.2v14.6c0,1.1,0,2.3,0.1,3.1h-2l-0.1-2l0,0
		c-0.7,1.3-2.2,2.4-4.1,2.4c-2.9,0-5.1-2.5-5.1-6.1C97.6,135.5,100.1,133,103,133z M90.9,108.5c2.7,0,4.5,1.9,4.5,4.8
		c0,2.7-1.8,4.7-4.7,4.7c-2.6,0-4.5-2-4.5-4.7C86.3,110.4,88.2,108.5,90.9,108.5z M86.6,133.3l0.1,2l0,0c0.6-1.2,2-2.3,3.9-2.3
		c1.7,0,4.3,1,4.3,5.1v7.2h-2.2v-6.9c0-1.9-0.7-3.6-2.7-3.6c-1.4,0-2.5,1.1-3,2.3c-0.1,0.2-0.1,0.6-0.1,1.1v7.2h-2.2v-8.7
		c0-1.2,0-2.3-0.1-3.2h1.9L86.6,133.3L86.6,133.3z M85.9,162.9c2,0,3.2,1.1,3.7,2l0,0l0.1-1.8h1.9c0,0.8-0.1,1.8-0.1,3.3v6.9
		c0,2.7-0.6,4.4-1.7,5.5c-1.2,1.1-2.9,1.4-4.4,1.4c-1.4,0-3-0.4-3.9-1l0.6-1.7c0.8,0.5,2,1,3.6,1c2.3,0,3.8-1.2,3.8-4.2V173l0,0
		c-0.7,1.1-1.9,2-3.8,2c-3,0-5.1-2.5-5.1-5.9C80.4,165.1,83.2,162.9,85.9,162.9z M78.6,145.3v-16.7h2.2v16.7H78.6z M58.9,110.2
		c1.4,0.7,4.5,1.7,7.5,1.7c3.2,0,6.7-1.6,6.7-5c0-3.5-2.7-5.5-9.3-5.5c-1.8,0-3.1,0.1-4.5,0.4l2.2-17.4h18.3v6.3h-13l-0.7,5.1
		c0.7-0.1,1.3-0.1,2.2-0.1c3.2,0,6.3,0.7,8.7,2.4c2.5,1.7,4.1,4.4,4.1,8.4c0,6.2-5.3,11.7-14.2,11.7c-4.1,0-7.4-1-9.2-1.9
		L58.9,110.2z M71.3,133.3v1.7h-2.9v10.4h-2.2V135h-1.7v-1.7h1.7v-0.6c0-1.7,0.4-3.2,1.4-4.2c0.8-0.8,1.9-1.1,3-1.1
		c0.7,0,1.4,0.1,1.9,0.4l-0.2,1.7c-0.4-0.1-0.7-0.2-1.4-0.2c-1.9,0-2.4,1.7-2.4,3.5v0.6L71.3,133.3L71.3,133.3z M63.3,139.2
		c0,4.4-3.1,6.3-6,6.3c-3.2,0-5.7-2.4-5.7-6.2c0-4.1,2.6-6.3,6-6.3S63.3,135.5,63.3,139.2z M28.2,104.4l12.5-20.2h9.6v19.5h3.9v5.9
		h-3.9v7.9h-7.4v-7.9H28.2V104.4z M29.5,168.1c0,5.1-2.7,7.3-6.3,7.3c-3.5,0-6-1.9-6-7.2v-9.8h2.2v9.9c0,3.7,1.7,5.4,3.9,5.4
		c2.5,0,4.1-1.7,4.1-5.4v-9.9h2.2v9.7H29.5z M38.5,164.6c-1.4,0-2.5,1.1-3,2.3c-0.1,0.2-0.1,0.6-0.1,1.1v7.2h-2.2v-8.7
		c0-1.2,0-2.3-0.1-3.2H35l0.1,2l0,0c0.6-1.2,2-2.3,3.9-2.3c1.7,0,4.3,1,4.3,5.1v7.2h-2.2v-6.9C41.2,166.2,40.5,164.6,38.5,164.6z
		 M50.1,204.9l-0.1-1.6h-0.1c-0.7,1-1.9,1.8-3.7,1.8c-2.4,0-3.7-1.7-3.7-3.5c0-2.9,2.6-4.5,7.2-4.4V197c0-1-0.2-2.7-2.7-2.7
		c-1.1,0-2.3,0.4-3.1,0.8l-0.5-1.4c1-0.6,2.4-1.1,3.9-1.1c3.7,0,4.5,2.5,4.5,4.9v4.5c0,1.1,0,2,0.2,2.9L50.1,204.9L50.1,204.9z
		 M51.3,175.4c-2.9,0-5.1-2.5-5.1-6.1c0-3.9,2.5-6.5,5.4-6.5c1.8,0,3.1,0.8,3.6,1.8l0,0v-7.2h2.2V172c0,1.1,0,2.3,0.1,3.1h-1.9
		l-0.1-2l0,0C54.6,174.3,53.2,175.4,51.3,175.4z M61.3,194.8c-0.2,0-0.5-0.1-0.7-0.1c-1.6,0-2.6,1.2-3,2.7c0,0.2-0.1,0.6-0.1,1.1
		v6.5h-2.2v-8.2c0-1.4,0-2.6-0.1-3.7h1.9l0.1,2.4h0.1c0.6-1.7,1.9-2.6,3.3-2.6c0.2,0,0.5,0,0.6,0.1L61.3,194.8L61.3,194.8z
		 M60.1,169.3c0-3.6,2.2-6.5,5.6-6.5c3.9,0,5,3.5,5,5.6c0,0.5,0,0.8-0.1,1.1h-8.5c0,3,1.9,4.2,4.1,4.2c1.6,0,2.5-0.2,3.3-0.6
		l0.4,1.6c-0.7,0.4-2,0.7-3.9,0.7C62.3,175.4,60.1,172.9,60.1,169.3z M72.9,199.3h-8.5c0,3,1.9,4.2,4.1,4.2c1.6,0,2.5-0.2,3.3-0.6
		l0.4,1.6c-0.7,0.4-2,0.7-3.9,0.7c-3.7,0-5.9-2.4-5.9-6.1c0-3.6,2.2-6.5,5.6-6.5c3.9,0,5,3.5,5,5.6C73,198.7,72.9,199.1,72.9,199.3z
		 M79.3,165c-0.2,0-0.5-0.1-0.7-0.1c-1.6,0-2.6,1.2-3,2.7c0,0.2-0.1,0.6-0.1,1.1v6.5h-2.2v-8.3c0-1.4,0-2.6-0.1-3.7h1.9l0.1,2.4h0.1
		c0.6-1.7,1.9-2.6,3.3-2.6c0.2,0,0.5,0,0.6,0.1L79.3,165L79.3,165z M93.2,204.9h-2l-1.8-5.7c-0.5-1.3-0.7-2.5-1.1-3.9l0,0
		c-0.2,1.4-0.7,2.6-1.1,3.9l-1.9,5.7h-2l-3.6-12.1H82l1.6,6.1c0.4,1.3,0.7,2.6,0.8,3.8h0.1c0.2-1.2,0.7-2.5,1.1-3.8l1.9-6.1h1.8
		l1.9,6c0.5,1.4,0.8,2.7,1.1,3.9h0.1c0.2-1.2,0.5-2.5,1-3.9l1.7-6h2.2L93.2,204.9z M97.3,168.7v6.5h-2.2v-8.3c0-1.4,0-2.6-0.1-3.7
		h1.9l0.1,2.4h0.1c0.6-1.7,1.9-2.6,3.3-2.6c0.2,0,0.5,0,0.6,0.1v2c-0.2,0-0.5-0.1-0.7-0.1c-1.6,0-2.6,1.2-3,2.7
		C97.3,168,97.3,168.4,97.3,168.7z M103.8,205.2c-3.2,0-5.7-2.4-5.7-6.2c0-4.1,2.6-6.3,6-6.3c3.5,0,5.7,2.5,5.7,6.2
		C109.8,203.2,106.8,205.2,103.8,205.2z M109.7,175.2l-0.1-1.6h-0.1c-0.7,1-1.9,1.8-3.7,1.8c-2.4,0-3.7-1.7-3.7-3.5
		c0-2.9,2.6-4.5,7.2-4.4v-0.2c0-1-0.2-2.7-2.7-2.7c-1.1,0-2.3,0.4-3.1,0.8l-0.6-1.5c1-0.6,2.4-1.1,3.9-1.1c3.7,0,4.5,2.5,4.5,4.9
		v4.5c0,1.1,0,2,0.2,2.9h-1.8V175.2z M113.6,128.6c0.8,0,1.3,0.6,1.3,1.3s-0.5,1.3-1.4,1.3c-0.7,0-1.3-0.6-1.3-1.3
		C112.2,129.2,112.8,128.6,113.6,128.6z M112.6,133.3h2.2v12.1h-2.2V133.3z M129.8,204.9h-2.2v-6.8c0-2.3-0.8-3.7-2.6-3.7
		c-1.2,0-2.2,1-2.6,2c-0.1,0.2-0.1,0.7-0.1,1.1v7.4h-2.2v-7.2c0-1.9-0.8-3.3-2.5-3.3c-1.3,0-2.4,1.1-2.7,2.2
		c-0.1,0.4-0.1,0.7-0.1,1.1v7.3h-2.2v-8.7c0-1.2,0-2.3-0.1-3.2h1.9l0.1,1.9h0.1c0.7-1.2,1.8-2.2,3.8-2.2c1.7,0,2.9,1,3.3,2.4l0,0
		c0.4-0.7,0.8-1.2,1.3-1.6c0.7-0.6,1.6-0.8,2.6-0.8c1.6,0,3.9,1.1,3.9,5.3v6.9L129.8,204.9L129.8,204.9z M128.9,170.1V163h2.2v6.7
		c0,2.3,0.7,3.8,2.6,3.8c1.4,0,2.5-1.1,2.9-2c0.1-0.4,0.2-0.7,0.2-1.1V163h2.2v8.7c0,1.2,0,2.4,0.1,3.2h-1.9l-0.1-1.9l0,0
		c-0.6,1-1.8,2.3-3.9,2.3C131.2,175.4,128.9,174.3,128.9,170.1z M143,199.3h-8.5c0,3,1.9,4.2,4.1,4.2c1.6,0,2.5-0.2,3.3-0.6l0.4,1.6
		c-0.7,0.4-2,0.7-3.9,0.7c-3.7,0-5.9-2.4-5.9-6.1c0-3.6,2.2-6.5,5.6-6.5c3.9,0,5,3.5,5,5.6C143,198.7,143,199.1,143,199.3z
		 M141.7,171.9c0-2.9,2.6-4.5,7.2-4.4v-0.2c0-1-0.2-2.7-2.7-2.7c-1.1,0-2.3,0.4-3.1,0.8l-0.5-1.4c1-0.6,2.4-1.1,3.9-1.1
		c3.7,0,4.5,2.5,4.5,4.9v4.5c0,1.1,0,2,0.2,2.9h-2l-0.1-1.6H149c-0.7,1-1.9,1.8-3.7,1.8C143,175.4,141.7,173.7,141.7,171.9z
		 M155.9,204.9h-2.2V198c0-1.9-0.7-3.6-2.7-3.6c-1.4,0-2.5,1.1-3,2.3c-0.1,0.2-0.1,0.6-0.1,1.1v7.2h-2.2v-8.7c0-1.2,0-2.3-0.1-3.2
		h1.9l0.1,2l0,0c0.6-1.2,2-2.3,3.9-2.3c1.7,0,4.3,1,4.3,5.1L155.9,204.9L155.9,204.9z M160.4,164.8h-3.1v6.5c0,1.4,0.5,2.4,1.7,2.4
		c0.6,0,1-0.1,1.3-0.1l0.1,1.7c-0.5,0.1-1.1,0.2-1.9,0.2c-1.1,0-1.8-0.4-2.4-1s-0.8-1.7-0.8-3.1v-6.6h-1.9v-1.7h1.9v-2.9l2.2-0.6
		v3.5h3.1v1.7L160.4,164.8L160.4,164.8z M172.3,169.5h-8.5c0,3,1.9,4.2,4.1,4.2c1.6,0,2.5-0.2,3.3-0.6l0.4,1.6
		c-0.7,0.4-2,0.7-3.9,0.7c-3.7,0-5.9-2.4-5.9-6.1c0-3.6,2.2-6.5,5.6-6.5c3.9,0,5,3.5,5,5.6C172.3,168.9,172.3,169.3,172.3,169.5z
		 M177.6,175.4c-1.3,0-2.5-0.4-3.3-0.8l0.6-1.7c0.6,0.5,1.8,0.8,2.9,0.8c1.6,0,2.4-0.8,2.4-1.8c0-1.1-0.6-1.7-2.3-2.2
		c-2.2-0.7-3.2-1.9-3.2-3.3c0-1.9,1.6-3.5,4.2-3.5c1.2,0,2.3,0.4,3,0.7l-0.6,1.6c-0.5-0.2-1.3-0.7-2.5-0.7c-1.3,0-2,0.7-2,1.7
		s0.7,1.4,2.3,2c2,0.8,3.1,1.8,3.1,3.6C182.1,173.8,180.4,175.4,177.6,175.4z"/>
	<path class="st0" d="M103.4,143.9c1.4,0,2.7-1,3.2-2.6c0.1-0.2,0.1-0.6,0.1-1v-2c0-0.2,0-0.6-0.1-1c-0.4-1.4-1.6-2.5-3.1-2.5
		c-2.3,0-3.6,2-3.6,4.7C99.9,141.8,101.1,143.9,103.4,143.9z"/>
	<path class="st0" d="M149,171.1v-2c-2.4,0-5.1,0.4-5.1,2.7c0,1.4,1,2,2,2c1.6,0,2.5-1,2.9-2C149,171.6,149,171.3,149,171.1z"/>
	<path class="st0" d="M67.9,194.2c-2.2,0-3.2,2-3.3,3.6h6.3C70.9,196.3,70.3,194.2,67.9,194.2z"/>
	<path class="st0" d="M159.9,113.6c2.2,0,3.2-2.3,3.2-6c0-3.3-0.8-6-3.2-6s-3.3,2.6-3.3,6C156.4,111.1,157.6,113.6,159.9,113.6z"/>
</g>
<g>
	<path class="st0" d="M331.7,282.5c-2.2,0-3.1,2-3.1,3.9c0,2.2,1.3,3.9,3.1,3.9c1.7,0,3.1-1.6,3.1-3.9
		C334.7,284.7,333.9,282.5,331.7,282.5z"/>
	<path class="st0" d="M272,257.6c-2.2,0-3.1,2-3.1,3.9c0,2.2,1.3,3.9,3.1,3.9c1.7,0,3.1-1.6,3.1-3.9
		C275,259.8,274.2,257.6,272,257.6z"/>
	<path class="st0" d="M360.1,282.5c-1.8,0-2.7,1.7-2.8,3h5.3C362.6,284.3,362.1,282.5,360.1,282.5z"/>
	<path class="st0" d="M324,263.6c0,1.2,0.8,1.7,1.7,1.7c1.3,0,2.1-0.8,2.4-1.7c0.1-0.2,0.1-0.4,0.1-0.6v-1.7
		C326.3,261.3,324,261.7,324,263.6z"/>
	<path class="st0" d="M313.2,262.3v-1.7c0-0.2,0-0.5-0.1-0.8c-0.3-1.2-1.3-2.1-2.6-2.1c-1.9,0-3,1.7-3,3.9c0,2,1,3.7,3,3.7
		c1.2,0,2.3-0.8,2.7-2.2C313.2,262.8,313.2,262.6,313.2,262.3z"/>
	<path class="st0" d="M280.1,220.7l-3.9,6.1v0.1h6.6v-6.2c0-1.7,0.1-3.4,0.2-5.2h-0.2C281.8,217.3,281,219,280.1,220.7z"/>
	<path class="st0" d="M282,288.6c0,1.2,0.8,1.7,1.7,1.7c1.3,0,2.1-0.8,2.4-1.7c0.1-0.2,0.1-0.4,0.1-0.6v-1.7
		C284.3,286.3,282,286.6,282,288.6z"/>
	<path class="st0" d="M301.5,282.5c-1.8,0-2.7,1.7-2.8,3h5.3C304,284.3,303.5,282.5,301.5,282.5z"/>
	<path class="st0" d="M306.2,233.9c2.7,0,4.1-3.2,4.1-9.5c0-6.2-1.4-9.4-4.1-9.4c-2.5,0-4.2,3-4.2,9.5
		C301.9,230.9,303.6,233.9,306.2,233.9z"/>
	<path class="st0" d="M385.6,225.2c-2.1,0-3,2.2-3,5c0,2.9,1,5,3,5c1.9,0,2.9-1.9,2.9-5C388.5,227.4,387.7,225.2,385.6,225.2z"/>
	<path class="st0" d="M364.6,223.7c1.9,0,2.9-1.9,2.9-5c0-2.8-0.8-5-2.9-5c-2,0-3,2.2-3,5C361.6,221.6,362.6,223.7,364.6,223.7z"/>
	<path class="st0" d="M350.8,259.4c0.4,0.1,0.9,0.1,1.5,0.1c2.2,0,3.5-1.1,3.5-3c0-1.8-1.3-2.7-3.3-2.7c-0.8,0-1.4,0.1-1.7,0.1
		V259.4z"/>
	<path class="st0" d="M328.6,165.1c-45.2,0-81.9,36.7-81.9,81.9s36.7,81.9,81.9,81.9s81.9-36.7,81.9-81.9
		C410.5,201.7,373.8,165.1,328.6,165.1z M385.3,210.1l-16.8,28.7h-3.6l16.8-28.7H385.3z M364.7,210.1c5,0,7.9,3.5,7.9,8.3
		c0,5.8-3.9,8.9-8.1,8.9c-4.5,0-8-3.2-8-8.4C356.5,213.9,359.7,210.1,364.7,210.1z M357.6,256.5c0,1.3-0.4,2.3-1.1,3
		c-1,1-2.5,1.5-4.3,1.5c-0.5,0-1,0-1.5-0.1v5.6h-1.8v-13.8c0.9-0.1,2-0.3,3.5-0.3c1.8,0,3.1,0.4,3.9,1.2
		C357.1,254.2,357.6,255.2,357.6,256.5z M333.4,232.4c1.3,0.6,4,1.4,6.6,1.4c2.8,0,5.8-1.3,5.8-4.2c0-2.9-2.4-4.6-8.2-4.6
		c-1.6,0-2.7,0.1-4,0.3l1.9-14.6h16.1v5.3h-11.3l-0.6,4.3c0.6-0.1,1.2-0.1,1.9-0.1c2.8,0,5.6,0.6,7.7,2c2.2,1.4,3.6,3.7,3.6,7
		c0,5.2-4.7,9.8-12.5,9.8c-3.6,0-6.5-0.8-8.1-1.6L333.4,232.4z M330.2,266.5h-1.7l-0.1-1.3h-0.1c-0.6,0.8-1.6,1.5-3.1,1.5
		c-2,0-3.1-1.4-3.1-2.9c0-2.4,2.2-3.8,6-3.7v-0.2c0-0.8-0.2-2.3-2.3-2.3c-0.9,0-1.9,0.3-2.6,0.7l-0.4-1.2c0.8-0.5,2-0.9,3.3-0.9
		c3.1,0,3.8,2.1,3.8,4.1v3.8C330,265,330.1,265.8,330.2,266.5z M324.9,231c2.4,0,4,1.6,4,4c0,2.3-1.6,3.9-4,3.9c-2.3,0-4-1.7-4-3.9
		C320.9,232.6,322.5,231,324.9,231z M319,252.5c0.7,0,1.1,0.5,1.1,1.1s-0.4,1.1-1.2,1.1c-0.6,0-1.1-0.5-1.1-1.1
		C317.9,253,318.3,252.5,319,252.5z M319.9,256.5v10.1h-1.8v-10.1H319.9z M306.3,210.1c7.8,0,10.9,6.6,10.9,14.2
		c0,8.6-3.6,14.5-11.1,14.5c-7.6,0-10.9-6.5-10.9-14.3C295.1,216.5,298.7,210.1,306.3,210.1z M271.9,266.7c-2.7,0-4.8-2-4.8-5.2
		c0-3.4,2.2-5.3,5-5.3c2.9,0,4.8,2.1,4.8,5.2C276.9,265.1,274.3,266.7,271.9,266.7z M278,257.8v-1.4h1.4v-0.5c0-1.4,0.3-2.7,1.2-3.5
		c0.7-0.7,1.6-0.9,2.5-0.9c0.6,0,1.2,0.1,1.6,0.3l-0.2,1.4c-0.3-0.1-0.6-0.2-1.2-0.2c-1.6,0-2,1.4-2,2.9v0.5h2.4v1.4h-2.4v8.7h-1.8
		v-8.7L278,257.8L278,257.8z M286.6,291.4l-0.1-1.3h-0.1c-0.6,0.8-1.6,1.5-3.1,1.5c-2,0-3.1-1.4-3.1-2.9c0-2.4,2.2-3.8,6-3.7v-0.2
		c0-0.8-0.2-2.3-2.3-2.3c-0.9,0-1.9,0.3-2.6,0.7l-0.4-1.2c0.8-0.5,2-0.9,3.3-0.9c3.1,0,3.8,2.1,3.8,4.1v3.8c0,0.9,0,1.7,0.2,2.4
		H286.6z M289.2,238.4h-6.5v-6.6h-12.9v-4.2l11.1-16.9h8.4V227h3.5v4.9h-3.5L289.2,238.4L289.2,238.4z M289.7,252.5h1.8v14h-1.8
		V252.5z M296,282.9c-0.2,0-0.4-0.1-0.6-0.1c-1.3,0-2.2,1-2.5,2.3c0,0.2-0.1,0.5-0.1,0.9v5.4H291v-6.9c0-1.2,0-2.2-0.1-3.1h1.6
		l0.1,2h0.1c0.5-1.3,1.6-2.2,2.8-2.2c0.2,0,0.4,0,0.5,0.1V282.9z M296.7,260.5v6h-1.8v-7.3c0-1,0-1.9-0.1-2.7h1.6l0.1,1.7l0,0
		c0.5-1,1.7-1.9,3.3-1.9c1.4,0,3.6,0.8,3.6,4.3v6h-1.8v-5.8c0-1.6-0.6-3-2.3-3c-1.2,0-2.1,0.9-2.5,1.9
		C296.7,259.8,296.7,260.1,296.7,260.5z M305.7,286.7h-7.1c0,2.5,1.6,3.5,3.4,3.5c1.3,0,2.1-0.2,2.8-0.5l0.3,1.3
		c-0.6,0.3-1.7,0.6-3.3,0.6c-3.1,0-4.9-2-4.9-5.1c0-3,1.8-5.4,4.7-5.4c3.3,0,4.2,2.9,4.2,4.7C305.8,286.3,305.7,286.6,305.7,286.7z
		 M305.7,261.6c0-3.3,2.1-5.4,4.5-5.4c1.5,0,2.6,0.7,3,1.5l0,0v-6h1.8v12.2c0,0.9,0,1.9,0.1,2.6h-1.6l-0.1-1.7l0,0
		c-0.6,1.1-1.8,2-3.4,2C307.5,266.7,305.7,264.7,305.7,261.6z M322.6,291.4h-1.7l-1.5-4.8c-0.4-1.1-0.6-2.1-0.9-3.3l0,0
		c-0.2,1.2-0.6,2.2-0.9,3.3l-1.6,4.8h-1.7l-3-10.1h1.9l1.3,5.1c0.3,1.1,0.6,2.2,0.7,3.2h0.1c0.2-1,0.6-2.1,0.9-3.2l1.6-5.1h1.5
		l1.6,5c0.4,1.2,0.7,2.3,0.9,3.3h0.1c0.2-1,0.4-2.1,0.8-3.3l1.4-5h1.8L322.6,291.4z M331.6,291.7c-2.7,0-4.8-2-4.8-5.2
		c0-3.4,2.2-5.3,5-5.3c2.9,0,4.8,2.1,4.8,5.2C336.6,290,334,291.7,331.6,291.7z M334.9,259.6c-0.1,0.2-0.1,0.5-0.1,0.9v6H333v-7.3
		c0-1,0-1.9-0.1-2.7h1.6l0.1,1.7l0,0c0.5-1,1.7-1.9,3.3-1.9c1.4,0,3.6,0.8,3.6,4.3v6h-1.8v-5.8c0-1.6-0.6-3-2.3-3
		C336.2,257.7,335.2,258.6,334.9,259.6z M353.3,291.4h-1.8v-5.7c0-1.9-0.7-3.1-2.2-3.1c-1,0-1.8,0.8-2.2,1.7
		c-0.1,0.2-0.1,0.6-0.1,0.9v6.2h-1.8v-6c0-1.6-0.7-2.8-2.1-2.8c-1.1,0-2,0.9-2.3,1.8c-0.1,0.3-0.1,0.6-0.1,0.9v6.1h-1.8v-7.3
		c0-1,0-1.9-0.1-2.7h1.6l0.1,1.6h0.1c0.6-1,1.5-1.8,3.2-1.8c1.4,0,2.4,0.8,2.8,2l0,0c0.3-0.6,0.7-1,1.1-1.3c0.6-0.5,1.3-0.7,2.2-0.7
		c1.3,0,3.3,0.9,3.3,4.4L353.3,291.4L353.3,291.4z M364.3,286.7h-7.1c0,2.5,1.6,3.5,3.4,3.5c1.3,0,2.1-0.2,2.8-0.5l0.3,1.3
		c-0.6,0.3-1.7,0.6-3.3,0.6c-3.1,0-4.9-2-4.9-5.1c0-3,1.8-5.4,4.7-5.4c3.3,0,4.2,2.9,4.2,4.7C364.4,286.3,364.3,286.6,364.3,286.7z
		 M364.3,257.7c-1.2,0-2.1,0.8-2.5,1.8c-0.1,0.2-0.1,0.5-0.1,0.9v6.1h-1.8v-14.8h1.8v6.3l0,0c0.3-0.5,0.7-1,1.3-1.3
		c0.5-0.3,1.2-0.5,1.9-0.5c1.4,0,3.5,0.8,3.5,4.3v6h-1.8v-5.8C366.6,259.1,366,257.7,364.3,257.7z M375.2,291.4h-1.8v-5.8
		c0-1.6-0.6-3-2.3-3c-1.2,0-2.1,0.9-2.5,1.9c-0.1,0.2-0.1,0.5-0.1,0.9v6h-1.8v-7.3c0-1,0-1.9-0.1-2.7h1.6l0.1,1.7l0,0
		c0.5-1,1.7-1.9,3.3-1.9c1.4,0,3.6,0.8,3.6,4.3L375.2,291.4L375.2,291.4z M380.9,264.6c-1.3,1.3-3.5,2-6.2,2c-1.3,0-2.4-0.1-3.3-0.2
		v-13.8c1.1-0.2,2.4-0.3,3.8-0.3c2.6,0,4.4,0.6,5.7,1.7c1.2,1.1,2,2.8,2,5C382.9,261.5,382.2,263.3,380.9,264.6z M387.3,266.7
		c-1.1,0-2.1-0.3-2.8-0.7l0.5-1.4c0.5,0.4,1.5,0.7,2.4,0.7c1.3,0,2-0.7,2-1.5c0-0.9-0.5-1.4-1.9-1.8c-1.8-0.6-2.7-1.6-2.7-2.8
		c0-1.6,1.3-2.9,3.5-2.9c1,0,1.9,0.3,2.5,0.6l-0.5,1.3c-0.4-0.2-1.1-0.6-2.1-0.6c-1.1,0-1.7,0.6-1.7,1.4s0.6,1.2,1.9,1.7
		c1.7,0.7,2.6,1.5,2.6,3C391.1,265.5,389.7,266.7,387.3,266.7z M385.5,238.8c-4.4,0-7.9-3.2-8-8.4c0-5,3.2-8.7,8.2-8.7
		s7.9,3.5,7.9,8.3C393.6,235.7,389.7,238.8,385.5,238.8z"/>
	<path class="st0" d="M375.4,253.8c-0.9,0-1.6,0.1-2.1,0.2v11.1c0.5,0.1,1.1,0.1,1.8,0.1c3.9,0,6-2.2,6-5.9
		C381.1,255.9,379.2,253.8,375.4,253.8z"/>
</g>
<g>
	<path class="st0" d="M129.6,487.9c0-0.7-0.2-1.3-0.5-1.8c-0.3-0.4-0.8-0.7-1.4-0.7c-1.2,0-1.8,0.9-1.9,2.7h3.8V487.9L129.6,487.9z"
		/>
	<path class="st0" d="M90.6,441.4c-1.4,0-2.1,1.1-2.1,3.4s0.7,3.4,2.1,3.4s2.1-1.1,2.1-3.4S92,441.4,90.6,441.4z"/>
	<path class="st0" d="M119.2,508.3c-1.2,0-1.8,0.9-1.9,2.7h3.8v-0.2c0-0.7-0.2-1.3-0.5-1.8C120.4,508.5,119.9,508.3,119.2,508.3z"/>
	<path class="st0" d="M98.4,418.6c1.8,0,3.2-0.7,4.3-2.1c1-1.4,1.6-3.4,1.6-5.8c0-5.1-1.9-7.7-5.8-7.7c-2.4,0-4.7,1-6.7,3.1v0.9
		c0,3.8,0.6,6.7,1.7,8.7C94.6,417.6,96.2,418.6,98.4,418.6z"/>
	<path class="st0" d="M146.5,508.3c-1.4,0-2.1,1.1-2.1,3.4c0,2.3,0.7,3.4,2.1,3.4s2.1-1.1,2.1-3.4
		C148.6,509.4,147.9,508.3,146.5,508.3z"/>
	<path class="st0" d="M45.9,485.5c-1.4,0-2.1,1.1-2.1,3.4s0.7,3.4,2.1,3.4c1.4,0,2.1-1.1,2.1-3.4S47.3,485.5,45.9,485.5z"/>
	<path class="st0" d="M138.4,445.2c-0.6,0-1,0.1-1.4,0.4c-0.3,0.3-0.5,0.7-0.5,1.1c0,0.5,0.1,0.8,0.3,1.1c0.2,0.3,0.5,0.4,0.9,0.4
		c0.8,0,1.6-0.4,2.2-1.1v-1.8c-0.3,0-0.5,0-0.8-0.1C138.8,445.1,138.7,445.2,138.4,445.2z"/>
	<path class="st0" d="M66.4,441.3c-1.2,0-1.8,0.9-1.9,2.7h3.8v-0.2c0-0.7-0.2-1.3-0.5-1.8C67.5,441.6,67.1,441.3,66.4,441.3z"/>
	<path class="st0" d="M83.9,486.5c-0.4,0.6-0.5,1.4-0.5,2.5s0.2,1.9,0.5,2.4s0.7,0.8,1.2,0.8c0.8,0,1.5-0.4,2.1-1.1v-4.6
		c-0.6-0.6-1.3-0.9-1.9-0.9S84.3,485.9,83.9,486.5z"/>
	<path class="st0" d="M94.3,512.1c-0.6,0-1,0.1-1.4,0.4c-0.3,0.3-0.5,0.7-0.5,1.1c0,0.5,0.1,0.8,0.3,1.1c0.2,0.3,0.5,0.4,0.9,0.4
		c0.8,0,1.6-0.4,2.2-1.1v-1.8c-0.3,0-0.5,0-0.8-0.1S94.6,512.1,94.3,512.1z"/>
	<path class="st0" d="M41.6,448.2c1.4,0,2.1-1.1,2.1-3.4s-0.7-3.4-2.1-3.4c-1.4,0-2.1,1.1-2.1,3.4S40.2,448.2,41.6,448.2z"/>
	<path class="st0" d="M84.3,469.6c0.8,0,1.6-0.4,2.2-1.1v-1.8c-0.3,0-0.5,0-0.8-0.1s-0.6,0-0.9,0c-0.6,0-1,0.1-1.4,0.4
		c-0.3,0.3-0.5,0.7-0.5,1.1c0,0.5,0.1,0.8,0.3,1.1C83.6,469.4,83.9,469.6,84.3,469.6z"/>
	<path class="st0" d="M66.4,485.5c-1.2,0-1.8,0.9-1.9,2.7h3.8v-0.3c0-0.7-0.2-1.3-0.5-1.8C67.5,485.7,67.1,485.5,66.4,485.5z"/>
	<path class="st0" d="M72.5,508.3c-1.2,0-1.8,0.9-1.9,2.7h3.8v-0.2c0-0.7-0.2-1.3-0.5-1.8C73.6,508.5,73.2,508.3,72.5,508.3z"/>
	<path class="st0" d="M40.9,462.8c-1.4,0-2.1,1.1-2.1,3.4s0.7,3.4,2.1,3.4c1.4,0,2.1-1.1,2.1-3.4S42.3,462.8,40.9,462.8z"/>
	<path class="st0" d="M105.8,485.5c-1.2,0-1.8,0.9-1.9,2.7h3.8v-0.3c0-0.7-0.2-1.3-0.5-1.8C106.9,485.7,106.4,485.5,105.8,485.5z"/>
	<path class="st0" d="M75.7,489.3c-0.6,0-1,0.1-1.4,0.4c-0.3,0.3-0.5,0.7-0.5,1.1c0,0.5,0.1,0.8,0.3,1.1c0.2,0.3,0.5,0.4,0.9,0.4
		c0.8,0,1.6-0.4,2.2-1.1v-1.8c-0.3,0-0.5,0-0.8-0.1S76,489.3,75.7,489.3z"/>
	<path class="st0" d="M174.7,485.5c-1.4,0-2.1,1.1-2.1,3.4s0.7,3.4,2.1,3.4c1.4,0,2.1-1.1,2.1-3.4S176.1,485.5,174.7,485.5z"/>
	<path class="st0" d="M198.4,443.2c-0.9,0-1.3,0.9-1.3,2.6c0,1.7,0.4,2.6,1.3,2.6s1.3-0.9,1.3-2.6S199.2,443.2,198.4,443.2z"/>
	<path class="st0" d="M188.9,437.6c-0.8,0-1.3,0.9-1.3,2.6c0,1.7,0.4,2.6,1.3,2.6s1.3-0.9,1.3-2.6
		C190.2,438.5,189.8,437.6,188.9,437.6z"/>
	<path class="st0" d="M180.2,448.2c0.6,0,1.1-0.2,1.4-0.7s0.5-1.1,0.5-2c0-1.7-0.6-2.6-1.9-2.6c-0.8,0-1.6,0.4-2.2,1.1v0.3
		c0,1.3,0.2,2.3,0.6,2.9C178.9,447.9,179.5,448.2,180.2,448.2z"/>
	<path class="st0" d="M107.8,329.8C48.3,329.8,0,378.1,0,437.6s48.3,107.8,107.8,107.8s107.8-48.3,107.8-107.8
		S167.3,329.8,107.8,329.8z M176.3,440.6c0.2-0.8,0.5-1.4,0.9-2c0.4-0.5,0.9-1,1.5-1.3s1.3-0.4,2.1-0.4c1.1,0,2,0.2,2.7,0.6
		c-0.1,0.6-0.3,1.1-0.7,1.4c-0.6-0.3-1.3-0.4-1.9-0.4c-1,0-1.7,0.3-2.2,1s-0.7,1.6-0.8,2.8c0.8-0.7,1.7-1.1,2.8-1.1s1.9,0.3,2.5,1
		s0.9,1.7,0.9,3c0,0.6-0.1,1.2-0.3,1.8c-0.2,0.5-0.5,1-0.8,1.4c-0.4,0.4-0.8,0.7-1.3,0.9s-1.1,0.3-1.7,0.3c-1.2,0-2.2-0.4-2.8-1.2
		c-0.2-0.3-0.4-0.6-0.6-0.9c-0.2-0.3-0.3-0.7-0.4-1.1c-0.1-0.4-0.2-0.9-0.2-1.4s-0.1-1.1-0.1-1.8C175.9,442.3,176,441.4,176.3,440.6
		z M174.4,464.2c0.2-0.6,0.4-1.1,0.8-1.5c0.3-0.4,0.7-0.8,1.2-1s1-0.4,1.6-0.4s1.1,0.1,1.6,0.3s0.9,0.5,1.2,0.8
		c0.3,0.4,0.6,0.8,0.7,1.3c0.2,0.5,0.3,1,0.3,1.6c0,0.3,0,0.5,0,0.7s-0.1,0.5-0.1,0.8h-5.6c0,0.9,0.2,1.5,0.6,2
		c0.3,0.5,0.9,0.7,1.7,0.7c0.4,0,0.8-0.1,1.2-0.2s0.9-0.3,1.4-0.6c0.3,0.3,0.5,0.7,0.6,1.3c-1,0.7-2.2,1.1-3.6,1.1
		c-0.7,0-1.3-0.1-1.8-0.4s-0.9-0.6-1.2-1c-0.3-0.4-0.5-1-0.7-1.6c-0.1-0.6-0.2-1.3-0.2-2C174.2,465.4,174.3,464.8,174.4,464.2z
		 M166.3,447.8c0.2-0.3,0.3-0.5,0.5-0.6c0.5,0.3,0.9,0.5,1.3,0.7c0.4,0.1,0.8,0.2,1.2,0.2c0.7,0,1.3-0.2,1.8-0.7s0.7-1.2,0.7-2
		c0-0.4-0.1-0.8-0.2-1.1c-0.1-0.3-0.3-0.6-0.5-0.8c-0.2-0.2-0.5-0.4-0.8-0.4c-0.3-0.1-0.6-0.1-0.9-0.1s-0.7,0.1-1.1,0.2
		c-0.4,0.1-0.7,0.3-1.1,0.6c-0.2,0-0.4-0.1-0.5-0.2s-0.3-0.3-0.4-0.4l0.3-5.7l0.1-0.1h6.4c0.1,0.3,0.1,0.5,0.1,0.8
		c0,0.6-0.3,0.9-0.9,0.9h-4v0.9l-0.1,1.8c0.5-0.2,1.1-0.3,1.7-0.3c1.2,0,2.1,0.4,2.8,1.1c0.7,0.7,1,1.7,1,3.1c0,0.7-0.1,1.3-0.4,1.8
		c-0.2,0.5-0.5,1-0.9,1.4s-0.9,0.7-1.4,0.9s-1.1,0.3-1.7,0.3c-1.5,0-2.6-0.4-3.6-1.2C166,448.3,166.1,448.1,166.3,447.8z
		 M172.1,469.4h0.7c0.1,0.3,0.2,0.6,0.2,0.8s0,0.4-0.1,0.6c-0.5,0.1-1,0.1-1.6,0.1c-1.3,0-1.9-0.7-1.9-2v-12l0.1-0.1h0.7
		c0.4,0,0.7,0.1,0.8,0.3c0.2,0.2,0.2,0.5,0.2,1v10.4C171.3,469.1,171.6,469.4,172.1,469.4z M158.6,402.7c1.6,1.9,2.3,4.8,2.3,8.7
		c0,4.3-0.9,7.4-2.8,9.2c-1.5,1.5-3.6,2.3-6.1,2.3c-3,0-5.2-1-6.7-2.9s-2.2-4.8-2.2-8.7c0-3.9,0.8-6.8,2.3-8.7
		c1.5-1.9,3.7-2.8,6.5-2.8C154.7,399.8,157,400.9,158.6,402.7z M157.3,470.6c-0.4,0.3-0.8,0.4-1.2,0.4c-0.7,0-1-0.4-1-1.3v-4.8
		c0-0.6-0.1-1.1-0.3-1.4c-0.2-0.3-0.5-0.4-0.9-0.4c-0.7,0-1.4,0.4-2,1.2v6.6c-0.1,0-0.3,0-0.4,0.1c-0.2,0-0.4,0-0.5,0
		c-0.2,0-0.4,0-0.5,0c-0.2,0-0.3,0-0.4-0.1v-6c0-0.6-0.1-1.1-0.3-1.4c-0.2-0.3-0.5-0.4-0.9-0.4c-0.7,0-1.4,0.4-2,1.2v6.6
		c-0.2,0-0.5,0.1-1,0.1c-0.2,0-0.4,0-0.5,0c-0.2,0-0.3,0-0.4-0.1v-9.3l0.1-0.1h0.7c0.7,0,1,0.4,1.1,1.2c0.9-0.9,1.8-1.3,2.8-1.3
		s1.7,0.5,2.1,1.4c1-0.9,2-1.4,3-1.4c0.8,0,1.4,0.3,1.8,0.8c0.4,0.6,0.6,1.3,0.6,2.1v4.6C157,469.7,157.1,470.2,157.3,470.6z
		 M143,485.2c0.1-0.5,0.4-0.8,0.7-1c0.9,0.2,1.4,0.8,1.7,1.7c0.5-1.1,1.3-1.7,2.5-1.7c0.3,0,0.6,0,1,0.1c0,0.7-0.2,1.4-0.5,1.9
		c-0.1,0-0.4-0.1-0.8-0.1c-0.9,0-1.5,0.5-2,1.4v6.2c-0.2,0-0.6,0.1-1,0.1s-0.7,0-1-0.1v-6.5C143.7,486.3,143.5,485.6,143,485.2z
		 M144.4,441c0.1-0.5,0.4-0.8,0.7-1c0.9,0.2,1.4,0.8,1.7,1.7c0.5-1.1,1.3-1.7,2.5-1.7c0.3,0,0.6,0,1,0.1c0,0.7-0.2,1.4-0.5,1.9
		c-0.1,0-0.4-0.1-0.8-0.1c-0.9,0-1.5,0.5-2,1.4v6.2c-0.2,0-0.6,0.1-1,0.1s-0.7,0-1-0.1V443C145.1,442.1,144.8,441.5,144.4,441z
		 M148.2,383.7c1.5,0,2.6,0.1,3.3,0.3l-21.1,38.4c-0.7,0.2-1.5,0.3-2.4,0.3c-0.8,0-1.5,0-2-0.1c-0.5,0-1-0.1-1.3-0.2l21.2-38.4
		C146.6,383.8,147.3,383.7,148.2,383.7z M141.2,492.8c-0.2,0.5-0.4,0.8-0.7,1c-0.7-0.1-1.3-0.5-1.5-1.2c-0.9,0.9-1.8,1.3-2.8,1.3
		c-0.5,0-0.9-0.1-1.3-0.2c-0.4-0.2-0.7-0.4-0.9-0.6c-0.2-0.3-0.4-0.6-0.6-0.9c-0.1-0.3-0.2-0.7-0.2-1.1c0-1,0.3-1.8,1-2.4
		c0.7-0.6,1.5-0.8,2.6-0.8c0.3,0,0.6,0,0.9,0s0.6,0.1,0.9,0.1v-0.7c0-1.1-0.5-1.7-1.6-1.7c-0.7,0-1.7,0.2-3,0.7
		c-0.4-0.3-0.6-0.8-0.6-1.4c1.3-0.6,2.6-0.9,3.9-0.9c1,0,1.8,0.3,2.3,0.8s0.8,1.3,0.8,2.4v3.9C140.7,491.9,140.8,492.5,141.2,492.8z
		 M138.5,463.4c-0.1,0-0.4-0.1-0.8-0.1c-0.9,0-1.5,0.5-2,1.4v6.2c-0.2,0-0.6,0.1-1,0.1s-0.7,0-1-0.1v-6.5c0-0.9-0.2-1.5-0.7-2
		c0.1-0.5,0.4-0.8,0.7-1c0.9,0.2,1.4,0.8,1.7,1.7c0.5-1.1,1.3-1.7,2.5-1.7c0.3,0,0.6,0,1,0.1C138.9,462.2,138.8,462.8,138.5,463.4z
		 M127.7,447.4c0.3,0.5,0.9,0.7,1.7,0.7c0.4,0,0.8-0.1,1.2-0.2s0.9-0.3,1.4-0.6c0.3,0.3,0.5,0.7,0.6,1.3c-1,0.7-2.2,1.1-3.6,1.1
		c-0.7,0-1.3-0.1-1.8-0.4s-0.9-0.6-1.2-1s-0.5-1-0.7-1.6c-0.1-0.6-0.2-1.3-0.2-2s0.1-1.3,0.3-1.9c0.2-0.6,0.4-1.1,0.8-1.5
		c0.3-0.4,0.7-0.8,1.2-1s1-0.4,1.6-0.4s1.1,0.1,1.6,0.3s0.9,0.5,1.2,0.8c0.3,0.4,0.6,0.8,0.7,1.3c0.2,0.5,0.3,1,0.3,1.6
		c0,0.3,0,0.5,0,0.7s-0.1,0.5-0.1,0.8h-5.6C127.2,446.3,127.4,447,127.7,447.4z M128.5,463.2c-0.1-0.2-0.3-0.2-0.6-0.2h-0.2
		c-0.1-0.3-0.1-0.5-0.1-0.7s0-0.4,0.1-0.7c0.4-0.1,0.8-0.1,1.2-0.1h0.3c0.5,0,0.9,0.2,1.1,0.5c0.3,0.3,0.4,0.7,0.4,1.2v7.7
		c-0.2,0-0.6,0.1-1,0.1s-0.7,0-1-0.1v-7C128.7,463.6,128.6,463.3,128.5,463.2z M128.1,458.9c0-0.5,0.1-0.8,0.3-0.9
		c0.2-0.1,0.5-0.1,0.9-0.2c0.5,0,0.8,0.1,1,0.2c0.1,0.1,0.2,0.4,0.2,0.9s-0.1,0.7-0.2,0.9c-0.1,0.1-0.5,0.2-1,0.2s-0.8-0.1-1.1-0.2
		C128.1,459.5,128.1,459.2,128.1,458.9z M120.8,468.8c0.3,0.5,0.9,0.7,1.7,0.7c0.4,0,0.8-0.1,1.2-0.2s0.9-0.3,1.4-0.6
		c0.3,0.3,0.5,0.7,0.6,1.3c-1,0.7-2.2,1.1-3.6,1.1c-0.7,0-1.3-0.1-1.8-0.4s-0.9-0.6-1.2-1s-0.5-1-0.7-1.6c-0.1-0.6-0.2-1.3-0.2-2
		s0.1-1.3,0.3-1.9c0.2-0.6,0.4-1.1,0.8-1.5c0.3-0.4,0.7-0.8,1.2-1s1-0.4,1.6-0.4s1.1,0.1,1.6,0.3s0.9,0.5,1.2,0.8
		c0.3,0.4,0.6,0.8,0.7,1.3c0.2,0.5,0.3,1,0.3,1.6c0,0.3,0,0.5,0,0.7s-0.1,0.5-0.1,0.8h-5.6C120.3,467.7,120.5,468.4,120.8,468.8z
		 M117.7,386.1c1.5-1.9,3.7-2.8,6.5-2.8c2.5,0,4.6,0.8,6.1,2.3c1.8,1.8,2.8,4.9,2.8,9.2c0,4-0.8,6.9-2.3,8.7
		c-1.6,1.9-3.7,2.8-6.5,2.8s-5-0.9-6.5-2.8s-2.3-4.8-2.3-8.7C115.4,390.9,116.1,388,117.7,386.1z M111.5,452.5
		c0.1-0.3,0.2-0.5,0.3-0.6c0.4,0.2,0.9,0.2,1.5,0.2c0.5,0,1-0.2,1.3-0.6c0.3-0.4,0.6-1,0.9-1.8l0.1-0.2c-0.4,0-0.7-0.1-0.9-0.2
		s-0.4-0.4-0.5-0.8l-2.5-8.3c0.5-0.2,0.9-0.3,1.2-0.3c0.5,0,0.8,0.3,1,0.9l1.3,4.4c0.1,0.2,0.2,0.5,0.3,1s0.3,1.1,0.4,1.8
		c0,0.1,0.1,0.1,0.2,0.1l2.1-8c0.1,0,0.2,0,0.4-0.1s0.3,0,0.4,0c0.2,0,0.4,0,0.5,0c0.2,0,0.4,0.1,0.5,0.1l0.1,0.1l-2.5,8.9
		c-0.2,0.8-0.5,1.5-0.7,2c-0.2,0.6-0.5,1-0.9,1.4c-0.3,0.4-0.7,0.6-1.1,0.8c-0.4,0.2-0.9,0.2-1.5,0.2c-0.1,0-0.3,0-0.5,0
		s-0.4,0-0.6-0.1c-0.2,0-0.4-0.1-0.5-0.1c-0.2,0-0.2-0.1-0.2-0.2C111.3,453,111.4,452.8,111.5,452.5z M113.8,463.6
		c-0.2-0.3-0.5-0.4-0.9-0.4s-0.8,0.1-1.3,0.3c-0.4,0.2-0.8,0.5-1.1,0.9v6.6c-0.1,0-0.3,0-0.4,0.1c-0.2,0-0.3,0-0.5,0s-0.4,0-0.5,0
		c-0.2,0-0.3,0-0.4-0.1v-13.8l0.1-0.1h0.8c0.4,0,0.7,0.1,0.8,0.3c0.2,0.2,0.2,0.5,0.2,1v4.4c0.9-0.8,1.9-1.3,3-1.3
		c0.8,0,1.5,0.3,1.9,0.8c0.4,0.6,0.6,1.3,0.6,2.3v4.4c0,0.8,0.1,1.3,0.3,1.7c-0.4,0.3-0.7,0.4-1.2,0.4c-0.4,0-0.7-0.1-0.9-0.3
		s-0.2-0.5-0.2-0.9v-4.8C114.1,464.3,114,463.8,113.8,463.6z M104.4,491.6c0.3,0.5,0.9,0.7,1.7,0.7c0.4,0,0.8-0.1,1.2-0.2
		s0.9-0.3,1.4-0.6c0.3,0.3,0.5,0.7,0.6,1.3c-1,0.7-2.2,1.1-3.6,1.1c-0.7,0-1.3-0.1-1.8-0.4s-0.9-0.6-1.2-1c-0.3-0.4-0.5-1-0.7-1.6
		c-0.1-0.6-0.2-1.3-0.2-2s0.1-1.3,0.3-1.9c0.2-0.6,0.4-1.1,0.8-1.5c0.3-0.4,0.7-0.8,1.2-1s1-0.4,1.6-0.4s1.1,0.1,1.6,0.3
		s0.9,0.5,1.2,0.8c0.3,0.4,0.6,0.8,0.7,1.3c0.2,0.5,0.3,1,0.3,1.6c0,0.3,0,0.5,0,0.7s-0.1,0.5-0.1,0.8h-5.6
		C103.9,490.5,104,491.1,104.4,491.6z M110.9,448.9c0,0.2,0,0.4-0.1,0.6c-0.5,0.1-1,0.1-1.6,0.1c-1.3,0-1.9-0.7-1.9-2v-12l0.1-0.1
		h0.7c0.4,0,0.7,0.1,0.8,0.3c0.2,0.2,0.2,0.5,0.2,1v10.4c0,0.6,0.2,0.9,0.7,0.9h0.7C110.8,448.3,110.9,448.6,110.9,448.9z
		 M86.7,396.1c0.6-2.3,1.6-4.3,2.8-5.9c1.2-1.6,2.7-2.8,4.5-3.7c1.8-0.9,3.9-1.3,6.2-1.3c3.3,0,6,0.6,8.1,1.8
		c-0.2,1.9-0.9,3.2-2.1,4.1c-1.8-0.8-3.7-1.2-5.7-1.2c-2.9,0-5,1-6.4,3.1s-2.2,4.8-2.3,8.3c2.3-2.1,5-3.2,8.2-3.2s5.7,1,7.5,3
		s2.7,5,2.7,9c0,1.9-0.3,3.7-0.9,5.3c-0.6,1.6-1.4,3-2.4,4.1s-2.3,2-3.8,2.7c-1.5,0.6-3.1,1-5,1c-3.6,0-6.4-1.2-8.4-3.6
		c-0.7-0.9-1.3-1.8-1.7-2.8c-0.5-1-0.9-2.1-1.2-3.3c-0.3-1.2-0.6-2.6-0.7-4.1c-0.2-1.6-0.2-3.3-0.2-5.4
		C85.7,401,86,398.4,86.7,396.1z M94.7,444.8c0,1.7-0.4,3-1.3,3.9c-0.7,0.7-1.6,1-2.8,1c-0.7,0-1.2-0.1-1.7-0.4
		c-0.5-0.2-0.9-0.6-1.3-1s-0.6-1-0.8-1.6c-0.2-0.6-0.3-1.3-0.3-2s0.1-1.4,0.3-2c0.2-0.6,0.4-1.1,0.8-1.6s0.8-0.8,1.3-1
		s1.1-0.4,1.7-0.4c0.7,0,1.2,0.1,1.7,0.4c0.5,0.2,0.9,0.6,1.3,1c0.3,0.4,0.6,1,0.8,1.6C94.6,443.4,94.7,444.1,94.7,444.8z
		 M57.2,417.4c0.5-0.8,1-1.4,1.6-1.8c1.3,0.9,2.7,1.6,3.9,2c1.3,0.4,2.5,0.6,3.6,0.6c2.2,0,3.9-0.7,5.3-2.2c1.4-1.4,2.1-3.4,2.1-5.9
		c0-1.3-0.2-2.4-0.5-3.4c-0.4-0.9-0.9-1.7-1.6-2.3c-0.7-0.6-1.4-1-2.2-1.3c-0.8-0.3-1.7-0.4-2.6-0.4c-1,0-2.1,0.2-3.1,0.6
		c-1.1,0.4-2.1,1-3.1,1.9c-0.5-0.1-1.1-0.3-1.6-0.7c-0.5-0.4-0.9-0.8-1.2-1.3l0.8-16.9l0.4-0.4h19c0.3,0.7,0.4,1.6,0.4,2.4
		c0,1.7-0.9,2.6-2.6,2.6h-12v2.8l-0.4,5.4c1.6-0.7,3.3-1,4.9-1c3.5,0,6.3,1,8.3,3.1s3.1,5.1,3.1,9.1c0,1.9-0.3,3.7-1,5.3
		c-0.7,1.6-1.6,2.9-2.8,4c-1.2,1.1-2.5,2-4.1,2.6s-3.2,0.9-4.9,0.9c-4.3,0-7.8-1.2-10.6-3.6C56.4,418.8,56.7,418.1,57.2,417.4z
		 M76.3,461.4c0.8,0,1.5,0.3,1.9,0.8c0.4,0.6,0.6,1.3,0.6,2.3v4.4c0,0.8,0.1,1.3,0.3,1.7c-0.4,0.3-0.7,0.4-1.2,0.4
		c-0.4,0-0.7-0.1-0.9-0.3s-0.2-0.5-0.2-0.9V465c0-0.7-0.1-1.1-0.3-1.4c-0.2-0.3-0.5-0.4-0.9-0.4s-0.8,0.1-1.3,0.3
		c-0.4,0.2-0.8,0.5-1.1,0.9v6.6c-0.1,0-0.3,0-0.4,0.1c-0.2,0-0.3,0-0.5,0s-0.4,0-0.5,0c-0.2,0-0.3,0-0.4-0.1v-13.8l0.1-0.1h0.8
		c0.4,0,0.7,0.1,0.8,0.3c0.2,0.2,0.2,0.5,0.2,1v4.4C74.2,461.8,75.2,461.4,76.3,461.4z M65,491.6c0.3,0.5,0.9,0.7,1.7,0.7
		c0.4,0,0.8-0.1,1.2-0.2s0.9-0.3,1.4-0.6c0.3,0.3,0.5,0.7,0.6,1.3c-1,0.7-2.2,1.1-3.6,1.1c-0.7,0-1.3-0.1-1.8-0.4s-0.9-0.6-1.2-1
		c-0.3-0.4-0.5-1-0.7-1.6c-0.1-0.6-0.2-1.3-0.2-2s0.1-1.3,0.3-1.9c0.2-0.6,0.4-1.1,0.8-1.5c0.3-0.4,0.7-0.8,1.2-1s1-0.4,1.6-0.4
		s1.1,0.1,1.6,0.3s0.9,0.5,1.2,0.8c0.3,0.4,0.6,0.8,0.7,1.3c0.2,0.5,0.3,1,0.3,1.6c0,0.3,0,0.5,0,0.7s-0.1,0.5-0.1,0.8h-5.6
		C64.5,490.5,64.7,491.1,65,491.6z M62.2,467.3l-0.8,3.6c-0.5,0.1-1,0.1-1.4,0.1c-0.5,0-0.8-0.1-1-0.2c-0.2-0.1-0.4-0.4-0.5-0.9
		l-2-8.3c0.4-0.2,0.8-0.3,1.2-0.3c0.5,0,0.8,0.3,0.9,0.8l0.9,3.9c0.2,0.7,0.4,1.8,0.6,3.2c0,0.1,0.1,0.2,0.2,0.2l1.6-7.9
		c0.3-0.1,0.6-0.1,1.2-0.1s0.9,0,1.1,0.1l1.6,7.7c0,0.1,0.1,0.2,0.2,0.2c0.2-1,0.4-2.1,0.7-3.3l1-4.6c0.2,0,0.5-0.1,0.9-0.1
		s0.7,0,0.9,0.2l0.1,0.1l-2.3,9.2c-0.4,0.1-0.8,0.1-1.3,0.1s-0.9-0.1-1.1-0.2c-0.2-0.1-0.4-0.4-0.4-0.9l-0.6-2.6l-0.7-3.9h-0.1
		C62.8,464.5,62.5,465.8,62.2,467.3z M70.2,444.7c0,0.2-0.1,0.5-0.1,0.8h-5.6c0,0.9,0.2,1.5,0.6,2c0.3,0.5,0.9,0.7,1.7,0.7
		c0.4,0,0.8-0.1,1.2-0.2s0.9-0.3,1.4-0.6c0.3,0.3,0.5,0.7,0.6,1.3c-1,0.7-2.2,1.1-3.6,1.1c-0.7,0-1.3-0.1-1.8-0.4s-0.9-0.6-1.2-1
		c-0.3-0.4-0.5-1-0.7-1.6c-0.1-0.6-0.2-1.3-0.2-2s0.1-1.3,0.3-1.9c0.2-0.6,0.4-1.1,0.8-1.5c0.3-0.4,0.7-0.8,1.2-1s1-0.4,1.6-0.4
		s1.1,0.1,1.6,0.3s0.9,0.5,1.2,0.8c0.3,0.4,0.6,0.8,0.7,1.3c0.2,0.5,0.3,1,0.3,1.6C70.2,444.2,70.2,444.4,70.2,444.7z M48,440.2
		L48,440.2l0.8-0.1c0.7,0,1,0.4,1.1,1.2c0.9-0.9,1.8-1.3,2.8-1.3s1.7,0.5,2.1,1.4c1-0.9,2-1.4,3-1.4c0.8,0,1.4,0.3,1.8,0.8
		c0.4,0.6,0.6,1.3,0.6,2.1v4.6c0,0.8,0.1,1.4,0.3,1.7c-0.4,0.3-0.8,0.4-1.2,0.4c-0.7,0-1-0.4-1-1.3v-4.8c0-0.6-0.1-1.1-0.3-1.4
		s-0.5-0.4-0.9-0.4c-0.7,0-1.4,0.4-2,1.2v6.6c-0.1,0-0.3,0-0.4,0.1c-0.2,0-0.4,0-0.5,0c-0.2,0-0.4,0-0.5,0c-0.2,0-0.3,0-0.4-0.1
		v-5.9c0-0.6-0.1-1.1-0.3-1.4c-0.2-0.3-0.5-0.4-0.9-0.4c-0.7,0-1.4,0.4-2,1.2v6.6c-0.2,0-0.5,0.1-1,0.1c-0.2,0-0.4,0-0.5,0
		c-0.2,0-0.3,0-0.4-0.1v-9.4H48z M55,492.2h0.7c0.1,0.3,0.2,0.6,0.2,0.8s0,0.4-0.1,0.6c-0.5,0.1-1,0.1-1.6,0.1c-1.3,0-1.9-0.7-1.9-2
		v-12l0.1-0.1h0.7c0.4,0,0.7,0.1,0.8,0.3c0.2,0.2,0.2,0.5,0.2,1v10.4C54.2,491.9,54.5,492.2,55,492.2z M46,461.5h1.5
		c-0.1-0.8-0.1-1.3-0.1-1.7s0.1-0.8,0.2-1.2s0.3-0.7,0.6-0.9s0.6-0.5,0.9-0.6c0.4-0.1,0.8-0.2,1.2-0.2c0.9,0,1.7,0.1,2.5,0.4
		c0,0.6-0.2,1-0.5,1.3c-0.3-0.1-0.6-0.2-0.8-0.2c-0.3-0.1-0.5-0.1-0.7-0.1c-0.5,0-0.9,0.1-1.1,0.4c-0.2,0.3-0.4,0.7-0.4,1.3
		c0,0.2,0,0.4,0,0.7s0.1,0.5,0.1,0.8h2.7c0,0.1,0,0.2,0.1,0.4c0,0.1,0,0.3,0,0.4c0,0.1,0,0.3,0,0.4c0,0.1,0,0.2-0.1,0.3h-2.5v8
		c-0.1,0-0.3,0-0.5,0.1s-0.3,0-0.5,0s-0.3,0-0.5,0s-0.3,0-0.4-0.1v-8h-1.6c0-0.1,0-0.2-0.1-0.3c0-0.1,0-0.3,0-0.4
		C45.9,461.9,45.9,461.7,46,461.5z M37.7,442.8c0.2-0.6,0.4-1.1,0.8-1.6s0.8-0.8,1.3-1s1.1-0.4,1.7-0.4c0.7,0,1.2,0.1,1.7,0.4
		c0.5,0.2,0.9,0.6,1.3,1c0.3,0.4,0.6,1,0.8,1.6s0.3,1.3,0.3,2c0,1.7-0.4,3-1.3,3.9c-0.7,0.7-1.6,1-2.8,1c-0.7,0-1.2-0.1-1.7-0.4
		c-0.5-0.2-0.9-0.6-1.3-1s-0.6-1-0.8-1.6s-0.3-1.3-0.3-2C37.5,444.1,37.6,443.4,37.7,442.8z M31.6,449.4c-0.2-0.1-0.3-0.4-0.4-0.8
		l-0.9-5.1c-0.3-1.9-0.6-3.4-0.8-4.7h-0.1c-0.3,1.6-0.5,3.2-0.8,4.7l-1.2,6c-0.5,0.1-1.1,0.1-1.6,0.1s-0.9-0.1-1.1-0.2
		c-0.2-0.1-0.4-0.4-0.4-0.8l-2.4-12c0.4-0.2,0.7-0.2,1.1-0.2c0.4,0,0.6,0.1,0.8,0.2c0.2,0.2,0.3,0.4,0.3,0.8l1.2,6.5
		c0.3,1.6,0.5,2.8,0.6,3.7c0,0.2,0.1,0.2,0.2,0.2l2.1-11c0.4-0.1,0.9-0.1,1.3-0.1c0.5,0,0.9,0,1.3,0.1l1.9,10.8
		c0,0.2,0.1,0.2,0.2,0.2c0.1-0.9,0.4-2.2,0.7-3.9l1.5-7.4c0.3,0,0.6-0.1,0.9-0.1c0.4,0,0.7,0,1,0.1l0.1,0.1l-2.7,12.8
		c-0.5,0.1-1,0.1-1.5,0.1C32.2,449.6,31.8,449.5,31.6,449.4z M36.9,485.6c-0.6,0-1.1,0.3-1.4,0.9c-0.3,0.6-0.5,1.4-0.5,2.6
		c0,2.2,0.7,3.3,2.1,3.3c0.7,0,1.5-0.3,2.3-0.9c0.2,0.1,0.3,0.3,0.5,0.5s0.3,0.4,0.3,0.7c-0.9,0.9-2.1,1.4-3.4,1.4
		c-0.7,0-1.3-0.1-1.7-0.4c-0.5-0.2-0.9-0.6-1.2-1s-0.6-1-0.7-1.6s-0.2-1.3-0.2-2c0-0.8,0.1-1.5,0.3-2.1s0.5-1.1,0.9-1.5
		s0.8-0.7,1.3-0.9s1-0.3,1.5-0.3s1,0.1,1.5,0.2c0.4,0.2,0.8,0.4,1.1,0.6c0.3,0.3,0.5,0.6,0.7,0.9c0.2,0.3,0.2,0.7,0.2,1.1
		c0,0.7-0.3,1.1-1,1.1c-0.3,0-0.6,0-0.8-0.1v-0.2C38.6,486.3,38.1,485.6,36.9,485.6z M39.1,470.8c-0.5-0.2-0.9-0.6-1.3-1
		s-0.6-1-0.8-1.6s-0.3-1.3-0.3-2s0.1-1.4,0.3-2s0.4-1.1,0.8-1.6s0.8-0.8,1.3-1s1.1-0.4,1.7-0.4c0.7,0,1.2,0.1,1.7,0.4
		c0.5,0.2,0.9,0.6,1.3,1c0.3,0.4,0.6,1,0.8,1.6s0.3,1.3,0.3,2c0,1.7-0.4,3-1.3,3.9c-0.7,0.7-1.6,1-2.8,1
		C40.2,471.1,39.6,471,39.1,470.8z M48.7,492.9c-0.7,0.7-1.6,1-2.8,1c-0.7,0-1.2-0.1-1.7-0.4c-0.5-0.2-0.9-0.6-1.3-1s-0.6-1-0.8-1.6
		s-0.3-1.3-0.3-2s0.1-1.4,0.3-2s0.4-1.1,0.8-1.6s0.8-0.8,1.3-1s1.1-0.4,1.7-0.4c0.7,0,1.2,0.1,1.7,0.4c0.5,0.2,0.9,0.6,1.3,1
		c0.3,0.4,0.6,1,0.8,1.6s0.3,1.3,0.3,2C50,490.7,49.6,492,48.7,492.9z M56.9,508.5h-2.3v5.7c0,0.6,0.3,0.8,0.8,0.8h1.3
		c0.1,0.3,0.2,0.6,0.2,0.9s0,0.5,0,0.6c-0.7,0.1-1.4,0.1-2.1,0.1c-1.3,0-2-0.7-2-2v-6.1h-1.4c-0.1-0.2-0.1-0.5-0.1-0.7
		c0-0.3,0-0.5,0.1-0.8h1.4v-1.7c0-0.5,0.1-0.8,0.2-1c0.2-0.2,0.4-0.3,0.8-0.3h0.7l0.1,0.1v2.8l2.3-0.1c0.1,0.2,0.1,0.5,0.1,0.7
		S56.9,508.3,56.9,508.5z M57.7,491.8v-12l0.1-0.1h0.7c0.4,0,0.7,0.1,0.8,0.3c0.2,0.2,0.2,0.5,0.2,1v10.4c0,0.6,0.2,0.9,0.7,0.9h0.7
		c0.1,0.3,0.2,0.6,0.2,0.8s0,0.4-0.1,0.6c-0.5,0.1-1,0.1-1.6,0.1C58.3,493.7,57.7,493.1,57.7,491.8z M65.5,516.6
		c-0.4,0-0.7-0.1-0.9-0.3c-0.2-0.2-0.2-0.5-0.2-0.9v-4.8c0-0.7-0.1-1.1-0.3-1.4c-0.2-0.3-0.5-0.4-0.9-0.4s-0.8,0.1-1.3,0.3
		c-0.4,0.2-0.8,0.5-1.1,0.9v6.6c-0.1,0-0.3,0-0.4,0.1c-0.2,0-0.3,0-0.5,0s-0.4,0-0.5,0c-0.2,0-0.3,0-0.4-0.1v-13.8l0.1-0.1h0.8
		c0.4,0,0.7,0.1,0.8,0.3c0.2,0.2,0.2,0.5,0.2,1v4.4c0.9-0.8,1.9-1.3,3-1.3c0.8,0,1.5,0.3,1.9,0.8c0.4,0.6,0.6,1.3,0.6,2.3v4.4
		c0,0.8,0.1,1.3,0.3,1.7C66.3,516.4,65.9,516.6,65.5,516.6z M76.3,511.6c0,0.2-0.1,0.5-0.1,0.8h-5.6c0,0.9,0.2,1.5,0.6,2
		c0.3,0.5,0.9,0.7,1.7,0.7c0.4,0,0.8-0.1,1.2-0.2c0.4-0.1,0.9-0.3,1.4-0.6c0.3,0.3,0.5,0.7,0.6,1.3c-1,0.7-2.2,1.1-3.6,1.1
		c-0.7,0-1.3-0.1-1.8-0.4s-0.9-0.6-1.2-1c-0.3-0.4-0.5-1-0.7-1.6c-0.1-0.6-0.2-1.3-0.2-2c0-0.7,0.1-1.3,0.3-1.9
		c0.2-0.6,0.4-1.1,0.8-1.5c0.3-0.4,0.7-0.8,1.2-1s1-0.4,1.6-0.4s1.1,0.1,1.6,0.3s0.9,0.5,1.2,0.8c0.3,0.4,0.6,0.8,0.7,1.3
		c0.2,0.5,0.3,1,0.3,1.6C76.3,511.1,76.3,511.4,76.3,511.6z M79.1,493.8c-0.7-0.1-1.3-0.5-1.5-1.2c-0.9,0.9-1.8,1.3-2.8,1.3
		c-0.5,0-0.9-0.1-1.3-0.2c-0.4-0.2-0.7-0.4-0.9-0.6c-0.2-0.3-0.4-0.6-0.6-0.9c-0.1-0.3-0.2-0.7-0.2-1.1c0-1,0.3-1.8,1-2.4
		s1.5-0.8,2.6-0.8c0.3,0,0.6,0,0.9,0s0.6,0.1,0.9,0.1v-0.7c0-1.1-0.5-1.7-1.6-1.7c-0.7,0-1.7,0.2-3,0.7c-0.4-0.3-0.6-0.8-0.6-1.4
		c1.3-0.6,2.6-0.9,3.9-0.9c1,0,1.8,0.3,2.3,0.8s0.8,1.3,0.8,2.4v3.9c0,0.8,0.2,1.3,0.5,1.6C79.7,493.2,79.5,493.6,79.1,493.8z
		 M79.2,449.6c-0.4,0-0.7-0.1-0.9-0.3s-0.2-0.5-0.2-0.9v-4.8c0-0.7-0.1-1.1-0.3-1.4s-0.5-0.4-0.9-0.4s-0.8,0.1-1.3,0.3
		s-0.8,0.5-1.1,0.9v6.6c-0.2,0-0.5,0.1-1,0.1c-0.2,0-0.4,0-0.5,0c-0.2,0-0.3,0-0.4-0.1v-9.3l0.1-0.1h0.7c0.7,0,1,0.4,1.1,1.2
		c0.9-0.8,1.9-1.3,3-1.3c0.8,0,1.5,0.3,1.9,0.8c0.4,0.6,0.6,1.3,0.6,2.3v4.4c0,0.7,0.1,1.3,0.3,1.7
		C80.1,449.5,79.7,449.6,79.2,449.6z M81,468.3c0-1,0.3-1.8,1-2.4s1.5-0.8,2.6-0.8c0.3,0,0.6,0,0.9,0s0.6,0.1,0.9,0.1v-0.7
		c0-1.1-0.5-1.7-1.6-1.7c-0.7,0-1.7,0.2-3,0.7c-0.4-0.3-0.6-0.8-0.6-1.4c1.3-0.6,2.6-0.9,3.9-0.9c1,0,1.8,0.3,2.3,0.8
		s0.8,1.3,0.8,2.4v3.9c0,0.8,0.2,1.3,0.5,1.6c-0.2,0.5-0.4,0.8-0.7,1c-0.7-0.1-1.3-0.5-1.5-1.2c-0.9,0.9-1.8,1.3-2.8,1.3
		c-0.5,0-0.9-0.1-1.3-0.2c-0.4-0.2-0.7-0.4-0.9-0.6c-0.2-0.3-0.4-0.6-0.6-0.9C81.1,469.1,81,468.7,81,468.3z M88,515.9
		c-0.7,0.5-1.6,0.8-2.7,0.8s-2.3-0.3-3.3-0.9c0-0.2,0.1-0.5,0.2-0.7c0.1-0.3,0.3-0.5,0.4-0.6c1,0.6,1.8,0.8,2.5,0.8
		c0.6,0,1.1-0.1,1.4-0.3c0.3-0.2,0.5-0.5,0.5-0.9c0-0.6-0.4-1-1.2-1.3l-1.1-0.4c-1.6-0.6-2.4-1.5-2.4-2.7c0-0.9,0.3-1.6,0.9-2.1
		s1.4-0.7,2.5-0.7c1,0,2,0.2,3.1,0.7c0,0.3-0.1,0.5-0.2,0.8s-0.3,0.5-0.4,0.6c-0.9-0.4-1.7-0.6-2.5-0.6c-0.4,0-0.8,0.1-1,0.3
		s-0.4,0.5-0.4,0.8s0.1,0.5,0.3,0.7c0.2,0.2,0.5,0.3,0.9,0.5l1.1,0.4c1.6,0.6,2.4,1.6,2.4,2.8C89,514.7,88.7,515.4,88,515.9z
		 M89.1,487v5.6c0,1-0.1,1.8-0.2,2.5c-0.2,0.7-0.4,1.2-0.7,1.6c-0.3,0.4-0.7,0.7-1.3,0.9s-1.1,0.3-1.8,0.3c-1.1,0-2.2-0.2-3.3-0.6
		c0-0.6,0.2-1.1,0.5-1.5c0.8,0.4,1.7,0.6,2.6,0.6s1.5-0.2,1.8-0.7s0.5-1.1,0.5-1.9v-0.9c-0.7,0.7-1.6,1-2.6,1s-1.8-0.4-2.3-1.3
		c-0.6-0.9-0.8-2.1-0.8-3.6c0-0.8,0.1-1.5,0.3-2.1c0.2-0.6,0.5-1.1,0.8-1.5s0.7-0.7,1.2-1s0.9-0.3,1.4-0.3c1,0,1.9,0.3,2.6,1
		c0.3-0.4,0.7-0.7,1.3-0.9c0.2,0.1,0.3,0.3,0.4,0.5s0.2,0.4,0.3,0.5C89.3,485.5,89.1,486.1,89.1,487z M90,462.2c0-0.3,0-0.5,0.1-0.8
		h1.4v-1.5c0-0.5,0.1-0.8,0.2-1c0.2-0.2,0.4-0.3,0.8-0.3h0.7l0.1,0.1v2.8l2.3-0.1c0.1,0.2,0.1,0.5,0.1,0.7s0,0.5-0.1,0.7h-2.3v5.7
		c0,0.6,0.3,0.8,0.8,0.8h1.3c0.1,0.3,0.2,0.6,0.2,0.9s0,0.5,0,0.6c-0.7,0.1-1.4,0.1-2.1,0.1c-1.3,0-2-0.7-2-2v-6h-1.4
		C90,462.7,90,462.5,90,462.2z M97.7,516.6c-0.7-0.1-1.3-0.5-1.5-1.2c-0.9,0.9-1.8,1.3-2.8,1.3c-0.5,0-0.9-0.1-1.3-0.2
		c-0.4-0.2-0.7-0.4-0.9-0.6c-0.2-0.3-0.4-0.6-0.6-0.9c-0.1-0.3-0.2-0.7-0.2-1.1c0-1,0.3-1.8,1-2.4c0.7-0.6,1.5-0.8,2.6-0.8
		c0.3,0,0.6,0,0.9,0s0.6,0.1,0.9,0.1v-0.7c0-1.1-0.5-1.7-1.6-1.7c-0.7,0-1.7,0.2-3,0.7c-0.4-0.3-0.6-0.8-0.6-1.4
		c1.3-0.6,2.6-0.9,3.9-0.9c1,0,1.8,0.3,2.3,0.8s0.8,1.3,0.8,2.4v3.9c0,0.8,0.2,1.3,0.5,1.6C98.3,516,98.1,516.4,97.7,516.6z
		 M99.3,493.8c-0.8-0.1-1.3-0.6-1.6-1.4c-1,0.9-2,1.4-3.2,1.4c-0.8,0-1.5-0.3-1.9-0.9c-0.4-0.6-0.6-1.3-0.6-2.3v-4.4
		c0-0.8-0.1-1.3-0.3-1.7c0.3-0.3,0.7-0.4,1.2-0.4c0.7,0,1,0.4,1,1.2v4.8c0,0.7,0.1,1.1,0.2,1.4c0.2,0.3,0.5,0.4,0.9,0.4
		s0.8-0.1,1.3-0.3c0.4-0.2,0.8-0.5,1.2-0.8v-6.6c0.4,0,0.7-0.1,1-0.1s0.6,0,1,0.1v6.7c0,0.9,0.2,1.5,0.5,1.8
		C99.9,493.3,99.6,493.6,99.3,493.8z M99,442.9v6.6c-0.2,0-0.5,0.1-1,0.1c-0.2,0-0.4,0-0.5,0c-0.2,0-0.3,0-0.4-0.1v-9.3l0.1-0.1h0.7
		c0.7,0,1,0.4,1.1,1.2c0.9-0.8,1.9-1.3,3-1.3c0.8,0,1.5,0.3,1.9,0.8c0.4,0.6,0.6,1.3,0.6,2.3v4.4c0,0.7,0.1,1.3,0.3,1.7
		c-0.3,0.3-0.7,0.4-1.2,0.4c-0.4,0-0.7-0.1-0.9-0.3s-0.2-0.5-0.2-0.9v-4.8c0-0.7-0.1-1.1-0.3-1.4s-0.5-0.4-0.9-0.4s-0.8,0.1-1.3,0.3
		S99.3,442.5,99,442.9z M100.9,461.5h1.4v-1.6c0-0.5,0.1-0.8,0.2-1c0.2-0.2,0.4-0.3,0.8-0.3h0.7l0.1,0.1v2.8l2.3-0.1
		c0.1,0.2,0.1,0.5,0.1,0.7s0,0.5-0.1,0.7h-2.3v5.7c0,0.6,0.3,0.8,0.8,0.8h1.3c0.1,0.3,0.2,0.6,0.2,0.9s0,0.5,0,0.6
		c-0.7,0.1-1.4,0.1-2.1,0.1c-1.3,0-2-0.7-2-2v-6h-1.4c-0.1-0.2-0.1-0.5-0.1-0.7S100.8,461.7,100.9,461.5z M112.2,516.6
		c-0.7,0-1-0.4-1-1.3v-4.8c0-0.6-0.1-1.1-0.3-1.4s-0.5-0.4-0.9-0.4c-0.7,0-1.4,0.4-2,1.2v6.6c-0.1,0-0.3,0-0.4,0.1
		c-0.2,0-0.4,0-0.5,0c-0.2,0-0.4,0-0.5,0c-0.2,0-0.3,0-0.4-0.1v-5.9c0-0.6-0.1-1.1-0.3-1.4c-0.2-0.3-0.5-0.4-0.9-0.4
		c-0.7,0-1.4,0.4-2,1.2v6.6c-0.2,0-0.5,0.1-1,0.1c-0.2,0-0.4,0-0.5,0c-0.2,0-0.3,0-0.4-0.1v-9.3l0.1-0.1h0.7c0.7,0,1,0.4,1.1,1.2
		c0.9-0.9,1.8-1.3,2.8-1.3s1.7,0.5,2.1,1.4c1-0.9,2-1.4,3-1.4c0.8,0,1.4,0.3,1.8,0.8c0.4,0.6,0.6,1.3,0.6,2.1v4.6
		c0,0.8,0.1,1.4,0.3,1.7C113,516.4,112.6,516.6,112.2,516.6z M111.1,493c0-0.2,0.1-0.5,0.2-0.7c0.1-0.3,0.3-0.5,0.4-0.6
		c1,0.6,1.8,0.8,2.5,0.8c0.6,0,1.1-0.1,1.4-0.3c0.3-0.2,0.5-0.5,0.5-0.9c0-0.6-0.4-1-1.2-1.3l-1.1-0.4c-1.6-0.6-2.4-1.5-2.4-2.7
		c0-0.9,0.3-1.6,0.9-2.1s1.4-0.7,2.5-0.7c1,0,2,0.2,3.1,0.7c0,0.3-0.1,0.5-0.2,0.8c-0.1,0.3-0.3,0.5-0.4,0.6
		c-0.9-0.4-1.7-0.6-2.5-0.6c-0.4,0-0.8,0.1-1,0.3s-0.4,0.5-0.4,0.8s0.1,0.5,0.3,0.7s0.5,0.3,0.9,0.5l1.1,0.4
		c1.6,0.6,2.4,1.6,2.4,2.8c0,0.9-0.3,1.6-1,2.1s-1.6,0.8-2.7,0.8C113.2,493.9,112.1,493.6,111.1,493z M123,511.6
		c0,0.2-0.1,0.5-0.1,0.8h-5.6c0,0.9,0.2,1.5,0.6,2c0.3,0.5,0.9,0.7,1.7,0.7c0.4,0,0.8-0.1,1.2-0.2c0.4-0.1,0.9-0.3,1.4-0.6
		c0.3,0.3,0.5,0.7,0.6,1.3c-1,0.7-2.2,1.1-3.6,1.1c-0.7,0-1.3-0.1-1.8-0.4s-0.9-0.6-1.2-1s-0.5-1-0.7-1.6c-0.1-0.6-0.2-1.3-0.2-2
		c0-0.7,0.1-1.3,0.3-1.9c0.2-0.6,0.4-1.1,0.8-1.5c0.3-0.4,0.7-0.8,1.2-1s1-0.4,1.6-0.4s1.1,0.1,1.6,0.3s0.9,0.5,1.2,0.8
		c0.3,0.4,0.6,0.8,0.7,1.3c0.2,0.5,0.3,1,0.3,1.6C123,511.1,123,511.4,123,511.6z M125.9,493.5c-0.5-0.3-0.9-0.6-1.2-1
		s-0.5-1-0.7-1.6c-0.1-0.6-0.2-1.3-0.2-2s0.1-1.3,0.3-1.9c0.2-0.6,0.4-1.1,0.8-1.5c0.3-0.4,0.7-0.8,1.2-1s1-0.4,1.6-0.4
		c0.6,0,1.1,0.1,1.6,0.3s0.9,0.5,1.2,0.8c0.3,0.4,0.6,0.8,0.7,1.3c0.2,0.5,0.3,1,0.3,1.6c0,0.3,0,0.5,0,0.7s-0.1,0.5-0.1,0.8h-5.6
		c0,0.9,0.2,1.5,0.6,2c0.3,0.5,0.9,0.7,1.7,0.7c0.4,0,0.8-0.1,1.2-0.2s0.9-0.3,1.4-0.6c0.3,0.3,0.5,0.7,0.6,1.3
		c-1,0.7-2.2,1.1-3.6,1.1C127,493.9,126.4,493.8,125.9,493.5z M139.2,516.5c-0.4,0.1-0.8,0.1-1.3,0.1s-0.9-0.1-1.1-0.2
		c-0.2-0.1-0.4-0.4-0.4-0.9l-0.6-2.6l-0.7-3.9H135c-0.2,1.1-0.5,2.4-0.8,3.9l-0.8,3.6c-0.5,0.1-1,0.1-1.4,0.1c-0.5,0-0.8-0.1-1-0.2
		c-0.2-0.1-0.4-0.4-0.5-0.9l-2-8.3c0.4-0.2,0.8-0.3,1.2-0.3c0.5,0,0.8,0.3,0.9,0.8l0.9,3.9c0.2,0.7,0.4,1.8,0.6,3.2
		c0,0.1,0.1,0.2,0.2,0.2l1.6-7.9c0.3-0.1,0.6-0.1,1.2-0.1c0.6,0,0.9,0,1.1,0.1l1.6,7.7c0,0.1,0.1,0.2,0.2,0.2c0.2-1,0.4-2.1,0.7-3.3
		l1-4.6c0.2,0,0.5-0.1,0.9-0.1s0.7,0,0.9,0.2l0.1,0.1L139.2,516.5z M141.8,449.6c-0.7-0.1-1.3-0.5-1.5-1.2c-0.9,0.9-1.8,1.3-2.8,1.3
		c-0.5,0-0.9-0.1-1.3-0.2c-0.4-0.2-0.7-0.4-0.9-0.6c-0.2-0.3-0.4-0.6-0.6-0.9c-0.1-0.3-0.2-0.7-0.2-1.1c0-1,0.3-1.8,1-2.4
		c0.7-0.6,1.5-0.8,2.6-0.8c0.3,0,0.6,0,0.9,0s0.6,0.1,0.9,0.1v-0.7c0-1.1-0.5-1.7-1.6-1.7c-0.7,0-1.7,0.2-3,0.7
		c-0.4-0.3-0.6-0.8-0.6-1.4c1.3-0.6,2.6-0.9,3.9-0.9c1,0,1.8,0.3,2.3,0.8s0.8,1.3,0.8,2.4v3.9c0,0.8,0.2,1.3,0.5,1.6
		C142.4,449.1,142.1,449.4,141.8,449.6z M149.3,515.6c-0.7,0.7-1.6,1-2.8,1c-0.7,0-1.2-0.1-1.7-0.4c-0.5-0.2-0.9-0.6-1.3-1
		c-0.4-0.4-0.6-1-0.8-1.6c-0.2-0.6-0.3-1.3-0.3-2c0-0.7,0.1-1.4,0.3-2c0.2-0.6,0.4-1.1,0.8-1.6c0.4-0.5,0.8-0.8,1.3-1
		s1.1-0.4,1.7-0.4c0.7,0,1.2,0.1,1.7,0.4c0.5,0.2,0.9,0.6,1.3,1c0.3,0.4,0.6,1,0.8,1.6c0.2,0.6,0.3,1.3,0.3,2
		C150.6,513.4,150.2,514.7,149.3,515.6z M151,493.7c-0.2,0-0.3,0-0.4-0.1v-9.3l0.1-0.1h0.7c0.7,0,1,0.4,1.1,1.2
		c0.9-0.8,1.9-1.3,3-1.3c0.8,0,1.5,0.3,1.9,0.8c0.4,0.6,0.6,1.3,0.6,2.3v4.4c0,0.7,0.1,1.3,0.3,1.7c-0.3,0.3-0.7,0.4-1.2,0.4
		c-0.4,0-0.7-0.1-0.9-0.3c-0.2-0.2-0.2-0.5-0.2-0.9v-4.8c0-0.7-0.1-1.1-0.3-1.4c-0.2-0.3-0.5-0.4-0.9-0.4s-0.8,0.1-1.3,0.3
		s-0.8,0.5-1.1,0.9v6.6c-0.2,0-0.5,0.1-1,0.1C151.3,493.7,151.1,493.7,151,493.7z M157.9,508.9c-0.1,0-0.4-0.1-0.8-0.1
		c-0.9,0-1.5,0.5-2,1.4v6.2c-0.2,0-0.6,0.1-1,0.1s-0.7,0-1-0.1v-6.5c0-0.9-0.2-1.5-0.7-2c0.1-0.5,0.4-0.8,0.7-1
		c0.9,0.2,1.4,0.8,1.7,1.7c0.5-1.1,1.3-1.7,2.5-1.7c0.3,0,0.6,0,1,0.1C158.4,507.8,158.2,508.4,157.9,508.9z M157.6,449.3
		c-0.2-0.2-0.2-0.5-0.2-0.9v-4.8c0-0.7-0.1-1.1-0.3-1.4c-0.2-0.3-0.5-0.4-0.9-0.4s-0.8,0.1-1.3,0.3s-0.8,0.5-1.1,0.9v6.6
		c-0.2,0-0.5,0.1-1,0.1c-0.2,0-0.4,0-0.5,0c-0.2,0-0.3,0-0.4-0.1v-9.3l0.1-0.1h0.7c0.7,0,1,0.4,1.1,1.2c0.9-0.8,1.9-1.3,3-1.3
		c0.8,0,1.5,0.3,1.9,0.8c0.4,0.6,0.6,1.3,0.6,2.3v4.4c0,0.7,0.1,1.3,0.3,1.7c-0.3,0.3-0.7,0.4-1.2,0.4
		C158.1,449.6,157.8,449.5,157.6,449.3z M159.3,469.4c-0.1-0.3-0.2-0.7-0.2-1.1c0-1,0.3-1.8,1-2.4c0.7-0.6,1.5-0.8,2.6-0.8
		c0.3,0,0.6,0,0.9,0s0.6,0.1,0.9,0.1v-0.7c0-1.1-0.5-1.7-1.6-1.7c-0.7,0-1.7,0.2-3,0.7c-0.4-0.3-0.6-0.8-0.6-1.4
		c1.3-0.6,2.6-0.9,3.9-0.9c1,0,1.8,0.3,2.3,0.8s0.8,1.3,0.8,2.4v3.9c0,0.8,0.2,1.3,0.5,1.6c-0.2,0.5-0.4,0.8-0.7,1
		c-0.7-0.1-1.3-0.5-1.5-1.2c-0.9,0.9-1.8,1.3-2.8,1.3c-0.5,0-0.9-0.1-1.3-0.2c-0.4-0.2-0.7-0.4-0.9-0.6
		C159.6,470,159.5,469.7,159.3,469.4z M166.4,516.6c-0.3,0-0.6-0.1-0.8-0.3c-0.2-0.2-0.3-0.5-0.5-0.8l-0.8-1.9
		c-0.2-0.5-0.4-0.8-0.6-1c-0.2-0.2-0.5-0.3-0.8-0.3c-0.3,0-0.7,0-1.1,0v4c-0.2,0-0.6,0.1-0.9,0.1c-0.4,0-0.7,0-1-0.1v-13.8l0.1-0.1
		h0.8c0.4,0,0.7,0.1,0.8,0.3c0.2,0.2,0.2,0.5,0.2,1v7h0.6c0.2,0,0.4-0.1,0.5-0.3l1.7-2.6c0.3-0.6,0.7-0.8,1.2-0.8s0.9,0,1.1,0
		l0.1,0.2l-2.1,3.3c-0.2,0.3-0.4,0.6-0.6,0.7c0.8,0.2,1.4,0.8,1.7,1.7l0.6,1.6c0.3,0.8,0.6,1.3,0.9,1.5
		C167.3,516.4,166.9,516.6,166.4,516.6z M167.2,483.5c0,0.2,0.1,0.5,0.1,0.8h2.7c0,0.1,0,0.2,0.1,0.4c0,0.1,0,0.3,0,0.4
		c0,0.1,0,0.3,0,0.4c0,0.1,0,0.2-0.1,0.3h-2.5v8c-0.1,0-0.3,0-0.5,0.1c-0.2,0.1-0.3,0-0.5,0c-0.2,0-0.3,0-0.5,0
		c-0.2,0-0.3,0-0.4-0.1v-8H164c0-0.1,0-0.2-0.1-0.3c0-0.1,0-0.3,0-0.4c0-0.3,0-0.5,0.1-0.7h1.5c-0.1-0.8-0.1-1.3-0.1-1.7
		s0.1-0.8,0.2-1.2c0.1-0.4,0.3-0.7,0.6-0.9c0.3-0.2,0.6-0.5,0.9-0.6c0.4-0.1,0.8-0.2,1.2-0.2c0.9,0,1.7,0.1,2.5,0.4
		c0,0.6-0.2,1-0.5,1.3c-0.3-0.1-0.6-0.2-0.8-0.2c-0.3-0.1-0.5-0.1-0.7-0.1c-0.5,0-0.9,0.1-1.1,0.4c-0.2,0.3-0.4,0.7-0.4,1.3
		C167.2,483,167.2,483.3,167.2,483.5z M177.4,492.9c-0.7,0.7-1.6,1-2.8,1c-0.7,0-1.2-0.1-1.7-0.4c-0.5-0.2-0.9-0.6-1.3-1
		c-0.4-0.4-0.6-1-0.8-1.6c-0.2-0.6-0.3-1.3-0.3-2s0.1-1.4,0.3-2c0.2-0.6,0.4-1.1,0.8-1.6c0.4-0.5,0.8-0.8,1.3-1s1.1-0.4,1.7-0.4
		c0.7,0,1.2,0.1,1.7,0.4c0.5,0.2,0.9,0.6,1.3,1c0.3,0.4,0.6,1,0.8,1.6c0.2,0.6,0.3,1.3,0.3,2C178.8,490.7,178.3,492,177.4,492.9z
		 M186,486.1c-0.1,0-0.4-0.1-0.8-0.1c-0.9,0-1.5,0.5-2,1.4v6.2c-0.2,0-0.6,0.1-1,0.1s-0.7,0-1-0.1v-6.5c0-0.9-0.2-1.5-0.7-2
		c0.1-0.5,0.4-0.8,0.7-1c0.9,0.2,1.4,0.8,1.7,1.7c0.5-1.1,1.3-1.7,2.5-1.7c0.3,0,0.6,0,1,0.1C186.5,485,186.3,485.6,186,486.1z
		 M186.7,443.1c-0.5-0.6-0.8-1.6-0.8-3c0-1.3,0.3-2.3,0.8-2.9c0.5-0.6,1.3-0.9,2.2-0.9s1.5,0.3,2.1,0.8c0.6,0.6,0.9,1.7,0.9,3.1
		c0,1.3-0.3,2.3-0.8,3s-1.3,0.9-2.2,0.9S187.3,443.8,186.7,443.1z M190.2,449.6c-0.3,0-0.5,0-0.7,0c-0.2,0-0.3,0-0.4-0.1l7.2-13
		c0.2-0.1,0.5-0.1,0.8-0.1c0.5,0,0.9,0,1.1,0.1l-7.1,13C190.8,449.6,190.5,449.6,190.2,449.6z M198.4,449.7c-1,0-1.8-0.3-2.2-1
		c-0.5-0.7-0.8-1.6-0.8-2.9c0-1.3,0.3-2.3,0.8-2.9s1.3-0.9,2.2-0.9s1.7,0.3,2.2,0.9c0.5,0.6,0.8,1.6,0.8,3c0,1.5-0.3,2.5-0.9,3.1
		C199.9,449.5,199.2,449.7,198.4,449.7z"/>
	<path class="st0" d="M152.1,419.2c2.6,0,3.8-2.5,3.8-7.6s-1.3-7.7-3.8-7.7c-2.6,0-3.8,2.6-3.8,7.7
		C148.3,416.6,149.6,419.2,152.1,419.2z"/>
	<path class="st0" d="M180,465.2c0-0.7-0.2-1.3-0.5-1.8c-0.3-0.4-0.8-0.7-1.4-0.7c-1.2,0-1.8,0.9-1.9,2.7h3.8L180,465.2L180,465.2z"
		/>
	<path class="st0" d="M124.2,402.4c2.5,0,3.8-2.5,3.8-7.6s-1.3-7.7-3.8-7.7s-3.8,2.6-3.8,7.7S121.7,402.4,124.2,402.4z"/>
	<path class="st0" d="M162.4,469.6c0.8,0,1.6-0.4,2.2-1.1v-1.8c-0.3,0-0.5,0-0.8-0.1c-0.3-0.1-0.6,0-0.9,0c-0.6,0-1,0.1-1.4,0.4
		c-0.3,0.3-0.5,0.7-0.5,1.1c0,0.5,0.1,0.8,0.3,1.1C161.7,469.4,162,469.6,162.4,469.6z"/>
	<path class="st0" d="M137.1,489.3c-0.6,0-1,0.1-1.4,0.4c-0.3,0.3-0.5,0.7-0.5,1.1c0,0.5,0.1,0.8,0.3,1.1c0.2,0.3,0.5,0.4,0.9,0.4
		c0.8,0,1.6-0.4,2.2-1.1v-1.8c-0.3,0-0.5,0-0.8-0.1C137.5,489.2,137.4,489.3,137.1,489.3z"/>
	<path class="st0" d="M122.2,462.7c-1.2,0-1.8,0.9-1.9,2.7h3.8v-0.2c0-0.7-0.2-1.3-0.5-1.8C123.3,463,122.8,462.7,122.2,462.7z"/>
	<path class="st0" d="M129.1,441.3c-1.2,0-1.8,0.9-1.9,2.7h3.8v-0.2c0-0.7-0.2-1.3-0.5-1.8C130.2,441.6,129.7,441.3,129.1,441.3z"/>
</g>
<g>
	<path class="st0" d="M312.2,623.3c-0.9,0-1.5,0.2-2,0.6c-0.5,0.4-0.7,1-0.7,1.7c0,0.7,0.2,1.2,0.5,1.6c0.3,0.4,0.8,0.6,1.4,0.6
		c1.2,0,2.3-0.6,3.3-1.7v-2.7c-0.4,0-0.8-0.1-1.2-0.1S312.6,623.3,312.2,623.3z"/>
	<path class="st0" d="M298.1,617.7c-2,0-3,1.7-3,5.1s1,5.1,3,5.1s3.1-1.7,3.1-5.1C301.2,619.4,300.1,617.7,298.1,617.7z"/>
	<path class="st0" d="M284.1,618c-1.1,0-2.1,0.5-3.1,1.6v7.8c0.7,0.2,1.5,0.3,2.4,0.3s1.7-0.4,2.3-1.3c0.6-0.9,0.9-2.1,0.9-3.7
		c0-1.6-0.2-2.8-0.7-3.6C285.5,618.4,284.9,618,284.1,618z"/>
	<path class="st0" d="M260,584.1c-2,0-3,1.7-3,5.1c0,3.4,1,5.1,3,5.1s3.1-1.7,3.1-5.1C263.1,585.8,262.1,584.1,260,584.1z"/>
	<path class="st0" d="M357.1,587.6c0-1.1-0.2-1.9-0.7-2.6s-1.2-1-2.1-1c-1.8,0-2.7,1.3-2.9,3.9h5.7V587.6z"/>
	<path class="st0" d="M334.6,619.2c-0.5,0.8-0.8,2.1-0.8,3.7s0.2,2.8,0.7,3.6c0.5,0.8,1.1,1.1,1.8,1.1c1.2,0,2.2-0.6,3.1-1.8v-6.9
		c-1-0.7-2-1-2.7-1C335.8,617.9,335.1,618.4,334.6,619.2z"/>
	<path class="st0" d="M291.7,550.5c-2,0-3,1.7-3,5.1c0,3.4,1,5.1,3,5.1s3.1-1.7,3.1-5.1C294.8,552.2,293.8,550.5,291.7,550.5z"/>
	<path class="st0" d="M386.7,520.4c2.6,0,3.9-2.6,3.9-7.8c0-5.2-1.3-7.8-3.9-7.8s-3.9,2.6-3.9,7.8
		C382.8,517.8,384.1,520.4,386.7,520.4z"/>
	<path class="st0" d="M358.3,503.4c2.6,0,3.9-2.6,3.9-7.8s-1.3-7.8-3.9-7.8c-2.5,0-3.8,2.6-3.8,7.8
		C354.5,500.8,355.8,503.4,358.3,503.4z"/>
	<path class="st0" d="M253.4,617.7c-2,0-3,1.7-3,5.1s1,5.1,3,5.1s3.1-1.7,3.1-5.1C256.5,619.4,255.5,617.7,253.4,617.7z"/>
	<path class="st0" d="M410.2,586.2c1.3,0,1.9-1.3,1.9-3.8c0-2.6-0.6-3.8-1.9-3.8s-1.9,1.3-1.9,3.8S408.9,586.2,410.2,586.2z"/>
	<path class="st0" d="M328.4,550.4c-1.8,0-2.7,1.3-2.9,3.9h5.7V554c0-1.1-0.2-1.9-0.7-2.6C330,550.8,329.3,550.4,328.4,550.4z"/>
	<path class="st0" d="M364.1,550.5c-2,0-3,1.7-3,5.1c0,3.4,1,5.1,3,5.1s3.1-1.7,3.1-5.1C367.1,552.2,366.1,550.5,364.1,550.5z"/>
	<path class="st0" d="M334.8,422.6c-67.7,0-122.6,54.9-122.6,122.6c0,67.7,54.9,122.6,122.6,122.6s122.6-54.9,122.6-122.6
		S402.5,422.6,334.8,422.6z M413.2,577.8c0.9,0.9,1.4,2.4,1.4,4.6c0,2-0.4,3.4-1.2,4.4c-0.8,0.9-1.9,1.4-3.3,1.4s-2.5-0.5-3.2-1.4
		c-0.8-0.9-1.1-2.4-1.1-4.4s0.4-3.4,1.1-4.3c0.8-0.9,1.8-1.4,3.2-1.4C411.4,576.6,412.5,577,413.2,577.8z M398.2,549.7l1.9,6.4
		c0.1,0.3,0.2,0.8,0.4,1.5c0.2,0.7,0.4,1.6,0.6,2.6c0,0.1,0.1,0.2,0.3,0.2l3.1-11.8c0.1,0,0.3-0.1,0.5-0.1s0.4,0,0.7,0
		c0.3,0,0.5,0,0.8,0s0.5,0.1,0.8,0.2l0.1,0.2l-3.7,13.1c-0.3,1.2-0.7,2.2-1,3c-0.4,0.8-0.8,1.5-1.3,2s-1,0.9-1.7,1.1
		c-0.6,0.2-1.4,0.4-2.3,0.4c-0.1,0-0.4,0-0.7,0c-0.3,0-0.6-0.1-0.9-0.1s-0.6-0.1-0.8-0.2c-0.2-0.1-0.3-0.2-0.3-0.3
		c0-0.3,0.1-0.7,0.2-1.1c0.1-0.4,0.3-0.7,0.5-0.9c0.6,0.2,1.3,0.4,2.2,0.4c0.8,0,1.5-0.3,2-0.9c0.5-0.6,0.9-1.4,1.3-2.6l0.1-0.3
		c-0.6,0-1.1-0.1-1.4-0.3c-0.3-0.2-0.6-0.6-0.8-1.2l-3.7-12.2c0.7-0.3,1.3-0.4,1.8-0.4C397.5,548.4,398,548.9,398.2,549.7z
		 M393.2,503.7c1.6,1.9,2.4,4.8,2.4,8.9c0,4.4-0.9,7.5-2.8,9.3c-1.6,1.6-3.6,2.3-6.2,2.3c-3,0-5.3-1-6.8-3s-2.3-4.9-2.3-8.8
		c0-4,0.8-6.9,2.3-8.8c1.6-1.9,3.8-2.8,6.6-2.8C389.4,500.9,391.6,501.8,393.2,503.7z M392.7,560.3h1c0.2,0.5,0.3,0.9,0.3,1.2
		c0,0.4,0,0.6-0.1,0.9c-0.7,0.1-1.5,0.2-2.4,0.2c-1.8,0-2.8-1-2.8-2.9v-17.6l0.2-0.2h1.1c0.6,0,1,0.1,1.2,0.4s0.3,0.8,0.3,1.4V559
		C391.6,559.9,392,560.3,392.7,560.3z M381.3,551.6c-0.3-0.4-0.7-0.6-1.3-0.6s-1.2,0.2-1.9,0.5c-0.6,0.3-1.2,0.7-1.7,1.3v9.7
		c-0.3,0.1-0.8,0.1-1.4,0.1c-0.3,0-0.6,0-0.8,0c-0.2,0-0.5,0-0.6-0.1v-13.8l0.2-0.2h1.1c1,0,1.5,0.6,1.6,1.7
		c1.4-1.3,2.8-1.9,4.5-1.9c1.3,0,2.2,0.4,2.8,1.2c0.6,0.8,0.9,1.9,0.9,3.3v6.5c0,1.1,0.2,2,0.5,2.5c-0.5,0.4-1.1,0.6-1.7,0.6
		s-1.1-0.2-1.3-0.5c-0.2-0.3-0.3-0.8-0.3-1.4v-7.1C381.7,552.7,381.5,552,381.3,551.6z M384.2,593.2c0.5-0.3,1-0.4,1.7-0.4
		c0.3,0,0.6,0,0.8,0.1c0.2,0,0.5,0.1,0.6,0.2c0.1,0.1,0.3,0.3,0.4,0.5c0.1,0.2,0.1,0.6,0.1,1s0,0.7-0.1,1c-0.1,0.3-0.2,0.4-0.3,0.5
		c-0.2,0.1-0.4,0.2-0.6,0.2s-0.6,0.1-0.9,0.1c-0.4,0-0.7,0-0.9-0.1c-0.3,0-0.5-0.1-0.7-0.2c-0.2-0.1-0.3-0.2-0.4-0.5
		c-0.1-0.3-0.1-0.6-0.1-1C383.9,593.9,384,593.5,384.2,593.2z M382.7,484.4c1.6,0,2.7,0.1,3.4,0.3l-21.4,38.9
		c-0.7,0.2-1.5,0.3-2.5,0.3c-0.8,0-1.5,0-2-0.1c-0.6,0-1-0.1-1.3-0.2l21.5-38.9C381,484.4,381.8,484.4,382.7,484.4z M351.7,486.8
		c1.6-1.9,3.8-2.8,6.6-2.8c2.6,0,4.7,0.8,6.2,2.3c1.9,1.9,2.8,5,2.8,9.3c0,4-0.8,7-2.4,8.9s-3.8,2.8-6.6,2.8c-2.8,0-5.1-0.9-6.6-2.8
		c-1.6-1.9-2.3-4.8-2.3-8.9C349.4,491.7,350.1,488.7,351.7,486.8z M320.3,486.6h22.6c0.7,1.4,1.1,2.6,1.1,3.5s-0.3,1.8-0.9,2.6
		l-1.9,2.8c-2.9,4.3-5.1,8.4-6.7,12.3c-1.6,4-2.6,8.5-3.1,13.6l-0.2,2.1c-0.9,0.2-1.9,0.3-3,0.3s-2.2-0.1-3.2-0.3l0.2-2.3
		c0.9-9,4-17.3,9.3-24.9l0.6-0.9c0.8-1.2,1.8-2.5,3.2-4l-0.2-0.2c-1.6,0.3-4.4,0.5-8.7,0.5h-9.3c-0.2-0.7-0.3-1.5-0.3-2.4
		S320,487.5,320.3,486.6z M323.9,582.7c0.5-0.4,1.1-0.6,1.8-0.6c1,0,1.5,0.6,1.5,1.8v7.1c0,1,0.1,1.7,0.4,2.1
		c0.2,0.4,0.7,0.6,1.3,0.6s1.2-0.2,1.9-0.5c0.7-0.3,1.2-0.7,1.7-1.2v-9.8c0.5-0.1,1-0.1,1.4-0.1s0.9,0,1.5,0.1v9.9
		c0,1.3,0.3,2.2,0.8,2.7c-0.2,0.7-0.6,1.2-1.1,1.5c-1.2-0.2-2-0.9-2.4-2c-1.5,1.4-3,2.1-4.7,2.1c-1.2,0-2.2-0.4-2.8-1.3
		c-0.6-0.8-0.9-2-0.9-3.3v-6.5C324.4,584.1,324.2,583.3,323.9,582.7z M326.3,559.4c0.5,0.7,1.3,1,2.5,1c0.6,0,1.2-0.1,1.8-0.3
		c0.6-0.2,1.3-0.4,2-0.8c0.5,0.4,0.8,1,0.9,1.8c-1.5,1-3.2,1.6-5.3,1.6c-1.1,0-2-0.2-2.7-0.6c-0.7-0.4-1.3-0.9-1.8-1.5
		c-0.5-0.7-0.8-1.4-1-2.3s-0.3-1.9-0.3-2.9s0.1-2,0.4-2.9s0.6-1.6,1.1-2.3c0.5-0.6,1.1-1.1,1.8-1.5s1.5-0.5,2.4-0.5s1.7,0.1,2.4,0.4
		s1.3,0.7,1.8,1.2s0.9,1.2,1.1,1.9c0.3,0.7,0.4,1.5,0.4,2.4c0,0.4,0,0.7,0,1.1c0,0.4-0.1,0.7-0.2,1.1h-8.2
		C325.6,557.8,325.8,558.8,326.3,559.4z M319.2,593.9h1.9c0.1,0.4,0.2,0.8,0.2,1.3c0,0.4,0,0.7-0.1,0.8c-1.1,0.1-2.1,0.2-3.1,0.2
		c-2,0-2.9-1-2.9-2.9v-9h-2.1c-0.1-0.3-0.1-0.7-0.1-1.1c0-0.4,0-0.8,0.1-1.1l2.1,0.1v-2.5c0-0.7,0.1-1.1,0.3-1.4
		c0.2-0.3,0.6-0.4,1.2-0.4h1.1l0.2,0.2v4.1l3.4-0.1c0.1,0.3,0.1,0.7,0.1,1.1c0,0.4,0,0.8-0.1,1.1l-3.4-0.1v8.4
		C318.1,593.5,318.5,593.9,319.2,593.9z M305.4,517.6c0.9-0.5,2.1-0.8,3.5-0.8c0.6,0,1.2,0,1.7,0.1s0.9,0.2,1.3,0.4
		c0.4,0.2,0.6,0.5,0.8,1c0.1,0.5,0.2,1.2,0.2,2c0,0.8,0,1.5-0.1,2s-0.3,0.9-0.7,1.1c-0.3,0.2-0.8,0.3-1.3,0.4
		c-0.5,0.1-1.1,0.1-1.9,0.1c-0.7,0-1.3,0-1.9-0.1c-0.5-0.1-1-0.2-1.3-0.4c-0.4-0.2-0.6-0.5-0.7-1s-0.2-1.2-0.2-2.1
		C304.9,519.2,305.1,518.3,305.4,517.6z M301.2,548.7l0.2-0.2h1.1c1,0,1.5,0.6,1.6,1.8c1.3-1.3,2.7-1.9,4.1-1.9s2.5,0.7,3.1,2.1
		c1.5-1.4,3-2.1,4.5-2.1c1.2,0,2.1,0.4,2.7,1.2c0.6,0.8,0.9,1.9,0.9,3.2v6.7c0,1.2,0.1,2,0.4,2.5c-0.5,0.4-1.1,0.6-1.8,0.6
		c-1,0-1.5-0.6-1.5-1.8v-7.1c0-1-0.1-1.6-0.4-2s-0.7-0.6-1.3-0.6c-1,0-2,0.6-3,1.7v9.7c-0.2,0-0.4,0.1-0.7,0.1c-0.3,0-0.5,0-0.8,0
		s-0.5,0-0.8,0s-0.5,0-0.6-0.1v-8.8c0-1-0.1-1.6-0.4-2.1s-0.7-0.6-1.3-0.6c-1,0-2,0.6-3,1.7v9.7c-0.3,0.1-0.8,0.1-1.4,0.1
		c-0.3,0-0.6,0-0.8,0c-0.2,0-0.5,0-0.6-0.1v-13.7H301.2z M310.4,578.4c0,0.7-0.1,1.1-0.3,1.3c-0.2,0.2-0.7,0.3-1.4,0.3
		c-0.7,0-1.3-0.1-1.6-0.4c-0.2-0.3-0.3-0.7-0.3-1.2c0-0.8,0.1-1.2,0.4-1.4c0.3-0.1,0.7-0.2,1.4-0.2c0.7,0,1.2,0.1,1.4,0.3
		S310.3,577.7,310.4,578.4z M300.2,578l0.2,0.2v4.1l3.4-0.1c0.1,0.3,0.1,0.7,0.1,1.1c0,0.4,0,0.8-0.1,1.1l-3.4-0.1v8.4
		c0,0.8,0.4,1.2,1.1,1.2h1.9c0.1,0.4,0.2,0.8,0.2,1.3c0,0.4,0,0.7-0.1,0.8c-1.1,0.1-2.1,0.2-3.1,0.2c-2,0-2.9-1-2.9-2.9v-9h-2.1
		c-0.1-0.3-0.1-0.7-0.1-1.1c0-0.4,0-0.8,0.1-1.1l2.1,0.1v-2.5c0-0.7,0.1-1.1,0.3-1.4c0.2-0.3,0.6-0.4,1.2-0.4L300.2,578L300.2,578z
		 M289.1,590.6l-1.6-0.6c-2.4-0.9-3.5-2.2-3.5-4c0-1.3,0.5-2.3,1.4-3c0.9-0.7,2.1-1.1,3.6-1.1s3,0.3,4.5,1c0,0.4-0.1,0.8-0.2,1.2
		c-0.2,0.4-0.4,0.7-0.6,1c-1.3-0.6-2.6-0.9-3.7-0.9c-0.6,0-1.1,0.1-1.5,0.4s-0.5,0.7-0.5,1.1c0,0.4,0.1,0.8,0.4,1
		c0.3,0.2,0.7,0.5,1.3,0.7l1.7,0.6c2.4,0.9,3.6,2.3,3.6,4.2c0,1.3-0.5,2.3-1.5,3.1c-1,0.8-2.3,1.1-4,1.1s-3.3-0.5-4.9-1.4
		c0-0.3,0.1-0.7,0.3-1.1c0.2-0.4,0.4-0.7,0.6-0.9c1.5,0.8,2.7,1.2,3.6,1.2s1.7-0.2,2.1-0.5c0.5-0.3,0.7-0.7,0.7-1.3
		C290.8,591.7,290.2,591.1,289.1,590.6z M291.7,562.8c-1,0-1.8-0.2-2.6-0.5c-0.7-0.3-1.4-0.8-1.9-1.5c-0.5-0.6-0.9-1.4-1.2-2.3
		c-0.3-0.9-0.4-1.9-0.4-3s0.1-2.1,0.4-3s0.7-1.7,1.2-2.3s1.1-1.1,1.9-1.5c0.7-0.3,1.6-0.5,2.6-0.5s1.8,0.2,2.6,0.5
		c0.8,0.3,1.4,0.8,1.9,1.5c0.5,0.6,0.9,1.4,1.2,2.3c0.3,0.9,0.4,1.9,0.4,3c0,2.5-0.7,4.4-2,5.7C294.7,562.3,293.4,562.8,291.7,562.8
		z M289.7,492.3c-1-1-2.3-1.5-3.9-1.5s-3,0.5-4.1,1.5c-1.2,1-2.1,2.3-2.7,3.9c-0.8,0-1.6-0.2-2.5-0.6c-0.8-0.4-1.4-0.8-1.8-1.4
		c0.4-1.2,1-2.3,1.7-3.3s1.6-1.9,2.6-2.6c1-0.7,2.2-1.3,3.4-1.8c1.3-0.4,2.7-0.7,4.3-0.7c1.5,0,2.9,0.3,4.2,0.8
		c1.3,0.5,2.4,1.3,3.4,2.2s1.7,2,2.2,3.2s0.8,2.6,0.8,4s-0.2,2.7-0.5,3.8s-0.8,2.1-1.4,3c-0.6,1-1.4,1.9-2.3,2.7
		c-0.9,0.9-1.9,1.8-3,2.8l-4.4,3.8c-3.3,2.9-5.2,5.1-5.6,6.6c1.5-0.2,2.9-0.3,4.1-0.3s2.4-0.1,3.4-0.1h10.5c0,1.6-0.2,2.9-0.7,3.8
		c-0.5,0.9-1.6,1.4-3.2,1.4h-17.7c-1.6-1.4-2.3-2.6-2.3-3.7c0-3,2.4-6.7,7.1-10.8l5.6-4.9c1.4-1.3,2.5-2.5,3.2-3.8s1.1-2.6,1.1-3.8
		C291.2,494.7,290.7,493.4,289.7,492.3z M264.3,543.1c0.5,0,0.9,0.1,1.1,0.4c0.2,0.2,0.4,0.6,0.5,1.2l1.8,9.5
		c0.4,2.4,0.7,4.2,0.9,5.4c0,0.2,0.1,0.3,0.3,0.3l3.1-16.3c0.6-0.1,1.3-0.1,2-0.1s1.3,0,1.8,0.1l2.8,15.9c0,0.2,0.1,0.3,0.3,0.3
		c0.2-1.3,0.5-3.2,1-5.8l2.2-10.9c0.4-0.1,0.8-0.1,1.3-0.1s1,0.1,1.4,0.2l0.1,0.2l-4,18.9c-0.7,0.1-1.5,0.2-2.3,0.2
		s-1.3-0.1-1.6-0.3c-0.3-0.2-0.5-0.6-0.6-1.2l-1.3-7.5c-0.5-2.7-0.8-5.1-1.1-6.9h-0.2c-0.4,2.4-0.8,4.7-1.2,6.9l-1.7,8.8
		c-0.8,0.1-1.6,0.1-2.3,0.1s-1.3-0.1-1.6-0.3c-0.3-0.2-0.5-0.6-0.7-1.2l-3.5-17.6C263.3,543.3,263.8,543.1,264.3,543.1z
		 M244.1,595.9c-0.7-0.4-1.3-0.9-1.8-1.5c-0.5-0.7-0.8-1.4-1.1-2.4c-0.2-0.9-0.4-1.9-0.4-3s0.2-2.2,0.5-3c0.3-0.9,0.7-1.6,1.3-2.2
		c0.6-0.6,1.1-1.1,1.8-1.4s1.4-0.5,2.2-0.5c0.8,0,1.5,0.1,2.1,0.4c0.6,0.2,1.2,0.6,1.6,1s0.8,0.8,1,1.4c0.2,0.5,0.3,1,0.3,1.6
		c0,1.1-0.5,1.6-1.5,1.6c-0.5,0-0.9,0-1.2-0.1v-0.3c0-2.1-0.8-3.2-2.5-3.2c-0.9,0-1.6,0.4-2.1,1.3c-0.5,0.9-0.7,2.1-0.7,3.8
		c0,3.2,1.1,4.8,3.2,4.8c1,0,2.2-0.5,3.4-1.4c0.3,0.1,0.5,0.4,0.8,0.7c0.2,0.3,0.4,0.7,0.5,1c-1.4,1.4-3.1,2.1-5,2.1
		C245.7,596.5,244.9,596.3,244.1,595.9z M257.5,628.5c-1,1-2.4,1.5-4.1,1.5c-1,0-1.8-0.2-2.6-0.5c-0.7-0.3-1.4-0.8-1.9-1.5
		c-0.5-0.6-0.9-1.4-1.2-2.3c-0.3-0.9-0.4-1.9-0.4-3s0.1-2.1,0.4-3s0.7-1.7,1.2-2.3s1.1-1.1,1.9-1.5c0.7-0.3,1.6-0.5,2.6-0.5
		s1.8,0.2,2.6,0.5c0.8,0.3,1.4,0.8,1.9,1.5c0.5,0.6,0.9,1.4,1.2,2.3c0.3,0.9,0.4,1.9,0.4,3C259.4,625.3,258.8,627.2,257.5,628.5z
		 M257.4,595.9c-0.7-0.3-1.4-0.8-1.9-1.5c-0.5-0.6-0.9-1.4-1.2-2.3c-0.3-0.9-0.4-1.9-0.4-3s0.1-2.1,0.4-3s0.7-1.7,1.2-2.3
		s1.1-1.1,1.9-1.5c0.7-0.3,1.6-0.5,2.6-0.5s1.8,0.2,2.6,0.5c0.8,0.3,1.4,0.8,1.9,1.5c0.5,0.6,0.9,1.4,1.2,2.3c0.3,0.9,0.4,1.9,0.4,3
		c0,2.5-0.7,4.4-2,5.7c-1,1-2.4,1.5-4.1,1.5C259,596.5,258.2,596.3,257.4,595.9z M270.3,611.6c-0.4-0.1-0.8-0.2-1.2-0.3
		c-0.4-0.1-0.7-0.1-1.1-0.1c-0.8,0-1.3,0.2-1.7,0.6c-0.4,0.4-0.5,1.1-0.5,1.9c0,0.3,0,0.7,0.1,1c0,0.4,0.1,0.7,0.1,1.2l3.9-0.1
		c0,0.2,0.1,0.3,0.1,0.5c0,0.2,0,0.4,0,0.6c0,0.2,0,0.4,0,0.6c0,0.2,0,0.4-0.1,0.5l-3.8-0.1v11.8c-0.2,0-0.4,0.1-0.7,0.1
		c-0.2,0-0.5,0-0.8,0s-0.5,0-0.8,0c-0.2,0-0.5,0-0.6-0.1v-11.8l-2.3,0.1c0-0.1-0.1-0.3-0.1-0.5c0-0.2,0-0.4,0-0.6
		c0-0.4,0-0.8,0.1-1.1h2.3c-0.1-1.1-0.2-2-0.2-2.5c0-0.6,0.1-1.2,0.3-1.8c0.2-0.5,0.5-1,0.9-1.4s0.8-0.7,1.3-0.9
		c0.5-0.2,1.1-0.3,1.8-0.3c1.3,0,2.5,0.2,3.6,0.6C270.9,610.5,270.7,611.1,270.3,611.6z M277.6,594.4v-7.1c0-1-0.1-1.7-0.4-2.1
		s-0.7-0.6-1.3-0.6s-1.2,0.2-1.9,0.5c-0.6,0.3-1.2,0.7-1.7,1.3v9.7c-0.3,0.1-0.8,0.1-1.4,0.1c-0.3,0-0.6,0-0.8,0
		c-0.2,0-0.5,0-0.6-0.1v-13.8l0.2-0.2h1.1c1,0,1.5,0.6,1.6,1.7c1.4-1.3,2.8-1.9,4.5-1.9c1.3,0,2.2,0.4,2.8,1.2
		c0.6,0.8,0.9,1.9,0.9,3.3v6.5c0,1.1,0.2,2,0.5,2.5c-0.5,0.4-1.1,0.6-1.7,0.6s-1.1-0.2-1.3-0.5C277.7,595.5,277.6,595.1,277.6,594.4
		z M289.1,625.9c-0.3,0.9-0.8,1.6-1.3,2.2c-0.6,0.6-1.2,1.1-2,1.4c-0.8,0.3-1.6,0.5-2.5,0.5c-1.8,0-3.5-0.3-5.2-0.9v-19.7l0.2-0.2
		h1.1c0.6,0,1,0.1,1.2,0.4c0.2,0.3,0.3,0.8,0.3,1.4v6.1c1.1-1,2.4-1.4,3.9-1.4s2.6,0.6,3.5,1.9c0.8,1.3,1.2,3.1,1.2,5.4
		C289.6,624,289.4,625,289.1,625.9z M302.1,628.5c-1,1-2.4,1.5-4.1,1.5c-1,0-1.8-0.2-2.6-0.5c-0.7-0.3-1.4-0.8-1.9-1.5
		c-0.5-0.6-0.9-1.4-1.2-2.3c-0.3-0.9-0.4-1.9-0.4-3s0.1-2.1,0.4-3s0.7-1.7,1.2-2.3s1.1-1.1,1.9-1.5c0.7-0.3,1.6-0.5,2.6-0.5
		s1.8,0.2,2.6,0.5c0.8,0.3,1.4,0.8,1.9,1.5c0.5,0.6,0.9,1.4,1.2,2.3c0.3,0.9,0.4,1.9,0.4,3C304.1,625.3,303.5,627.2,302.1,628.5z
		 M306.1,584.4c-0.1-0.4-0.1-0.8-0.1-1c0-0.3,0-0.6,0.1-1.1c0.6-0.1,1.2-0.1,1.8-0.1h0.4c0.7,0,1.3,0.2,1.7,0.7s0.6,1.1,0.6,1.8
		v11.4c-0.4,0.1-0.8,0.1-1.4,0.1s-1.1,0-1.4-0.1v-10.3c0-0.5-0.1-0.9-0.3-1.1c-0.2-0.2-0.5-0.3-1-0.3L306.1,584.4L306.1,584.4z
		 M317.2,629.9c-1.1-0.2-1.8-0.8-2.2-1.7c-1.3,1.3-2.7,1.9-4.1,1.9c-0.7,0-1.3-0.1-1.9-0.3c-0.5-0.2-1-0.5-1.3-0.9
		c-0.4-0.4-0.6-0.8-0.8-1.3c-0.2-0.5-0.3-1-0.3-1.6c0-1.5,0.5-2.7,1.5-3.5c1-0.8,2.3-1.2,3.9-1.2c0.5,0,0.9,0,1.4,0
		c0.4,0,0.9,0.1,1.3,0.2v-1.1c0-1.7-0.8-2.5-2.3-2.5c-1.1,0-2.5,0.4-4.4,1.1c-0.5-0.5-0.8-1.2-0.8-2.1c1.9-0.9,3.8-1.3,5.8-1.3
		c1.5,0,2.6,0.4,3.4,1.2c0.8,0.8,1.2,1.9,1.2,3.5v5.7c0,1.2,0.3,2,0.8,2.4C318,629.1,317.7,629.6,317.2,629.9z M329,618.6
		c-0.2-0.1-0.6-0.1-1.1-0.1c-1.3,0-2.3,0.7-3,2.1v9.1c-0.4,0.1-0.8,0.1-1.4,0.1s-1.1,0-1.4-0.1v-9.6c0-1.3-0.3-2.2-1-2.9
		c0.2-0.7,0.5-1.2,1.1-1.5c1.3,0.3,2.1,1.1,2.5,2.5c0.7-1.7,2-2.5,3.7-2.5c0.4,0,0.9,0.1,1.5,0.2C329.7,616.9,329.5,617.8,329,618.6
		z M342.6,629.3c-0.2,0.3-0.4,0.5-0.6,0.6c-1.1-0.2-1.8-0.8-2.2-1.7c-1.1,1.3-2.4,1.9-4,1.9s-2.8-0.6-3.6-1.9
		c-0.8-1.3-1.2-3.1-1.2-5.3c0-1.1,0.1-2.2,0.4-3c0.3-0.9,0.7-1.6,1.2-2.3c0.5-0.6,1.1-1.1,1.7-1.4c0.7-0.3,1.3-0.5,2.1-0.5
		c1,0,2.1,0.3,3.2,0.9v-7.3l0.2-0.2h1.1c0.6,0,1,0.1,1.2,0.4s0.3,0.8,0.3,1.4v14.8c0,1.3,0.3,2.2,0.8,2.7
		C342.9,628.7,342.8,629,342.6,629.3z M346.6,584.4l-3.4-0.1v8.4c0,0.8,0.4,1.2,1.1,1.2h1.9c0.1,0.4,0.2,0.8,0.2,1.3
		c0,0.4,0,0.7-0.1,0.8c-1.1,0.1-2.1,0.2-3.1,0.2c-2,0-2.9-1-2.9-2.9v-9h-2.1c-0.1-0.3-0.1-0.7-0.1-1.1c0-0.4,0-0.8,0.1-1.1l2.1,0.1
		v-2.5c0-0.7,0.1-1.1,0.3-1.4c0.2-0.3,0.6-0.4,1.2-0.4h1.1l0.2,0.2v4.1l3.4-0.1c0.1,0.3,0.1,0.7,0.1,1.1
		C346.6,583.6,346.7,584.1,346.6,584.4z M346,562.2c-0.2-0.3-0.3-0.8-0.3-1.4v-7.1c0-1-0.1-1.7-0.4-2.1c-0.3-0.4-0.7-0.6-1.3-0.6
		s-1.2,0.2-1.9,0.5c-0.6,0.3-1.2,0.7-1.7,1.3v9.7c-0.3,0.1-0.8,0.1-1.4,0.1c-0.3,0-0.6,0-0.8,0c-0.2,0-0.5,0-0.6-0.1v-13.8l0.2-0.2
		h1.1c1,0,1.5,0.6,1.6,1.7c1.4-1.3,2.8-1.9,4.5-1.9c1.3,0,2.2,0.4,2.8,1.2c0.6,0.8,0.9,1.9,0.9,3.3v6.5c0,1.1,0.2,2,0.5,2.5
		c-0.5,0.4-1.1,0.6-1.7,0.6C346.7,562.7,346.2,562.5,346,562.2z M349.7,594.4c-0.5-0.7-0.8-1.4-1-2.3c-0.2-0.9-0.3-1.9-0.3-2.9
		s0.1-2,0.4-2.9s0.6-1.6,1.1-2.3c0.5-0.6,1.1-1.1,1.8-1.5s1.5-0.5,2.4-0.5s1.7,0.1,2.4,0.4s1.3,0.7,1.8,1.2s0.9,1.2,1.1,1.9
		c0.3,0.7,0.4,1.5,0.4,2.4c0,0.4,0,0.7,0,1.1s-0.1,0.7-0.2,1.1h-8.2c0.1,1.3,0.3,2.3,0.8,3c0.5,0.7,1.3,1,2.5,1
		c0.6,0,1.2-0.1,1.8-0.3c0.6-0.2,1.3-0.4,2-0.8c0.5,0.4,0.8,1,0.9,1.8c-1.5,1-3.2,1.6-5.3,1.6c-1.1,0-2-0.2-2.7-0.6
		C350.8,595.5,350.2,595,349.7,594.4z M357.7,617.7c-0.9,0-1.6,0.4-2.1,1.3c-0.5,0.9-0.7,2.1-0.7,3.8c0,3.2,1.1,4.8,3.2,4.8
		c1,0,2.2-0.5,3.4-1.4c0.3,0.1,0.5,0.4,0.8,0.7c0.2,0.3,0.4,0.7,0.5,1c-1.4,1.4-3.1,2.1-5,2.1c-1,0-1.8-0.2-2.6-0.5
		c-0.7-0.4-1.3-0.9-1.8-1.5c-0.5-0.7-0.8-1.4-1.1-2.4c-0.2-0.9-0.4-1.9-0.4-3s0.2-2.2,0.5-3c0.3-0.9,0.7-1.6,1.3-2.2
		c0.6-0.6,1.1-1.1,1.8-1.4s1.4-0.5,2.2-0.5c0.8,0,1.5,0.1,2.1,0.4c0.6,0.2,1.2,0.6,1.6,1s0.8,0.8,1,1.4c0.2,0.5,0.3,1,0.3,1.6
		c0,1.1-0.5,1.6-1.5,1.6c-0.5,0-0.9,0-1.2-0.1v-0.3C360.1,618.8,359.3,617.7,357.7,617.7z M361.5,562.3c-0.7-0.3-1.4-0.8-1.9-1.5
		c-0.5-0.6-0.9-1.4-1.2-2.3c-0.3-0.9-0.4-1.9-0.4-3s0.1-2.1,0.4-3s0.7-1.7,1.2-2.3s1.1-1.1,1.9-1.5c0.7-0.3,1.6-0.5,2.6-0.5
		s1.8,0.2,2.6,0.5c0.8,0.3,1.4,0.8,1.9,1.5c0.5,0.6,0.9,1.4,1.2,2.3c0.3,0.9,0.4,1.9,0.4,3c0,2.5-0.7,4.4-2,5.7
		c-1,1-2.4,1.5-4.1,1.5C363.1,562.8,362.2,562.7,361.5,562.3z M375.7,629.9c-0.6,0-1-0.2-1.3-0.5c-0.2-0.3-0.4-0.8-0.4-1.4v-7
		c0-1-0.1-1.7-0.4-2.1s-0.7-0.6-1.3-0.6s-1.2,0.2-1.9,0.5c-0.6,0.3-1.2,0.7-1.7,1.3v9.7c-0.2,0-0.4,0.1-0.6,0.1s-0.5,0-0.8,0
		s-0.5,0-0.8,0s-0.5,0-0.7-0.1v-20.4l0.2-0.2h1.1c0.6,0,1,0.1,1.2,0.4c0.2,0.3,0.3,0.8,0.3,1.4v6.5c1.4-1.2,2.8-1.8,4.4-1.8
		c1.3,0,2.2,0.4,2.8,1.2c0.6,0.8,0.9,1.9,0.9,3.3v6.5c0,1.1,0.1,2,0.4,2.5C376.9,629.7,376.3,629.9,375.7,629.9z M378.7,596.1H370
		c-0.8-0.7-1.1-1.3-1.1-1.8c0-1.5,1.2-3.3,3.5-5.3l2.7-2.4c0.7-0.6,1.2-1.2,1.6-1.9c0.3-0.6,0.5-1.3,0.5-1.9c0-0.8-0.3-1.5-0.8-2
		s-1.1-0.8-1.9-0.8s-1.5,0.2-2,0.7c-0.6,0.5-1,1.1-1.3,1.9c-0.4,0-0.8-0.1-1.2-0.3c-0.4-0.2-0.7-0.4-0.9-0.7
		c0.2-0.6,0.5-1.1,0.8-1.6c0.4-0.5,0.8-0.9,1.3-1.3c0.5-0.4,1.1-0.7,1.7-0.9c0.6-0.2,1.3-0.3,2.1-0.3c0.7,0,1.4,0.1,2.1,0.4
		c0.6,0.3,1.2,0.6,1.7,1.1s0.8,1,1.1,1.6c0.3,0.6,0.4,1.3,0.4,1.9c0,0.7-0.1,1.3-0.2,1.9c-0.1,0.6-0.4,1-0.7,1.5s-0.7,0.9-1.1,1.3
		s-0.9,0.9-1.5,1.4l-2.2,1.8c-1.6,1.4-2.6,2.5-2.7,3.2c0.7-0.1,1.4-0.1,2-0.2c0.6,0,1.2-0.1,1.7-0.1h5.2c0,0.8-0.1,1.4-0.4,1.9
		C380.1,595.9,379.5,596.1,378.7,596.1z M390.9,629.9c-1.1-0.2-1.8-0.8-2.2-1.7c-1.3,1.3-2.7,1.9-4.1,1.9c-0.7,0-1.3-0.1-1.9-0.3
		c-0.5-0.2-1-0.5-1.3-0.9c-0.4-0.4-0.6-0.8-0.8-1.3c-0.2-0.5-0.3-1-0.3-1.6c0-1.5,0.5-2.7,1.5-3.5c1-0.8,2.3-1.2,3.9-1.2
		c0.5,0,0.9,0,1.4,0c0.4,0,0.9,0.1,1.3,0.2v-1.1c0-1.7-0.8-2.5-2.3-2.5c-1.1,0-2.5,0.4-4.4,1.1c-0.5-0.5-0.8-1.2-0.8-2.1
		c1.9-0.9,3.8-1.3,5.8-1.3c1.5,0,2.6,0.4,3.4,1.2c0.8,0.8,1.2,1.9,1.2,3.5v5.7c0,1.2,0.3,2,0.8,2.4
		C391.7,629.1,391.4,629.6,390.9,629.9z M398.7,629.7c-0.4,0.1-0.8,0.1-1.4,0.1s-1.1,0-1.4-0.1v-10.3c0-0.5-0.1-0.9-0.3-1.1
		c-0.2-0.2-0.5-0.3-1-0.3h-0.3c-0.1-0.4-0.1-0.8-0.1-1c0-0.3,0-0.6,0.1-1.1c0.6-0.1,1.2-0.1,1.8-0.1h0.4c0.7,0,1.3,0.2,1.7,0.7
		s0.6,1.1,0.6,1.8v11.4H398.7z M395,612c0-0.8,0.1-1.2,0.4-1.4c0.3-0.1,0.7-0.2,1.4-0.2c0.7,0,1.2,0.1,1.4,0.3
		c0.2,0.2,0.3,0.6,0.3,1.3c0,0.7-0.1,1.1-0.3,1.3c-0.2,0.2-0.7,0.3-1.4,0.3c-0.7,0-1.3-0.1-1.6-0.4C395,612.9,395,612.5,395,612z
		 M398.5,588.4c-0.8,2-1.3,4.2-1.5,6.7l-0.1,1c-0.4,0.1-0.9,0.1-1.5,0.1s-1.1,0-1.6-0.1l0.1-1.1c0.4-4.4,2-8.5,4.6-12.2l0.3-0.4
		c0.4-0.6,0.9-1.2,1.6-2l-0.1-0.1c-0.8,0.2-2.2,0.3-4.3,0.3h-4.6c-0.1-0.3-0.1-0.7-0.1-1.2c0-0.4,0.1-0.9,0.3-1.3h11.1
		c0.4,0.7,0.5,1.3,0.5,1.7s-0.1,0.9-0.4,1.3l-1,1.4C400.3,584.4,399.2,586.4,398.5,588.4z M410.3,618.6c-0.2-0.1-0.6-0.1-1.1-0.1
		c-1.3,0-2.3,0.7-3,2.1v9.1c-0.4,0.1-0.8,0.1-1.4,0.1s-1.1,0-1.4-0.1v-9.6c0-1.3-0.3-2.2-1-2.9c0.2-0.7,0.5-1.2,1.1-1.5
		c1.3,0.3,2.1,1.1,2.5,2.5c0.7-1.7,2-2.5,3.7-2.5c0.4,0,0.9,0.1,1.5,0.2C411,616.9,410.8,617.8,410.3,618.6z M410.4,596.1L421,577
		c0.3-0.1,0.7-0.1,1.2-0.1c0.8,0,1.3,0,1.7,0.1l-10.5,19.1c-0.3,0.1-0.7,0.1-1.2,0.1c-0.4,0-0.7,0-1,0
		C410.8,596.2,410.6,596.1,410.4,596.1z M420.9,628.9c-1,0.7-2.3,1.1-4,1.1s-3.3-0.5-4.9-1.4c0-0.3,0.1-0.7,0.3-1.1
		c0.2-0.4,0.4-0.7,0.6-0.9c1.5,0.8,2.7,1.2,3.6,1.2s1.7-0.2,2.1-0.5c0.5-0.3,0.7-0.7,0.7-1.3c0-0.8-0.6-1.5-1.8-1.9l-1.6-0.6
		c-2.4-0.9-3.5-2.2-3.5-4c0-1.3,0.5-2.3,1.4-3c0.9-0.7,2.1-1.1,3.6-1.1s3,0.3,4.5,1c0,0.4-0.1,0.8-0.2,1.2c-0.2,0.4-0.4,0.7-0.6,1
		c-1.3-0.6-2.6-0.9-3.7-0.9c-0.6,0-1.1,0.1-1.5,0.4s-0.5,0.7-0.5,1.1c0,0.4,0.1,0.8,0.4,1c0.3,0.2,0.7,0.5,1.3,0.7l1.7,0.6
		c2.4,0.9,3.6,2.3,3.6,4.2C422.4,627.2,421.9,628.2,420.9,628.9z M424.1,596.4c-1.5,0-2.6-0.5-3.3-1.5s-1.1-2.4-1.1-4.3
		c0-1.9,0.4-3.4,1.1-4.3c0.8-0.9,1.8-1.4,3.2-1.4c1.4,0,2.5,0.5,3.3,1.4s1.2,2.4,1.2,4.4c0,2.1-0.5,3.7-1.4,4.6
		C426.3,596,425.3,596.4,424.1,596.4z"/>
	<path class="st0" d="M424.1,586.9c-1.3,0-1.9,1.3-1.9,3.8s0.6,3.8,1.9,3.8s1.9-1.3,1.9-3.8S425.4,586.9,424.1,586.9z"/>
	<path class="st0" d="M385.9,623.3c-0.9,0-1.5,0.2-2,0.6c-0.5,0.4-0.7,1-0.7,1.7c0,0.7,0.2,1.2,0.5,1.6c0.3,0.4,0.8,0.6,1.4,0.6
		c1.2,0,2.3-0.6,3.3-1.7v-2.7c-0.4,0-0.8-0.1-1.2-0.1S386.3,623.3,385.9,623.3z"/>
</g>
</svg>
