<?xml version="1.0" encoding="utf-8"?>
<!-- Generator: Adobe Illustrator 19.2.1, SVG Export Plug-In . SVG Version: 6.00 Build 0)  -->
<svg version="1.1" id="Layer_1" xmlns="http://www.w3.org/2000/svg" xmlns:xlink="http://www.w3.org/1999/xlink" x="0px" y="0px"
	 viewBox="0 0 612 129.7" style="enable-background:new 0 0 612 129.7;" xml:space="preserve">
<style type="text/css">
	.st0{fill:#FFFFFF;}
</style>
<path class="st0" d="M0,0v129.7h612V0H0z M346.6,47.4c0.5-6.5,4.6-8.6,6.6-8.6s8.2,2.7,8,5.7s-3,3.4-5.7,8.2
	c-2.7,4.7-2.6,4.8-3.9,4.8C349.5,57.6,346,53.9,346.6,47.4z M252.9,44.8c-2.4,0.4-5.5-3.4-6.9-5.3c-28.7,0.1-31.4,2.8-31.4,2.8
	s39,2.4,39,32.8c0,23.6-25.5,51-51,51c-19.2,0-27.4-20.5-27.4-32.1c0-11.5,14.4-30.2,34.2-30.2c19.9,0,22.9,16.4,22.9,19.5
	s-2.9,5.3-2.9,4s-3.2-11.1-22.9-11.1S179.3,89,179.3,94.1c0,5.2,6.5,18.4,24.9,18.4c24.4,0,45.4-23.6,45.4-38.1
	c0-15.8-20.8-24.1-29.8-24.1S203.2,53,201.3,53c-1.9,0-2-9.9-2-14.9c0-4.7,12.5-14.9,47.5-15.2c1.1-3.1,2.3-7.2,1.9-10.7
	c-0.4-2.9-3.2-4.2,0.1-4.6c3.3-0.4,10.9,3.8,11.6,10c0.7,6.1-4.1,12.6-6.5,18.2C251.2,41.6,258.3,44.1,252.9,44.8z M404.6,99.4
	c2.7,0,17.2-15.1,25-26.9c1.2-1.9,4-1.1,2,1.9C429.9,77.2,410,104,402,104c-6.6,0-7.7-6.5-7.7-10.8c0-1.4,0.7-3.7,1.9-6.5
	c-6.5,8.1-14.9,17.3-19.6,17.3c-3.6,0-7.2-5.5-7.2-7.7c0-2.1,1.5-5.4,1.5-5.4S359.7,104,356.4,104c-3.2,0-8.3-4.1-8.3-10.3
	c0-0.3,0-0.6,0.1-1c-5.5,6-11.2,11.1-14.8,11.1c-6.7,0-8.3-7.3-7.9-12c0.1-1.6,0.8-3.5,1.8-5.6c-7.2,8.3-16.7,17.8-21.5,17.8
	c-8.8,0-11.9-6.6-11.9-14.8c0-0.2,0-0.4,0-0.6c-2.6,2.7-5.4,4.8-8.1,4.8c-1.3,0-2.5-0.6-3.2-1.2c-0.3,0.4-0.6,0.8-1,1.2
	c0,0-0.4,0.5-1.2,1.4c-4.2,4.4-9.5,8.3-14.3,9c-0.1,0.1-0.2,0.1-0.3,0.1c-0.2,0-0.4,0-0.4,0.1c-0.4,0-0.6,0-0.9,0
	c-3.5,0-9.5-1.8-9.5-11.1c0-15.8,17-32.9,26.6-32.9c5,0,8.5,3.3,10.7,7c0.4,0.6-0.4,1.9-4.3,1.9c-14.7,0-29.7,31.5-22,31.5
	c5.2,0,14.9-10.4,14.9-10.4s-0.8-2.2-0.8-5.4c0-7.2,8.8-10.3,8.8-2.9c0,1.6-1.6,4.4-4.4,8.1c0.3,0.3,1.2,0.6,1.7,0.6
	c3.3,0,6.5-4,11.1-10.8c4.8-9.2,13.7-19.9,18.7-19.9c2.7,0,3.5,3.3,3.5,3.3c0-0.8,3.9-3.4,3.9-5.1c0-1.6,3.8,0.9,3.8,7.9
	c0,9.9-6,7.4-6,16.4c-6.4,0-7.1-9.9-7.1-9.9s-10.3,10.4-10.3,21.8c0,4.2,2.5,5.6,4.8,5.6c2.7,0,18.5-15.1,26.4-26.9
	c0.2-0.3,0.4-0.5,0.7-0.7c1.4-2.6,2.7-5.2,3.8-7.8c0.6-1.7,0.2-3.9,2.3-3.9s6.1,3.5,5.5,10.3s-20.3,28.7-11,28.7
	c1.7,0,8.4-6.3,15-14c6.2-11.1,20.8-25.3,28.5-25.3c5.2,0,8.7,9.4,6.7,9.4c-10.3,0-33.9,30.1-27.5,30.1c2.1,0,20.4-20.3,19.5-21.8
	c-1-1.6,6.3-0.3,6.3,6.2s-8.3,15.7-5.5,15.7c2.7,0,16-14.6,23.8-26.4c0.1-0.1,0.2-0.3,0.3-0.4c9.5-17.4,23.1-39.5,23.1-45.8
	c0-2.6,8.5,0.5,8.5,9.5C434.8,45.2,396,99.4,404.6,99.4z"/>
</svg>
