<?xml version="1.0" encoding="utf-8"?>
<!-- Generator: Adobe Illustrator 19.2.1, SVG Export Plug-In . SVG Version: 6.00 Build 0)  -->
<svg version="1.1" id="Layer_1" xmlns="http://www.w3.org/2000/svg" xmlns:xlink="http://www.w3.org/1999/xlink" x="0px" y="0px"
	 viewBox="0 0 227.1 59.8" style="enable-background:new 0 0 227.1 59.8;" xml:space="preserve">
<style type="text/css">
	.st0{fill:#FFFFFF;}
</style>
<g>
	<path class="st0" d="M6.6,13.8C6.4,12.1,15.4,2.1,25.1,2.1c7.2,0,9.6,5.9,9.8,7.1c1.5,11-19.2,31.2-28,31.2C-1.8,40.4,0,34,0.5,34
		c0.5,0,0.3,3.8,2.1,3.8c11.8,0,28.9-24.8,28-31c-0.9-6.5-20.7,6.9-20.7,9.5c0,0.4,0.2,0.5,0.2,0.9C10.1,18.1,6.8,15.5,6.6,13.8z"/>
	<path class="st0" d="M36.9,32.8c0-3,5.3-10.2,5.3-10.2c-1.2,0-11.5,12-11.5,13.7c0,2.7-2.4,0-2.4-2.8c0-3,7.1-10.4,7.1-14
		c0-1.3,2.6,0.1,2.6,3.7c0,1.8-1.2,3-1.2,3s6.6-6.7,7.8-6.7c1.3,0,2,1.8,2,3.6s-8.4,12.5-6.8,12.5c2.2,0,7.4-6.2,10.6-11
		c0.5-0.8,1.6-0.4,0.8,0.8c-0.8,1.2-8.4,12.1-12,12.1C37.9,37.3,36.9,35.5,36.9,32.8z"/>
	<path class="st0" d="M54.1,32.8c0-3,5.3-10.2,5.3-10.2c-1.2,0-11.5,12-11.5,13.7c0,2.7-2.4,0-2.4-2.8c0-3,7.1-10.4,7.1-14
		c0-1.3,2.6,0.1,2.6,3.7c0,1.8-1.2,3-1.2,3s6.6-6.7,7.8-6.7c1.3,0,2,1.8,2,3.6S55.4,35.5,57,35.5c2.2,0,7.4-6.2,10.6-11
		c0.5-0.8,1.6-0.4,0.8,0.8c-0.8,1.2-8.4,12.1-12,12.1C55.1,37.3,54.1,35.5,54.1,32.8z"/>
	<path class="st0" d="M81.2,25.5c-0.8,1.2-9.4,11.8-14,11.8c0,0-3.5,0-3.5-4.5c0-6.5,8.6-13.5,11-13.5c0.9,0,2.5,0.6,2.5,4.1
		c0,3.4-7.6,9.3-9.5,9.3c0,0-1.3,2.4,0.5,2.4c2.4,0,8.9-5.6,12.1-10.4C80.8,24,81.9,24.4,81.2,25.5z M68.3,31.4
		c4.9-2.9,7.2-7.6,6-7.6C73.1,23.8,68.3,31.4,68.3,31.4z"/>
	<path class="st0" d="M96.4,25.5c-0.8,1.2-8.6,11.8-11.9,11.8c-2.7,0-3.3-2.3-3.3-4.3c0-2.1,3-5.8,4.5-9.1c-1,0.4-2.8,1-4.8,1
		c-1,0-2.8-0.6-2.8-4.6c0-5.6,4.3-9.6,6.8-9.6c1.3,0,2.4,0.9,2.4,2.3c0,2.9-5,9.7-5,9.7s4.8-2.5,5.6-2.9c0.5-0.3,0.9-0.8,1.5-0.3
		c0.6,0.5,3.5,2.6,1.8,4.4c-0.1,0.1-0.1,0.2-0.2,0.3c-1.8,2.4-8.5,11.3-5.4,11.3v0c1.1,0,6.8-6,10-10.8C96.1,24,97.2,24.3,96.4,25.5
		z M81.6,22.2c2.1-3.8,4.3-7.3,3.1-7.3c-1.2,0-3.8,3.5-3.8,5.3C80.9,21.5,81.6,22.2,81.6,22.2z"/>
	<path class="st0" d="M134,10.2c-0.9,3.8-6.6,6.9-11.1,8.7c-3.3,1.3-11.2,3-11.2,3c-1.9,2.4-4.2,5.7-4.9,8.2l-0.3,0.6
		c-2.5,9.4,13.5,4.8,16.3-1.6c0.2-0.4,0.3-0.8,0.4-1.1c0,0,0,0,0.1,0c0.7-2.3,1.2-4.3,1-5.7c-0.3-0.9-1-1.2,0.1-1.4
		c1.2-0.3,2.8,0.8,3.4,4c0.8,4.4-10.6,31.4-21.9,34.5c-1.7,0.5-3.8-0.4-4.3-3.3c-0.5-2.9,15.4-14.9,15.4-14.9c0.8-1.1,2.3-4,3.7-7.2
		c-7.5,5.1-20.5,4.9-17.5-6.4c0.4-1.6,1.4-3.5,2.7-5.4l-0.5,0c-3.4-0.3-6.1-1.3-6.7-3.5c-0.9-3.6,2.2-6.2,3.2-6.2c1,0-1,0.9-0.6,2.5
		c0.5,1.9,2.8,3.4,6,4.1c0.5-0.8,1.2-1.6,1.8-2.4c1.4-1.7,3-3.5,4.9-5.1c1.8-1.7,3.6-3.2,5.4-4.4c3.9-2.5,6.8-3.6,9.5-3.6
		C134.4,3.7,134.5,8.5,134,10.2z M115.7,43.9c0,0-13.1,10.7-12.8,12.3c0.1,0.8,0.9,1.1,1.7,0.9C109.1,55.8,115.7,43.9,115.7,43.9z
		 M129.8,8.8c-1.6,0-4,1-7.3,3c-0.9,0.5-2.3,1.4-4.1,2.9c-1.4,1.2-2.7,2.5-3.8,3.6c-0.4,0.5-0.8,1-1.3,1.5c3.2-0.1,6.7-1,9.9-2.3
		c2.7-1,7.8-4.5,8.3-6.8C131.7,9.5,130.7,8.8,129.8,8.8z"/>
	<path class="st0" d="M140.2,32.6c-0.1,0.1-0.3,0.3-0.4,0.5c0,0-0.2,0.2-0.5,0.6c-1.7,1.8-3.9,3.4-5.8,3.7c0,0-0.1,0-0.1,0
		c-0.1,0-0.1,0-0.2,0c-0.1,0-0.3,0-0.4,0c-1.4,0-3.9-0.7-3.9-4.5c0-6.4,6.9-13.4,10.8-13.4c2,0,3.5,1.3,4.4,2.8
		c0.1,0.3-0.1,0.8-1.8,0.8c-6,0-12.1,12.8-9,12.8c2.1,0,6-4.2,6-4.2s-0.3-0.9-0.3-2.2c0-2.9,3.6-4.2,3.6-1.2c0,0.6-0.6,1.8-1.8,3.3
		c0.1,0.1,0.5,0.3,0.7,0.3c1.7,0,3.4-2.7,6.3-7.1c0.5-0.8,1.6-0.4,0.8,0.8c-0.7,1.1-4.2,7.6-7.2,7.6C140.9,33,140.5,32.8,140.2,32.6
		z"/>
	<path class="st0" d="M166.7,24.7c0.5-0.8,1.6-0.4,0.9,0.8c-0.8,1.2-8.7,11.8-12,11.8c-1.7,0-3.3-1.2-3.3-4.6c0,0-3.6,4.6-5.1,4.6
		c-1.5,0-3.8-1.2-3.8-4.5c0-5,8.6-13.4,12.1-13.4c2.6,0,3.3,2.1,3.3,2.1s7.9-12.6,7.9-14.6c0-1.2,3.1-1,3.1,3.6
		c0,4.1-15.5,24.9-13,24.9C157.7,35.5,163.5,29.5,166.7,24.7z M157.4,22.4c-1.8,0-10,8.7-10,12.9c0,0,0,0.3,0.3,0.3
		C149.8,35.6,159.7,22.4,157.4,22.4z"/>
	<path class="st0" d="M185.5,24.7c0.5-0.8,1.6-0.4,0.9,0.8c-0.8,1.2-8.7,11.8-12,11.8c-1.7,0-3.3-1.2-3.3-4.6c0,0-3.6,4.6-5.1,4.6
		c-1.5,0-3.8-1.2-3.8-4.5c0-5,8.6-13.4,12.1-13.4c2.6,0,3.3,2.1,3.3,2.1s7.9-12.6,7.9-14.6c0-1.2,3.1-1,3.1,3.6
		c0,4.1-15.5,24.9-13,24.9C176.6,35.5,182.4,29.5,185.5,24.7z M176.2,22.4c-1.8,0-10,8.7-10,12.9c0,0,0,0.3,0.3,0.3
		C168.7,35.6,178.5,22.4,176.2,22.4z"/>
	<path class="st0" d="M199.4,25.5c-0.8,1.2-9.4,11.8-14,11.8c0,0-3.5,0-3.5-4.5c0-6.5,8.6-13.5,11-13.5c0.9,0,2.5,0.6,2.5,4.1
		c0,3.4-7.6,9.3-9.5,9.3c0,0-1.3,2.4,0.5,2.4c2.4,0,8.9-5.6,12.1-10.4C199,24,200.1,24.4,199.4,25.5z M186.5,31.4
		c4.9-2.9,7.2-7.6,6-7.6C191.3,23.8,186.5,31.4,186.5,31.4z"/>
	<path class="st0" d="M213.2,25.3c-0.6,0.9-2.5,4.3-8,5.3c0,0.1,0,0.1,0,0.3c-0.1,5.3-3.5,6.5-5.4,6.5c-0.8,0-3.5-0.8-3.5-3.1
		c0-3.1,5.6-4.1,5.6-4.1s0.8-4.2,0.1-7.8c0,0,0-0.2,0-0.5c-0.7,1.2-1.7,2.7-2.6,4c-0.7,0.9-1.5,0.2-0.9-0.6c1.2-1.8,3.4-5,4-7.2
		c0.2-0.9,0.7-2.7,1.4-2.2c0.8,0.6,3.2,2.3,3.2,4.3c0,1.9-1.5,1.9-1.7,9.3c3.1-0.7,5.4-2.2,7.2-4.9C212.9,23.7,214,24.1,213.2,25.3z
		 M201.8,31.4c0,0-4.4,1-4.4,3.1C197.4,36,200.6,36.1,201.8,31.4z"/>
	<path class="st0" d="M226.8,25.3c-0.6,0.9-2.5,4.3-8,5.3c0,0.1,0,0.1,0,0.3c-0.1,5.3-3.5,6.5-5.4,6.5c-0.8,0-3.5-0.8-3.5-3.1
		c0-3.1,5.6-4.1,5.6-4.1s0.8-4.2,0.1-7.8c0,0,0-0.2,0-0.5c-0.7,1.2-1.7,2.7-2.6,4c-0.7,0.9-1.5,0.2-0.9-0.6c1.2-1.8,3.4-5,4-7.2
		c0.2-0.9,0.7-2.7,1.4-2.2c0.8,0.6,3.2,2.3,3.2,4.3c0,1.9-1.5,1.9-1.7,9.3c3.1-0.7,5.4-2.2,7.2-4.9
		C226.5,23.7,227.6,24.1,226.8,25.3z M215.4,31.4c0,0-4.4,1-4.4,3.1C211,36,214.2,36.1,215.4,31.4z"/>
</g>
<g>
	<path class="st0" d="M44.6,20.2V5h-4.9V4.4h10.5V5h-4.9v15.2H44.6z"/>
	<path class="st0" d="M53.5,0v9.1c1.1-0.8,2.4-1.2,3.8-1.2c2,0,3.9,1,4.7,3c0.2,0.5,0.3,1,0.3,1.6v7.7h-0.7v-7.7
		c0-0.5-0.1-0.9-0.2-1.4c-0.7-1.8-2.3-2.6-4.1-2.6c-1.4,0-2.8,0.5-3.8,1.4v10.3h-0.7V0H53.5z"/>
	<path class="st0" d="M73.8,20.2c-0.5,0-1,0.1-1.4,0.1c-5,0-7.6-3.1-7.6-6.2c0-4.7,3.3-6.2,5.4-6.2c3.2,0,5.1,2.5,5.1,5.7h-9.8
		c0,0.2,0,0.4,0,0.5c0,2.7,2.3,5.5,7,5.5c0.4,0,0.9,0,1.4-0.1V20.2z M65.5,12.9h9c0-1.9-1.5-4.3-4.3-4.3C68.2,8.5,66,9.9,65.5,12.9z
		"/>
</g>
<g>
	<path class="st0" d="M132.2,34.7l6.3,16.8l-0.7,0.2l-1.7-4.6h-7.9l-1.7,4.6l-0.7-0.2L132.2,34.7z M128.5,46.4h7.3l-3.7-9.7
		L128.5,46.4z"/>
	<path class="st0" d="M149.8,51.6c-0.5,0-1,0.1-1.5,0.1c-5.3,0-8-3.2-8-6.5c0-3.3,2.7-6.5,8-6.5c0.5,0,1,0,1.5,0.1l0,0.7
		c-0.5,0-1-0.1-1.5-0.1c-4.9,0-7.3,2.9-7.3,5.8c0,2.9,2.4,5.8,7.3,5.8c0.4,0,0.9,0,1.5-0.1L149.8,51.6z"/>
	<path class="st0" d="M153.2,40.4c1.2-1.1,2.6-1.7,4.3-1.7c1.8,0,4.2,1.2,4.2,4.8v8H161v-1.2c-1.1,1-2.6,1.5-4.1,1.5
		c-2.6,0-5-1.8-5-4.6c0-2.8,2.3-4.6,5-4.6c1.7,0,3.1,0.7,4.1,1.6v-0.7c0-3.2-2-4.1-3.5-4.1c-1.6,0-2.9,0.6-3.8,1.5L153.2,40.4z
		 M161,49.3v-4.1c-1-1.3-2.5-1.9-4.1-1.9c-2.3,0-4.3,1.5-4.3,3.9c0,2.4,2,3.9,4.3,3.9C158.4,51.1,160,50.6,161,49.3z"/>
	<path class="st0" d="M174.1,30.5v21c-0.6,0-1.3,0.1-1.8,0.1c-5.3,0-8-3.2-8-6.4c0-3.3,2.7-6.5,8-6.5c0.4,0,0.7,0,1.1,0v-8.3H174.1z
		 M173.4,50.9V39.5c-0.4,0-0.8,0-1.1,0c-4.9,0-7.3,2.9-7.3,5.7c0,2.9,2.4,5.7,7.3,5.7C172.6,50.9,173,50.9,173.4,50.9z"/>
	<path class="st0" d="M186.3,51.5c-0.5,0-1,0.1-1.5,0.1c-5.2,0-8-3.2-8-6.5c0-4.9,3.5-6.5,5.6-6.5c3.3,0,5.3,2.6,5.3,5.9h-10.2
		c0,0.2,0,0.4,0,0.6c0,2.8,2.4,5.7,7.3,5.7c0.4,0,0.9,0,1.4-0.1V51.5z M177.7,43.9h9.3c0-2-1.6-4.5-4.5-4.5
		C180.4,39.4,178.1,40.8,177.7,43.9z"/>
	<path class="st0" d="M191.2,38.9v1c1-0.8,2.1-1.3,3.6-1.3c1.9,0,3.4,1.1,4,2.9c0.6-1.8,2-2.9,4-2.9c2.5,0,4.4,1.8,4.4,4.8v8h-0.7
		v-8c0-0.9-0.5-4.1-3.7-4.1c-2.6,0-3.6,2.3-3.6,4.1v8.1h-0.7v-8.1c0-1.7-1.1-4.1-3.7-4.1c-1.4,0-2.7,0.6-3.6,1.5v10.7h-0.7V38.9
		H191.2z"/>
	<path class="st0" d="M219.7,38.9v14c0,2.8-1.8,5.5-4.7,5.5c-1.3,0-2.5-0.7-3.5-1.6l0.5-0.5c0.9,0.8,1.9,1.4,3,1.4
		c2.4,0,4-2.3,4-4.8v-2.5c-1.2,1.1-2.5,1.6-4,1.6c-2.3,0-5.1-1.7-5.1-4.9v-8.2h0.7v8.3c0,2.5,2.2,4.1,4.4,4.1c1.7,0,2.7-0.7,4-1.9
		V38.9H219.7z"/>
</g>
</svg>
