<?xml version="1.0" encoding="utf-8"?>
<!-- Generator: Adobe Illustrator 19.2.1, SVG Export Plug-In . SVG Version: 6.00 Build 0)  -->
<svg version="1.1" id="Layer_1" xmlns="http://www.w3.org/2000/svg" xmlns:xlink="http://www.w3.org/1999/xlink" x="0px" y="0px"
	 viewBox="0 0 227.1 113" style="enable-background:new 0 0 227.1 113;" xml:space="preserve">
<style type="text/css">
	.st0{fill:#FFFFFF;}
	.st1{fill:#FFFFFF;stroke:#FFFFFF;stroke-miterlimit:10;}
</style>
<g>
	<path class="st0" d="M6.6,36.9c-0.2-1.7,8.8-11.7,18.5-11.7c7.2,0,9.6,5.9,9.8,7.1c1.5,11-19.2,31.2-28,31.2
		c-8.7,0-6.9-6.4-6.4-6.4s0.3,3.8,2.1,3.8c11.8,0,28.9-24.8,28-31c-0.9-6.5-20.7,6.9-20.7,9.5c0,0.4,0.2,0.5,0.2,0.9
		C10.1,41.2,6.8,38.6,6.6,36.9z"/>
	<path class="st0" d="M36.9,55.9c0-3,5.3-10.2,5.3-10.2c-1.2,0-11.5,12-11.5,13.7c0,2.7-2.4,0-2.4-2.8c0-3,7.1-10.4,7.1-14
		c0-1.3,2.6,0.1,2.6,3.7c0,1.8-1.2,3-1.2,3s6.6-6.7,7.8-6.7c1.3,0,2,1.8,2,3.6c0,1.8-8.4,12.5-6.8,12.5c2.2,0,7.4-6.2,10.6-11
		c0.5-0.8,1.6-0.4,0.8,0.8s-8.4,12.1-12,12.1C37.9,60.4,36.9,58.6,36.9,55.9z"/>
	<path class="st0" d="M54.1,55.9c0-3,5.3-10.2,5.3-10.2c-1.2,0-11.5,12-11.5,13.7c0,2.7-2.4,0-2.4-2.8c0-3,7.1-10.4,7.1-14
		c0-1.3,2.6,0.1,2.6,3.7c0,1.8-1.2,3-1.2,3s6.6-6.7,7.8-6.7c1.3,0,2,1.8,2,3.6c0,1.8-8.4,12.4-6.8,12.4c2.2,0,7.4-6.2,10.6-11
		c0.5-0.8,1.6-0.4,0.8,0.8c-0.8,1.2-8.4,12.1-12,12.1C55.1,60.4,54.1,58.6,54.1,55.9z"/>
	<path class="st0" d="M81.2,48.6c-0.8,1.2-9.4,11.8-14,11.8c0,0-3.5,0-3.5-4.5c0-6.5,8.6-13.5,11-13.5c0.9,0,2.5,0.6,2.5,4.1
		c0,3.4-7.6,9.3-9.5,9.3c0,0-1.3,2.4,0.5,2.4c2.4,0,8.9-5.6,12.1-10.4C80.8,47.1,81.9,47.5,81.2,48.6z M68.3,54.5
		c4.9-2.9,7.2-7.6,6-7.6C73.1,46.9,68.3,54.5,68.3,54.5z"/>
	<path class="st0" d="M96.4,48.6c-0.8,1.2-8.6,11.8-11.9,11.8c-2.7,0-3.3-2.3-3.3-4.3c0-2.1,3-5.8,4.5-9.1c-1,0.4-2.8,1-4.8,1
		c-1,0-2.8-0.6-2.8-4.6c0-5.6,4.3-9.6,6.8-9.6c1.3,0,2.4,0.9,2.4,2.3c0,2.9-5,9.7-5,9.7s4.8-2.5,5.6-2.9c0.5-0.3,0.9-0.8,1.5-0.3
		s3.5,2.6,1.8,4.4c-0.1,0.1-0.1,0.2-0.2,0.3c-1.8,2.4-8.5,11.3-5.4,11.3l0,0c1.1,0,6.8-6,10-10.8C96.1,47.1,97.2,47.4,96.4,48.6z
		 M81.6,45.3c2.1-3.8,4.3-7.3,3.1-7.3c-1.2,0-3.8,3.5-3.8,5.3C80.9,44.6,81.6,45.3,81.6,45.3z"/>
	<path class="st0" d="M134,33.3c-0.9,3.8-6.6,6.9-11.1,8.7c-3.3,1.3-11.2,3-11.2,3c-1.9,2.4-4.2,5.7-4.9,8.2l-0.3,0.6
		c-2.5,9.4,13.5,4.8,16.3-1.6c0.2-0.4,0.3-0.8,0.4-1.1c0,0,0,0,0.1,0c0.7-2.3,1.2-4.3,1-5.7c-0.3-0.9-1-1.2,0.1-1.4
		c1.2-0.3,2.8,0.8,3.4,4c0.8,4.4-10.6,31.4-21.9,34.5c-1.7,0.5-3.8-0.4-4.3-3.3c-0.5-2.9,15.4-14.9,15.4-14.9c0.8-1.1,2.3-4,3.7-7.2
		c-7.5,5.1-20.5,4.9-17.5-6.4c0.4-1.6,1.4-3.5,2.7-5.4h-0.5c-3.4-0.3-6.1-1.3-6.7-3.5c-0.9-3.6,2.2-6.2,3.2-6.2s-1,0.9-0.6,2.5
		c0.5,1.9,2.8,3.4,6,4.1c0.5-0.8,1.2-1.6,1.8-2.4c1.4-1.7,3-3.5,4.9-5.1c1.8-1.7,3.6-3.2,5.4-4.4c3.9-2.5,6.8-3.6,9.5-3.6
		C134.4,26.8,134.5,31.6,134,33.3z M115.7,67c0,0-13.1,10.7-12.8,12.3c0.1,0.8,0.9,1.1,1.7,0.9C109.1,78.9,115.7,67,115.7,67z
		 M129.8,31.9c-1.6,0-4,1-7.3,3c-0.9,0.5-2.3,1.4-4.1,2.9c-1.4,1.2-2.7,2.5-3.8,3.6c-0.4,0.5-0.8,1-1.3,1.5c3.2-0.1,6.7-1,9.9-2.3
		c2.7-1,7.8-4.5,8.3-6.8C131.7,32.6,130.7,31.9,129.8,31.9z"/>
	<path class="st0" d="M140.2,55.7c-0.1,0.1-0.3,0.3-0.4,0.5c0,0-0.2,0.2-0.5,0.6c-1.7,1.8-3.9,3.4-5.8,3.7h-0.1c-0.1,0-0.1,0-0.2,0
		c-0.1,0-0.3,0-0.4,0c-1.4,0-3.9-0.7-3.9-4.5c0-6.4,6.9-13.4,10.8-13.4c2,0,3.5,1.3,4.4,2.8c0.1,0.3-0.1,0.8-1.8,0.8
		c-6,0-12.1,12.8-9,12.8c2.1,0,6-4.2,6-4.2s-0.3-0.9-0.3-2.2c0-2.9,3.6-4.2,3.6-1.2c0,0.6-0.6,1.8-1.8,3.3c0.1,0.1,0.5,0.3,0.7,0.3
		c1.7,0,3.4-2.7,6.3-7.1c0.5-0.8,1.6-0.4,0.8,0.8c-0.7,1.1-4.2,7.6-7.2,7.6C140.9,56.1,140.5,55.9,140.2,55.7z"/>
	<path class="st0" d="M166.7,47.8c0.5-0.8,1.6-0.4,0.9,0.8c-0.8,1.2-8.7,11.8-12,11.8c-1.7,0-3.3-1.2-3.3-4.6c0,0-3.6,4.6-5.1,4.6
		s-3.8-1.2-3.8-4.5c0-5,8.6-13.4,12.1-13.4c2.6,0,3.3,2.1,3.3,2.1s7.9-12.6,7.9-14.6c0-1.2,3.1-1,3.1,3.6c0,4.1-15.5,24.9-13,24.9
		C157.7,58.6,163.5,52.6,166.7,47.8z M157.4,45.5c-1.8,0-10,8.7-10,12.9c0,0,0,0.3,0.3,0.3C149.8,58.7,159.7,45.5,157.4,45.5z"/>
	<path class="st0" d="M185.5,47.8c0.5-0.8,1.6-0.4,0.9,0.8c-0.8,1.2-8.7,11.8-12,11.8c-1.7,0-3.3-1.2-3.3-4.6c0,0-3.6,4.6-5.1,4.6
		s-3.8-1.2-3.8-4.5c0-5,8.6-13.4,12.1-13.4c2.6,0,3.3,2.1,3.3,2.1s7.9-12.6,7.9-14.6c0-1.2,3.1-1,3.1,3.6c0,4.1-15.5,24.9-13,24.9
		C176.6,58.6,182.4,52.6,185.5,47.8z M176.2,45.5c-1.8,0-10,8.7-10,12.9c0,0,0,0.3,0.3,0.3C168.7,58.7,178.5,45.5,176.2,45.5z"/>
	<path class="st0" d="M199.4,48.6c-0.8,1.2-9.4,11.8-14,11.8c0,0-3.5,0-3.5-4.5c0-6.5,8.6-13.5,11-13.5c0.9,0,2.5,0.6,2.5,4.1
		c0,3.4-7.6,9.3-9.5,9.3c0,0-1.3,2.4,0.5,2.4c2.4,0,8.9-5.6,12.1-10.4C199,47.1,200.1,47.5,199.4,48.6z M186.5,54.5
		c4.9-2.9,7.2-7.6,6-7.6S186.5,54.5,186.5,54.5z"/>
	<path class="st0" d="M213.2,48.4c-0.6,0.9-2.5,4.3-8,5.3c0,0.1,0,0.1,0,0.3c-0.1,5.3-3.5,6.5-5.4,6.5c-0.8,0-3.5-0.8-3.5-3.1
		c0-3.1,5.6-4.1,5.6-4.1s0.8-4.2,0.1-7.8c0,0,0-0.2,0-0.5c-0.7,1.2-1.7,2.7-2.6,4c-0.7,0.9-1.5,0.2-0.9-0.6c1.2-1.8,3.4-5,4-7.2
		c0.2-0.9,0.7-2.7,1.4-2.2c0.8,0.6,3.2,2.3,3.2,4.3c0,1.9-1.5,1.9-1.7,9.3c3.1-0.7,5.4-2.2,7.2-4.9C212.9,46.8,214,47.2,213.2,48.4z
		 M201.8,54.5c0,0-4.4,1-4.4,3.1C197.4,59.1,200.6,59.2,201.8,54.5z"/>
	<path class="st0" d="M226.8,48.4c-0.6,0.9-2.5,4.3-8,5.3c0,0.1,0,0.1,0,0.3c-0.1,5.3-3.5,6.5-5.4,6.5c-0.8,0-3.5-0.8-3.5-3.1
		c0-3.1,5.6-4.1,5.6-4.1s0.8-4.2,0.1-7.8c0,0,0-0.2,0-0.5c-0.7,1.2-1.7,2.7-2.6,4c-0.7,0.9-1.5,0.2-0.9-0.6c1.2-1.8,3.4-5,4-7.2
		c0.2-0.9,0.7-2.7,1.4-2.2c0.8,0.6,3.2,2.3,3.2,4.3c0,1.9-1.5,1.9-1.7,9.3c3.1-0.7,5.4-2.2,7.2-4.9
		C226.5,46.8,227.6,47.2,226.8,48.4z M215.4,54.5c0,0-4.4,1-4.4,3.1C211,59.1,214.2,59.2,215.4,54.5z"/>
</g>
<g>
	<path class="st0" d="M44.6,43.3V28.1h-4.9v-0.6h10.5v0.6h-4.9v15.2H44.6z"/>
	<path class="st0" d="M53.5,23.1v9.1c1.1-0.8,2.4-1.2,3.8-1.2c2,0,3.9,1,4.7,3c0.2,0.5,0.3,1,0.3,1.6v7.7h-0.7v-7.7
		c0-0.5-0.1-0.9-0.2-1.4c-0.7-1.8-2.3-2.6-4.1-2.6c-1.4,0-2.8,0.5-3.8,1.4v10.3h-0.7V23.1H53.5z"/>
	<path class="st0" d="M73.8,43.3c-0.5,0-1,0.1-1.4,0.1c-5,0-7.6-3.1-7.6-6.2c0-4.7,3.3-6.2,5.4-6.2c3.2,0,5.1,2.5,5.1,5.7h-9.8
		c0,0.2,0,0.4,0,0.5c0,2.7,2.3,5.5,7,5.5c0.4,0,0.9,0,1.4-0.1L73.8,43.3L73.8,43.3z M65.5,36h9c0-1.9-1.5-4.3-4.3-4.3
		C68.2,31.6,66,33,65.5,36z"/>
</g>
<g>
	<path class="st0" d="M132.2,57.8l6.3,16.8l-0.7,0.2l-1.7-4.6h-7.9l-1.7,4.6l-0.7-0.2L132.2,57.8z M128.5,69.5h7.3l-3.7-9.7
		L128.5,69.5z"/>
	<path class="st0" d="M149.8,74.7c-0.5,0-1,0.1-1.5,0.1c-5.3,0-8-3.2-8-6.5s2.7-6.5,8-6.5c0.5,0,1,0,1.5,0.1v0.7
		c-0.5,0-1-0.1-1.5-0.1c-4.9,0-7.3,2.9-7.3,5.8c0,2.9,2.4,5.8,7.3,5.8c0.4,0,0.9,0,1.5-0.1V74.7z"/>
	<path class="st0" d="M153.2,63.5c1.2-1.1,2.6-1.7,4.3-1.7c1.8,0,4.2,1.2,4.2,4.8v8H161v-1.2c-1.1,1-2.6,1.5-4.1,1.5
		c-2.6,0-5-1.8-5-4.6c0-2.8,2.3-4.6,5-4.6c1.7,0,3.1,0.7,4.1,1.6v-0.7c0-3.2-2-4.1-3.5-4.1c-1.6,0-2.9,0.6-3.8,1.5L153.2,63.5z
		 M161,72.4v-4.1c-1-1.3-2.5-1.9-4.1-1.9c-2.3,0-4.3,1.5-4.3,3.9c0,2.4,2,3.9,4.3,3.9C158.4,74.2,160,73.7,161,72.4z"/>
	<path class="st0" d="M174.1,53.6v21c-0.6,0-1.3,0.1-1.8,0.1c-5.3,0-8-3.2-8-6.4c0-3.3,2.7-6.5,8-6.5c0.4,0,0.7,0,1.1,0v-8.3h0.7
		V53.6z M173.4,74V62.6c-0.4,0-0.8,0-1.1,0c-4.9,0-7.3,2.9-7.3,5.7c0,2.9,2.4,5.7,7.3,5.7C172.6,74,173,74,173.4,74z"/>
	<path class="st0" d="M186.3,74.6c-0.5,0-1,0.1-1.5,0.1c-5.2,0-8-3.2-8-6.5c0-4.9,3.5-6.5,5.6-6.5c3.3,0,5.3,2.6,5.3,5.9h-10.2
		c0,0.2,0,0.4,0,0.6c0,2.8,2.4,5.7,7.3,5.7c0.4,0,0.9,0,1.4-0.1L186.3,74.6L186.3,74.6z M177.7,67h9.3c0-2-1.6-4.5-4.5-4.5
		C180.4,62.5,178.1,63.9,177.7,67z"/>
	<path class="st0" d="M191.2,62v1c1-0.8,2.1-1.3,3.6-1.3c1.9,0,3.4,1.1,4,2.9c0.6-1.8,2-2.9,4-2.9c2.5,0,4.4,1.8,4.4,4.8v8h-0.7v-8
		c0-0.9-0.5-4.1-3.7-4.1c-2.6,0-3.6,2.3-3.6,4.1v8.1h-0.7v-8.1c0-1.7-1.1-4.1-3.7-4.1c-1.4,0-2.7,0.6-3.6,1.5v10.7h-0.7V62H191.2z"
		/>
	<path class="st0" d="M219.7,62v14c0,2.8-1.8,5.5-4.7,5.5c-1.3,0-2.5-0.7-3.5-1.6l0.5-0.5c0.9,0.8,1.9,1.4,3,1.4c2.4,0,4-2.3,4-4.8
		v-2.5c-1.2,1.1-2.5,1.6-4,1.6c-2.3,0-5.1-1.7-5.1-4.9V62h0.7v8.3c0,2.5,2.2,4.1,4.4,4.1c1.7,0,2.7-0.7,4-1.9V62H219.7z"/>
</g>
<line class="st1"  id="1" x1="6.3" y1="62.6" x2="6.3" y2="112.5"/>
<line class="st1"  id="2"  x1="142" y1="112.5" x2="5.9" y2="112.5"/>
<line class="st1"  id="3"  x1="223.2" y1="50.4" x2="223.2" y2="0.6"/>
<line class="st1"  id="4"  x1="87.5" y1="0.6" x2="223.7" y2="0.6"/>
<animate xlink:href="#1" attributeName="y1" from="112.5" to="62.6" dur="5s"></animate>
<animate xlink:href="#2" attributeName="x1" from="5.9" to="142" dur="5s"></animate>
<animate xlink:href="#3" attributeName="y1" from="0.6" to="50.4" dur="5s"></animate>
<animate xlink:href="#4" attributeName="x1" from="223.7" to="87.5" dur="5s"></animate>

</svg>
