<?xml version="1.0" encoding="utf-8"?>
<!-- Generator: Adobe Illustrator 19.2.1, SVG Export Plug-In . SVG Version: 6.00 Build 0)  -->
<svg version="1.1" id="Layer_1" xmlns="http://www.w3.org/2000/svg" xmlns:xlink="http://www.w3.org/1999/xlink" x="0px" y="0px"
	 viewBox="0 0 612 129.7" style="enable-background:new 0 0 612 129.7;" xml:space="preserve">
<style type="text/css">
	.st0{fill:#FFFFFF;}
</style>
<g>
	<path class="st0" d="M341.2,73.8c-3,0-14.8,18.6-14.8,18.6C338.5,85.3,344.1,73.8,341.2,73.8z"/>
	<path class="st0" d="M391.5,99.8c0,3.9,7.9,4.1,10.8-7.5C402.3,92.3,391.5,94.9,391.5,99.8z"/>
	<path class="st0" d="M301.3,70.4c-4.3,0-24.5,21.4-24.5,31.6c0,0,0.1,0.7,0.7,0.7C282.7,102.7,306.9,70.4,301.3,70.4z"/>
	<path class="st0" d="M0,0v129.7h612V0H0z M264.2,50.4c0.5-6.5,4.6-8.6,6.6-8.6c2,0,8.2,2.7,8,5.7c-0.3,3-3,3.4-5.7,8.2
		c-2.7,4.7-2.6,4.8-3.9,4.8C267.1,60.6,263.6,56.9,264.2,50.4z M196,110.8c-1.2,0-7.4-1.3-7.4-11.8c0-6.7,27.2-58.3,27.2-65
		c0-4.2-5.8-9.3-14.1-9.3c-28.1,0-54.3,29.2-51.6,48.6c1.3,9,9.7,11.1,14.4,11.1c9.9,0,16.6-10.9,16.6-4.8c0,5.6-10.7,8.1-14.3,8.1
		c-11.4,0-25.8-7.7-28-22.6C136.1,45.7,165.6,21,200.4,21c9,0,21.6,4.4,23.3,16.2c1,7.3-4.5,20.1-10.3,32.4
		c-3.5,8.3-13.2,24.1-13.2,32c9.7-8.6,44.1-32.8,44.1-52.6c0-9.7-5-15.9-8.3-15.9c-3.4,0-5-3,0.6-3c5.6,0,19.3,7.1,19.3,23.5
		C255.9,70.1,197.2,110.8,196,110.8z M430.3,77.4c-1.5,2.3-6.2,10.5-19.7,13.1c0,0.2,0,0.4,0,0.6c-0.2,13.1-8.7,15.9-13.4,15.9
		c-2,0-8.7-1.9-8.7-7.7c0-7.5,13.8-10.2,13.8-10.2s1.9-10.4,0.3-19.3c0,0-0.1-0.4-0.1-1.2c-1.7,2.9-4,6.5-6.4,9.7
		c-2.3,3.9-10.3,18.1-17.4,18.1c-1.3,0-2.5-0.6-3.2-1.2c-0.3,0.4-0.6,0.8-1,1.2c0,0-0.4,0.5-1.2,1.4c-4.2,4.4-9.5,8.3-14.3,9
		c-0.1,0.1-0.2,0.1-0.3,0.1c-0.2,0-0.4,0-0.4,0.1c-0.4,0-0.6,0-0.9,0c-3.5,0-9.5-1.8-9.5-11.1c0-2.4,0.4-4.7,1.1-7.1
		c-7.7,8.3-18.4,18.2-25.4,18.2c0,0-8.5-0.1-8.5-11c0-1.6,0.2-3.2,0.6-4.7c-6.6,7.7-14.5,15.7-19,15.7c-4.2,0-8.1-2.8-8.1-11.4
		c0,0-8.8,11.4-12.6,11.4c-3.7,0-9.4-3-9.4-11c0-0.4,0-0.9,0.1-1.4c-5.7,6.4-11.9,12.2-15.7,12.2c-6.7,0-8.3-7.3-7.9-12
		c0.5-6.4,9.6-17.2,13.7-27.8c0.6-1.7,0.2-3.9,2.3-3.9c2.1,0,6.1,3.5,5.5,10.3s-20.3,28.7-11,28.7c1.8,0,8.7-6.6,15.4-14.6
		c5.8-11.5,20.6-24.5,27.3-24.5c6.3,0,8.1,5.2,8.1,5.2s19.4-30.9,19.4-35.9c0-2.8,7.5-2.6,7.5,8.8c0,10.2-38.1,61.1-31.9,61.1
		c2.2,0,12.4-10,20.2-20.2c1.3-2.1,2.8-4.1,4.4-6c0-0.1,0.1-0.1,0.1-0.2c0.2-0.2,0.3-0.4,0.5-0.6c6.4-7.4,14.3-12.6,17.5-12.6
		c2.3,0,6.2,1.6,6.2,10S329.6,95.8,325,95.8c0,0-3.3,5.9,1.3,5.9c5.1,0,17.6-10.2,26-20.6C357.9,71,368,63,374.6,63
		c5,0,8.5,3.3,10.7,7c0.4,0.6-0.4,1.9-4.3,1.9c-14.7,0-29.7,31.5-22,31.5c5.2,0,14.9-10.4,14.9-10.4s-0.8-2.2-0.8-5.4
		c0-7.2,8.8-10.3,8.8-2.9c0,1.6-1.6,4.4-4.4,8.1c0.3,0.3,1.2,0.6,1.7,0.6c4,0,7.9-6,14.5-15.9c0.1-0.2,0.2-0.4,0.3-0.5
		c3-4.4,8.3-12.4,9.8-17.6c0.5-2.1,1.8-6.5,3.4-5.3c2,1.6,7.9,5.6,7.9,10.6c0,4.8-3.8,4.8-4.2,22.9c7.6-1.7,13.2-5.3,17.6-11.9
		C429.5,73.6,432.2,74.5,430.3,77.4z"/>
</g>
</svg>
