<?xml version="1.0" encoding="utf-8"?>
<!-- Generator: Adobe Illustrator 19.2.1, SVG Export Plug-In . SVG Version: 6.00 Build 0)  -->
<svg version="1.1" id="Layer_1" xmlns="http://www.w3.org/2000/svg" xmlns:xlink="http://www.w3.org/1999/xlink" x="0px" y="0px"
	 viewBox="0 0 612 792" style="enable-background:new 0 0 612 792;" xml:space="preserve">
<style type="text/css">
	.st0{fill:#FFFFFF;}
</style>
<path class="st0" d="M187.4,464.8c-4.4,1.8-9.5,3-9.8,9.5c-0.4,12.3-1.2,24.6-1.7,36.9c-0.6,14.5-1,29-1.7,43.4
	c-0.9,17.3-2.1,34.5-3,51.8c-0.3,6.3,3.7,10.3,10.1,10.4c6.7,0.1,13.3,0.1,20,0c6.9-0.1,10.2-3.3,10-10.2
	c-0.3-13.2-0.8-26.3-1.4-39.5c-1.3-29.1-2.9-58.2-4-87.3c-0.3-6.7-1.1-12.2-8.3-14.7c-1-0.3-2-2.6-1.9-3.9c0.1-1.2,1.5-3.1,2.6-3.4
	c8.4-2.3,14-7.3,16.3-15.8c1.6-5.9,3.2-11.8,4.8-17.7c6.5-23.9,12.9-47.8,19.4-71.6c1.2-4.5,2.7-8.9,4.1-13.3c0.6,0,1.2,0.1,1.7,0.1
	c1,6.3,2.3,12.6,3,18.9c0.5,4.6,1.2,9.4,0.2,13.8c-4.3,19.5-10,38.6-13.6,58.2c-5.2,28.9-9.4,58.1-13.1,87.3
	c-2.1,16.8-2.4,33.8-3.4,50.8c-0.4,6,0,12-0.5,18c-0.5,6.3-0.5,6.6,5.9,6.6c8,0,16-0.2,24,0.1c1.7,0.1,4.3,1.5,4.7,2.8
	c1,4,1.4,8.2,1.6,12.3c1.2,23.3,2.2,46.6,3.4,69.9c0.8,15,1.6,29.9,2.8,44.9c0.9,11.4,9.5,18.8,20.7,18.7
	c11.3-0.1,18.9-7.2,19.7-18.9c0.8-12.3,1.3-24.6,1.5-36.9c0.3-15.5,0.1-31,0.2-46.5c0.1-14,0.4-28,0.4-42c0-4.3,2.7-4.3,5.6-4.4
	c3.2-0.2,4.4,1.2,4.4,4.4c0.1,7.1,0.9,14.3,0.9,21.4c0.3,24.3,0.5,48.6,0.6,73c0.1,9.7-0.1,19.3,0.2,29c0.4,12.4,8.7,20.6,20.4,20.8
	c11.2,0.2,19.8-7.2,20.8-18c0.6-6.5,1-12.9,1.4-19.4c1.9-35.2,3.8-70.5,5.5-105.7c0.2-4,1.5-5.6,5.6-5.4c8.3,0.3,16.7,0,25,0.1
	c3.7,0,5.4-1.2,5.2-5.3c-0.7-11.1-0.9-22.2-1.6-33.4c-0.9-13.4-1.9-26.9-3.3-40.3c-1.6-15.5-2.8-31.1-5.7-46.4
	c-4.8-25.8-10.5-51.4-16.3-77c-2.8-12.2-6.6-23.9-3.5-36.8c2.2-8.9,2.9-18.1,4.3-27.1c0.1-0.9,0.9-1.7,1.4-2.6
	c0.6,0,1.2-0.1,1.8-0.1c3.2,11,7.8,21.9,9.2,33.2c2.8,22.9,3.8,46.1,5.8,69.2c0.7,8.3,1.1,16.7,3.2,24.7
	c3.6,14.1,22.3,19.3,33.5,9.9c7.2-6.1,8.9-13.9,8.1-22.9c-2-21.9-3.7-43.8-5.8-65.7c-1.5-16-1.6-32.1-8.4-47.3
	c-6.6-14.7-11.6-30.1-17.2-45.2c-5.4-14.3-10.6-28.6-16.2-42.8c-3.4-8.7-5.6-18.2-13.2-24.8c-8.5-7.4-19.2-8.6-29.6-10.8
	c-3-0.6-6-0.9-10.1-1.5c4,8.8,7.8,16.5,10.8,24.5c1.1,2.9,1.3,7.1,0,9.7c-4.8,10-10.4,19.7-15.5,29.5c-6.2,11.8-12.1,23.7-18.4,35.4
	c-3.2,5.9-5.5,5.8-9-0.1c-2.7-4.6-4.8-9.5-7.3-14.2c-8.7-16.5-17.3-33-26.1-49.4c-2.1-4-2.5-7.6-0.3-11.8c3.2-6.2,5.9-12.7,8.7-19
	c0.6-1.2,1-2.6,2.1-5.5c-10.5,2.6-19.4,4.7-28.3,7.2c-9.6,2.7-15.6,9.4-18.9,18.4c-5,14.1-9.8,28.2-14.1,42.5
	c-4.6,15.2-8.6,30.7-12.8,46c-6.5,23.5-12.9,47.1-19.3,70.6c-4,14.9-7.6,30-12,44.8c-3.2,10.6-0.4,20.9,9.1,26.2
	C187.5,457.6,188.5,460.4,187.4,464.8z"/>
<path class="st0" d="M187.4,464.8c1.1-4.4,0.1-7.2-4.1-9.5c-9.5-5.4-12.3-15.6-9.1-26.2c4.4-14.8,8-29.9,12-44.8
	c6.4-23.6,12.9-47.1,19.3-70.6c4.2-15.4,8.2-30.8,12.8-46c4.3-14.3,9.1-28.4,14.1-42.5c3.2-9,9.3-15.8,18.9-18.4
	c8.9-2.5,17.9-4.5,28.3-7.2c-1.1,2.9-1.5,4.2-2.1,5.5c-2.9,6.4-5.6,12.8-8.7,19c-2.1,4.2-1.8,7.8,0.3,11.8
	c8.8,16.4,17.4,32.9,26.1,49.4c2.5,4.7,4.6,9.6,7.3,14.2c3.4,5.9,5.8,6,9,0.1c6.3-11.7,12.2-23.6,18.4-35.4
	c5.2-9.8,10.8-19.5,15.5-29.5c1.3-2.7,1.1-6.8,0-9.7c-3-8-6.9-15.7-10.8-24.5c4,0.6,7.1,0.8,10.1,1.5c10.4,2.2,21.1,3.3,29.6,10.8
	c7.6,6.6,9.7,16.1,13.2,24.8c5.6,14.2,10.8,28.5,16.2,42.8c5.7,15.1,10.7,30.5,17.2,45.2c6.8,15.3,6.9,31.4,8.4,47.3
	c2.1,21.9,3.7,43.8,5.8,65.7c0.8,9-0.8,16.8-8.1,22.9c-11.2,9.4-29.9,4.2-33.5-9.9c-2-8-2.5-16.4-3.2-24.7
	c-1.9-23.1-2.9-46.2-5.8-69.2c-1.4-11.3-6-22.1-9.2-33.2c-0.6,0-1.2,0.1-1.8,0.1c-0.5,0.9-1.3,1.7-1.4,2.6c-1.5,9-2.2,18.2-4.3,27.1
	c-3.1,12.8,0.7,24.6,3.5,36.8c5.8,25.6,11.5,51.2,16.3,77c2.8,15.3,4.1,30.9,5.7,46.4c1.4,13.4,2.4,26.8,3.3,40.3
	c0.7,11.1,0.9,22.2,1.6,33.4c0.2,4.1-1.4,5.3-5.2,5.3c-8.3-0.1-16.7,0.2-25-0.1c-4.2-0.1-5.4,1.4-5.6,5.4
	c-1.7,35.2-3.6,70.5-5.5,105.7c-0.3,6.5-0.8,13-1.4,19.4c-1,10.7-9.6,18.1-20.8,18c-11.7-0.2-20-8.4-20.4-20.8
	c-0.3-9.7-0.1-19.3-0.2-29c-0.2-24.3-0.3-48.7-0.6-73c-0.1-7.1-0.8-14.3-0.9-21.4c-0.1-3.2-1.2-4.6-4.4-4.4c-3,0.2-5.6,0.1-5.6,4.4
	c0,14-0.3,28-0.4,42c-0.1,15.5,0.1,31-0.2,46.5c-0.2,12.3-0.7,24.6-1.5,36.9c-0.8,11.7-8.4,18.8-19.7,18.9
	c-11.2,0.1-19.8-7.3-20.7-18.7c-1.2-14.9-2.1-29.9-2.8-44.9c-1.2-23.3-2.2-46.6-3.4-69.9c-0.2-4.1-0.6-8.3-1.6-12.3
	c-0.3-1.3-3-2.7-4.7-2.8c-8-0.3-16-0.1-24-0.1c-6.4,0-6.4-0.3-5.9-6.6c0.5-6,0.2-12,0.5-18c1-16.9,1.3-34,3.4-50.8
	c3.7-29.2,7.9-58.3,13.1-87.3c3.5-19.6,9.3-38.7,13.6-58.2c1-4.4,0.3-9.2-0.2-13.8c-0.7-6.3-2-12.6-3-18.9c-0.6,0-1.2-0.1-1.7-0.1
	c-1.4,4.4-2.8,8.8-4.1,13.3c-6.5,23.9-13,47.8-19.4,71.6c-1.6,5.9-3.2,11.8-4.8,17.7c-2.3,8.4-7.9,13.5-16.3,15.8
	c-1.2,0.3-2.5,2.1-2.6,3.4c-0.1,1.3,0.8,3.5,1.9,3.9c7.3,2.5,8.1,8,8.3,14.7c1.1,29.1,2.7,58.2,4,87.3c0.6,13.1,1.1,26.3,1.4,39.5
	c0.2,6.9-3.1,10.1-10,10.2c-6.7,0.1-13.3,0.1-20,0c-6.3-0.1-10.4-4.1-10.1-10.4c0.9-17.3,2.1-34.5,3-51.8c0.7-14.5,1.1-29,1.7-43.4
	c0.5-12.3,1.2-24.6,1.7-36.9C177.9,467.8,183,466.6,187.4,464.8z"/>
<path class="st0" d="M380.2,115.8c-0.2,40.6-31.9,73.5-73.3,72.9c-42.7-0.7-72.3-32.8-72.1-73.1c0.2-41.6,32.9-72.2,72.9-72.3
	C347.9,43,380.3,76.4,380.2,115.8z"/>
<path class="st0" d="M285.2,199.9c4.3-0.5,7.7-1.3,11.1-1.3c9.3-0.1,18.6,0.1,27.9,0.4c2.7,0.1,4.9,0.9,4.1,4.6
	c-3.1,13.6-6.2,27.1-9.2,40.7c-3.3,14.9-6.5,29.7-9.8,44.6c-0.4,1.8-1,3.6-1.5,5.4c-0.5,0-1.1,0-1.6,0
	C299.2,263.1,292.3,232,285.2,199.9z"/>
</svg>
