<?xml version="1.0" encoding="utf-8"?>
<!-- Generator: Adobe Illustrator 19.2.1, SVG Export Plug-In . SVG Version: 6.00 Build 0)  -->
<svg version="1.1" id="Layer_1" xmlns="http://www.w3.org/2000/svg" xmlns:xlink="http://www.w3.org/1999/xlink" x="0px" y="0px"
	 viewBox="0 0 612 129.7" style="enable-background:new 0 0 612 129.7;" xml:space="preserve">
<style type="text/css">
	.st0{fill:#FFFFFF;}
</style>
<g>
	<path class="st0" d="M275.6,51.9c0.4,1.9,1.4,3,1.4,3c1.1-2,2.2-3.9,3.2-5.8C278.4,50.4,276.7,51.3,275.6,51.9z"/>
	<path class="st0" d="M114.5,20.7c-13.1,0-20.1,10.8-20.1,16.2c0,7.7,4.3,14.2,10.8,14.2c6.5,0,11.5-3.2,11.5-3.2
		S129.6,20.7,114.5,20.7z"/>
	<path class="st0" d="M177.8,37.9c-2.9,0-8.8,8.2-8.8,12.4c0,3,1.6,4.6,1.6,4.6C175.4,45.9,180.7,37.9,177.8,37.9z"/>
	<path class="st0" d="M320.3,114.9c0.2,1.4,1.4,2.4,2.9,2.4c8.2,0,22-18.2,22-18.2S320,111.9,320.3,114.9z"/>
	<path class="st0" d="M399.3,37.9c-2.9,0-8.8,8.2-8.8,12.4c0,3,1.6,4.6,1.6,4.6C396.8,45.9,402.1,37.9,399.3,37.9z"/>
	<path class="st0" d="M85.2,33.6c0,0-22,16.8-22,35.1c0,11.9,4.2,19.5,11.6,19.5c22.6,0,38.4-34.1,38.4-34.1s-4.6,1.4-8.8,1.4
		C87.2,55.5,85.2,33.6,85.2,33.6z"/>
	<path class="st0" d="M0,0v129.7h612V0H0z M74.4,92.9c-10.2,0-23-6.1-23-27.9c0-21.7,20.1-45.4,28.5-45.4c6.4,0,7.4,3,7.4,3
		S98.7,7.8,114.5,7.8c9.1,0,15.7,5.9,15.7,18.4C130.2,50.1,99.9,92.9,74.4,92.9z M205.3,62.6c-1.8,2.7-20,27.7-27.8,27.7
		c-6.4,0-7.8-5.5-7.8-10c0-4.8,7-13.5,10.5-21.4c-2.3,1-6.2,2.2-10.5,2.3c-0.1,0.4-0.2,0.8-0.6,1.4c-1.8,2.8-20.2,27.7-27.8,27.7
		c-6.1,0-8.5-9.7-5.1-14c0,0-10,14-15.1,14c-3.6,0-7.4-2.6-6.9-9c0.4-5.9,15.2-24.6,15.8-32.5c0.2-1.9,7.8,1,7.3,7.7
		S117,86.8,122.6,86.8c2.1,0,27.8-28.4,28.4-38.1c0.2-1.9,7.4,1.9,6.9,8.7c-0.5,6.8-19.6,29.5-14.5,29.5c2.5,0,16.3-14.7,23.8-26
		c-2.2-0.8-4.6-3.3-4.6-10.3c0-13.1,10-22.5,15.8-22.5c3.1,0,5.7,2,5.7,5.5c0,6.8-11.7,22.6-11.7,22.6s11.2-5.8,13-6.8
		c1.2-0.7,2.2-1.9,3.5-0.8c1.4,1.1,8.1,6,4.3,10.3c-0.2,0.2-0.3,0.4-0.5,0.6c-4.3,5.7-19.9,26.4-12.7,26.4V86
		c2.5,0,15.8-14,23.3-25.1C204.6,59,207.2,59.8,205.3,62.6z M560.1,62.1c-1.4,2.2-5.9,10-18.8,12.4c0,0.2,0,0.3,0,0.6
		c-0.2,12.4-8.2,15.1-12.7,15.1c-1.9,0-8.2-1.9-8.2-7.3c0-7.1,13.1-9.7,13.1-9.7s1.8-9.9,0.3-18.3c0,0-0.1-0.4-0.1-1.2
		c-1.7,2.8-3.9,6.2-6.1,9.3c-0.2,0.3-0.4,0.5-0.6,0.6c-4.4,6.3-19,26.5-27.2,26.5c-3.3,0-5.6-3.7-5.6-10.1c0-7.1,14-24.7,14-24.7
		c-1.3,0-14.6,10.8-19.9,17.7c-3.6,5.4-8.7,14.8-8.7,16.5c0,2.3-5-2.8-5-9.2c0-7.1,14-25.1,14-25.1c-2.8,0-28.8,30.2-28.8,34.2
		c0,2.3-5.7-1.5-5.7-8.2c0-0.6,0.1-1.2,0.3-2c-5.1,5.7-10.5,10.7-13.9,10.7c-3.4,0-6.8-5.2-6.8-7.3c0-2,1.4-5.1,1.4-5.1
		s-10.6,12.4-13.7,12.4c-3,0-7.9-3.9-7.9-9.8c0-0.4,0-0.8,0.1-1.3c-5.3,5.9-11,11.1-14.6,11.1c-6.4,0-7.8-5.5-7.8-10
		c0-4.8,7-13.5,10.5-21.4c-2.3,0.9-6.1,2.2-10.3,2.3c-0.1,0.4-0.2,0.8-0.6,1.4c-1.7,2.5-19.3,24.6-27.9,27.3l-0.2,0.3l-1.9,3.2
		c-9.2,14.9-21.9,29.3-35,29.3c-3.3,0-7.4-2.8-7.8-8.2c-0.5-5.6,30.1-19.2,30.1-19.2c3.5-4,11.4-19.1,11.4-19.1s-10.9,14-14,14
		c-3,0-8.2-3.9-8.7-9.8c-0.1-0.7,0-1.5,0.1-2.3c-1.7,1.3-3.5,2.2-5.2,2.2c-1.3,0-2.4-0.6-3-1.1c-0.3,0.3-0.6,0.8-0.9,1.1
		c0,0-0.4,0.5-1.2,1.3c-4,4.2-9,7.9-13.6,8.6c-0.1,0.1-0.2,0.1-0.3,0.1c-0.2,0-0.3,0-0.4,0.1c-0.3,0-0.6,0-0.8,0
		c-3.4,0-9-1.7-9-10.6c0-1.9,0.3-3.9,0.8-5.8c-6.3,7.7-14.6,16.4-19.2,16.4c-6.4,0-7.8-5.5-7.8-10c0-4.8,7-13.5,10.5-21.4
		c-2.4,1-6.6,2.4-11.1,2.4c-2,0-5.1-0.9-6.2-6.3c-10.4,4.5-23.5,4.2-23.5,4.2S229.1,80.9,229.1,86c0,2.5,0.4,4-1.5,4
		s-4.6-3.6-4.6-10.9c0-12.8,31.1-47.6,30.6-53.9c-0.2-2.4,7.4,0.8,7.9,6.4c0.3,5.4-9.7,19.4-9.7,19.4c7.6-1.4,13.6-4.2,18.3-7.7
		c1.9-6.6,6.2-11.6,10.2-13.9c0.6-2.1,0.8-4.1,0.7-5.9c-0.8-9.8-11.8-13.2-19.6-13.2c-22.5,0-45.3,19.7-44.1,35.4
		c0.4,5.5,3.4,7,3.4,7s4.9,2.7,1.9,2.7c-6.1,0-13-5.3-14-17.6C207.3,18.7,238.8,7.1,260,7.1c13.5,0,31.5,4.2,32.8,20.4
		c0.5,6.1-2,11.2-5.4,15.1c-3.5,6.6-8.5,13.5-8.5,13.5s11.2-5.8,13-6.8c1.2-0.7,2.2-1.9,3.5-0.8c1.4,1.1,8.1,6,4.3,10.3
		c-0.2,0.2-0.3,0.4-0.5,0.6c-4.3,5.7-19.9,26.4-12.7,26.4V86c2.2,0,12.8-10.8,20.4-21c5.5-9.3,14.7-16.6,20.8-16.6
		c4.7,0,8.1,3.1,10.2,6.6c0.3,0.6-0.3,1.8-4.1,1.8c-14,0-28.3,29.9-20.9,29.9c5,0,14.1-9.9,14.1-9.9s-0.8-2.1-0.8-5.1
		c0-6.8,8.3-9.8,8.3-2.8c0,1.5-1.5,4.2-4.2,7.7c0.3,0.3,1.2,0.6,1.6,0.6c2.2,0,4.3-1.9,6.9-5.2c5-10.5,17.7-23.8,25-23.8
		c4.9,0,8.9,8.8,7.1,8.8c-9.8,0-29.8,28.7-23.7,28.7c2,0,17.8-19.3,16.8-20.9c-1-1.5,6-0.2,6.5,6c0.3,2.7-1.6,7.9-5,14.2
		c4.9-3.1,16.8-14.5,23.2-24.1c-2.3-0.7-4.8-3.1-4.8-10.4c0-13.1,10-22.5,15.8-22.5c3.1,0,5.7,2,5.7,5.5c0,6.8-11.7,22.6-11.7,22.6
		s11.2-5.8,13-6.8c1.2-0.7,2.2-1.9,3.5-0.8c1.4,1.1,8.1,6,4.3,10.3c-0.2,0.2-0.3,0.4-0.5,0.6c-4.3,5.7-19.9,26.4-12.7,26.4V86
		c1.7,0,8.6-6.6,15.1-14.4c6.1-10.5,19.6-23.3,26.7-23.3c5,0,8.2,8.9,6.4,8.9c-9.8,0-32.2,28.6-26.2,28.6c2,0,19.4-19.3,18.6-20.8
		c-0.9-1.5,6-0.3,6,5.9s-7.9,15-5.2,15c2.4,0,12.9-11.4,20.4-21.8c3.9-6,7.6-12.1,7.6-16c0-2.9,6.1,0.3,6.1,8.7c0,4-3.6,9.2-3.6,9.2
		S490.4,48,493.3,48c2.9,0,5.5,4.3,5.5,8.4c0,1.1-0.9,2.9-2.3,5.3c4.1-4.1,14-13.7,16.3-13.7c2.9,0,4.7,4.3,4.7,8.4
		c0,4.1-20.4,30.2-16.6,30.2c3.8,0,17.7-15.1,25.1-26.3c0.1-0.2,0.3-0.4,0.4-0.5c2.9-4.3,6.9-10.6,8.1-15c0.5-2,1.7-6.2,3.2-5
		c1.9,1.5,7.5,5.3,7.5,10.1c0,4.5-3.6,4.5-4,21.8c7.2-1.6,12.5-5,16.7-11.4C559.3,58.5,561.8,59.3,560.1,62.1z"/>
	<path class="st0" d="M523.1,83.4c0,3.7,7.5,3.9,10.3-7.1C533.4,76.3,523.1,78.7,523.1,83.4z"/>
</g>
</svg>
