<?xml version="1.0" encoding="utf-8"?>
<!-- Generator: Adobe Illustrator 19.2.1, SVG Export Plug-In . SVG Version: 6.00 Build 0)  -->
<svg version="1.1" id="Layer_1" xmlns="http://www.w3.org/2000/svg" xmlns:xlink="http://www.w3.org/1999/xlink" x="0px" y="0px"
	 viewBox="0 0 612 129.7" style="enable-background:new 0 0 612 129.7;" xml:space="preserve">
<style type="text/css">
	.st0{fill:#FFFFFF;}
</style>
<g>
	<path class="st0" d="M482.2,71.3c-2.6,0-12.9,16.2-12.9,16.2C479.8,81.3,484.8,71.3,482.2,71.3z"/>
	<path class="st0" d="M540.2,68.3c-3.8,0-21.3,18.7-21.3,27.5c0,0,0.1,0.6,0.6,0.6C524,96.4,545.1,68.3,540.2,68.3z"/>
	<path class="st0" d="M277.2,68.3c-3.8,0-21.3,18.7-21.3,27.5c0,0,0.1,0.6,0.6,0.6C261,96.4,282.1,68.3,277.2,68.3z"/>
	<path class="st0" d="M0,0v129.7h612V0H0z M91.8,103.7c-1.1,0-6.6-1.2-6.6-10.3c0-9.1,12.2-28.8,12.2-28.8
		c-19.2,18.8-32.6,37-32.6,37c0,4-9.3,1.3-9.3-5.9c0-11.2,34.9-47.3,34.9-59.2c0-3.8-4-8.2-11.3-8.2c-24.6,0-51.1,25.6-51.1,42.6
		c0,7.9,7.1,9.8,11.3,9.8c9.8,0,15.2-9.1,15.2-4.2c0,4.9-10.5,7.1-13.6,7.1c-10.1,0-21.7-6.7-21.7-19.7C19.2,46.7,48.1,25,78.7,25
		C86.4,25,97,28.9,97,39.2c0,13.6-30.6,49.6-30.6,53.1c4.1-3.3,33.4-35.9,33.4-35.9c0-5.5,8.2,2.9,8.2,7.4S95.5,87.1,95.5,95.6
		c8.6-7.6,27-28.7,27-46.2c0-8.5-4.5-13.9-7.4-13.9c-2.9,0-4.3-2.7,0.6-2.7c4.9,0,17,6.2,17,20.7C132.6,68.1,92.9,103.7,91.8,103.7z
		 M210.1,96.2c2.3,0,15-12.7,21.9-23c1.1-1.7,3.5-0.9,1.8,1.6c-1.6,2.5-18.9,25.4-26,25.4c-5.8,0-6.7-5.2-6.7-8.9
		c0-1.3,0.6-3.3,1.7-5.9c-5.6,7-12.8,14.8-16.9,14.8c-3.2,0-6.2-4.8-6.2-6.7c0-1.9,1.3-4.7,1.3-4.7s-9.7,11.4-12.6,11.4
		c-2.8,0-7.2-3.5-7.2-9c0-0.3,0-0.7,0.1-1c-4.9,5.4-10,10-13.2,10c-5,0-7.2-6.5-7.2-10.9S152,68.7,152,68.7s-25.5,23-25.5,30.2
		c0,3-6.6-0.2-6.6-5.2c0-7.8,29.7-47.2,29.7-55.8c0-1.5,6,1.6,6,8c0,6.5-19.7,33.6-19.7,33.6s18.3-17.6,21.4-17.6
		c3.2,0,4.2,4.4,4.2,8.1c0,3.8-18.5,26.2-11.3,26.2c1.6,0,7.7-5.9,13.5-12.8c5.5-9.6,18-21.6,24.6-21.6c4.5,0,7.6,8.2,5.9,8.2
		c-9,0-29.5,26.2-24,26.2c1.9,0,17.8-17.6,17-19c-0.8-1.4,5.5-0.2,5.5,5.4s-7.2,13.7-4.8,13.7c2.4,0,14-12.7,20.7-23
		c0.1-0.1,0.2-0.2,0.2-0.3c3.6-6.6,7.8-13.9,11.6-20.7c-2.7,0.2-5.5,0.2-8.6,0.2c-8.6,0-11.7-3.4-12.9-6.5c-0.9-2.7,0.3-3.2,1.6-2.1
		c2.2,1.9,6.1,3.6,11.4,3.6c4.6,0,8.7-0.3,11.4-0.6c3.9-7.2,6.6-13.2,6.6-15.7c0-2.2,7.5,0.5,7.5,8.2c0,1.3-1,3.9-2.7,7.2
		c0.8,0,1.5,0,2.2,0c9.6,0,14,5.2,15.2,9.3c0.8,2.7-1.9,2.4-1.9,2.4c0-2.2-4.9-6.8-13.4-6.8c-1.6,0-3.2,0-4.8,0.1
		C222.7,68.7,204.4,96.2,210.1,96.2z M332.8,74.7c-1.5,2.3-8.9,16.3-15.5,16.3c-1.2,0-2.2-0.5-2.8-1c-0.2,0.3-0.5,0.7-0.8,1
		c0,0-0.4,0.5-1.1,1.2c-3.7,3.9-8.2,7.2-12.5,7.9c-0.1,0.1-0.2,0.1-0.2,0.1c-0.2,0-0.3,0-0.4,0.1c-0.3,0-0.5,0-0.8,0
		c-3.1,0-8.2-1.5-8.2-9.7c0-1.9,0.3-3.8,0.8-5.7c-5.9,7.1-13.8,15.4-18,15.4c-3.6,0-7.1-2.5-7.1-9.9c0,0-7.7,9.9-11,9.9
		c-3.2,0-8.2-2.6-8.2-9.6C247,80,265.5,62,272.9,62c5.5,0,7.1,4.5,7.1,4.5s16.9-26.9,16.9-31.3c0-2.5,6.6-2.2,6.6,7.7
		c0,8.9-33.2,53.3-27.8,53.3c2.1,0,12.7-10.7,19.7-20.4c0.6-0.9,1.1-1.7,1.8-2.5c0,0,0,0,0,0c0,0,0,0,0,0c5-6.6,11.8-11.4,16.6-11.4
		c4.3,0,7.4,2.9,9.3,6.1c0.3,0.5-0.3,1.6-3.8,1.6C306.4,69.5,293.3,97,300,97c4.5,0,12.9-9.1,12.9-9.1s-0.7-1.9-0.7-4.7
		c0-6.2,7.6-9,7.6-2.5c0,1.4-1.4,3.9-3.9,7.1c0.2,0.2,1.1,0.5,1.5,0.5c3.7,0,7.2-5.8,13.5-15.2C332.1,71.4,334.5,72.2,332.8,74.7z
		 M428.7,103.7c-1.1,0-6.6-1.2-6.6-10.3c0-9.1,12.2-28.8,12.2-28.8c-19.2,18.8-32.6,37-32.6,37c0,4-9.3,1.3-9.3-5.9
		c0-11.2,34.9-47.3,34.9-59.2c0-3.8-4-8.2-11.3-8.2c-24.6,0-51.1,25.6-51.1,42.6c0,7.9,7.1,9.8,11.3,9.8c9.8,0,15.2-9.1,15.2-4.2
		c0,4.9-10.5,7.1-13.6,7.1c-10.1,0-21.7-6.7-21.7-19.7c0-17.1,28.8-38.8,59.4-38.8c7.8,0,18.3,3.9,18.3,14.2
		c0,13.6-30.6,49.6-30.6,53.1c4.1-3.3,33.4-35.9,33.4-35.9c0-5.5,8.2,2.9,8.2,7.4s-12.6,23.3-12.6,31.8c8.6-7.6,27-28.7,27-46.2
		c0-8.5-4.5-13.9-7.4-13.9c-2.9,0-4.3-2.7,0.6-2.7c4.9,0,17,6.2,17,20.7C469.4,68.1,429.7,103.7,428.7,103.7z M496.9,74.9
		c-1.6,2.5-20.2,25.3-30,25.3c0,0-7.4-0.1-7.4-9.6c0-13.9,18.4-28.9,23.5-28.9c2,0,5.4,1.4,5.4,8.7s-16.3,20-20.3,20
		c0,0-2.9,5.2,1.2,5.2c5.2,0,19-12,25.8-22.3C496.2,71.6,498.5,72.4,496.9,74.9z M595.7,74.7c-1.5,2.3-8.9,16.3-15.5,16.3
		c-1.2,0-2.2-0.5-2.8-1c-0.2,0.3-0.5,0.7-0.8,1c0,0-0.4,0.5-1.1,1.2c-3.7,3.9-8.2,7.2-12.5,7.9c-0.1,0.1-0.2,0.1-0.2,0.1
		c-0.2,0-0.3,0-0.4,0.1c-0.3,0-0.5,0-0.8,0c-3.1,0-8.2-1.5-8.2-9.7c0-1.9,0.3-3.8,0.8-5.7c-5.9,7.1-13.8,15.4-18,15.4
		c-3.6,0-7.1-2.5-7.1-9.9c0,0-7.7,9.9-11,9.9c-3.2,0-8.2-2.6-8.2-9.6C510,80,528.5,62,535.9,62c5.5,0,7.1,4.5,7.1,4.5
		s16.9-26.9,16.9-31.3c0-2.5,6.6-2.2,6.6,7.7c0,8.9-33.2,53.3-27.8,53.3c2.1,0,12.7-10.7,19.7-20.4c0.6-0.9,1.1-1.7,1.8-2.5
		c0,0,0,0,0,0c0,0,0,0,0,0c5-6.6,11.8-11.4,16.6-11.4c4.3,0,7.4,2.9,9.3,6.1c0.3,0.5-0.3,1.6-3.8,1.6C569.4,69.5,556.3,97,563,97
		c4.5,0,12.9-9.1,12.9-9.1s-0.7-1.9-0.7-4.7c0-6.2,7.6-9,7.6-2.5c0,1.4-1.4,3.9-3.9,7.1c0.2,0.2,1.1,0.5,1.5,0.5
		c3.7,0,7.2-5.8,13.5-15.2C595.1,71.4,597.4,72.2,595.7,74.7z"/>
</g>
</svg>
