<?xml version="1.0" encoding="utf-8"?>
<!-- Generator: Adobe Illustrator 19.2.1, SVG Export Plug-In . SVG Version: 6.00 Build 0)  -->
<svg version="1.1" id="Layer_1" xmlns="http://www.w3.org/2000/svg" xmlns:xlink="http://www.w3.org/1999/xlink" x="0px" y="0px"
	 viewBox="0 0 1302.5 1356.1" style="enable-background:new 0 0 1302.5 1356.1;" xml:space="preserve">
<style type="text/css">
	.st0{fill:#350515;}
	.st1{fill:#F9E8D2;}
</style>
<rect x="-4.9" class="st0" width="1312.3" height="1356.1"/>
<path class="st1" d="M562.6,597.4c-8.9,32.6-17.8,65.2-26.7,97.8c-4.7,17.4-9.4,34.8-14,52.2c-3.3,12.7-10.6,21.7-23.5,25.4
	c-2.9,0.8-5.5,1.3-5.9,5.3c-0.4,4.5,2,5.2,5.6,6.3c6.4,2,8.9,7.1,9.2,13.6c2.9,64.4,6,128.8,8.9,193.3c0.5,11.6-4.1,15.9-15.8,16.1
	c-9.2,0.1-18.5,0.1-27.7,0c-13.3-0.1-17.5-4-16.9-17.2c1.9-44.6,4-89.1,6.1-133.6c0.9-19.1,2-38.3,2.7-57.4
	c0.3-7.4,2.9-12.5,10.2-15.2c6.2-2.3,6.5-8.8,1-13c-19.1-14.5-21.9-22-15.3-45.3c27.7-97.6,49.9-196.8,83.6-292.8
	c6-17.1,16.5-28.3,33.7-33.4c12.4-3.6,25-5.9,39.4-7.9c-5.2,11.3-9.4,21.7-14.6,31.5c-4.8,9-4.4,16.2,0.9,25.5
	c15.6,27.9,29.7,56.7,44.4,85.1c2.1,4.1,3.4,10.4,8.8,10.2c5.1-0.2,6.5-6.4,8.6-10.6c15.8-29.9,31.4-60,47.3-89.8
	c3.2-6,2.2-11.2-0.5-16.8c-5.4-11.2-10.5-22.6-16.5-35.4c18.9,2.8,36.3,4.7,52.3,12.7c10,5,16.7,13.2,20.6,23.5
	c21.1,55.3,42.5,110.5,62.9,166.1c6.4,17.4,4.6,36.4,6.2,54.7c3,33,5.8,66.1,8.1,99.1c1.5,21.3-10.8,36.4-29.8,37.8
	c-18.7,1.4-33-12.6-34.7-33.5c-3.5-44.5-6.8-89-11.3-133.4c-1.5-15.2-9.6-28.8-16.1-45.4c-3.5,23-7.3,43.2-9.4,63.6
	c-1.3,12.5,4.4,24.5,7.6,36.5c24.5,94.2,37.2,190,39.6,287.3c0.2,9.8-2.3,12.8-12,11.9c-11-0.9-22.1,0.1-33.2-0.3
	c-5.7-0.2-7.3,1.6-7.6,7.4c-3.2,59.6-6.8,119.2-10.1,178.8c-1.2,20.9-13.1,34.5-31.1,34.6c-18.7,0.1-31.1-14.6-31.4-36.5
	c-0.7-58.6-1.5-117.3-2.2-175.9c-0.1-4.5,0.8-8.4-6.4-8.5c-7.2-0.1-7.3,3.4-7.4,8.7c-0.6,57.5-1.4,115.1-2.1,172.6
	c-0.1,7-0.3,14-3.1,20.6c-5.4,12.7-19,20.4-32.1,18.4c-14.8-2.2-25.6-12-26.7-26.6c-2.3-28.6-3.6-57.4-5.3-86.1
	c-1.9-32.7-4-65.5-5.4-98.2c-0.3-7.2-2-9.7-9.4-9.3c-12.2,0.6-24.4-0.1-36.5,0.3c-5.4,0.1-7.6-0.7-7.4-7.1
	c1.1-50.2,5.9-100.1,11.9-149.8c6.8-56.5,19.8-111.6,34.1-166.5c3.5-13.5-1.8-26.2-2.6-39.3c-0.2-4-1.3-8-2-12
	C563.6,597.6,563.1,597.5,562.6,597.4z"/>
<path class="st1" d="M657.7,160.3c59.7,0.1,108.9,49.2,108.2,108.2c-0.7,60-49.1,107.9-108.8,107.8
	c-59.7-0.1-107.9-48.6-107.8-108.4C549.3,208,597.5,160.2,657.7,160.3z"/>
<path class="st1" d="M655.8,536.6c-10.4-46.3-20.7-92.7-31.2-139c-1.1-5.1,0.1-7.4,5.7-7.8c17.7-1.4,35.3-1.4,53-0.1
	c6.1,0.4,6.3,3.4,5.3,8c-10.4,46.3-20.8,92.6-31.1,139C656.9,536.7,656.3,536.6,655.8,536.6z"/>
</svg>
