<?xml version="1.0" standalone="no"?>
<!DOCTYPE svg PUBLIC "-//W3C//DTD SVG 1.1//EN" "http://www.w3.org/Graphics/SVG/1.1/DTD/svg11.dtd" >
<svg xmlns="http://www.w3.org/2000/svg" xmlns:xlink="http://www.w3.org/1999/xlink" version="1.1">
<metadata>
Created by FontForge 20161116 at Sat Mar  5 23:53:27 2016
 By Jimmy Wärting
Copyright (c) 2016 by . All rights reserved.
</metadata>
<defs>
<font id="Stonestickfreetester" horiz-adv-x="443" >
  <font-face 
    font-family="Stonestick free tester"
    font-weight="400"
    font-stretch="normal"
    units-per-em="1000"
    panose-1="0 0 0 0 0 0 0 0 0 0"
    ascent="750"
    descent="-250"
    x-height="513"
    cap-height="704"
    bbox="-220.216 -394.798 954 978.364"
    underline-thickness="50"
    underline-position="-100"
    stemh="76"
    stemv="168"
    unicode-range="U+000D-2212"
  />
<missing-glyph horiz-adv-x="300" 
 />
    <glyph glyph-name=".notdef" horiz-adv-x="300" 
 />
    <glyph glyph-name="NULL" horiz-adv-x="0" 
 />
    <glyph glyph-name="NULL" horiz-adv-x="0" 
 />
    <glyph glyph-name="CR" unicode="&#xd;" horiz-adv-x="350" 
 />
    <glyph glyph-name="space" unicode=" " horiz-adv-x="350" 
 />
    <glyph glyph-name="e" unicode="e" horiz-adv-x="357" 
d="M205 31c80 37 135 122 153 190c7 32 23 10 18 -2c1 -36 -49 -121 -73 -152c-34 -50 -119 -124 -152 -124c-146 0 -181 230 -154 341c17 72 97 193 181 193c37 0 70 -17 76 -63c18 -142 -68 -232 -126 -243c-8 -2 -4 -21 -6 -28c0 -48 12 -145 83 -112zM157 431
c-42 -2 -37 -187 -35 -240c68 29 75 94 73 129c-1 12 8 113 -38 111z" />
    <glyph glyph-name="f" unicode="f" horiz-adv-x="310" 
d="M195 -29c-22 49 -29 24 -29 -16c-1 -31 0 -126 8 -156c3 -12 5 -24 8 -35c10 -26 20 -53 30 -80c2 -4 6 -8 11 -13c68 53 7 228 -28 300zM312 228c7 28 22 -2 16 -26c-13 -52 -63 -121 -139 -125c-16 -1 7 -26 26 -72c23 -56 50 -146 57 -197c13 -92 4 -160 -60 -196
c-105 -50 -233 187 -244 345c-8 211 55 620 231 788c14 16 31 28 55 29c4 0 9 1 14 2c21 3 40 -12 43 -25c4 -12 4 -26 2 -38c-15 -64 -62 -111 -101 -170c-4 -35 -35 -245 -36 -262c-2 -22 -10 -102 -10 -126c0 -27 -11 -42 31 -40c56 3 102 60 115 113zM249 723
c-24 -42 -33 -92 -39 -151c22 35 57 69 77 130c19 57 -16 58 -38 21z" />
    <glyph glyph-name="g" unicode="g" horiz-adv-x="461" 
d="M482 219c-9 -37 -15 -56 -26 -92c-14 -42 -27 -98 -53 -131c-12 -16 -4 -17 -7 -36c-7 -48 0 -82 -36 -134c-92 -102 -330 -67 -272 20c2 4 6 6 9 9c13 7 26 14 39 20c31 15 39 19 67 38c8 6 18 13 26 20c4 3 7 7 8 12c5 36 -29 308 -28 358c0 4 -1 10 -3 13
c-7 -11 -54 -216 -60 -231c-41 -29 -139 9 -160 62c-9 34 -7 65 0 115c16 128 140 302 210 347c7 4 16 4 27 0c6 -4 21 -47 30 -48c52 -6 48 -56 51 -100c2 -119 53 -302 70 -398c2 -13 7 -37 20 -19c19 26 29 58 40 89c13 35 21 63 29 94c6 9 22 -2 19 -8zM177 487
c-42 -100 -61 -166 -61 -275c0 -24 13 -61 26 -28c25 87 36 158 47 244c3 29 14 110 -12 59zM145 -169c25 -12 40 -19 61 -7c23 13 25 37 23 65c-31 -22 -52 -36 -84 -58z" />
    <glyph glyph-name="h" unicode="h" horiz-adv-x="478" 
d="M161 206c72 140 120 173 136 183c46 31 86 -27 93 -64c10 -51 0 -230 -2 -259c-4 -61 15 -80 34 -36c25 58 37 117 58 190c7 30 21 6 19 -1c-9 -54 -17 -97 -46 -180c-19 -56 -31 -73 -82 -73c-80 15 -109 74 -109 138c0 85 81 264 39 258c-23 -3 -124 -191 -126 -207
c-24 -61 -35 -131 -31 -192c3 -41 -83 -132 -102 -102c-128 126 1 663 12 704c21 72 81 238 158 218c12 -4 24 -11 35 -19c17 -14 21 -45 11 -67c-15 -31 -33 -60 -54 -85c-3 -4 -23 -30 -39 -49c-5 -49 -23 -208 -22 -257c0 -43 -15 -185 18 -100zM193 638
c19 21 32 47 45 73c6 11 2 24 -3 35c-3 7 -9 9 -16 5c-11 -6 -21 -15 -25 -28c-11 -36 -14 -69 -22 -108c-1 -2 -1 -4 -1 -6c10 14 19 26 22 29z" />
    <glyph glyph-name="i" unicode="i" horiz-adv-x="229" 
d="M112 352c3 -10 8 -39 9 -50c10 -86 -14 -199 -19 -265c-6 -26 4 -45 30 -17c22 24 51 91 76 143c9 18 20 66 34 82c16 -1 5 -45 0 -59c-25 -74 -107 -237 -150 -235c-140 -46 -109 254 -86 332c4 44 85 61 106 69zM165 438l-51 -50c-1 12 -55 82 -57 94c-5 16 2 35 16 39
c20 7 38 5 58 0c14 -4 18 -18 23 -30c6 -16 24 -43 11 -53z" />
    <glyph glyph-name="j" unicode="j" horiz-adv-x="270" 
d="M4 422c22 -3 50 37 68 39c11 1 18 -4 21 -20c22 -106 80 -308 83 -405c1 -19 1 -19 18 0c46 55 71 167 76 190c4 23 28 13 18 -16c-9 -57 -73 -219 -84 -242c-2 -3 -5 -7 -5 -11c-98 -188 -132 -196 -277 -196c-11 -2 -22 0 -32 4c-8 2 -13 8 -12 16c1 13 -1 21 0 34
c5 28 92 89 113 115c13 5 20 48 20 62c-2 78 -9 121 -9 199c0 51 -5 88 -5 208c-4 9 -3 17 7 23zM17 -110c-2 11 -20 -4 -40 -16c-15 -10 -47 -38 -58 -48c-8 -7 -14 -15 -5 -22c34 10 63 25 90 42c17 10 17 29 13 44zM39 653l45 -62c-4 -15 -27 -62 -42 -59
c-10 0 -18 2 -27 4c-6 2 -13 8 -16 16c-9 23 -6 47 -1 69c1 6 6 10 10 12c13 2 24 30 31 20z" />
    <glyph glyph-name="k" unicode="k" horiz-adv-x="440" 
d="M375 93c34 26 52 92 67 132c6 24 18 19 16 -9c-1 -10 -11 -49 -16 -63c-15 -38 -52 -148 -102 -141c-52 4 -80 88 -99 145c-23 65 -26 53 -48 0c-14 -34 -14 -158 -11 -199c5 -67 12 -48 -13 -65c-7 0 -102 -90 -108 -91c-66 -10 -76 73 -76 203c0 56 11 234 17 284
c5 38 50 344 136 437c12 12 25 16 39 6c31 -23 44 -66 30 -111c-17 -58 -64 -115 -64 -179c0 -59 1 -204 12 -255c5 -23 5 -17 12 4c10 26 9 25 20 52c15 38 29 77 45 114c10 22 22 41 35 60c12 19 29 28 46 33c38 12 62 -25 56 -74c-6 -53 -29 -106 -61 -150
c-4 -5 -8 -10 -11 -15c-8 -13 -9 -18 -3 -32c14 -27 23 -44 38 -70c14 -23 18 -35 43 -16zM144 621c-2 -15 -20 -94 -8 -89c13 3 32 50 38 62c9 18 20 48 15 70c0 23 -23 50 -26 42c-4 -12 -18 -73 -19 -85zM237 300c32 -14 54 39 67 61c5 10 9 21 13 31c5 17 -1 31 -13 28
c-5 -2 -9 -5 -13 -11c-23 -29 -45 -72 -54 -109z" />
    <glyph glyph-name="l" unicode="l" horiz-adv-x="315" 
d="M314 219c5 12 20 18 21 6c-10 -79 -73 -355 -121 -390c-15 -11 -48 -20 -64 -18c-34 4 -148 124 -157 156c-58 215 41 570 161 731c10 14 24 22 43 22c95 0 13 -210 -21 -250c-37 -44 -21 -501 -3 -594c4 -20 12 -25 25 -11c39 41 108 316 116 348zM219 700
c-37 -18 -59 -142 -59 -182c0 -12 4 -19 14 -1c13 16 52 155 48 182c-2 0 -3 0 -3 1z" />
    <glyph glyph-name="m" unicode="m" horiz-adv-x="643" 
d="M643 219c13 67 27 22 19 -8c-26 -99 -42 -208 -117 -292c-64 -68 -115 -30 -137 61c-12 38 -11 287 -11 331c0 23 -61 -148 -89 -204c-8 -28 3 -23 -50 -12c-12 3 -19 14 -24 29c-11 28 -12 62 -8 95c4 29 26 106 30 135c8 57 -20 -12 -29 -34
c-38 -102 -52 -228 -96 -326c-5 -7 -8 -13 -13 -17c-4 -5 -9 -6 -13 -8c-6 -4 -13 -5 -20 -7c-62 -23 -108 150 -102 195c-1 60 63 340 75 397c5 23 14 31 26 26c10 -2 19 -5 29 -12c11 -8 16 -28 18 -46c4 -28 0 -296 2 -333c0 -54 15 -18 18 -10c20 60 80 211 105 248
c12 20 53 22 64 2c20 -47 -17 -140 -16 -208c0 -45 9 -29 20 3c24 70 65 177 96 243c28 56 133 -66 137 -87c14 -74 -26 -241 -23 -366c0 -14 5 -18 12 -16c46 13 84 170 97 221z" />
    <glyph glyph-name="n" unicode="n" horiz-adv-x="483" 
d="M239 236c-9 -25 -63 -105 -71 -129c-3 0 4 -219 -30 -237c-12 -14 -23 -19 -38 -13c-20 5 -43 11 -64 22c-31 15 -42 54 -47 102c-8 95 9 291 21 383c7 53 27 143 85 154c14 -3 15 -2 22 -16c20 0 32 -292 40 -324c3 -19 14 -14 19 -3c36 76 45 93 84 145
c20 18 57 -5 68 -23c39 -77 31 -199 40 -247c5 -30 13 -59 38 -21c34 64 59 135 78 196c8 29 28 9 18 -13c-18 -52 -63 -252 -137 -230c-113 37 -99 105 -109 199c-1 17 9 113 -17 55z" />
    <glyph glyph-name="o" unicode="o" 
d="M334 131c-7 -48 -17 -82 -54 -110c-64 -67 -199 -34 -208 -28c-138 67 -68 482 65 526c16 -6 25 -6 9 -30c-6 -4 4 -9 8 -10c7 -3 14 -4 23 -11c113 -39 167 -135 163 -230c-6 -37 29 -70 59 -62c33 8 41 35 47 51c2 3 4 6 5 8c8 -6 14 -8 10 -16
c-11 -64 -50 -85 -91 -82c-41 5 -34 5 -36 -6zM103 365l-5 68c-63 -71 -99 -454 21 -412c29 52 33 143 46 203c3 11 1 18 -5 25c-32 35 -50 70 -57 116zM170 297c0 3 2 6 2 7v6c1 44 -13 118 -50 137c-7 3 -12 1 -11 -10c-2 -45 26 -110 59 -140z" />
    <glyph glyph-name="p" unicode="p" horiz-adv-x="495" 
d="M391 38c52 31 80 105 105 181c3 11 22 23 19 2c-42 -259 -191 -254 -337 -226c-6 1 -9 1 -14 3c-1 -5 -4 -10 -4 -13c3 -28 4 -207 15 -230c4 -24 -19 -76 -41 -82c-166 41 -163 492 -116 718c19 90 61 202 117 225c27 13 36 18 51 -10c24 -63 -24 -117 -42 -165
c1 -59 0 -76 16 -37c9 20 73 102 85 118c19 23 99 28 120 7c45 -30 71 -380 23 -451c-19 -38 -72 -67 3 -40zM252 496c-22 -33 -96 -154 -100 -193c-2 -24 12 -243 9 -272c1 -3 0 -5 0 -7c125 42 142 382 126 479c0 12 -21 12 -35 -7zM152 599c-16 -17 -20 -83 -16 -122
c16 19 24 43 27 64c5 13 6 66 -11 58z" />
    <glyph glyph-name="q" unicode="q" horiz-adv-x="517" 
d="M379 -163c2 6 5 12 6 18c9 34 18 47 29 82c8 28 19 57 30 84c5 13 12 24 20 34c5 7 11 12 19 13c4 -12 3 -17 -1 -26c-9 -12 -15 -26 -19 -39c-11 -35 -21 -70 -29 -106c-7 -23 -47 -198 -55 -209c-3 -8 -6 -13 -12 -16c-9 -4 -66 -25 -76 -29c-62 41 -69 452 -74 530
c-3 42 -15 75 -24 34c-2 -8 -59 -245 -75 -221c-14 4 -87 10 -98 15c-6 1 -11 4 -16 6c-22 7 -35 30 -38 59c-13 142 64 324 150 427c15 18 31 32 47 45c11 9 23 6 34 -3c5 -3 10 -11 17 -19c0 20 37 96 64 99c11 0 53 -25 59 -38c11 -22 46 -15 49 -37c3 -25 2 -50 4 -76
c-1 -17 1 -33 0 -52c0 -55 -18 -498 -17 -536c1 -13 0 -26 6 -39zM196 374c18 114 0 82 -11 58c-39 -87 -68 -177 -86 -254c-22 -101 1 -91 6 -80c36 64 74 174 91 276z" />
    <glyph glyph-name="r" unicode="r" horiz-adv-x="329" 
d="M181 -61c5 -18 42 4 62 42c39 74 45 94 85 232c1 4 2 9 4 14c6 15 17 14 15 -16c-21 -118 -90 -292 -145 -307c-61 -6 -182 81 -175 99c7 57 37 164 50 230c2 23 28 160 6 166c-7 2 -10 3 -18 5c-4 1 -36 -167 -49 -201c-6 -16 -12 -9 -14 -8c-17 11 52 198 19 220
c-10 10 -20 14 -26 29c-5 11 4 43 9 54s11 22 17 32c12 22 43 18 58 5c3 -3 6 -7 6 -10c2 -13 3 -26 0 -39c-5 -13 -7 -39 -11 -53c0 -7 2 -10 8 -11c50 -22 105 -84 116 -128c19 -133 8 -244 -17 -355zM40 459c9 19 20 38 14 63c-16 -20 -19 -41 -14 -63z" />
    <glyph glyph-name="s" unicode="s" horiz-adv-x="273" 
d="M169 84c64 40 92 96 104 135c4 9 3 10 11 14c4 1 7 0 8 -1c2 -3 3 -7 3 -10c-18 -83 -75 -127 -115 -157c-20 -15 -5 -20 2 -57c11 -34 3 -152 -48 -189c-55 -30 -192 -38 -173 52c7 34 71 124 72 128c-4 56 -72 226 -34 350c23 70 83 162 152 193c23 -15 58 -49 46 -72
c-20 -32 -91 -121 -112 -137c-37 -28 6 -114 36 -187c8 -19 30 -70 48 -62zM29 -46c-31 -33 -49 -62 -55 -101c28 0 45 2 47 16c5 29 13 56 8 85zM58 351c26 26 98 102 109 144c-16 5 -28 -9 -41 -25c-14 -17 -71 -92 -68 -119z" />
    <glyph glyph-name="t" unicode="t" horiz-adv-x="292" 
d="M42 535c-14 -1 -49 -11 -62 -13c-2 9 -2 15 -4 22c-1 21 53 40 69 43c9 1 25 19 25 26c34 95 76 240 157 241c15 -3 19 -2 26 -14c6 -22 -14 -124 -27 -161c-8 -26 -13 -47 -17 -68c39 4 108 32 148 27c-4 -4 8 -10 5 -12c0 -2 -4 -2 -7 -6c-22 -26 -141 -36 -171 -55
c-20 -165 -35 -710 -3 -709c39 8 88 301 111 368c10 33 25 2 21 -5c-32 -136 -85 -427 -159 -415c-94 15 -169 116 -173 194c-11 221 44 426 61 537zM233 808c-1 2 -5 3 -7 4c-10 -17 -60 -185 -38 -198c11 41 49 148 45 194z" />
    <glyph glyph-name="u" unicode="u" horiz-adv-x="453" 
d="M128 25c11 -50 91 29 108 73c16 45 33 210 43 260c2 44 86 55 78 23c-2 -7 -7 -159 -8 -178c-6 -52 -19 -171 -11 -223c2 -7 15 -14 20 -11c30 20 92 235 95 257c5 14 5 9 13 12c1 -2 12 2 10 -15c-43 -141 -87 -353 -178 -295c-72 46 -26 212 -54 147
c-38 -63 -71 -81 -105 -89c-45 -13 -91 25 -123 61c-38 108 -33 358 7 466c20 -7 106 -53 112 -79c0 -5 2 -6 1 -10c-4 -108 -9 -293 -8 -399z" />
    <glyph glyph-name="v" unicode="v" horiz-adv-x="387" 
d="M365 194c8 1 20 14 23 28c7 17 26 14 18 -11c-4 -14 -17 -37 -35 -39c-55 -5 -79 63 -93 108c-7 22 -13 44 -18 5c-14 -105 -34 -337 -36 -331c2 -13 -1 -20 -10 -22c-16 -4 -100 -55 -115 -59c-1 -2 -3 -2 -4 -2c-81 -8 -93 281 -97 327c-7 100 -2 199 -2 300
c0 7 0 15 1 23c5 1 12 1 15 4c25 25 97 -49 106 -83c8 -29 27 -328 43 -364c15 -24 14 18 16 1c0 -1 13 66 14 64c12 64 32 134 50 191c10 35 8 23 20 58c0 2 1 3 0 5c-4 12 4 22 8 33c3 12 24 -3 23 -12c-11 -82 12 -232 73 -224z" />
    <glyph glyph-name="w" unicode="w" horiz-adv-x="577" 
d="M577 219c10 22 24 10 20 -8c-8 -34 -43 -67 -75 -60c-48 10 -54 53 -55 -44c-1 -71 -17 -147 -40 -204c-3 -7 -6 -12 -9 -13c-18 -10 -81 -45 -98 -39c-67 25 -100 142 -109 231c-3 7 -3 27 -9 9c-11 -36 -24 -73 -32 -109c-4 -20 -14 -31 -24 -47c-3 -6 -31 -19 -35 -19
c-63 -4 -121 56 -134 152c-5 79 50 481 121 474c26 0 42 -22 35 -52c-17 -64 -16 -475 -16 -504c0 -11 17 -62 35 6c16 61 27 105 42 192c17 111 13 60 30 164c2 16 8 22 12 41c14 20 136 -47 139 -83c3 -27 8 -58 4 -87c-6 -67 5 -194 18 -264c4 -21 13 -25 20 -10
c43 70 33 282 22 364c-2 17 -18 84 -26 96c-10 21 1 93 17 104c3 1 5 3 7 1c11 -5 21 -11 33 -20c10 -8 13 -23 14 -38c3 -49 -4 -70 -4 -134c0 -39 7 -151 59 -140c8 2 33 14 38 41z" />
    <glyph glyph-name="x" unicode="x" horiz-adv-x="410" 
d="M367 36c14 56 34 134 45 183c9 37 25 26 21 0c-14 -67 -53 -189 -35 -233c-10 -49 -109 -61 -157 -72c-24 1 -74 141 -84 162c-7 12 -10 6 -14 -6c-10 -22 -53 -122 -62 -146c-3 -3 -3 -9 -2 -13c2 -15 -1 -26 -7 -29c-7 -5 -21 0 -26 9c-6 9 -17 22 -21 34
c-2 4 1 12 4 15c21 42 66 156 84 198c6 15 4 31 -1 48c-8 25 -53 176 -71 96c-9 -41 -21 -77 -23 -82c-7 -18 -19 -10 -21 -4c-3 7 28 99 29 155c1 22 1 37 0 39c-9 21 61 26 85 23c30 -11 81 -82 96 -115c15 -27 12 -33 27 -12c10 26 82 199 91 226c4 11 15 16 21 22
c4 3 20 -2 23 -8c4 -4 4 -17 -1 -26c-3 -8 -7 -18 -11 -27c-11 -28 -79 -199 -91 -227c-2 -3 -3 -8 -3 -11c-9 -17 -7 -32 0 -48c24 -53 62 -141 89 -160c2 -2 12 -5 15 9z" />
    <glyph glyph-name="y" unicode="y" horiz-adv-x="464" 
d="M463 219c8 24 19 20 19 0c-11 -79 -62 -158 -120 -220c-14 -16 -27 -38 -37 -54c-19 -39 -61 -163 -153 -163c-68 0 -163 62 -204 89c-14 9 -5 14 5 19c9 15 8 14 23 10c58 -19 119 10 170 37c6 2 12 8 14 17c13 59 18 133 25 167c18 93 -16 17 -42 -20
c-88 -126 -169 61 -175 111c-2 100 50 200 81 236c5 5 32 17 38 14c20 -13 -18 -108 -18 -243c0 -199 43 -118 60 -87c32 66 71 130 81 205c6 43 18 191 32 181c50 -18 133 -79 140 -100c16 -48 -30 -271 -48 -342c-7 -26 11 -31 31 -3c47 67 59 90 78 146zM173 -97
c3 0 -53 -30 -101 -30s-84 8 -84 8s60 -31 106 -50s43 -14 55 -7s21 79 24 79z" />
    <glyph glyph-name="z" unicode="z" horiz-adv-x="440" 
d="M331 60c65 53 100 133 108 161c7 23 31 18 22 -2c-23 -81 -74 -156 -138 -202c-6 -6 -8 -14 -7 -23c1 -7 2 -15 3 -22c9 -81 -63 -182 -114 -220c-24 -19 -107 -23 -129 -13c-7 4 -11 8 -11 16c2 85 54 158 114 209c16 13 16 22 9 41c-2 5 -5 9 -7 13
c-9 1 -12 -6 -17 -10c-14 -13 -29 -25 -50 -26c-7 0 -13 1 -19 6c-8 6 -17 12 -26 18c-11 7 -13 14 -8 26c37 72 218 433 168 484c-20 0 -72 -91 -93 -133c-28 -55 -55 -101 -85 -146c-15 -21 -43 -54 -68 -18c-11 15 -23 47 -25 64c-5 40 68 57 68 11c0 -13 6 -30 20 -12
c19 24 51 81 71 114c61 100 98 201 196 111c73 -45 -31 -348 -45 -402c-3 -8 -1 -12 6 -14c28 -2 29 -66 57 -31zM190 -46c-39 -46 -112 -124 -109 -199c3 -1 13 -1 14 0c73 37 88 125 95 199z" />
    <glyph glyph-name="d" unicode="d" horiz-adv-x="517" 
d="M516 223c8 29 29 39 19 -16c-8 -44 -45 -215 -67 -285c-21 -68 -51 -116 -80 -107c-51 16 -133 34 -155 118c-20 76 -7 193 -6 220c-1 32 -13 -16 -16 -28c-1 -6 -56 -133 -82 -133c-42 1 -123 41 -144 81c-42 199 124 368 192 377c42 6 89 -37 93 -23
c28 101 96 346 185 343c33 -1 36 -32 27 -70c-9 -36 -24 -70 -50 -95c-64 -69 -53 -506 -42 -622c8 -87 24 -92 56 -9c17 44 60 214 70 249zM421 633c-2 -2 0 -3 0 -6c3 2 5 3 7 6c14 16 26 35 33 55c4 11 4 24 5 35c2 7 -2 11 -7 13c-6 2 -8 -4 -10 -9c0 -1 -1 -2 -1 -3
c-9 -30 -19 -61 -27 -91zM252 370c5 17 4 33 -11 30c-42 -7 -86 -152 -118 -308c2 -27 9 -31 24 1c59 109 82 183 105 277z" />
    <glyph glyph-name="A" unicode="A" horiz-adv-x="639" 
d="M208 123c-13 -3 -18 -10 -19 -18c-9 -70 -75 -347 -116 -320c-42 28 -52 35 -91 65c-44 34 5 3 7 41c34 164 91 859 316 859c29 0 108 -26 137 -32c6 -3 15 -7 15 -16s-6 -16 -15 -21c-3 -2 -9 -3 -13 -3c-6 -9 -5 -17 -5 -27c25 -95 38 -286 45 -367
c-1 -14 4 -18 16 -15c32 7 54 18 78 30c12 7 20 3 19 -9c-1 -19 -4 -34 -25 -45s-40 -19 -63 -30c-15 -7 -12 -5 -10 -20c12 -128 26 -254 55 -371c-15 -31 -44 7 -71 14c-10 4 -16 10 -20 21c-24 75 -27 282 -32 318c7 25 -188 -45 -208 -54zM403 647
c-79 -5 -172 -362 -182 -398c-3 -10 -7 -35 -9 -43c0 -17 9 -8 17 -6c33 9 140 27 173 44c10 3 9 17 8 23c-6 55 -19 316 -7 380z" />
    <glyph glyph-name="B" unicode="B" horiz-adv-x="603" 
d="M108 -111c-1 -3 -8 -68 -15 -69c-3 -17 -92 26 -99 78c-33 190 64 710 48 857c1 8 -1 16 -2 25c1 6 7 8 15 8c14 -2 12 -2 27 -12c6 -3 12 -3 17 -4c63 40 55 -177 53 -206c2 -30 9 -11 20 7c30 58 115 125 138 142c77 62 185 -116 153 -169c1 -34 -98 -203 -108 -219
c-4 -5 -9 -21 18 -18c321 97 102 -434 -138 -438c-48 5 -89 21 -99 30c-11 12 -24 -2 -28 -12zM180 38c82 19 249 103 234 199c-2 13 -5 18 -18 13c-38 2 -180 -76 -249 -69c1 -15 -3 -75 -11 -129c-5 -33 7 -23 44 -14zM143 290c4 3 5 1 6 3c79 105 208 249 218 370
c2 14 -8 17 -19 13c-41 -36 -152 -128 -195 -206c-3 -12 -4 -166 -10 -180z" />
    <glyph glyph-name="C" unicode="C" horiz-adv-x="558" 
d="M251 757c33 25 173 -28 205 -60c70 -10 -121 -288 -172 -264c-10 -3 -43 -3 -53 2c-11 3 -13 2 -17 -10c-26 -104 -10 -418 76 -500c8 -6 12 -6 18 3c61 10 83 215 52 264c-13 70 118 12 110 -25c1 -85 -74 -268 -132 -280c-3 -2 -6 -5 -8 -8c-49 -48 -105 -54 -166 -36
c-267 136 -178 721 87 914zM222 457c3 0 4 0 5 -1c50 3 262 257 59 215c-16 -23 -62 -187 -64 -206v-8z" />
    <glyph glyph-name="D" unicode="D" horiz-adv-x="589" 
d="M133 -182c48 97 98 -28 209 46c181 83 282 815 -28 888c-46 11 -161 -61 -199 -94c-25 -21 -19 -33 -37 8c-42 83 -33 82 -59 86c-72 -4 0 -15 -2 -89c2 -56 -27 -642 -27 -730c-1 -17 6 -26 24 -32c24 -20 69 -75 119 -83zM165 -100c26 107 -14 538 -61 670
c303 241 373 -677 61 -670z" />
    <glyph glyph-name="E" unicode="E" horiz-adv-x="531" 
d="M245 629c-44 -24 -65 -178 -50 -263c2 -12 5 -12 14 -5c43 36 257 -11 230 -35c-1 -2 -3 -3 -4 -3c-139 -32 -435 -465 -259 -408c32 15 219 168 238 213c18 12 63 12 65 -17c1 -1 0 -2 1 -2c-5 -92 -127 -258 -231 -263c-244 -16 -388 278 -145 448c11 15 10 20 -3 29
c-3 3 -8 6 -10 7c-137 127 -29 435 156 435c100 0 198 -59 198 -168c0 -80 -83 -128 -99 -144c-7 -5 -17 -8 -26 -11c-6 -1 -12 3 -14 7c-5 4 -1 10 2 13c29 42 49 79 49 127c0 36 -95 63 -112 40z" />
    <glyph glyph-name="F" unicode="F" horiz-adv-x="570" 
d="M520 417c3 -6 5 -10 8 -11c-1 -5 9 -26 8 -30c-2 0 -5 0 -8 -1c-19 -5 -217 -43 -236 -49c-14 -4 -28 -8 -41 -13c-5 -2 -8 -6 -8 -12v-20c2 -77 -14 -345 -21 -447c0 -7 1 -14 1 -21c0 -11 -3 -13 -12 -8c-14 7 -26 -13 -46 -2c-67 52 -116 384 -118 476
c0 15 -45 17 -57 24c-7 4 -13 12 -10 25c3 0 5 2 8 2c13 0 58 11 57 27c0 53 -6 108 0 161v2c2 25 2 25 -18 33c-24 12 -74 77 -76 94c-2 5 -3 10 -3 15c-1 18 4 18 15 15c13 -4 26 -6 38 -6c47 0 460 80 566 76c14 -3 29 -4 43 -6c10 -1 12 -7 11 -18c-2 -10 -3 -19 -4 -29
c0 -15 -5 -23 -17 -28c-19 -6 -305 -100 -337 -111c-4 -2 -8 -3 -11 -5c-4 -3 -6 -6 -5 -11c2 -14 -10 -143 -9 -144c0 -2 169 28 212 28c19 0 39 1 60 1c4 0 8 -1 10 -7z" />
    <glyph glyph-name="G" unicode="G" horiz-adv-x="669" 
d="M637 323c0 -10 -5 -14 -9 -18c-13 -6 -27 -12 -40 -17c-23 -9 -3 0 -25 -9c-11 -4 -12 -9 -8 -20c22 -55 9 -247 -27 -287c-13 -7 -235 -147 -267 -138c-110 3 -223 147 -246 260c-61 301 150 615 238 671c9 4 227 -65 233 -70c72 -54 94 -218 -14 -260
c-12 -5 -61 0 -72 8c-11 7 8 48 19 130c18 131 -130 134 -140 124c-140 -147 -62 -620 -23 -707c7 -12 16 -32 34 -32c67 0 189 281 155 277c-56 -35 -62 24 -69 49c56 6 124 28 172 43c14 5 28 7 43 5c15 -3 31 -7 46 -9z" />
    <glyph glyph-name="H" unicode="H" horiz-adv-x="625" 
d="M-20 232c20 1 27 50 26 71c-2 135 49 330 37 361c2 7 2 11 3 19c10 3 16 -4 19 -9c9 -5 14 -10 21 -15c6 -5 11 -8 11 -15c22 -56 35 -337 31 -362c0 -4 0 -7 -1 -9c2 -18 2 -19 22 -17c23 3 119 12 143 13c17 1 19 3 21 19c8 68 45 386 49 416c1 9 -2 17 -8 25
c-5 6 -10 13 -6 23c1 11 6 14 17 8c10 -2 17 -6 24 -10c175 -95 153 -252 133 -432c-3 -17 -4 -37 -4 -56c24 -5 49 -8 60 -33c-20 -12 -23 -20 -42 -24c-13 -3 -19 -8 -20 -21c-1 -8 0 -17 -1 -26c0 -72 9 -226 11 -298c-9 -47 -72 -71 -75 -128c-5 3 -8 4 -14 5
c-5 -8 -9 -16 -12 -24c-7 -4 -10 2 -17 7c-5 5 -12 10 -20 11c-5 0 -10 5 -13 8c-65 41 -70 393 -72 433c0 15 -1 17 -16 15c-21 -1 -118 -9 -138 -11c-16 -1 -17 -5 -16 -20c0 -40 -11 -167 -14 -208c-3 -19 -2 -37 -6 -55c-7 -15 -19 -26 -24 -38c-4 -6 -9 -6 -14 -2
c-4 4 -8 6 -12 11c-14 13 -33 20 -47 30s-26 22 -36 34c-3 2 -3 11 -3 18c4 35 13 160 16 195c1 10 3 22 5 31c0 8 -2 14 -8 19c-19 13 -19 13 -10 41z" />
    <glyph glyph-name="I" unicode="I" horiz-adv-x="343" 
d="M221 -56c10 -4 63 -7 62 -23c5 -6 3 -14 -4 -15c-44 -3 -219 -40 -242 -43c-11 -2 -20 7 -24 20c-1 5 -13 44 -16 49c2 7 6 7 11 8c8 0 15 1 25 3c19 1 18 6 12 19c-12 22 -13 91 -11 118c-6 126 57 510 66 548c3 10 0 16 -7 22c-19 10 -40 22 -47 42c-2 9 0 11 9 12
c29 4 214 14 241 -12c6 -7 8 -18 10 -28c3 -7 -11 -20 -18 -18c-13 0 -29 -2 -42 -4c-35 -9 -46 -4 -38 -40c12 -43 12 -596 -6 -635c-20 -30 -5 -18 19 -23z" />
    <glyph glyph-name="J" unicode="J" horiz-adv-x="356" 
d="M99 636c-33 -1 -56 16 -74 41c7 8 17 9 25 9c37 3 73 5 110 2c30 -3 61 -4 92 -6c5 0 10 0 14 -1c15 -2 19 -13 21 -25c1 -7 -4 -12 -11 -12c-19 -1 -39 -1 -59 -2c-7 0 -13 -1 -21 -2c1 -9 5 -15 10 -18c39 -27 75 -517 74 -556c0 -46 -5 -86 -35 -125
c-13 -25 -109 -97 -199 -125c-76 -9 -210 41 -217 51c-6 7 -8 14 -4 22c2 3 3 6 6 9c53 1 151 -33 178 44c46 34 93 651 91 676c1 6 -1 11 -1 18z" />
    <glyph glyph-name="K" unicode="K" horiz-adv-x="607" 
d="M204 376c22 15 283 204 291 258c12 5 22 -1 28 -10c36 -99 -211 -307 -250 -394c-9 -14 -9 -16 1 -27c73 -64 225 -164 273 -224c4 -5 6 -14 12 -18c17 -20 -11 -12 -5 -37c1 -3 -77 -84 -77 -87c-54 91 -246 257 -270 284c-18 -22 -34 -26 -30 -48
c-20 -145 30 -237 -89 -289c-5 -1 -10 -1 -13 -1c-35 3 -39 17 -67 36c-41 10 14 891 6 914c0 5 1 11 4 13c2 3 8 2 13 -1c20 -8 8 17 28 9c100 -32 98 -276 107 -358c0 -29 2 -49 38 -20z" />
    <glyph glyph-name="L" unicode="L" horiz-adv-x="361" 
d="M177 -122c60 5 303 25 353 22c9 -2 20 -17 19 -26c0 -2 -1 -5 -2 -6c-8 -6 -16 -17 -30 -13c-31 11 -450 -138 -461 -121c-10 0 -47 75 -48 84c2 19 0 735 15 794c-1 12 1 16 12 19c23 7 107 126 129 124c9 0 17 -1 25 -3c52 -60 -51 -670 -42 -837c2 -42 -1 -37 30 -37z
" />
    <glyph glyph-name="M" unicode="M" horiz-adv-x="777" 
d="M587 -132c-59 55 -64 274 -69 536c-13 75 -18 49 -25 23c-14 -35 -89 -493 -86 -569c-9 -35 -58 -40 -147 -46c-63 140 -125 389 -156 534c-32 154 -49 16 -42 -27c6 -33 -13 -401 8 -459c-12 5 -54 -52 -56 -41c-18 7 -18 857 -1 879c4 13 15 20 28 21
c52 2 94 21 134 -69c-3 -38 146 -533 162 -545c12 -19 30 -32 34 -3c-13 60 33 560 121 597c43 -23 248 -64 201 -154c-25 60 24 -369 -34 -608c-40 -30 -33 -105 -72 -69z" />
    <glyph glyph-name="N" unicode="N" horiz-adv-x="544" 
d="M379 219c-12 113 -45 439 -49 493c16 37 76 23 114 -2c46 -32 10 -557 8 -706c0 -19 -22 -25 -34 -37c-2 -3 -131 -63 -133 -64c-56 3 -142 316 -170 374c-34 71 -28 -30 -27 -58c4 -96 17 -247 43 -316c4 -15 -14 -35 -28 -46c-19 18 -57 26 -79 37c-8 3 -13 10 -16 22
c-28 54 -2 726 0 753c0 10 93 44 86 47c43 -13 225 -436 256 -495c10 -29 27 -17 29 -2z" />
    <glyph glyph-name="O" unicode="O" horiz-adv-x="549" 
d="M319 -152c-46 -16 -176 85 -241 65c-116 76 -75 376 -38 480c2 3 3 8 5 11c8 21 8 23 -15 34c-21 13 -31 32 -31 53c27 96 221 370 360 205c132 -95 206 -697 -40 -848zM256 648c0 13 -19 45 -38 43c-42 -6 -46 -233 -54 -267c-106 3 -34 -379 3 -430
c11 -19 72 -19 83 -6c15 29 39 115 6 660z" />
    <glyph glyph-name="P" unicode="P" horiz-adv-x="556" 
d="M-49 766c6 57 168 -60 178 -169c18 51 66 132 158 157c332 89 172 -613 91 -620c1 -3 4 -7 5 -14c-25 4 -97 -41 -167 -27c-23 -1 -49 22 -49 12c0 -53 7 -300 17 -313c-418 -192 -45 736 -233 974zM325 615c-27 78 -179 -9 -179 -92c0 -60 3 -261 19 -318
c161 -148 197 301 160 410z" />
    <glyph glyph-name="Q" unicode="Q" horiz-adv-x="683" 
d="M269 707c12 5 24 3 33 -5c18 -18 39 -24 62 -28c302 7 119 -640 194 -722c32 -34 64 -68 96 -99c13 -12 21 -28 29 -45c-5 2 -10 4 -16 6s-13 2 -21 -3c-11 -8 -24 -3 -33 6c-40 34 -79 77 -109 95c-7 8 -8 7 -15 -4c-25 -15 -42 -59 -57 -69c-9 -7 -20 -12 -29 -14
c-32 -6 -209 -1 -240 -5c-23 -4 -23 -10 -46 -2c-23 9 -30 27 -47 41c-201 281 33 804 199 848zM209 154c10 -9 9 -22 9 -33c6 -52 4 -99 40 -137c5 -45 198 13 166 30c-18 20 -32 44 -43 72c-2 3 -3 11 -1 12c2 4 8 6 12 5c25 -12 47 -31 69 -47c8 -7 11 -6 18 6
c4 9 7 19 11 27c0 22 -4 537 -128 546c-11 6 -20 -1 -20 -16c-1 -16 -1 -31 -5 -47c-30 -53 -134 -347 -116 -393c-1 -10 -1 -21 -12 -25z" />
    <glyph glyph-name="R" unicode="R" horiz-adv-x="684" 
d="M429 219c190 -293 281 -341 290 -322c-18 -43 -88 -84 -156 -66c-49 13 -231 200 -304 261c-34 29 -57 66 -57 30c0 -72 -58 -365 -123 -375c-7 -1 -13 1 -21 1c-3 -6 -4 -11 -5 -17c-45 8 -38 126 -42 174c-18 103 -1 799 13 845c-1 11 3 13 12 11c20 -2 68 -30 101 -82
c19 -26 58 -189 62 -160c30 90 201 219 277 187c173 -74 103 -395 -45 -464c-13 -6 -10 -11 -2 -23zM202 338c-1 -29 -3 -160 18 -143c49 24 204 150 178 369c-10 83 -190 -29 -196 -226z" />
    <glyph glyph-name="S" unicode="S" horiz-adv-x="596" 
d="M111 67c-75 -102 139 -186 190 -161c13 6 23 22 18 34c8 88 -306 278 -306 457c0 218 236 408 347 359c5 0 12 -3 17 -5c21 -9 43 -18 62 -28c121 -32 -17 -349 -105 -364c-38 -4 -64 20 -58 37c65 35 191 180 136 288c-6 13 -17 19 -35 17c-124 -28 -195 -182 -193 -266
c3 -125 343 -247 343 -420c0 -135 -161 -248 -299 -223c-213 39 -330 301 -107 350c3 9 30 -65 -10 -75z" />
    <glyph glyph-name="T" unicode="T" horiz-adv-x="376" 
d="M51 -207c-12 13 -19 99 -23 118c-1 140 23 674 38 799c0 1 -1 1 -1 1c-45 6 -240 27 -264 26c-5 7 -15 14 -21 25c-3 6 26 29 38 31c97 6 444 -28 514 -37c15 -2 32 -9 44 -27c2 -5 1 -6 3 -16c-29 -13 -18 -11 -46 -11c-49 2 -68 6 -122 6c79 -68 52 -311 59 -399
c-6 -191 -55 -407 -58 -397c-39 -49 -102 -113 -161 -119z" />
    <glyph glyph-name="U" unicode="U" horiz-adv-x="619" 
d="M409 -10c30 52 22 632 12 677c-3 3 -5 6 -6 12c-12 -2 -77 -2 -88 20c-5 9 -11 19 -10 32c15 -5 217 34 238 1c11 -6 20 -30 14 -43c-3 -4 -7 -9 -10 -10c-12 -1 -25 -3 -37 -2c-13 2 -15 1 -12 -21c-7 -6 12 -277 10 -437c-2 -164 -24 -217 -36 -258
c-16 -58 -88 -120 -137 -120c-92 0 -248 116 -284 152c-69 71 -63 288 -61 328c8 151 24 261 83 332c8 10 -41 13 -52 9c-19 -7 4 30 15 37c45 30 162 28 186 -29c49 -110 -13 -687 25 -729c92 -97 144 38 150 49z" />
    <glyph glyph-name="V" unicode="V" horiz-adv-x="531" 
d="M283 -35c18 57 95 413 106 469c2 10 0 19 -9 24c-104 54 -92 221 -49 262c56 58 164 -69 167 -121c-2 -26 -8 -58 -15 -95c-2 -11 65 11 62 0c-1 -6 -3 -12 -4 -18c-4 -17 -73 -51 -77 -68c-48 -194 -117 -495 -157 -540c-3 -2 -6 -6 -10 -7c-37 -19 -79 -54 -122 -53
c-170 7 -196 771 -188 778c10 9 132 124 146 126c150 36 62 -709 115 -799c13 -20 33 36 35 42zM377 498c6 -5 14 -7 21 -2c10 20 4 46 6 67c0 212 -120 -7 -27 -65z" />
    <glyph glyph-name="W" unicode="W" horiz-adv-x="737" 
d="M326 119c-14 -19 -81 -234 -89 -255c-5 -31 -96 -82 -117 -58c-92 41 -114 155 -116 233c-18 214 33 426 61 627c3 22 2 23 19 25c38 4 67 -28 101 -43c52 -47 79 -193 69 -234c-24 -168 -44 -311 -50 -439c-3 -30 17 -27 30 -7c53 113 104 312 115 382
c-8 23 165 51 176 53c8 0 14 -5 11 -19c-17 -51 -10 -349 -5 -374c2 -34 16 -22 22 1c74 188 72 428 -17 636c-50 90 83 55 90 27c3 -2 3 -8 8 -10c6 -4 9 -9 9 -19c73 -74 2 -569 -12 -641c42 -91 -260 -218 -266 -145c-10 36 -6 229 -18 268c-2 35 -11 14 -21 -8z" />
    <glyph glyph-name="X" unicode="X" horiz-adv-x="464" 
d="M223 525l142 181c3 -2 8 -8 7 -11c0 -11 0 -22 -5 -29c-25 -56 -58 -143 -67 -208c-19 -60 132 -544 135 -497c0 -18 -8 -30 -20 -39c-28 -19 -56 -29 -89 -24c-44 5 -82 23 -113 64c-13 19 -24 37 -36 57c-11 20 -14 31 -24 0c-6 0 -97 -235 -169 -158
c-6 2 -12 14 -17 20c-4 5 -9 10 -13 15c-8 11 -17 21 -24 33c-5 8 0 26 10 31c60 38 157 201 164 250c7 14 8 27 3 41c0 88 -114 398 -101 410c4 6 9 13 15 13c41 22 180 -41 202 -149z" />
    <glyph glyph-name="Y" unicode="Y" horiz-adv-x="486" 
d="M194 345c-221 362 -232 384 -232 403c-88 55 204 44 317 -235c5 -8 10 -7 15 2c4 8 9 18 13 27c9 28 89 158 106 169c4 6 10 12 16 19c2 -5 4 -7 6 -11c6 -18 6 -38 4 -56c-5 -24 -9 -47 -10 -73c0 -5 -3 -10 -5 -15c-38 -96 -98 -607 -90 -674c-1 -10 0 -21 0 -33
c-25 -17 -147 11 -175 34c-4 4 -9 9 -13 11c-13 9 -17 23 -21 39c-13 91 51 330 74 366c7 17 7 17 -5 27z" />
    <glyph glyph-name="Z" unicode="Z" horiz-adv-x="474" 
d="M396 -91c-9 0 -17 2 -26 -5c-3 -3 -7 -2 -10 -2c-85 14 -192 34 -310 -2c-56 -19 -128 64 -117 100c6 21 8 22 26 30c21 10 45 21 67 39c119 115 256 343 331 482c3 6 6 12 9 20c-10 -1 -149 -37 -154 -39c-173 -50 -214 85 -221 158c-1 10 2 19 7 28c1 0 4 0 7 -2
c54 -24 381 87 398 59c3 -1 7 -2 10 -5c63 -37 42 -117 58 -150c-4 -21 -10 -37 -25 -49c-54 -97 -175 -382 -245 -459c-1 -1 -2 -5 -5 -9c5 -2 7 -4 12 -5c51 -8 91 -8 133 -34c12 -5 21 -15 27 -25c10 -16 19 -34 29 -52c3 -7 6 -16 -1 -28c-3 -6 -1 -12 0 -18
c4 -9 4 -19 0 -32z" />
    <glyph glyph-name="zero" unicode="0" horiz-adv-x="486" 
d="M247 739c7 -6 94 -25 99 -29c32 -14 32 16 41 -24c10 -49 13 -98 18 -149c8 -113 -10 -617 -166 -614c-24 -2 -172 73 -197 89c-61 96 -74 652 70 705c29 9 56 14 94 -9c32 -17 14 28 41 31zM214 608c-10 41 0 32 -39 45c-119 20 -115 -387 -107 -458
c11 -92 60 -170 86 -183c14 -5 24 0 34 11c57 110 39 499 26 585z" />
    <glyph glyph-name="one" unicode="1" horiz-adv-x="392" 
d="M185 776c2 -4 32 6 36 -14c1 -4 8 -36 1 -63c56 -47 72 -127 68 -210c3 -36 -38 -437 -42 -466c-6 -41 -18 -43 -57 -53c-30 -4 -50 -52 -57 -24c-16 26 -16 253 -10 448c-35 -64 -52 -119 -94 -101c-14 6 -20 89 -42 104c-18 12 86 113 136 198s59 185 61 181z" />
    <glyph glyph-name="two" unicode="2" horiz-adv-x="519" 
d="M98 674c59 46 144 74 210 49c21 -9 23 -31 41 -42c30 -17 88 -34 98 -65c49 -177 -259 -380 -328 -474c-52 -64 162 -54 306 -96c1 0 -5 -4 -7 -9c-3 -2 -8 -49 -11 -55c-23 -12 -340 -44 -342 -44c-24 -2 -58 106 -75 162c-4 14 21 23 25 25c0 7 0 12 1 18
c62 178 268 315 272 469c0 16 -8 27 -18 24c-51 -27 -173 -203 -195 -261c-10 -21 -66 80 -71 104c-14 61 30 143 94 195z" />
    <glyph glyph-name="three" unicode="3" horiz-adv-x="517" 
d="M318 374c115 -45 180 -196 76 -326c-219 -214 -393 -3 -396 54c-9 39 8 110 56 103c7 1 14 -6 12 -11c-17 -109 201 -216 266 -140c56 66 -64 255 -133 259c-8 0 -38 -28 -45 -25c-1 -3 -16 -25 -82 39c44 43 189 163 193 292c0 16 -8 27 -18 24
c-50 -26 -107 -138 -128 -195c-10 -20 -102 32 -116 51c11 137 137 283 293 225c21 -9 20 -28 39 -25c17 3 74 -47 83 -78c30 -107 -37 -163 -114 -221c-29 -20 -13 -16 14 -26z" />
    <glyph glyph-name="four" unicode="4" horiz-adv-x="552" 
d="M296 359c3 78 23 202 29 281c33 13 153 -56 141 -103c-3 -13 -26 -181 -16 -182c17 -2 65 4 84 -13c1 -44 -21 -23 -87 -55c-51 -24 5 -435 -66 -369c-4 4 -99 57 -100 71c-2 32 8 135 6 233c-1 11 -3 38 -14 37c-64 -6 -172 -32 -223 -37c-24 22 -53 51 -45 83
c9 5 29 2 30 13c9 77 134 387 137 419c5 67 73 -19 59 -54c-20 -49 -69 -264 -82 -318c-8 -37 85 -28 145 -22c2 6 1 13 2 16z" />
    <glyph glyph-name="five" unicode="5" horiz-adv-x="517" 
d="M44 414c-19 67 34 194 41 214c-11 24 -12 51 -9 77c1 10 6 15 13 16c28 -15 58 -16 88 -18c56 -4 112 -10 168 -13c27 -2 54 -1 80 -1c12 -1 23 -2 34 -3c10 0 17 -3 25 -12c0 -10 -1 -25 -1 -36c-25 -53 -326 -86 -350 -89c-6 -34 -17 -58 -25 -91c5 -9 10 -6 15 -6
c207 38 386 -25 289 -287c-44 -119 -225 -267 -362 -181c-58 37 -83 107 -38 127c10 6 9 29 16 23c67 -74 298 17 330 182c31 160 -238 11 -258 -7c-39 -10 -76 34 -91 72c19 17 15 18 35 33z" />
    <glyph glyph-name="six" unicode="6" horiz-adv-x="513" 
d="M314 667c20 -28 35 -26 10 -49c-100 -99 -188 -268 -197 -334c100 94 151 232 291 38c17 -24 25 -48 26 -78c2 -97 -117 -286 -227 -286c-116 39 -219 124 -219 283c0 251 144 458 238 489c10 3 72 -54 78 -63zM191 24c106 -19 171 177 161 257c-8 51 -181 -80 -209 -41
c-6 7 -10 14 -20 27c-9 -62 1 -231 68 -243z" />
    <glyph glyph-name="seven" unicode="7" horiz-adv-x="434" 
d="M-28 681l322 44c10 1 27 -1 29 -10c6 -28 56 -89 67 -100s-4 -28 -15 -38c-98 -119 -107 -433 -138 -577c-12 -33 -153 -58 -180 -62c-2 3 -6 10 -11 12c-13 84 118 459 181 561c6 10 11 19 17 29c25 46 42 52 -14 58c-60 6 -212 28 -190 -7c16 -26 -18 -34 -50 -16
c-20 15 -83 97 -18 106z" />
    <glyph glyph-name="eight" unicode="8" horiz-adv-x="477" 
d="M75 555c5 111 118 198 201 186c93 -50 47 -189 -2 -273c93 -91 250 -233 70 -407c-43 -52 -115 -82 -152 -88c-236 -57 -278 341 -49 473c-18 30 -59 74 -68 109zM137 359c-26 -37 68 -332 98 -318c42 20 62 107 15 208c-15 34 -62 161 -63 154c-21 -11 -40 -26 -50 -44z
M237 662c-32 -16 -56 -52 -53 -81c3 -38 8 -40 45 -80c22 -23 124 208 8 161z" />
    <glyph glyph-name="nine" unicode="9" horiz-adv-x="568" 
d="M276 531c33 110 11 81 -3 59c-50 -81 -91 -167 -119 -241c-35 -97 -11 -90 -5 -80c44 59 97 163 127 262zM236 16c2 -2 4 -3 6 -4c14 -5 24 0 34 11c38 73 43 269 38 418c-3 11 -10 10 -17 -10c-3 -8 -137 -254 -150 -228c-13 5 -85 21 -95 27c-6 2 -10 6 -15 8
c-21 10 -31 35 -30 64c6 143 107 313 206 403c17 16 35 28 52 39c12 7 24 2 33 -8c5 -4 9 -12 15 -21c0 1 1 1 3 -1c3 10 5 23 19 25c7 -6 94 -25 99 -29c32 -14 32 16 41 -24c10 -49 13 -98 18 -149c8 -113 -10 -617 -166 -614c-13 -1 -63 20 -91 93z" />
    <glyph glyph-name="exclam" unicode="!" horiz-adv-x="343" 
d="M218 181l-138 -64c-28 82 15 946 146 568c12 -43 30 -486 -8 -504zM67 -15l30 98c7 -10 91 -38 100 -47c13 -10 2 -58 -7 -69c-13 -17 -29 -25 -48 -32c-14 -5 -25 5 -36 12c-14 10 -44 22 -39 38z" />
    <glyph glyph-name="period" unicode="." horiz-adv-x="278" 
d="M71 -15l36 94c7 -10 91 -38 100 -47c13 -10 -4 -54 -13 -65c-13 -17 -29 -25 -48 -32c-14 -5 -25 5 -36 12c-14 10 -44 22 -39 38z" />
    <glyph glyph-name="comma" unicode="," horiz-adv-x="224" 
d="M49 -15l15 70c33 22 79 -5 88 -14c13 -10 22 -52 21 -66c-2 -49 -76 -137 -95 -144c-14 -5 21 109 10 116c-14 10 -44 22 -39 38z" />
    <glyph glyph-name="quotesingle" unicode="'" horiz-adv-x="266" 
d="M84 574l80 37c17 -48 -8 -395 -84 -176c-7 26 -18 128 4 139z" />
    <glyph glyph-name="quotedbl" unicode="&#x22;" horiz-adv-x="408" 
d="M202 574l80 37c17 -48 -8 -395 -84 -176c-7 26 -18 128 4 139zM64 574l80 37c17 -48 -8 -395 -84 -176c-7 26 -18 128 4 139z" />
    <glyph glyph-name="numbersign" unicode="#" horiz-adv-x="644" 
d="M143 -86c-6 0 -18 49 -18 55c4 13 76 513 93 552c0 8 3 11 9 13c15 4 50 11 63 9c6 0 11 0 14 -2c24 -39 -93 -434 -110 -545c-10 -64 -17 -33 -51 -82zM337 -49c3 13 55 514 67 555c0 8 2 11 8 14c9 3 39 7 45 3c28 -36 -55 -462 -65 -518c-10 -52 -23 -153 -55 -54z
M69 330c11 0 465 14 503 11c6 1 10 0 13 -3c4 -4 -16 -42 -19 -45c-29 -18 -390 11 -442 13c-47 0 -36 1 -55 24zM74 176c11 0 394 18 432 15c6 1 10 0 13 -3c4 -4 12 -21 9 -24c-29 -18 -347 -14 -399 -12c-47 0 -139 -1 -55 24z" />
    <glyph glyph-name="dollar" unicode="$" horiz-adv-x="517" 
d="M299 -77l-65 -30c-4 13 -3 53 2 94c-144 -3 -258 150 -84 180c2 7 20 -51 -6 -59c-49 -80 57 -40 90 -20c9 5 15 18 12 27c-80 79 -186 191 -186 283c0 108 71 210 142 262c2 80 34 256 78 109c2 -13 5 -47 2 -75c11 1 21 -1 30 -5c18 -3 36 -17 51 -26
c78 -25 -11 -274 -69 -286c-24 -3 -41 16 -37 29c42 27 124 141 88 226c-4 10 -11 15 -22 14c-81 -22 -151 -134 -151 -237c0 -68 212 -116 238 -222c18 -76 -31 -151 -100 -183c1 -32 0 -75 -13 -81z" />
    <glyph glyph-name="slash" unicode="/" horiz-adv-x="389" 
d="M303 746l76 -91c-9 -78 -208 -526 -292 -780c-35 -104 -71 -29 -62 15c8 67 247 893 278 856z" />
    <glyph glyph-name="percent" unicode="%" horiz-adv-x="747" 
d="M421 746l76 -91c-9 -78 -208 -526 -292 -780c-35 -104 -71 -29 -62 15c8 67 247 893 278 856zM164 711c3 -3 49 -13 51 -15c17 -7 17 8 22 -13c5 -25 6 -51 9 -77c4 -59 -5 -322 -87 -321c-12 -1 -89 38 -102 47c-32 50 -39 340 36 368c15 4 29 7 49 -5c17 -9 8 14 22 16
zM146 643c-5 21 0 16 -20 23c-62 11 -60 -202 -56 -239c6 -48 32 -89 45 -95c7 -3 13 0 18 5c30 58 20 261 13 306zM536 311c3 -3 49 -13 51 -15c17 -7 17 8 22 -13c5 -25 6 -51 9 -77c4 -59 -5 -322 -87 -321c-12 -1 -89 38 -102 47c-32 50 -39 340 36 368c15 4 29 7 49 -5
c17 -9 8 14 22 16zM518 243c-5 21 0 16 -20 23c-62 11 -60 -202 -56 -239c6 -48 32 -89 45 -95c7 -3 13 0 18 5c30 58 20 261 13 306z" />
    <glyph glyph-name="parenleft" unicode="(" horiz-adv-x="360" 
d="M278 -175c-25 -11 -91 -58 -98 -53c-281 240 -140 867 64 1028c2 2 48 -46 26 -68c-122 -128 -125 -646 8 -907z" />
    <glyph glyph-name="parenright" unicode=")" horiz-adv-x="423" 
d="M56 722c21 17 71 81 80 78c336 -152 206 -844 2 -1005c-2 -2 -48 46 -26 68c122 128 106 687 -56 859z" />
    <glyph glyph-name="asterisk" unicode="*" horiz-adv-x="411" 
d="M299 602l40 -58c-12 -7 -53 -16 -95 -19c17 -22 33 -48 28 -58l-39 -60c-10 7 -31 37 -50 71c-18 -26 -44 -56 -57 -52l-67 21c4 13 33 47 65 77c-72 47 -166 130 -29 101c8 -2 24 -9 40 -18c7 81 30 163 70 47c2 -10 6 -35 7 -60c32 10 77 20 87 8z" />
    <glyph glyph-name="hyphen" unicode="-" horiz-adv-x="749" 
d="M62 329c11 0 493 7 531 4c6 1 10 0 13 -3c4 -4 -48 -73 -51 -76c-29 -18 -418 4 -470 6c-47 0 -4 46 -23 69z" />
    <glyph glyph-name="equal" unicode="=" horiz-adv-x="564" 
d="M58 280c11 0 315 13 353 10c6 1 10 0 13 -3c4 -4 -48 -73 -51 -76c-29 -18 -240 -2 -292 0c-47 0 -4 46 -23 69zM59 363c11 0 315 13 353 10c6 1 10 0 13 -3c4 -4 -3 -37 -6 -40c-29 -18 -240 -2 -292 0c-47 0 -49 10 -68 33z" />
    <glyph glyph-name="plus" unicode="+" horiz-adv-x="533" 
d="M219 110c0 5 -3 72 -6 146c-54 -1 -102 0 -121 1c-47 0 -58 65 -23 69c5 0 69 3 141 5c-2 59 -3 109 -2 124c-1 6 0 10 3 13c4 4 37 -3 40 -6c7 -13 8 -67 6 -129c75 2 115 4 133 3c6 1 10 0 13 -3c4 -4 20 -56 17 -59c-15 -10 -90 -15 -166 -17l-7 -134
c0 -47 -5 6 -28 -13z" />
    <glyph glyph-name="colon" unicode=":" horiz-adv-x="363" 
d="M106 -15l36 94c7 -10 91 -38 100 -47c13 -10 -4 -54 -13 -65c-13 -17 -29 -25 -48 -32c-14 -5 -25 5 -36 12c-14 10 -44 22 -39 38zM231 239l-100 -16c5 11 -13 98 -9 110c2 17 48 24 62 22c22 -3 37 -13 52 -26c12 -9 8 -24 8 -37c-2 -17 3 -49 -13 -53z" />
    <glyph glyph-name="semicolon" unicode=";" horiz-adv-x="363" 
d="M231 239l-100 -16c5 11 -13 98 -9 110c2 17 48 24 62 22c22 -3 37 -13 52 -26c12 -9 8 -24 8 -37c-2 -17 3 -49 -13 -53zM108 -15l15 70c33 22 79 -5 88 -14c13 -10 22 -52 21 -66c-2 -49 -76 -137 -95 -144c-14 -5 21 109 10 116c-14 10 -44 22 -39 38z" />
    <glyph glyph-name="ampersand" unicode="&#x26;" horiz-adv-x="705" 
d="M568 410c5 -2 26 -81 66 -98c25 -10 -35 -62 -107 -91c14 -37 20 -80 16 -103c-2 -49 -21 -274 -272 -274c-57 0 -117 18 -180 84c-111 152 -55 401 68 453c29 12 36 -3 15 30c-37 59 -76 123 -53 212c31 129 242 141 276 17c30 32 64 56 89 56c68 1 40 -20 7 -39
c-38 -24 -64 -60 -84 -95c-2 -26 -10 -53 -26 -79c-10 -16 -66 3 -63 40c-5 6 6 30 27 58c4 51 -52 98 -85 93c-22 -3 -34 -21 -34 -34c0 -107 96 -230 143 -280c-53 -56 -74 -56 -83 -50h-2c-74 -5 -113 -290 -72 -380c9 -18 33 -25 48 -25c80 0 159 177 183 296
c-17 -1 -32 0 -46 5c-97 30 -48 47 6 61c143 71 159 144 163 143z" />
    <glyph glyph-name="less" unicode="&#x3c;" horiz-adv-x="566" 
d="M410 511c10 -3 94 -117 47 -127s-274 -86 -304 -104c-36 -21 296 -159 296 -159s-25 -65 -52 -61c-27 3 -308 173 -345 207c-37 33 299 257 358 244z" />
    <glyph glyph-name="greater" unicode="&#x3e;" horiz-adv-x="517" 
d="M88 69c-10 3 -94 117 -47 127s274 86 304 104c36 21 -296 159 -296 159s25 65 52 61c27 -3 308 -173 345 -207c37 -33 -299 -257 -358 -244z" />
    <glyph glyph-name="question" unicode="?" horiz-adv-x="607" 
d="M244 123l-94 17c44 175 234 422 213 566c-2 16 -15 24 -31 26c-88 7 -156 -164 -168 -225c-7 -22 -69 -37 -77 -14c-24 58 5 146 60 208c95 104 224 161 333 -35c77 -166 -182 -435 -234 -539zM147 41l92 42c-2 -12 38 -91 38 -104c2 -16 -40 -36 -55 -37
c-21 -3 -38 2 -56 11c-14 6 -15 21 -18 34c-2 16 -15 46 -1 54z" />
    <glyph glyph-name="at" unicode="@" horiz-adv-x="893" 
d="M360 253c-16 -51 -22 -118 5 -67c35 64 82 157 118 217c24 40 -4 36 -38 1c-32 -32 -65 -86 -85 -151zM638 40c34 -7 112 76 112 289c0 170 -108 273 -256 273c-196 0 -381 -267 -284 -491c68 -157 299 -114 298 -132c-3 -52 77 -67 20 -104c-32 -21 -301 11 -395 221
c-112 249 -11 599 310 599c308 0 358 -255 358 -393s-56 -316 -166 -316c-99 0 -111 68 -120 130c-12 78 5 164 -8 134c-17 -37 -67 -163 -95 -167c-13 -2 -72 16 -93 33c-16 12 -21 14 -26 47c-15 131 63 355 216 398c14 4 62 -35 62 -50c-2 -12 -56 -43 -47 -42
c31 6 116 -78 115 -97c-5 -40 -9 -56 -12 -91c-6 -79 -20 -163 11 -241z" />
    <glyph glyph-name="bracketleft" unicode="[" horiz-adv-x="354" 
d="M70 817l48 -27l112 -22c2 -11 13 -26 13 -53c0 -20 -69 -2 -70 -29c-5 -165 -16 -716 -27 -925c-2 -29 87 0 87 -24c-1 -25 -89 -51 -94 -60c-17 -32 -51 12 -54 47c-12 66 -57 1116 -15 1093z" />
    <glyph glyph-name="bracketright" unicode="]" horiz-adv-x="359" 
d="M201 -332l-48 27l-112 22c-2 11 -13 26 -13 53c0 20 69 2 70 29c5 165 16 716 27 925c2 29 -87 0 -87 24c1 25 89 51 94 60c17 32 51 -12 54 -47c12 -66 57 -1116 15 -1093z" />
    <glyph glyph-name="asciicircum" unicode="^" horiz-adv-x="626" 
d="M525 309c-3 -10 -159 -105 -168 -60c-10 48 -73 234 -91 263c-21 36 -131 -243 -131 -243s-64 25 -60 54c3 27 173 306 206 343c33 38 258 -298 244 -357z" />
    <glyph glyph-name="underscore" unicode="_" horiz-adv-x="1034" 
d="M62 -19c10 -11 678 -20 718 -5c6 1 41 -6 44 -9c4 -4 -18 -67 -21 -70c-29 -18 -666 13 -718 15c-47 0 -4 46 -23 69z" />
    <glyph glyph-name="grave" unicode="`" horiz-adv-x="274" 
d="M32 669l11 75c43 -10 281 -191 88 -143c-23 7 -101 47 -99 68z" />
    <glyph glyph-name="backslash" unicode="\" horiz-adv-x="389" 
d="M16 655l76 91c31 37 270 -789 278 -856c9 -44 -27 -119 -62 -15c-84 254 -283 702 -292 780z" />
    <glyph glyph-name="bar" unicode="|" horiz-adv-x="407" 
d="M151 802l97 -66c15 -77 -11 -691 -18 -959c-6 -109 -61 -48 -65 -3c-11 67 -56 1054 -14 1028z" />
    <glyph glyph-name="asciitilde" unicode="~" horiz-adv-x="881" 
d="M117 294c4 0 60 76 116 84c103 14 195 -108 267 -108c158 0 174 98 173 94c-7 -35 52 -199 -134 -199c-121 0 -213 133 -276 135s-70 -72 -96 -71c-47 0 -64 25 -50 65z" />
    <glyph glyph-name="braceleft" unicode="{" horiz-adv-x="384" 
d="M278 -251c-9 -4 94 -15 78 -25c-26 -16 -111 -60 -115 -57c-79 3 -159 151 -159 270c0 53 7 170 3 226c0 4 -90 -6 -102 9c-32 38 -52 80 -40 85c45 19 153 37 155 63c2 30 -36 99 -36 189c0 80 98 225 182 291c1 1 82 -49 91 -64c8 -14 -77 15 -88 4
c-44 -47 -89 -125 -89 -246c0 -45 59 -176 59 -225c0 -26 -67 -60 -67 -75c0 -14 48 -28 51 -53c5 -49 -3 -183 -3 -261s50 -125 80 -131z" />
    <glyph glyph-name="braceright" unicode="}" horiz-adv-x="460" 
d="M43 716c9 4 -94 15 -78 25c26 16 111 60 115 57c79 -3 159 -151 159 -270c0 -53 -7 -170 -3 -226c0 -4 90 6 102 -9c32 -38 52 -80 40 -85c-45 -19 -153 -37 -155 -63c-2 -30 36 -99 36 -189c0 -80 -98 -225 -182 -291c-1 -1 -82 49 -91 64c-8 14 77 -15 88 -4
c44 47 89 125 89 246c0 45 -59 176 -59 225c0 26 67 60 67 75c0 14 -48 28 -51 53c-5 49 3 183 3 261s-50 125 -80 131z" />
    <glyph glyph-name="quotesinglbase" unicode="&#x201a;" horiz-adv-x="326" 
d="M66 -15l15 70c33 22 79 -5 88 -14c13 -10 22 -52 21 -66c-2 -49 -76 -137 -95 -144c-14 -5 21 109 10 116c-14 10 -44 22 -39 38z" />
    <glyph glyph-name="florin" unicode="&#x192;" horiz-adv-x="336" 
d="M9 -264c-5 0 -118 19 -122 20c-15 2 -19 13 -21 25c-1 7 112 -7 119 -7c34 -41 16 368 6 591c-1 12 -103 -9 -103 2c-1 22 101 47 100 63c-1 21 -2 62 -2 69c0 112 78 217 177 250c76 9 210 -41 217 -51c6 -7 8 -14 4 -22c-2 -3 -3 -6 -6 -9c-53 -1 -151 33 -178 -44
c-23 -50 -38 -107 -48 -168c-1 -8 97 19 126 12c31 -7 -8 -48 -9 -56c-2 -17 -128 -16 -130 -33c-26 -296 25 -652 -130 -642z" />
    <glyph glyph-name="quotedblbase" unicode="&#x201e;" horiz-adv-x="439" 
d="M44 -15l15 70c33 22 79 -5 88 -14c13 -10 22 -52 21 -66c-2 -49 -76 -137 -95 -144c-14 -5 21 109 10 116c-14 10 -44 22 -39 38zM215 -15l15 70c33 22 79 -5 88 -14c13 -10 22 -52 21 -66c-2 -49 -76 -137 -95 -144c-14 -5 21 109 10 116c-14 10 -44 22 -39 38z" />
    <glyph glyph-name="ellipsis" unicode="&#x2026;" horiz-adv-x="636" 
d="M44 -15l15 70c33 22 79 -5 88 -14c13 -10 22 -52 21 -66c-2 -49 -76 -137 -95 -144c-14 -5 21 109 10 116c-14 10 -44 22 -39 38zM215 -15l15 70c33 22 79 -5 88 -14c13 -10 22 -52 21 -66c-2 -49 -76 -137 -95 -144c-14 -5 21 109 10 116c-14 10 -44 22 -39 38zM391 -15
l15 70c33 22 79 -5 88 -14c13 -10 22 -52 21 -66c-2 -49 -76 -137 -95 -144c-14 -5 21 109 10 116c-14 10 -44 22 -39 38z" />
    <glyph glyph-name="circumflex" unicode="&#x2c6;" horiz-adv-x="296" 
d="M227 609c-1 -4 -69 -46 -74 -26c-4 21 -32 102 -40 115c-9 16 -57 -107 -57 -107s-28 12 -26 24s75 134 90 150c14 17 113 -130 107 -156z" />
    <glyph glyph-name="tilde" unicode="&#x2dc;" horiz-adv-x="367" 
d="M41 680c2 0 43 56 68 62c48 10 64 -72 94 -72c26 0 50 53 51 56c6 12 69 -32 47 -68c-16 -27 -60 -64 -93 -64c-51 0 -70 96 -96 97c-25 2 -49 -51 -60 -50c-19 0 -28 11 -11 39z" />
    <glyph glyph-name="sterling" unicode="&#xa3;" horiz-adv-x="589" 
d="M323 417c5 0 41 -60 30 -90c-6 -15 -90 -30 -154 -33c-6 -67 -23 -139 -69 -200c122 17 287 36 348 67c4 -2 29 -11 25 -23c-17 -52 -50 -152 -74 -150c-2 0 -369 19 -391 30c-3 6 -8 49 -11 51c-2 5 -8 8 9 12c52 52 67 135 68 223c-22 4 -39 10 -47 18
c-41 41 -21 36 8 36c7 0 21 0 38 1c-6 150 -97 247 -31 282c17 10 76 51 97 59c100 30 189 -21 164 -123c-5 -22 -37 -60 -47 -41c-22 54 -29 59 -79 84c-10 3 -18 -7 -18 -22c2 -66 14 -127 19 -224c35 8 82 43 115 43z" />
    <glyph glyph-name="cent" unicode="&#xa2;" horiz-adv-x="534" 
d="M254 -1l-84 -6c-6 18 -3 53 6 107c-38 19 -72 46 -95 82c-47 86 -21 233 64 359c18 27 43 47 69 58c21 75 63 155 83 36c0 -6 0 -16 -1 -29c14 -4 28 -8 42 -15c21 -13 29 -27 32 -51c6 -44 -3 -208 -57 -216c-50 -6 5 111 24 166c5 13 5 46 -6 55
c-36 23 -90 -118 -98 -146c-52 -159 32 -273 74 -273c61 0 94 119 106 159c6 20 27 25 23 8c-2 -76 -30 -231 -166 -220h-1c1 -33 0 -73 -15 -74z" />
    <glyph glyph-name="yen" unicode="&#xa5;" horiz-adv-x="549" 
d="M456 283c6 0 0 -52 0 -52s-78 2 -115 4l-12 -43c35 -2 113 -5 115 -5c6 0 -15 -75 -15 -75s-81 7 -119 15c-21 -79 -35 -141 -32 -158c-1 -8 0 -17 0 -27c-20 -13 -63 9 -85 28l-11 9c-10 7 -14 19 -17 32c-5 32 2 87 14 142l-59 12c-39 8 -34 33 5 36c10 1 35 0 64 -1
l12 41c-25 2 -45 4 -54 6c-39 8 -43 32 -31 30c15 -3 52 -4 94 -5c6 17 11 30 15 36c0 3 6 14 -4 22c-180 294 -185 355 -185 371c-72 44 165 36 257 -191c4 -7 8 -6 12 1l11 22c7 23 124 195 138 204l13 15l5 -9c5 -15 5 -31 3 -45c-13 -39 -74 -260 -123 -425
c29 0 102 10 104 10z" />
    <glyph glyph-name="section" unicode="&#xa7;" horiz-adv-x="625" 
d="M122 438c-31 142 85 334 243 305c17 -5 36 -10 52 -15c99 -9 52 -234 -13 -260c-28 -9 -53 8 -52 23c44 40 115 113 52 199c-7 11 -17 15 -30 10c-91 -42 -147 -111 -122 -225c16 -74 214 -120 269 -230c40 -80 -18 -189 -120 -193c22 -20 70 -62 77 -88
c27 -106 -26 -170 -142 -184c-186 -22 -349 167 -128 201c2 8 24 -57 -8 -66c-58 -90 72 -64 110 -39c31 20 24 37 13 47c-96 88 -286 216 -286 319c0 47 38 103 101 155c-7 13 -13 27 -16 41zM344 93c94 4 73 67 66 77c-65 38 -142 87 -200 140c-14 -7 -38 -23 -38 -56
c0 -42 96 -118 172 -161z" />
    <glyph glyph-name="brokenbar" unicode="&#xa6;" horiz-adv-x="333" 
d="M196 -338l-86 27c-16 10 -15 25 -15 39c8 226 23 433 28 463c4 45 59 106 65 -3c3 -105 36 -319 41 -478c0 -13 1 -26 -33 -48zM170 318c-72 44 -63 0 -63 15c-7 245 20 501 41 489l37 -25c9 -42 25 -243 18 -461c0 -10 -1 -20 -33 -18z" />
    <glyph glyph-name="copyright" unicode="&#xa9;" horiz-adv-x="790" 
d="M643 351c0 -99 -86 -272 -168 -306c10 -11 13 -15 -8 -30c-26 -16 -297 0 -372 168c-90 199 4 483 261 483c247 0 287 -204 287 -315zM450 92v-8l1 -1c28 -6 151 119 151 290c0 136 -123 222 -242 222c-157 0 -274 -164 -212 -354c61 -190 303 -134 302 -149zM480 343
c3 14 17 18 15 6c-2 -54 -45 -201 -129 -193c-20 3 -36 6 -53 15c-23 14 -52 40 -64 62c-29 59 -13 161 40 248c28 48 78 60 119 35c14 -9 18 -19 20 -36c2 -24 -6 -97 -13 -118c-1 -3 -2 -4 -3 -8c-1 -9 -12 -22 -20 -24c-30 -3 3 77 15 116c3 9 3 32 -3 38
c-23 16 -56 -82 -61 -101c-4 -15 -7 -32 -9 -46c-13 -127 31 -147 40 -147c42 -2 74 48 85 78c8 24 14 48 21 75z" />
    <glyph glyph-name="registered" unicode="&#xae;" horiz-adv-x="795" 
d="M643 351c0 -99 -86 -272 -168 -306c10 -11 13 -15 -8 -30c-26 -16 -297 0 -372 168c-90 199 4 483 261 483c247 0 287 -204 287 -315zM450 92v-8l1 -1c28 -6 151 119 151 290c0 136 -123 222 -242 222c-157 0 -274 -164 -212 -354c61 -190 303 -134 302 -149zM421 311
c-4 5 -5 7 0 9c58 27 71 146 3 175c-30 12 -52 -1 -67 -29c0 -2 -2 -3 -2 -4h-2c0 2 -2 4 -2 6c-2 8 -3 17 -5 24c4 9 -44 40 -52 41c-4 1 -5 0 -5 -4c-5 -18 -7 -278 0 -319c2 -18 -1 -64 17 -67c0 2 0 4 2 7c2 0 5 -2 8 -1c25 4 50 118 50 146v8c4 -4 4 -7 8 -13
c19 -31 44 -65 74 -88c6 -10 54 9 60 26c0 3 -4 -14 -87 83zM364 373c3 76 26 99 30 66c10 -84 -4 -107 -24 -116c-8 -6 -6 38 -6 50z" />
    <glyph glyph-name="trademark" unicode="&#x2122;" horiz-adv-x="564" 
d="M443 239c-23 22 -26 111 -27 218c-6 31 -9 20 -11 10c-6 -15 -36 -201 -35 -233c-25 -12 -31 -46 -69 -30c-25 58 -41 170 -55 229c-13 63 -20 7 -17 -10c3 -14 -5 -164 4 -188c-5 2 -22 -21 -23 -17c-7 3 -8 229 -5 321c-1 -1 -3 0 -8 0c-19 4 -39 6 -61 8
c33 -30 23 -103 29 -139c3 -79 -8 -146 -8 -142c-15 -21 -39 -46 -63 -49c-5 5 -10 40 -13 49c-5 56 -11 236 -5 286c-18 5 -98 18 -108 18c-3 4 -6 7 -9 12c-1 2 11 11 16 11c40 0 194 -26 222 -32c3 0 6 -1 9 -3c1 11 2 18 3 19c2 6 6 8 11 9c22 1 67 2 84 -35
c-1 -16 29 -176 35 -181c1 -16 13 -14 14 -1c-5 24 16 194 52 209c17 -10 101 -26 82 -63c-10 24 10 -151 -14 -249c-16 -12 -13 -43 -30 -27z" />
    <glyph glyph-name="quoteleft" unicode="&#x2018;" horiz-adv-x="291" 
d="M192 490l-15 -70c-33 -22 -79 5 -88 14c-13 10 -22 52 -21 66c2 49 76 137 95 144c14 5 -21 -109 -10 -116c14 -10 44 -22 39 -38z" />
    <glyph glyph-name="quotedblleft" unicode="&#x201c;" horiz-adv-x="434" 
d="M162 490l-15 -70c-33 -22 -79 5 -88 14c-13 10 -22 52 -21 66c2 49 76 137 95 144c14 5 -21 -109 -10 -116c14 -10 44 -22 39 -38zM350 490l-15 -70c-33 -22 -79 5 -88 14c-13 10 -22 52 -21 66c2 49 76 137 95 144c14 5 -21 -109 -10 -116c14 -10 44 -22 39 -38z" />
    <glyph glyph-name="quotedblright" unicode="&#x201d;" horiz-adv-x="433" 
d="M230 556l15 70c33 22 79 -5 88 -14c13 -10 22 -52 21 -66c-2 -49 -76 -137 -95 -144c-14 -5 21 109 10 116c-14 10 -44 22 -39 38zM42 556l15 70c33 22 79 -5 88 -14c13 -10 22 -52 21 -66c-2 -49 -76 -137 -95 -144c-14 -5 21 109 10 116c-14 10 -44 22 -39 38z" />
    <glyph glyph-name="exclamdown" unicode="&#xa1;" horiz-adv-x="344" 
d="M71 344l138 64c28 -82 -15 -946 -146 -568c-12 43 -30 486 8 504zM222 540l-30 -98c-7 10 -91 38 -100 47c-13 10 -2 58 7 69c13 17 29 25 48 32c14 5 25 -5 36 -12c14 -10 44 -22 39 -38z" />
    <glyph glyph-name="questiondown" unicode="&#xbf;" horiz-adv-x="537" 
d="M283 436l94 -17c-44 -175 -234 -422 -213 -566c2 -16 15 -24 31 -26c88 -7 156 164 168 225c7 22 69 37 77 14c24 -58 -5 -146 -60 -208c-95 -104 -224 -161 -333 35c-77 166 182 435 234 539zM380 518l-92 -42c2 12 -38 91 -38 104c-2 16 40 36 55 37c21 3 38 -2 56 -11
c14 -6 15 -21 18 -34c2 -16 15 -46 1 -54z" />
    <glyph glyph-name="caron" unicode="&#x2c7;" horiz-adv-x="307" 
d="M227 736c6 -26 -93 -173 -107 -156c-15 16 -88 138 -90 150s26 24 26 24s48 -123 57 -107c8 13 36 94 40 115c5 20 73 -22 74 -26z" />
    <glyph glyph-name="Scaron" unicode="&#x160;" horiz-adv-x="627" 
d="M470 880c6 -26 -93 -173 -107 -156c-15 16 -88 138 -90 150s26 24 26 24s48 -123 57 -107c8 13 36 94 40 115c5 20 73 -22 74 -26zM142 -14c-75 -97 89 -47 140 -24c13 6 23 21 18 33c-124 94 -287 231 -287 341c0 207 277 398 388 351c5 0 12 -2 17 -4
c21 -9 43 -17 62 -27c121 -30 -17 -331 -105 -345c-38 -4 -64 19 -58 35c65 33 191 171 136 273c-6 12 -17 18 -35 16c-124 -26 -232 -160 -232 -285c0 -82 328 -140 368 -268c35 -114 -90 -226 -237 -241c-239 -24 -448 179 -165 216c3 9 30 -62 -10 -71z" />
    <glyph glyph-name="OE" unicode="&#x152;" horiz-adv-x="772" 
d="M289 -125l-8 -7c-37 -16 -166 83 -219 63c-93 75 -60 369 -30 470c1 3 2 8 4 11c6 21 6 23 -12 34c-17 12 -25 31 -25 51c21 94 240 307 352 145c28 37 63 64 99 71c57 11 256 -48 197 -140c-11 -36 -76 -120 -92 -136c-7 -5 -17 -8 -26 -11c-6 -1 -12 3 -14 7
c-5 4 -1 10 2 13c29 42 55 84 76 130c11 23 -46 46 -63 23c-98 -53 -100 -200 -85 -285c2 -12 5 -12 14 -5c43 36 183 -11 156 -35c-1 -2 -3 -3 -4 -3c-139 -32 -300 -489 -124 -432c32 15 137 235 156 280c18 12 63 12 65 -17c1 -1 0 -2 1 -2c-5 -92 -106 -301 -210 -306
c-87 -5 -161 28 -210 81zM216 570c0 13 -15 44 -30 42c-34 -6 -48 -147 -54 -180c-23 -5 -28 -371 2 -421c9 -19 58 -19 67 -6c12 28 42 31 15 565z" />
    <glyph glyph-name="emdash" unicode="&#x2014;" horiz-adv-x="981" 
d="M77 261c10 -11 678 -20 718 -5c6 1 41 -6 44 -9c4 -4 -18 -67 -21 -70c-29 -18 -666 13 -718 15c-47 0 -4 46 -23 69z" />
    <glyph glyph-name="endash" unicode="&#x2013;" horiz-adv-x="733" 
d="M62 258c11 0 493 7 531 4c6 1 10 0 13 -3c4 -4 -48 -73 -51 -76c-29 -18 -418 4 -470 6c-47 0 -4 46 -23 69z" />
    <glyph glyph-name="scaron" unicode="&#x161;" horiz-adv-x="273" 
d="M169 84c64 40 92 96 104 135c4 9 3 10 11 14c4 1 7 0 8 -1c2 -3 3 -7 3 -10c-18 -83 -75 -127 -115 -157c-20 -15 -5 -20 2 -57c11 -34 3 -152 -48 -189c-55 -30 -192 -38 -173 52c7 34 71 124 72 128c-4 56 -72 226 -34 350c23 70 83 162 152 193c23 -15 58 -49 46 -72
c-20 -32 -91 -121 -112 -137c-37 -28 6 -114 36 -187c8 -19 30 -70 48 -62zM29 -46c-31 -33 -49 -62 -55 -101c28 0 45 2 47 16c5 29 13 56 8 85zM58 351c26 26 98 102 109 144c-16 5 -28 -9 -41 -25c-14 -17 -71 -92 -68 -119zM227 736c6 -26 -93 -173 -107 -156
c-15 16 -88 138 -90 150s26 24 26 24s48 -123 57 -107c8 13 36 94 40 115c5 20 73 -22 74 -26z" />
    <glyph glyph-name="oe" unicode="&#x153;" horiz-adv-x="588" 
d="M436 31c80 37 135 122 153 190c7 32 23 10 18 -2c1 -36 -49 -121 -73 -152c-34 -50 -119 -124 -152 -124c-50 0 -87 27 -113 67c-67 -52 -187 -22 -196 -17c-138 67 -68 482 65 526c16 -6 25 -6 9 -30c-6 -4 4 -9 8 -10c7 -3 14 -4 23 -11c45 -16 81 -41 107 -71
c22 26 49 49 81 72c12 5 28 8 43 8c37 0 70 -17 76 -63c18 -142 -68 -232 -126 -243c-8 -2 -4 -21 -6 -28c0 -48 12 -145 83 -112zM104 365l-5 68c-63 -71 -99 -454 21 -412c29 52 33 143 46 203c3 11 1 18 -5 25c-32 35 -50 70 -57 116zM388 444c-42 -2 -37 -200 -35 -253
c68 29 75 94 73 129c-1 12 8 126 -38 124zM171 297c0 3 2 6 2 7v6c1 44 -13 118 -50 137c-7 3 -12 1 -11 -10c-2 -45 26 -110 59 -140z" />
    <glyph glyph-name="Ydieresis" unicode="&#x178;" horiz-adv-x="467" 
d="M202 286c-221 362 -232 384 -232 403c-88 55 204 44 317 -235c5 -8 10 -7 15 2c4 8 9 18 13 27c9 28 89 158 106 169c4 6 10 12 16 19c2 -5 4 -7 6 -11c6 -18 6 -38 4 -56c-5 -24 -9 -47 -10 -73c0 -5 -3 -10 -5 -15c-38 -96 -98 -607 -90 -674c-1 -10 0 -21 0 -33
c-25 -17 -147 11 -175 34c-4 4 -9 9 -13 11c-13 9 -17 23 -21 39c-13 91 51 330 74 366c7 17 7 17 -5 27zM134 728l28 74c6 -8 73 -30 80 -37c10 -8 -3 -43 -11 -52c-10 -13 -23 -20 -38 -25c-11 -4 -19 4 -28 9c-11 8 -35 18 -31 31zM279 728l28 74c6 -8 73 -30 80 -37
c10 -8 -3 -43 -11 -52c-10 -13 -23 -20 -38 -25c-11 -4 -19 4 -28 9c-11 8 -35 18 -31 31z" />
    <glyph glyph-name="dieresis" unicode="&#xa8;" horiz-adv-x="411" 
d="M52 641l28 74c6 -8 73 -30 80 -37c10 -8 -3 -43 -11 -52c-10 -13 -23 -20 -38 -25c-11 -4 -19 4 -28 9c-11 8 -35 18 -31 31zM197 641l28 74c6 -8 73 -30 80 -37c10 -8 -3 -43 -11 -52c-10 -13 -23 -20 -38 -25c-11 -4 -19 4 -28 9c-11 8 -35 18 -31 31z" />
    <glyph glyph-name="currency" unicode="&#xa4;" horiz-adv-x="793" 
d="M662 131l-20 -86c-19 6 -67 42 -108 81c-140 -125 -295 -128 -355 -31c-79 -60 -208 -129 -111 20c10 12 36 48 58 70c-31 88 -20 189 14 273c-59 62 -204 295 -27 179c15 -13 59 -57 76 -88c41 57 94 93 146 89c69 -5 125 -20 169 -45c28 29 81 103 99 95l65 -74
c-11 -16 -46 -50 -95 -80c50 -66 60 -160 34 -275c-6 -21 -13 -40 -22 -58c35 -21 79 -53 77 -70zM326 94c152 6 303 448 -31 465c-106 4 -183 -470 31 -465z" />
    <glyph glyph-name="plusminus" unicode="&#xb1;" horiz-adv-x="533" 
d="M222 213c0 5 -6 49 -9 123c-54 -1 -102 0 -121 1c-47 0 -58 65 -23 69c5 0 69 3 141 5c-2 59 -3 109 -2 124c-1 6 0 10 3 13c4 4 37 -3 40 -6c7 -13 8 -67 6 -129c75 2 115 4 133 3c6 1 10 0 13 -3c4 -4 20 -56 17 -59c-15 -10 -90 -15 -166 -17l-4 -111
c0 -47 -5 6 -28 -13zM57 129c13 15 -16 46 15 46c35 1 293 16 312 4c2 -2 37 -48 34 -50c-2 -2 -4 -3 -8 -2c-26 -2 -346 2 -353 2z" />
    <glyph glyph-name="minus" unicode="&#x2212;" horiz-adv-x="749" 
d="M62 329c11 0 493 7 531 4c6 1 10 0 13 -3c4 -4 -48 -73 -51 -76c-29 -18 -418 4 -470 6c-47 0 -4 46 -23 69z" />
    <glyph glyph-name="acute" unicode="&#xb4;" horiz-adv-x="274" 
d="M194 744l11 -75c2 -21 -76 -61 -99 -68c-193 -48 45 133 88 143z" />
    <glyph glyph-name="periodcentered" unicode="&#xb7;" horiz-adv-x="344" 
d="M91 229l36 94c7 -10 91 -38 100 -47c13 -10 -4 -54 -13 -65c-13 -17 -29 -25 -48 -32c-14 -5 -25 5 -36 12c-14 10 -44 22 -39 38z" />
    <glyph glyph-name="logicalnot" unicode="&#xac;" horiz-adv-x="749" 
d="M62 329c11 0 493 7 531 4c6 1 10 0 13 -3s-51 -237 -67 -258c-9 -12 -24 7 -25 6c-5 -3 19 171 -5 170c-111 -5 -381 10 -424 12c-47 0 -4 46 -23 69z" />
    <glyph glyph-name="dotlessi" unicode="&#x131;" horiz-adv-x="435" 
d="M294 -30c-23 19 -69 -24 -69 23c-2 43 -17 313 -12 424c1 24 -173 0 -170 5c1 1 -18 16 -6 25c21 16 255 70 258 67s4 -7 3 -13c3 -38 -4 -520 -4 -531z" />
    <glyph glyph-name="Euro" unicode="&#x20ac;" horiz-adv-x="689" 
d="M364 484c0 5 38 -77 14 -82c-9 -2 -45 -4 -90 -5c-1 -32 -1 -62 0 -93c45 5 80 10 80 12c0 5 38 -76 13 -82c-9 -2 -44 -4 -87 -5c10 -88 31 -155 62 -180c58 -6 170 114 136 155c-16 51 87 -9 82 -37c-5 -123 -124 -223 -261 -170c-86 10 -137 112 -155 235
c-29 2 -51 7 -59 13c-29 20 -22 53 13 48c8 -1 22 -1 39 0c-1 35 -1 71 3 107c-29 3 -51 6 -59 12c-28 21 -22 54 14 48c9 -1 29 -1 52 0c26 158 100 294 222 290c95 -1 168 -64 183 -142c8 -48 -7 -92 -55 -104c0 0 -43 9 -59 26c49 16 -3 196 -118 146
c-21 -63 -34 -134 -40 -203c40 4 70 9 70 11z" />
    <glyph glyph-name="onequarter" unicode="&#xbc;" horiz-adv-x="778" 
d="M452 746l76 -91c-9 -78 -208 -526 -292 -780c-35 -104 -71 -29 -62 15c8 67 247 893 278 856zM189 762c2 -3 18 3 21 -8c0 -2 4 -21 0 -36c32 -26 41 -71 39 -118c1 -21 -22 -247 -24 -263c-3 -24 -10 -25 -32 -30c-17 -3 -28 -30 -32 -14c-9 15 -9 143 -6 253
c-20 -36 -29 -67 -53 -57c-8 3 -11 50 -24 59c-10 6 49 64 77 112s33 104 34 102zM550 104c2 44 13 114 17 159c18 7 86 -32 79 -58c-2 -8 -15 -102 -9 -103c10 -1 37 2 48 -7c0 -25 -12 -13 -50 -31c-28 -14 3 -246 -37 -209c-2 3 -56 32 -56 40c-1 18 4 77 3 132
c0 6 -2 21 -8 21c-36 -4 -97 -18 -126 -21c-13 12 -30 29 -25 47c5 3 16 1 17 7c5 44 75 219 77 237c3 38 41 -11 33 -31c-11 -27 -38 -149 -46 -179c-4 -21 48 -16 82 -13c1 4 1 8 1 9z" />
    <glyph glyph-name="onehalf" unicode="&#xbd;" horiz-adv-x="769" 
d="M443 746l76 -91c-9 -78 -208 -526 -292 -780c-35 -104 -71 -29 -62 15c8 67 247 893 278 856zM180 762c2 -3 18 3 21 -8c0 -2 4 -21 0 -36c32 -26 41 -71 39 -118c1 -21 -22 -247 -24 -263c-3 -24 -10 -25 -32 -30c-17 -3 -28 -30 -32 -14c-9 15 -9 143 -6 253
c-20 -36 -29 -67 -53 -57c-8 3 -11 50 -24 59c-10 6 49 64 77 112s33 104 34 102zM471 291c34 27 83 43 122 28c12 -5 13 -18 24 -24c18 -10 52 -20 57 -38c29 -103 -151 -222 -192 -277c-29 -37 96 -31 180 -55c0 0 -4 -3 -5 -6c-2 -1 -4 -28 -6 -32
c-14 -7 -198 -26 -199 -26c-15 -1 -34 62 -45 94c-2 9 13 14 15 15c0 5 0 8 1 11c36 104 156 183 158 273c0 10 -4 16 -10 14c-30 -15 -101 -117 -114 -151c-5 -13 -38 46 -41 60c-9 36 18 84 55 114z" />
    <glyph glyph-name="threequarters" unicode="&#xbe;" horiz-adv-x="849" 
d="M523 746l76 -91c-9 -78 -208 -526 -292 -780c-35 -104 -71 -29 -62 15c8 67 247 893 278 856zM621 104c2 44 13 114 17 159c18 7 86 -32 79 -58c-2 -8 -15 -102 -9 -103c10 -1 37 2 48 -7c0 -25 -12 -13 -50 -31c-28 -14 3 -246 -37 -209c-2 3 -56 32 -56 40
c-1 18 4 77 3 132c0 6 -2 21 -8 21c-36 -4 -97 -18 -126 -21c-13 12 -30 29 -25 47c5 3 16 1 17 7c5 44 75 219 77 237c3 38 41 -11 33 -31c-11 -27 -38 -149 -46 -179c-4 -21 48 -16 82 -13c1 4 1 8 1 9zM263 559c68 -26 106 -115 45 -192c-128 -125 -231 -1 -233 32
c-5 23 5 65 33 61c3 0 8 -3 7 -7c-9 -64 119 -127 156 -82c34 39 -37 149 -78 152c-5 0 -22 -16 -27 -15c0 -1 -8 -14 -48 24c26 25 112 96 115 171c0 9 -5 15 -12 15c-29 -16 -63 -82 -75 -115c-6 -12 -60 19 -68 30c6 80 80 166 173 132c11 -5 11 -16 22 -14
c11 1 43 -29 49 -47c17 -63 -22 -95 -67 -130c-18 -12 -8 -9 8 -15z" />
    <glyph glyph-name="guillemotleft" unicode="&#xab;" horiz-adv-x="576" 
d="M438 511c10 -3 74 -76 27 -86s-176 -127 -206 -145c-36 -21 218 -159 218 -159s-25 -65 -52 -61c-27 3 -176 173 -213 207c-37 33 167 257 226 244zM277 511c10 -3 41 -28 -1 -60c-29 -25 -128 -139 -158 -157c-36 -21 175 -202 175 -202s7 -36 -20 -32
c-27 3 -185 173 -222 207c-37 33 167 257 226 244z" />
    <glyph glyph-name="guillemotright" unicode="&#xbb;" horiz-adv-x="553" 
d="M88 511c59 13 263 -211 226 -244c-37 -34 -186 -204 -213 -207c-27 -4 -52 61 -52 61s254 138 218 159c-30 18 -159 135 -206 145s17 83 27 86zM249 511c59 13 263 -211 226 -244c-37 -34 -195 -204 -222 -207c-27 -4 -20 32 -20 32s211 181 175 202
c-30 18 -129 132 -158 157c-42 32 -11 57 -1 60z" />
    <glyph glyph-name="multiply" unicode="&#xd7;" horiz-adv-x="452" 
d="M322 152c-4 3 -53 48 -108 99c-37 -39 -72 -72 -86 -85c-33 -33 -87 5 -65 32c3 4 46 51 96 104c-43 40 -79 75 -89 86c-5 3 -7 7 -7 11c0 6 40 35 44 35c14 -4 41 -53 84 -98c51 55 78 84 92 96c3 5 7 7 11 7c6 0 54 -25 54 -29c-4 -18 -53 -74 -106 -130l90 -99
c33 -34 -8 0 -10 -29z" />
    <glyph glyph-name="Eth" unicode="&#xd0;" horiz-adv-x="824" 
d="M295 -180c48 97 143 -18 254 56c181 83 282 815 -28 888c-46 11 -194 -85 -242 -111c-28 -15 -27 -22 -45 19c-42 83 -64 76 -90 80c-72 -4 -23 -23 -25 -97c1 -28 0 -183 -1 -343c-46 -7 -82 -13 -89 -12c-61 8 -33 -37 18 -54c13 -4 39 -8 71 -10
c-1 -138 -3 -265 -3 -303c-1 -17 6 -26 24 -32c24 -20 106 -73 156 -81zM386 244c66 71 11 90 -74 89c-12 99 -29 190 -46 239c303 241 373 -677 61 -670c13 55 9 192 -4 331c34 2 58 6 63 11z" />
    <glyph glyph-name="AE" unicode="&#xc6;" horiz-adv-x="1017" 
d="M284 123c-13 -3 -18 -10 -19 -18c-9 -70 -75 -347 -116 -320c-42 28 -52 35 -91 65c-44 34 5 3 7 41c34 164 91 859 316 859c29 0 108 -26 137 -32c6 -3 15 -7 15 -16s-6 -16 -15 -21c-3 -2 -9 -3 -13 -3c-6 -9 -5 -17 -5 -27c8 -31 16 -43 22 -88c45 101 55 153 146 150
c100 -4 198 -59 198 -168c0 -80 -83 -128 -99 -144c-7 -5 -17 -8 -26 -11c-6 -1 -12 3 -14 7c-5 4 -1 10 2 13c29 42 49 79 49 127c0 36 -95 63 -112 40c-44 -24 -65 -178 -50 -263c2 -12 5 -12 14 -5c43 36 257 -11 230 -35c-1 -2 -3 -3 -4 -3
c-139 -32 -435 -465 -259 -408c32 15 272 211 291 256c18 12 63 12 65 -17c1 -1 0 -2 1 -2c-5 -92 -186 -270 -284 -306c-85 -31 -90 -22 -148 15c-57 60 -18 327 -30 368c7 25 -188 -45 -208 -54zM479 647c-79 -5 -172 -362 -182 -398c-3 -10 -7 -35 -9 -43
c0 -17 9 -8 17 -6c33 9 140 27 173 44c10 3 9 17 8 23c-6 55 -19 316 -7 380z" />
    <glyph glyph-name="quoteright" unicode="&#x2019;" horiz-adv-x="282" 
d="M65 556l15 70c33 22 79 -5 88 -14c13 -10 22 -52 21 -66c-2 -49 -76 -137 -95 -144c-14 -5 21 109 10 116c-14 10 -44 22 -39 38z" />
    <glyph glyph-name="bullet" unicode="&#x2022;" horiz-adv-x="611" 
d="M169 150l67 173c13 -18 138 -36 155 -53c24 -18 22 -133 5 -154c-24 -31 -53 -46 -88 -59c-26 -9 -47 10 -67 23c-26 18 -81 40 -72 70z" />
    <glyph glyph-name="cedilla" unicode="&#xb8;" horiz-adv-x="271" 
d="M68 -39l49 -4c-12 -18 -36 -59 -39 -66c2 -2 5 -1 7 -1c93 12 134 -10 113 -68c-21 -36 -94 -70 -164 -55c-30 6 -37 33 -16 39c4 2 3 9 6 7c31 -23 140 -18 156 33c14 48 -107 3 -117 -2c-18 -4 -34 10 -41 22c9 4 7 5 16 9c-6 17 22 73 30 86z" />
    <glyph glyph-name="Ccedilla" unicode="&#xc7;" horiz-adv-x="567" 
d="M251 757c33 25 186 -46 218 -78c70 -10 -134 -270 -185 -246c-10 -3 -43 -3 -53 2c-11 3 -13 2 -17 -10c-26 -104 -10 -418 76 -500c8 -6 12 -6 18 3c61 10 83 215 52 264c-13 70 126 11 118 -26c1 -85 -82 -267 -140 -279c-3 -2 -6 -5 -8 -8c-49 -48 -105 -54 -166 -36
c-267 136 -178 721 87 914zM222 457c3 0 4 0 5 -1c50 3 262 257 59 215c-16 -23 -62 -187 -64 -206v-8zM153 -134l49 -4c-12 -18 -36 -59 -39 -66c2 -2 5 -1 7 -1c93 12 134 -10 113 -68c-21 -36 -94 -70 -164 -55c-30 6 -37 33 -16 39c4 2 3 9 6 7c31 -23 140 -18 156 33
c14 48 -107 3 -117 -2c-18 -4 -34 10 -41 22c9 4 7 5 16 9c-6 17 22 73 30 86z" />
    <glyph glyph-name="Agrave" unicode="&#xc0;" horiz-adv-x="592" 
d="M161 123c-13 -3 -18 -10 -19 -18c-9 -70 -75 -347 -116 -320c-42 28 -52 35 -91 65c-44 34 5 3 7 41c34 164 91 859 316 859c29 0 108 -26 137 -32c6 -3 15 -7 15 -16s-6 -16 -15 -21c-3 -2 -9 -3 -13 -3c-6 -9 -5 -17 -5 -27c25 -95 38 -286 45 -367
c-1 -14 4 -18 16 -15c32 7 54 18 78 30c12 7 20 3 19 -9c-1 -19 -4 -34 -25 -45s-40 -19 -63 -30c-15 -7 -12 -5 -10 -20c12 -128 26 -254 55 -371c-15 -31 -44 7 -71 14c-10 4 -16 10 -20 21c-24 75 -27 282 -32 318c7 25 -188 -45 -208 -54zM356 647
c-79 -5 -172 -362 -182 -398c-3 -10 -7 -35 -9 -43c0 -17 9 -8 17 -6c33 9 140 27 173 44c10 3 9 17 8 23c-6 55 -19 316 -7 380zM207 852l11 75c43 -10 281 -191 88 -143c-23 7 -101 47 -99 68z" />
    <glyph glyph-name="Aacute" unicode="&#xc1;" horiz-adv-x="592" 
d="M161 123c-13 -3 -18 -10 -19 -18c-9 -70 -75 -347 -116 -320c-42 28 -52 35 -91 65c-44 34 5 3 7 41c34 164 91 859 316 859c29 0 108 -26 137 -32c6 -3 15 -7 15 -16s-6 -16 -15 -21c-3 -2 -9 -3 -13 -3c-6 -9 -5 -17 -5 -27c25 -95 38 -286 45 -367
c-1 -14 4 -18 16 -15c32 7 54 18 78 30c12 7 20 3 19 -9c-1 -19 -4 -34 -25 -45s-40 -19 -63 -30c-15 -7 -12 -5 -10 -20c12 -128 26 -254 55 -371c-15 -31 -44 7 -71 14c-10 4 -16 10 -20 21c-24 75 -27 282 -32 318c7 25 -188 -45 -208 -54zM356 647
c-79 -5 -172 -362 -182 -398c-3 -10 -7 -35 -9 -43c0 -17 9 -8 17 -6c33 9 140 27 173 44c10 3 9 17 8 23c-6 55 -19 316 -7 380zM368 927l11 -75c2 -21 -76 -61 -99 -68c-193 -48 45 133 88 143z" />
    <glyph glyph-name="Acircumflex" unicode="&#xc2;" horiz-adv-x="592" 
d="M161 123c-13 -3 -18 -10 -19 -18c-9 -70 -75 -347 -116 -320c-42 28 -52 35 -91 65c-44 34 5 3 7 41c34 164 91 859 316 859c29 0 108 -26 137 -32c6 -3 15 -7 15 -16s-6 -16 -15 -21c-3 -2 -9 -3 -13 -3c-6 -9 -5 -17 -5 -27c25 -95 38 -286 45 -367
c-1 -14 4 -18 16 -15c32 7 54 18 78 30c12 7 20 3 19 -9c-1 -19 -4 -34 -25 -45s-40 -19 -63 -30c-15 -7 -12 -5 -10 -20c12 -128 26 -254 55 -371c-15 -31 -44 7 -71 14c-10 4 -16 10 -20 21c-24 75 -27 282 -32 318c7 25 -188 -45 -208 -54zM356 647
c-79 -5 -172 -362 -182 -398c-3 -10 -7 -35 -9 -43c0 -17 9 -8 17 -6c33 9 140 27 173 44c10 3 9 17 8 23c-6 55 -19 316 -7 380zM400 797c-1 -4 -69 -46 -74 -26c-4 21 -32 102 -40 115c-9 16 -57 -107 -57 -107s-28 12 -26 24s75 134 90 150c14 17 113 -130 107 -156z" />
    <glyph glyph-name="Atilde" unicode="&#xc3;" horiz-adv-x="592" 
d="M161 123c-13 -3 -18 -10 -19 -18c-9 -70 -75 -347 -116 -320c-42 28 -52 35 -91 65c-44 34 5 3 7 41c34 164 91 859 316 859c29 0 108 -26 137 -32c6 -3 15 -7 15 -16s-6 -16 -15 -21c-3 -2 -9 -3 -13 -3c-6 -9 -5 -17 -5 -27c25 -95 38 -286 45 -367
c-1 -14 4 -18 16 -15c32 7 54 18 78 30c12 7 20 3 19 -9c-1 -19 -4 -34 -25 -45s-40 -19 -63 -30c-15 -7 -12 -5 -10 -20c12 -128 26 -254 55 -371c-15 -31 -44 7 -71 14c-10 4 -16 10 -20 21c-24 75 -27 282 -32 318c7 25 -188 -45 -208 -54zM356 647
c-79 -5 -172 -362 -182 -398c-3 -10 -7 -35 -9 -43c0 -17 9 -8 17 -6c33 9 140 27 173 44c10 3 9 17 8 23c-6 55 -19 316 -7 380zM165 853c2 0 43 56 68 62c48 10 64 -72 94 -72c26 0 50 53 51 56c6 12 69 -32 47 -68c-16 -27 -60 -64 -93 -64c-51 0 -70 96 -96 97
c-25 2 -49 -51 -60 -50c-19 0 -28 11 -11 39z" />
    <glyph glyph-name="Adieresis" unicode="&#xc4;" horiz-adv-x="592" 
d="M161 123c-13 -3 -18 -10 -19 -18c-9 -70 -75 -347 -116 -320c-42 28 -52 35 -91 65c-44 34 5 3 7 41c34 164 91 859 316 859c29 0 108 -26 137 -32c6 -3 15 -7 15 -16s-6 -16 -15 -21c-3 -2 -9 -3 -13 -3c-6 -9 -5 -17 -5 -27c25 -95 38 -286 45 -367
c-1 -14 4 -18 16 -15c32 7 54 18 78 30c12 7 20 3 19 -9c-1 -19 -4 -34 -25 -45s-40 -19 -63 -30c-15 -7 -12 -5 -10 -20c12 -128 26 -254 55 -371c-15 -31 -44 7 -71 14c-10 4 -16 10 -20 21c-24 75 -27 282 -32 318c7 25 -188 -45 -208 -54zM356 647
c-79 -5 -172 -362 -182 -398c-3 -10 -7 -35 -9 -43c0 -17 9 -8 17 -6c33 9 140 27 173 44c10 3 9 17 8 23c-6 55 -19 316 -7 380zM162 820l28 74c6 -8 73 -30 80 -37c10 -8 -3 -43 -11 -52c-10 -13 -23 -20 -38 -25c-11 -4 -19 4 -28 9c-11 8 -35 18 -31 31zM307 820l28 74
c6 -8 73 -30 80 -37c10 -8 -3 -43 -11 -52c-10 -13 -23 -20 -38 -25c-11 -4 -19 4 -28 9c-11 8 -35 18 -31 31z" />
    <glyph glyph-name="Aring" unicode="&#xc5;" horiz-adv-x="592" 
d="M161 123c-13 -3 -18 -10 -19 -18c-9 -70 -75 -347 -116 -320c-42 28 -52 35 -91 65c-44 34 5 3 7 41c34 164 91 859 316 859c29 0 108 -26 137 -32c6 -3 15 -7 15 -16s-6 -16 -15 -21c-3 -2 -9 -3 -13 -3c-6 -9 -5 -17 -5 -27c25 -95 38 -286 45 -367
c-1 -14 4 -18 16 -15c32 7 54 18 78 30c12 7 20 3 19 -9c-1 -19 -4 -34 -25 -45s-40 -19 -63 -30c-15 -7 -12 -5 -10 -20c12 -128 26 -254 55 -371c-15 -31 -44 7 -71 14c-10 4 -16 10 -20 21c-24 75 -27 282 -32 318c7 25 -188 -45 -208 -54zM356 647
c-79 -5 -172 -362 -182 -398c-3 -10 -7 -35 -9 -43c0 -17 9 -8 17 -6c33 9 140 27 173 44c10 3 9 17 8 23c-6 55 -19 316 -7 380zM239 830c-26 159 134 124 149 51c4 -17 -4 -60 -15 -72c-14 -18 -32 -28 -53 -34c-15 -6 -26 5 -38 12c-15 11 -48 25 -43 43zM293 846
c-2 -8 12 -12 18 -18c5 -3 9 -7 15 -4c10 1 16 7 22 12c5 7 10 25 5 31c-19 36 -77 26 -60 -21z" />
    <glyph glyph-name="ring" unicode="&#x2da;" horiz-adv-x="298" 
d="M65 624c-26 159 134 124 149 51c4 -17 -4 -60 -15 -72c-14 -18 -32 -28 -53 -34c-15 -6 -26 5 -38 12c-15 11 -48 25 -43 43zM119 640c-2 -8 12 -12 18 -18c5 -3 9 -7 15 -4c10 1 16 7 22 12c5 7 10 25 5 31c-19 36 -77 26 -60 -21z" />
    <glyph glyph-name="Egrave" unicode="&#xc8;" horiz-adv-x="601" 
d="M245 629c-44 -24 -65 -178 -50 -263c2 -12 5 -12 14 -5c43 36 257 -11 230 -35c-1 -2 -3 -3 -4 -3c-139 -32 -435 -465 -259 -408c32 15 272 211 291 256c18 12 63 12 65 -17c1 -1 0 -2 1 -2c-5 -92 -180 -301 -284 -306c-244 -16 -388 278 -145 448c11 15 10 20 -3 29
c-3 3 -8 6 -10 7c-137 127 -29 435 156 435c100 0 198 -59 198 -168c0 -80 -83 -128 -99 -144c-7 -5 -17 -8 -26 -11c-6 -1 -12 3 -14 7c-5 4 -1 10 2 13c29 42 49 79 49 127c0 36 -95 63 -112 40zM158 867l11 75c43 -10 281 -191 88 -143c-23 7 -101 47 -99 68z" />
    <glyph glyph-name="Eacute" unicode="&#xc9;" horiz-adv-x="601" 
d="M245 629c-44 -24 -65 -178 -50 -263c2 -12 5 -12 14 -5c43 36 257 -11 230 -35c-1 -2 -3 -3 -4 -3c-139 -32 -435 -465 -259 -408c32 15 272 211 291 256c18 12 63 12 65 -17c1 -1 0 -2 1 -2c-5 -92 -180 -301 -284 -306c-244 -16 -388 278 -145 448c11 15 10 20 -3 29
c-3 3 -8 6 -10 7c-137 127 -29 435 156 435c100 0 198 -59 198 -168c0 -80 -83 -128 -99 -144c-7 -5 -17 -8 -26 -11c-6 -1 -12 3 -14 7c-5 4 -1 10 2 13c29 42 49 79 49 127c0 36 -95 63 -112 40zM354 949l11 -75c2 -21 -76 -61 -99 -68c-193 -48 45 133 88 143z" />
    <glyph glyph-name="Ecircumflex" unicode="&#xca;" horiz-adv-x="601" 
d="M245 629c-44 -24 -65 -178 -50 -263c2 -12 5 -12 14 -5c43 36 257 -11 230 -35c-1 -2 -3 -3 -4 -3c-139 -32 -435 -465 -259 -408c32 15 272 211 291 256c18 12 63 12 65 -17c1 -1 0 -2 1 -2c-5 -92 -180 -301 -284 -306c-244 -16 -388 278 -145 448c11 15 10 20 -3 29
c-3 3 -8 6 -10 7c-137 127 -29 435 156 435c100 0 198 -59 198 -168c0 -80 -83 -128 -99 -144c-7 -5 -17 -8 -26 -11c-6 -1 -12 3 -14 7c-5 4 -1 10 2 13c29 42 49 79 49 127c0 36 -95 63 -112 40zM370 821c-1 -4 -69 -46 -74 -26c-4 21 -32 102 -40 115
c-9 16 -57 -107 -57 -107s-28 12 -26 24s75 134 90 150c14 17 113 -130 107 -156z" />
    <glyph glyph-name="Edieresis" unicode="&#xcb;" horiz-adv-x="601" 
d="M245 629c-44 -24 -65 -178 -50 -263c2 -12 5 -12 14 -5c43 36 257 -11 230 -35c-1 -2 -3 -3 -4 -3c-139 -32 -435 -465 -259 -408c32 15 272 211 291 256c18 12 63 12 65 -17c1 -1 0 -2 1 -2c-5 -92 -180 -301 -284 -306c-244 -16 -388 278 -145 448c11 15 10 20 -3 29
c-3 3 -8 6 -10 7c-137 127 -29 435 156 435c100 0 198 -59 198 -168c0 -80 -83 -128 -99 -144c-7 -5 -17 -8 -26 -11c-6 -1 -12 3 -14 7c-5 4 -1 10 2 13c29 42 49 79 49 127c0 36 -95 63 -112 40zM137 848l28 74c6 -8 73 -30 80 -37c10 -8 -3 -43 -11 -52
c-10 -13 -23 -20 -38 -25c-11 -4 -19 4 -28 9c-11 8 -35 18 -31 31zM282 848l28 74c6 -8 73 -30 80 -37c10 -8 -3 -43 -11 -52c-10 -13 -23 -20 -38 -25c-11 -4 -19 4 -28 9c-11 8 -35 18 -31 31z" />
    <glyph glyph-name="Igrave" unicode="&#xcc;" horiz-adv-x="343" 
d="M221 -56c10 -4 63 -7 62 -23c5 -6 3 -14 -4 -15c-44 -3 -219 -40 -242 -43c-11 -2 -20 7 -24 20c-1 5 -13 44 -16 49c2 7 6 7 11 8c8 0 15 1 25 3c19 1 18 6 12 19c-12 22 -13 91 -11 118c-6 126 57 510 66 548c3 10 0 16 -7 22c-19 10 -40 22 -47 42c-2 9 0 11 9 12
c29 4 214 14 241 -12c6 -7 8 -18 10 -28c3 -7 -11 -20 -18 -18c-13 0 -29 -2 -42 -4c-35 -9 -46 -4 -38 -40c12 -43 12 -596 -6 -635c-20 -30 -5 -18 19 -23zM40 829l11 75c43 -10 281 -191 88 -143c-23 7 -101 47 -99 68z" />
    <glyph glyph-name="Iacute" unicode="&#xcd;" horiz-adv-x="343" 
d="M221 -56c10 -4 63 -7 62 -23c5 -6 3 -14 -4 -15c-44 -3 -219 -40 -242 -43c-11 -2 -20 7 -24 20c-1 5 -13 44 -16 49c2 7 6 7 11 8c8 0 15 1 25 3c19 1 18 6 12 19c-12 22 -13 91 -11 118c-6 126 57 510 66 548c3 10 0 16 -7 22c-19 10 -40 22 -47 42c-2 9 0 11 9 12
c29 4 214 14 241 -12c6 -7 8 -18 10 -28c3 -7 -11 -20 -18 -18c-13 0 -29 -2 -42 -4c-35 -9 -46 -4 -38 -40c12 -43 12 -596 -6 -635c-20 -30 -5 -18 19 -23zM266 904l11 -75c2 -21 -76 -61 -99 -68c-193 -48 45 133 88 143z" />
    <glyph glyph-name="Icircumflex" unicode="&#xce;" horiz-adv-x="343" 
d="M221 -56c10 -4 63 -7 62 -23c5 -6 3 -14 -4 -15c-44 -3 -219 -40 -242 -43c-11 -2 -20 7 -24 20c-1 5 -13 44 -16 49c2 7 6 7 11 8c8 0 15 1 25 3c19 1 18 6 12 19c-12 22 -13 91 -11 118c-6 126 57 510 66 548c3 10 0 16 -7 22c-19 10 -40 22 -47 42c-2 9 0 11 9 12
c29 4 214 14 241 -12c6 -7 8 -18 10 -28c3 -7 -11 -20 -18 -18c-13 0 -29 -2 -42 -4c-35 -9 -46 -4 -38 -40c12 -43 12 -596 -6 -635c-20 -30 -5 -18 19 -23zM266 782c-1 -4 -69 -46 -74 -26c-4 21 -32 102 -40 115c-9 16 -57 -107 -57 -107s-28 12 -26 24s75 134 90 150
c14 17 113 -130 107 -156z" />
    <glyph glyph-name="Idieresis" unicode="&#xcf;" horiz-adv-x="343" 
d="M221 -56c10 -4 63 -7 62 -23c5 -6 3 -14 -4 -15c-44 -3 -219 -40 -242 -43c-11 -2 -20 7 -24 20c-1 5 -13 44 -16 49c2 7 6 7 11 8c8 0 15 1 25 3c19 1 18 6 12 19c-12 22 -13 91 -11 118c-6 126 57 510 66 548c3 10 0 16 -7 22c-19 10 -40 22 -47 42c-2 9 0 11 9 12
c29 4 214 14 241 -12c6 -7 8 -18 10 -28c3 -7 -11 -20 -18 -18c-13 0 -29 -2 -42 -4c-35 -9 -46 -4 -38 -40c12 -43 12 -596 -6 -635c-20 -30 -5 -18 19 -23zM49 808l28 74c6 -8 73 -30 80 -37c10 -8 -3 -43 -11 -52c-10 -13 -23 -20 -38 -25c-11 -4 -19 4 -28 9
c-11 8 -35 18 -31 31zM194 808l28 74c6 -8 73 -30 80 -37c10 -8 -3 -43 -11 -52c-10 -13 -23 -20 -38 -25c-11 -4 -19 4 -28 9c-11 8 -35 18 -31 31z" />
    <glyph glyph-name="Ntilde" unicode="&#xd1;" horiz-adv-x="544" 
d="M379 219c-12 113 -45 439 -49 493c16 37 76 23 114 -2c46 -32 10 -557 8 -706c0 -19 -22 -25 -34 -37c-2 -3 -131 -63 -133 -64c-56 3 -142 316 -170 374c-34 71 -28 -30 -27 -58c4 -96 17 -247 43 -316c4 -15 -14 -35 -28 -46c-19 18 -57 26 -79 37c-8 3 -13 10 -16 22
c-28 54 -2 726 0 753c0 10 93 44 86 47c43 -13 225 -436 256 -495c10 -29 27 -17 29 -2zM116 871c2 0 43 56 68 62c48 10 64 -72 94 -72c26 0 50 53 51 56c6 12 69 -32 47 -68c-16 -27 -60 -64 -93 -64c-51 0 -70 96 -96 97c-25 2 -49 -51 -60 -50c-19 0 -28 11 -11 39z" />
    <glyph glyph-name="dagger" unicode="&#x2020;" horiz-adv-x="601" 
d="M55 477c-2 7 71 3 153 -3c0 155 5 277 22 267l97 -66c5 -29 3 -108 -2 -210c37 -3 70 -4 92 -4c88 1 101 -31 -4 -48c-28 -5 -59 -8 -91 -11c-9 -163 -23 -366 -27 -514c-6 -109 -61 -48 -65 -3c-6 36 -18 289 -21 510c-47 -2 -88 -4 -108 -7c-49 -7 -46 82 -46 89z" />
    <glyph glyph-name="daggerdbl" unicode="&#x2021;" horiz-adv-x="604" 
d="M65 250c-2 8 73 3 157 -4c-1 50 -3 100 -3 149c-47 -2 -88 -4 -108 -7c-49 -7 -46 82 -46 89c-2 7 71 3 153 -3c0 155 5 277 22 267l97 -66c5 -29 3 -108 -2 -210c37 -3 70 -4 92 -4c88 1 101 -31 -4 -48c-28 -5 -59 -8 -91 -11c-3 -51 -6 -107 -10 -164
c42 -3 80 -5 105 -4c88 1 101 -31 -4 -48c-32 -5 -68 -9 -105 -12c-6 -102 -11 -202 -13 -286c-6 -109 -61 -48 -65 -3c-4 24 -10 142 -15 283c-49 -2 -93 -4 -114 -7c-49 -7 -46 82 -46 89z" />
    <glyph glyph-name="Ograve" unicode="&#xd2;" horiz-adv-x="599" 
d="M349 -152c-46 -16 -206 85 -271 65c-116 76 -75 376 -38 480c2 3 3 8 5 11c8 21 8 23 -15 34c-21 13 -31 32 -31 53c27 96 298 313 437 148c132 -95 159 -640 -87 -791zM269 565c0 13 -19 45 -38 43c-42 -6 -59 -150 -67 -184c-28 -5 -34 -379 3 -430
c11 -19 72 -19 83 -6c15 29 52 32 19 577zM166 815l11 75c43 -10 281 -191 88 -143c-23 7 -101 47 -99 68z" />
    <glyph glyph-name="Oacute" unicode="&#xd3;" horiz-adv-x="599" 
d="M349 -152c-46 -16 -206 85 -271 65c-116 76 -75 376 -38 480c2 3 3 8 5 11c8 21 8 23 -15 34c-21 13 -31 32 -31 53c27 96 298 313 437 148c132 -95 159 -640 -87 -791zM269 565c0 13 -19 45 -38 43c-42 -6 -59 -150 -67 -184c-28 -5 -34 -379 3 -430
c11 -19 72 -19 83 -6c15 29 52 32 19 577zM354 889l11 -75c2 -21 -76 -61 -99 -68c-193 -48 45 133 88 143z" />
    <glyph glyph-name="Ocircumflex" unicode="&#xd4;" horiz-adv-x="599" 
d="M349 -152c-46 -16 -206 85 -271 65c-116 76 -75 376 -38 480c2 3 3 8 5 11c8 21 8 23 -15 34c-21 13 -31 32 -31 53c27 96 298 313 437 148c132 -95 159 -640 -87 -791zM269 565c0 13 -19 45 -38 43c-42 -6 -59 -150 -67 -184c-28 -5 -34 -379 3 -430
c11 -19 72 -19 83 -6c15 29 52 32 19 577zM363 761c-1 -4 -69 -46 -74 -26c-4 21 -32 102 -40 115c-9 16 -57 -107 -57 -107s-28 12 -26 24s75 134 90 150c14 17 113 -130 107 -156z" />
    <glyph glyph-name="Otilde" unicode="&#xd5;" horiz-adv-x="599" 
d="M349 -152c-46 -16 -206 85 -271 65c-116 76 -75 376 -38 480c2 3 3 8 5 11c8 21 8 23 -15 34c-21 13 -31 32 -31 53c27 96 298 313 437 148c132 -95 159 -640 -87 -791zM269 565c0 13 -19 45 -38 43c-42 -6 -59 -150 -67 -184c-28 -5 -34 -379 3 -430
c11 -19 72 -19 83 -6c15 29 52 32 19 577zM123 818c2 0 43 56 68 62c48 10 64 -72 94 -72c26 0 50 53 51 56c6 12 69 -32 47 -68c-16 -27 -60 -64 -93 -64c-51 0 -70 96 -96 97c-25 2 -49 -51 -60 -50c-19 0 -28 11 -11 39z" />
    <glyph glyph-name="Odieresis" unicode="&#xd6;" horiz-adv-x="599" 
d="M349 -152c-46 -16 -206 85 -271 65c-116 76 -75 376 -38 480c2 3 3 8 5 11c8 21 8 23 -15 34c-21 13 -31 32 -31 53c27 96 298 313 437 148c132 -95 159 -640 -87 -791zM269 565c0 13 -19 45 -38 43c-42 -6 -59 -150 -67 -184c-28 -5 -34 -379 3 -430
c11 -19 72 -19 83 -6c15 29 52 32 19 577zM98 808l28 74c6 -8 73 -30 80 -37c10 -8 -3 -43 -11 -52c-10 -13 -23 -20 -38 -25c-11 -4 -19 4 -28 9c-11 8 -35 18 -31 31zM243 808l28 74c6 -8 73 -30 80 -37c10 -8 -3 -43 -11 -52c-10 -13 -23 -20 -38 -25c-11 -4 -19 4 -28 9
c-11 8 -35 18 -31 31z" />
    <glyph glyph-name="Oslash" unicode="&#xd8;" horiz-adv-x="599" 
d="M379 819l76 -91c-2 -14 -10 -43 -24 -84c1 -2 3 -3 5 -5c132 -95 159 -640 -87 -791c-33 -11 -124 38 -197 59c-14 -39 -27 -75 -37 -106c-35 -104 -71 -29 -62 15c1 11 10 47 24 98c-115 77 -74 375 -37 479c2 3 3 8 5 11c8 21 8 23 -15 34c-21 13 -31 32 -31 53
c20 73 183 217 321 207c29 80 51 130 59 121zM269 565c0 13 -19 45 -38 43c-42 -6 -59 -150 -67 -184c-18 -3 -27 -157 -21 -281c39 133 85 283 127 409c-1 4 -1 8 -1 13zM250 -12c11 21 35 31 32 262c-35 -91 -71 -183 -102 -266c22 -8 61 -6 70 4z" />
    <glyph glyph-name="Ugrave" unicode="&#xd9;" horiz-adv-x="627" 
d="M149 843l11 75c43 -10 281 -191 88 -143c-23 7 -101 47 -99 68zM409 -10c30 52 22 632 12 677c-3 3 -5 6 -6 12c-12 -2 -77 -2 -88 20c-5 9 -11 19 -10 32c15 -5 217 34 238 1c11 -6 20 -30 14 -43c-3 -4 -7 -9 -10 -10c-12 -1 -25 -3 -37 -2c-13 2 -15 1 -12 -21
c-7 -6 12 -277 10 -437c-2 -164 -24 -217 -36 -258c-16 -58 -88 -120 -137 -120c-92 0 -248 116 -284 152c-69 71 -63 288 -61 328c8 151 24 261 83 332c8 10 -41 13 -52 9c-19 -7 4 30 15 37c45 30 162 28 186 -29c49 -110 -13 -687 25 -729c92 -97 144 38 150 49z" />
    <glyph glyph-name="Uacute" unicode="&#xda;" horiz-adv-x="627" 
d="M376 945l11 -75c2 -21 -76 -61 -99 -68c-193 -48 45 133 88 143zM409 -10c30 52 22 632 12 677c-3 3 -5 6 -6 12c-12 -2 -77 -2 -88 20c-5 9 -11 19 -10 32c15 -5 217 34 238 1c11 -6 20 -30 14 -43c-3 -4 -7 -9 -10 -10c-12 -1 -25 -3 -37 -2c-13 2 -15 1 -12 -21
c-7 -6 12 -277 10 -437c-2 -164 -24 -217 -36 -258c-16 -58 -88 -120 -137 -120c-92 0 -248 116 -284 152c-69 71 -63 288 -61 328c8 151 24 261 83 332c8 10 -41 13 -52 9c-19 -7 4 30 15 37c45 30 162 28 186 -29c49 -110 -13 -687 25 -729c92 -97 144 38 150 49z" />
    <glyph glyph-name="Ucircumflex" unicode="&#xdb;" horiz-adv-x="627" 
d="M392 814c-1 -4 -69 -46 -74 -26c-4 21 -32 102 -40 115c-9 16 -57 -107 -57 -107s-28 12 -26 24s75 134 90 150c14 17 113 -130 107 -156zM409 -10c30 52 22 632 12 677c-3 3 -5 6 -6 12c-12 -2 -77 -2 -88 20c-5 9 -11 19 -10 32c15 -5 217 34 238 1
c11 -6 20 -30 14 -43c-3 -4 -7 -9 -10 -10c-12 -1 -25 -3 -37 -2c-13 2 -15 1 -12 -21c-7 -6 12 -277 10 -437c-2 -164 -24 -217 -36 -258c-16 -58 -88 -120 -137 -120c-92 0 -248 116 -284 152c-69 71 -63 288 -61 328c8 151 24 261 83 332c8 10 -41 13 -52 9
c-19 -7 4 30 15 37c45 30 162 28 186 -29c49 -110 -13 -687 25 -729c92 -97 144 38 150 49z" />
    <glyph glyph-name="Udieresis" unicode="&#xdc;" horiz-adv-x="627" 
d="M157 825l28 74c6 -8 73 -30 80 -37c10 -8 -3 -43 -11 -52c-10 -13 -23 -20 -38 -25c-11 -4 -19 4 -28 9c-11 8 -35 18 -31 31zM302 825l28 74c6 -8 73 -30 80 -37c10 -8 -3 -43 -11 -52c-10 -13 -23 -20 -38 -25c-11 -4 -19 4 -28 9c-11 8 -35 18 -31 31zM409 -10
c30 52 22 632 12 677c-3 3 -5 6 -6 12c-12 -2 -77 -2 -88 20c-5 9 -11 19 -10 32c15 -5 217 34 238 1c11 -6 20 -30 14 -43c-3 -4 -7 -9 -10 -10c-12 -1 -25 -3 -37 -2c-13 2 -15 1 -12 -21c-7 -6 12 -277 10 -437c-2 -164 -24 -217 -36 -258c-16 -58 -88 -120 -137 -120
c-92 0 -248 116 -284 152c-69 71 -63 288 -61 328c8 151 24 261 83 332c8 10 -41 13 -52 9c-19 -7 4 30 15 37c45 30 162 28 186 -29c49 -110 -13 -687 25 -729c92 -97 144 38 150 49z" />
    <glyph glyph-name="Yacute" unicode="&#xdd;" horiz-adv-x="467" 
d="M194 345c-221 362 -232 384 -232 403c-88 55 204 44 317 -235c5 -8 10 -7 15 2c4 8 9 18 13 27c9 28 89 158 106 169c4 6 10 12 16 19c2 -5 4 -7 6 -11c6 -18 6 -38 4 -56c-5 -24 -9 -47 -10 -73c0 -5 -3 -10 -5 -15c-38 -96 -98 -607 -90 -674c-1 -10 0 -21 0 -33
c-25 -17 -147 11 -175 34c-4 4 -9 9 -13 11c-13 9 -17 23 -21 39c-13 91 51 330 74 366c7 17 7 17 -5 27zM373 912l11 -75c2 -21 -76 -61 -99 -68c-193 -48 45 133 88 143z" />
    <glyph glyph-name="agrave" unicode="&#xe0;" horiz-adv-x="503" 
d="M520 252c15 -3 -4 -73 -19 -140c-51 -227 -100 -245 -212 -170c-27 18 -40 53 -46 95c-14 92 7 193 -9 158c-20 -44 -79 -192 -111 -197c-16 -2 -85 19 -110 39c-19 15 -24 17 -30 55c-18 154 74 418 253 468c17 5 73 -41 73 -58c-2 -14 -65 -51 -55 -50
c37 7 136 -92 135 -114c-6 -47 -10 -66 -14 -107c-4 -65 -8 -215 7 -267c3 -16 12 -14 24 -8c47 24 84 221 101 274c6 17 5 24 13 22zM61 198c-19 -60 -26 -138 6 -79c41 76 97 185 139 256c28 47 -5 42 -45 1c-37 -38 -76 -101 -100 -178zM159 701l11 75
c43 -10 281 -191 88 -143c-23 7 -101 47 -99 68z" />
    <glyph glyph-name="aacute" unicode="&#xe1;" horiz-adv-x="503" 
d="M520 252c15 -3 -4 -73 -19 -140c-51 -227 -100 -245 -212 -170c-27 18 -40 53 -46 95c-14 92 7 193 -9 158c-20 -44 -79 -192 -111 -197c-16 -2 -85 19 -110 39c-19 15 -24 17 -30 55c-18 154 74 418 253 468c17 5 73 -41 73 -58c-2 -14 -65 -51 -55 -50
c37 7 136 -92 135 -114c-6 -47 -10 -66 -14 -107c-4 -65 -8 -215 7 -267c3 -16 12 -14 24 -8c47 24 84 221 101 274c6 17 5 24 13 22zM61 198c-19 -60 -26 -138 6 -79c41 76 97 185 139 256c28 47 -5 42 -45 1c-37 -38 -76 -101 -100 -178zM336 782l11 -75
c2 -21 -76 -61 -99 -68c-193 -48 45 133 88 143z" />
    <glyph glyph-name="acircumflex" unicode="&#xe2;" horiz-adv-x="503" 
d="M520 252c15 -3 -4 -73 -19 -140c-51 -227 -100 -245 -212 -170c-27 18 -40 53 -46 95c-14 92 7 193 -9 158c-20 -44 -79 -192 -111 -197c-16 -2 -85 19 -110 39c-19 15 -24 17 -30 55c-18 154 74 418 253 468c17 5 73 -41 73 -58c-2 -14 -65 -51 -55 -50
c37 7 136 -92 135 -114c-6 -47 -10 -66 -14 -107c-4 -65 -8 -215 7 -267c3 -16 12 -14 24 -8c47 24 84 221 101 274c6 17 5 24 13 22zM61 198c-19 -60 -26 -138 6 -79c41 76 97 185 139 256c28 47 -5 42 -45 1c-37 -38 -76 -101 -100 -178zM361 632c-1 -4 -69 -46 -74 -26
c-4 21 -32 102 -40 115c-9 16 -57 -107 -57 -107s-28 12 -26 24s75 134 90 150c14 17 113 -130 107 -156z" />
    <glyph glyph-name="atilde" unicode="&#xe3;" horiz-adv-x="503" 
d="M520 252c15 -3 -4 -73 -19 -140c-51 -227 -100 -245 -212 -170c-27 18 -40 53 -46 95c-14 92 7 193 -9 158c-20 -44 -79 -192 -111 -197c-16 -2 -85 19 -110 39c-19 15 -24 17 -30 55c-18 154 74 418 253 468c17 5 73 -41 73 -58c-2 -14 -65 -51 -55 -50
c37 7 136 -92 135 -114c-6 -47 -10 -66 -14 -107c-4 -65 -8 -215 7 -267c3 -16 12 -14 24 -8c47 24 84 221 101 274c6 17 5 24 13 22zM61 198c-19 -60 -26 -138 6 -79c41 76 97 185 139 256c28 47 -5 42 -45 1c-37 -38 -76 -101 -100 -178zM111 710c2 0 43 56 68 62
c48 10 64 -72 94 -72c26 0 50 53 51 56c6 12 69 -32 47 -68c-16 -27 -60 -64 -93 -64c-51 0 -70 96 -96 97c-25 2 -49 -51 -60 -50c-19 0 -28 11 -11 39z" />
    <glyph glyph-name="adieresis" unicode="&#xe4;" horiz-adv-x="503" 
d="M520 252c15 -3 -4 -73 -19 -140c-51 -227 -100 -245 -212 -170c-27 18 -40 53 -46 95c-14 92 7 193 -9 158c-20 -44 -79 -192 -111 -197c-16 -2 -85 19 -110 39c-19 15 -24 17 -30 55c-18 154 74 418 253 468c17 5 73 -41 73 -58c-2 -14 -65 -51 -55 -50
c37 7 136 -92 135 -114c-6 -47 -10 -66 -14 -107c-4 -65 -8 -215 7 -267c3 -16 12 -14 24 -8c47 24 84 221 101 274c6 17 5 24 13 22zM61 198c-19 -60 -26 -138 6 -79c41 76 97 185 139 256c28 47 -5 42 -45 1c-37 -38 -76 -101 -100 -178zM149 714l28 74
c6 -8 73 -30 80 -37c10 -8 -3 -43 -11 -52c-10 -13 -23 -20 -38 -25c-11 -4 -19 4 -28 9c-11 8 -35 18 -31 31zM294 714l28 74c6 -8 73 -30 80 -37c10 -8 -3 -43 -11 -52c-10 -13 -23 -20 -38 -25c-11 -4 -19 4 -28 9c-11 8 -35 18 -31 31z" />
    <glyph glyph-name="aring" unicode="&#xe5;" horiz-adv-x="503" 
d="M520 252c15 -3 -4 -73 -19 -140c-51 -227 -100 -245 -212 -170c-27 18 -40 53 -46 95c-14 92 7 193 -9 158c-20 -44 -79 -192 -111 -197c-16 -2 -85 19 -110 39c-19 15 -24 17 -30 55c-18 154 74 418 253 468c17 5 73 -41 73 -58c-2 -14 -65 -51 -55 -50
c37 7 136 -92 135 -114c-6 -47 -10 -66 -14 -107c-4 -65 -8 -215 7 -267c3 -16 12 -14 24 -8c47 24 84 221 101 274c6 17 5 24 13 22zM61 198c-19 -60 -26 -138 6 -79c41 76 97 185 139 256c28 47 -5 42 -45 1c-37 -38 -76 -101 -100 -178zM178 694c-26 159 134 124 149 51
c4 -17 -4 -60 -15 -72c-14 -18 -32 -28 -53 -34c-15 -6 -26 5 -38 12c-15 11 -48 25 -43 43zM232 710c-2 -8 12 -12 18 -18c5 -3 9 -7 15 -4c10 1 16 7 22 12c5 7 10 25 5 31c-19 36 -77 26 -60 -21z" />
    <glyph glyph-name="ae" unicode="&#xe6;" horiz-adv-x="617" 
d="M465 31c80 37 135 122 153 190c7 32 23 10 18 -2c1 -36 -49 -121 -73 -152c-34 -50 -119 -124 -152 -124c-17 0 -33 3 -47 9l-1 -1c-166 49 -121 277 -136 244c-20 -44 -79 -192 -111 -197c-16 -2 -85 19 -110 39c-19 15 -24 17 -30 55c-18 154 74 418 253 468
c17 5 73 -41 73 -58c-2 -14 -65 -51 -55 -50c19 3 49 -20 73 -47c33 40 75 72 118 72c37 0 70 -17 76 -63c18 -142 -68 -232 -126 -243c-8 -2 -4 -21 -6 -28c0 -48 12 -145 83 -112zM54 198c-19 -60 -26 -138 6 -79c41 76 97 185 139 256c28 47 -5 42 -45 1
c-37 -38 -76 -101 -100 -178zM417 431c-42 -2 -37 -187 -35 -240c68 29 75 94 73 129c-1 12 8 113 -38 111z" />
    <glyph glyph-name="ccedilla" unicode="&#xe7;" horiz-adv-x="374" 
d="M373 223c6 22 27 28 23 9c-2 -85 -71 -318 -204 -306l-29 5c-11 -17 -20 -35 -22 -40c2 -2 5 -1 7 -1c93 12 134 -10 113 -68c-21 -36 -94 -70 -164 -55c-30 6 -37 33 -16 39c4 2 3 9 6 7c31 -23 140 -18 156 33c14 48 -107 3 -117 -2c-18 -4 -34 10 -41 22c9 4 7 5 16 9
c-5 13 9 47 20 69l-12 6c-37 22 -84 63 -102 97c-47 95 -21 257 62 395c45 76 125 95 190 55c21 -14 29 -30 32 -56c4 -39 -9 -155 -21 -187c-2 -5 -4 -7 -5 -13c-1 -14 -19 -36 -31 -38c-49 -6 5 122 24 183c5 15 5 51 -6 61c-36 25 -89 -131 -96 -161
c-7 -24 -12 -50 -15 -73c-19 -201 49 -233 64 -233c66 -3 118 77 135 123c12 38 22 77 33 120z" />
    <glyph glyph-name="egrave" unicode="&#xe8;" horiz-adv-x="357" 
d="M205 31c80 37 135 122 153 190c7 32 23 10 18 -2c1 -36 -49 -121 -73 -152c-34 -50 -119 -124 -152 -124c-146 0 -181 230 -154 341c17 72 97 193 181 193c37 0 70 -17 76 -63c18 -142 -68 -232 -126 -243c-8 -2 -4 -21 -6 -28c0 -48 12 -145 83 -112zM157 431
c-42 -2 -37 -187 -35 -240c68 29 75 94 73 129c-1 12 8 113 -38 111zM52 605l11 75c43 -10 281 -191 88 -143c-23 7 -101 47 -99 68z" />
    <glyph glyph-name="eacute" unicode="&#xe9;" horiz-adv-x="357" 
d="M205 31c80 37 135 122 153 190c7 32 23 10 18 -2c1 -36 -49 -121 -73 -152c-34 -50 -119 -124 -152 -124c-146 0 -181 230 -154 341c17 72 97 193 181 193c37 0 70 -17 76 -63c18 -142 -68 -232 -126 -243c-8 -2 -4 -21 -6 -28c0 -48 12 -145 83 -112zM157 431
c-42 -2 -37 -187 -35 -240c68 29 75 94 73 129c-1 12 8 113 -38 111zM242 680l11 -75c2 -21 -76 -61 -99 -68c-193 -48 45 133 88 143z" />
    <glyph glyph-name="ecircumflex" unicode="&#xea;" horiz-adv-x="357" 
d="M205 31c80 37 135 122 153 190c7 32 23 10 18 -2c1 -36 -49 -121 -73 -152c-34 -50 -119 -124 -152 -124c-146 0 -181 230 -154 341c17 72 97 193 181 193c37 0 70 -17 76 -63c18 -142 -68 -232 -126 -243c-8 -2 -4 -21 -6 -28c0 -48 12 -145 83 -112zM157 431
c-42 -2 -37 -187 -35 -240c68 29 75 94 73 129c-1 12 8 113 -38 111zM256 559c-1 -4 -69 -46 -74 -26c-4 21 -32 102 -40 115c-9 16 -57 -107 -57 -107s-28 12 -26 24s75 134 90 150c14 17 113 -130 107 -156z" />
    <glyph glyph-name="edieresis" unicode="&#xeb;" horiz-adv-x="357" 
d="M205 31c80 37 135 122 153 190c7 32 23 10 18 -2c1 -36 -49 -121 -73 -152c-34 -50 -119 -124 -152 -124c-146 0 -181 230 -154 341c17 72 97 193 181 193c37 0 70 -17 76 -63c18 -142 -68 -232 -126 -243c-8 -2 -4 -21 -6 -28c0 -48 12 -145 83 -112zM157 431
c-42 -2 -37 -187 -35 -240c68 29 75 94 73 129c-1 12 8 113 -38 111zM32 563l28 74c6 -8 73 -30 80 -37c10 -8 -3 -43 -11 -52c-10 -13 -23 -20 -38 -25c-11 -4 -19 4 -28 9c-11 8 -35 18 -31 31zM177 563l28 74c6 -8 73 -30 80 -37c10 -8 -3 -43 -11 -52
c-10 -13 -23 -20 -38 -25c-11 -4 -19 4 -28 9c-11 8 -35 18 -31 31z" />
    <glyph glyph-name="igrave" unicode="&#xec;" horiz-adv-x="229" 
d="M112 352c3 -10 8 -39 9 -50c10 -86 -14 -199 -19 -265c-6 -26 4 -45 30 -17c22 24 51 91 76 143c9 18 20 66 34 82c16 -1 5 -45 0 -59c-25 -74 -107 -237 -150 -235c-140 -46 -109 254 -86 332c4 44 85 61 106 69zM-46 476l11 75c43 -10 281 -191 88 -143
c-23 7 -101 47 -99 68z" />
    <glyph glyph-name="iacute" unicode="&#xed;" horiz-adv-x="229" 
d="M112 352c3 -10 8 -39 9 -50c10 -86 -14 -199 -19 -265c-6 -26 4 -45 30 -17c22 24 51 91 76 143c9 18 20 66 34 82c16 -1 5 -45 0 -59c-25 -74 -107 -237 -150 -235c-140 -46 -109 254 -86 332c4 44 85 61 106 69zM165 536l11 -75c2 -21 -76 -61 -99 -68
c-193 -48 45 133 88 143z" />
    <glyph glyph-name="icircumflex" unicode="&#xee;" horiz-adv-x="229" 
d="M112 352c3 -10 8 -39 9 -50c10 -86 -14 -199 -19 -265c-6 -26 4 -45 30 -17c22 24 51 91 76 143c9 18 20 66 34 82c16 -1 5 -45 0 -59c-25 -74 -107 -237 -150 -235c-140 -46 -109 254 -86 332c4 44 85 61 106 69zM176 434c-1 -4 -69 -46 -74 -26c-4 21 -32 102 -40 115
c-9 16 -57 -107 -57 -107s-28 12 -26 24s75 134 90 150c14 17 113 -130 107 -156z" />
    <glyph glyph-name="idieresis" unicode="&#xef;" horiz-adv-x="229" 
d="M112 352c3 -10 8 -39 9 -50c10 -86 -14 -199 -19 -265c-6 -26 4 -45 30 -17c22 24 51 91 76 143c9 18 20 66 34 82c16 -1 5 -45 0 -59c-25 -74 -107 -237 -150 -235c-140 -46 -109 254 -86 332c4 44 85 61 106 69zM-57 460l28 74c6 -8 73 -30 80 -37
c10 -8 -3 -43 -11 -52c-10 -13 -23 -20 -38 -25c-11 -4 -19 4 -28 9c-11 8 -35 18 -31 31zM88 460l28 74c6 -8 73 -30 80 -37c10 -8 -3 -43 -11 -52c-10 -13 -23 -20 -38 -25c-11 -4 -19 4 -28 9c-11 8 -35 18 -31 31z" />
    <glyph glyph-name="eth" unicode="&#xf0;" horiz-adv-x="415" 
d="M122 447c-87 -85 -123 -468 -3 -426c29 52 33 143 46 203c7 94 7 104 6 114c-4 42 -19 94 -49 109zM180 743c-2 -4 44 -33 46 -34l-61 -39c145 -128 183 -279 164 -493c-25 -167 -190 -241 -257 -184c-138 67 -68 482 65 526c23 -8 -1 52 -36 111l-42 -27
c-18 -12 -46 1 -27 19c6 6 25 22 48 41c-23 33 -47 61 -64 69c-7 3 10 39 19 32c34 -20 65 -41 92 -62c28 22 54 42 53 41z" />
    <glyph glyph-name="ntilde" unicode="&#xf1;" horiz-adv-x="483" 
d="M239 236c-9 -25 -63 -105 -71 -129c-3 0 4 -219 -30 -237c-12 -14 -23 -19 -38 -13c-20 5 -43 11 -64 22c-31 15 -42 54 -47 102c-8 95 9 291 21 383c7 53 27 143 85 154c14 -3 15 -2 22 -16c20 0 32 -292 40 -324c3 -19 14 -14 19 -3c36 76 45 93 84 145
c20 18 57 -5 68 -23c39 -77 31 -199 40 -247c5 -30 13 -59 38 -21c34 64 59 135 78 196c8 29 28 9 18 -13c-18 -52 -63 -252 -137 -230c-113 37 -99 105 -109 199c-1 17 9 113 -17 55zM81 595c2 0 43 56 68 62c48 10 64 -72 94 -72c26 0 50 53 51 56c6 12 69 -32 47 -68
c-16 -27 -60 -64 -93 -64c-51 0 -70 96 -96 97c-25 2 -49 -51 -60 -50c-19 0 -28 11 -11 39z" />
    <glyph glyph-name="ograve" unicode="&#xf2;" 
d="M334 131c-7 -48 -17 -82 -54 -110c-64 -67 -199 -34 -208 -28c-138 67 -68 482 65 526c16 -6 25 -6 9 -30c-6 -4 4 -9 8 -10c7 -3 14 -4 23 -11c113 -39 167 -135 163 -230c-6 -37 29 -70 59 -62c33 8 41 35 47 51c2 3 4 6 5 8c8 -6 14 -8 10 -16
c-11 -64 -50 -85 -91 -82c-41 5 -34 5 -36 -6zM103 365l-5 68c-63 -71 -99 -454 21 -412c29 52 33 143 46 203c3 11 1 18 -5 25c-32 35 -50 70 -57 116zM170 297c0 3 2 6 2 7v6c1 44 -13 118 -50 137c-7 3 -12 1 -11 -10c-2 -45 26 -110 59 -140zM86 669l11 75
c43 -10 281 -191 88 -143c-23 7 -101 47 -99 68z" />
    <glyph glyph-name="oacute" unicode="&#xf3;" 
d="M334 131c-7 -48 -17 -82 -54 -110c-64 -67 -199 -34 -208 -28c-138 67 -68 482 65 526c16 -6 25 -6 9 -30c-6 -4 4 -9 8 -10c7 -3 14 -4 23 -11c113 -39 167 -135 163 -230c-6 -37 29 -70 59 -62c33 8 41 35 47 51c2 3 4 6 5 8c8 -6 14 -8 10 -16
c-11 -64 -50 -85 -91 -82c-41 5 -34 5 -36 -6zM103 365l-5 68c-63 -71 -99 -454 21 -412c29 52 33 143 46 203c3 11 1 18 -5 25c-32 35 -50 70 -57 116zM170 297c0 3 2 6 2 7v6c1 44 -13 118 -50 137c-7 3 -12 1 -11 -10c-2 -45 26 -110 59 -140zM230 744l11 -75
c2 -21 -76 -61 -99 -68c-193 -48 45 133 88 143z" />
    <glyph glyph-name="ocircumflex" unicode="&#xf4;" 
d="M334 131c-7 -48 -17 -82 -54 -110c-64 -67 -199 -34 -208 -28c-138 67 -68 482 65 526c16 -6 25 -6 9 -30c-6 -4 4 -9 8 -10c7 -3 14 -4 23 -11c113 -39 167 -135 163 -230c-6 -37 29 -70 59 -62c33 8 41 35 47 51c2 3 4 6 5 8c8 -6 14 -8 10 -16
c-11 -64 -50 -85 -91 -82c-41 5 -34 5 -36 -6zM103 365l-5 68c-63 -71 -99 -454 21 -412c29 52 33 143 46 203c3 11 1 18 -5 25c-32 35 -50 70 -57 116zM170 297c0 3 2 6 2 7v6c1 44 -13 118 -50 137c-7 3 -12 1 -11 -10c-2 -45 26 -110 59 -140zM259 609
c-1 -4 -69 -46 -74 -26c-4 21 -32 102 -40 115c-9 16 -57 -107 -57 -107s-28 12 -26 24s75 134 90 150c14 17 113 -130 107 -156z" />
    <glyph glyph-name="otilde" unicode="&#xf5;" 
d="M334 131c-7 -48 -17 -82 -54 -110c-64 -67 -199 -34 -208 -28c-138 67 -68 482 65 526c16 -6 25 -6 9 -30c-6 -4 4 -9 8 -10c7 -3 14 -4 23 -11c113 -39 167 -135 163 -230c-6 -37 29 -70 59 -62c33 8 41 35 47 51c2 3 4 6 5 8c8 -6 14 -8 10 -16
c-11 -64 -50 -85 -91 -82c-41 5 -34 5 -36 -6zM103 365l-5 68c-63 -71 -99 -454 21 -412c29 52 33 143 46 203c3 11 1 18 -5 25c-32 35 -50 70 -57 116zM170 297c0 3 2 6 2 7v6c1 44 -13 118 -50 137c-7 3 -12 1 -11 -10c-2 -45 26 -110 59 -140zM24 680c2 0 43 56 68 62
c48 10 64 -72 94 -72c26 0 50 53 51 56c6 12 69 -32 47 -68c-16 -27 -60 -64 -93 -64c-51 0 -70 96 -96 97c-25 2 -49 -51 -60 -50c-19 0 -28 11 -11 39z" />
    <glyph glyph-name="odieresis" unicode="&#xf6;" 
d="M334 131c-7 -48 -17 -82 -54 -110c-64 -67 -199 -34 -208 -28c-138 67 -68 482 65 526c16 -6 25 -6 9 -30c-6 -4 4 -9 8 -10c7 -3 14 -4 23 -11c113 -39 167 -135 163 -230c-6 -37 29 -70 59 -62c33 8 41 35 47 51c2 3 4 6 5 8c8 -6 14 -8 10 -16
c-11 -64 -50 -85 -91 -82c-41 5 -34 5 -36 -6zM103 365l-5 68c-63 -71 -99 -454 21 -412c29 52 33 143 46 203c3 11 1 18 -5 25c-32 35 -50 70 -57 116zM170 297c0 3 2 6 2 7v6c1 44 -13 118 -50 137c-7 3 -12 1 -11 -10c-2 -45 26 -110 59 -140zM29 641l28 74
c6 -8 73 -30 80 -37c10 -8 -3 -43 -11 -52c-10 -13 -23 -20 -38 -25c-11 -4 -19 4 -28 9c-11 8 -35 18 -31 31zM174 641l28 74c6 -8 73 -30 80 -37c10 -8 -3 -43 -11 -52c-10 -13 -23 -20 -38 -25c-11 -4 -19 4 -28 9c-11 8 -35 18 -31 31z" />
    <glyph glyph-name="divide" unicode="&#xf7;" horiz-adv-x="749" 
d="M62 329c11 0 493 7 531 4c6 1 10 0 13 -3c4 -4 -48 -73 -51 -76c-29 -18 -418 4 -470 6c-47 0 -4 46 -23 69zM254 106l36 94c7 -10 91 -38 100 -47c13 -10 -4 -54 -13 -65c-13 -17 -29 -25 -48 -32c-14 -5 -25 5 -36 12c-14 10 -44 22 -39 38zM283 399
c-81 48 10 120 19 129c11 12 54 -8 64 -18c16 -14 23 -30 29 -50c4 -14 -38 -52 -45 -63c-11 -13 -51 -4 -67 2z" />
    <glyph glyph-name="oslash" unicode="&#xf8;" 
d="M237 561l50 -60c-2 -13 -11 -42 -25 -81c55 -48 81 -115 78 -182c-6 -37 29 -70 59 -62c33 8 41 35 47 51l5 8c8 -6 14 -8 10 -16c-11 -64 -50 -85 -91 -82c-41 5 -34 5 -36 -6c-7 -48 -17 -82 -54 -110c-49 -51 -138 -44 -182 -35l-17 -49c-23 -68 -47 -19 -41 10
c1 7 5 29 13 58c-112 94 -43 472 84 514c16 -6 25 -6 9 -30c-6 -4 4 -9 8 -10c7 -3 14 -4 23 -11l14 -6c22 64 40 105 46 99zM103 365l-5 68c-50 -57 -84 -310 -35 -391c18 66 44 154 70 241c-16 24 -25 50 -30 82zM122 447c-7 3 -12 1 -11 -10c-2 -34 14 -79 35 -112
c6 18 12 36 17 54c-7 30 -21 57 -41 68zM109 18l10 3c15 27 23 64 30 102c-14 -36 -28 -72 -40 -105z" />
    <glyph glyph-name="ugrave" unicode="&#xf9;" horiz-adv-x="453" 
d="M128 25c11 -50 91 29 108 73c16 45 33 210 43 260c2 44 86 55 78 23c-2 -7 -7 -159 -8 -178c-6 -52 -19 -171 -11 -223c2 -7 15 -14 20 -11c30 20 92 235 95 257c5 14 5 9 13 12c1 -2 12 2 10 -15c-43 -141 -87 -353 -178 -295c-72 46 -26 212 -54 147
c-38 -63 -71 -81 -105 -89c-45 -13 -91 25 -123 61c-38 108 -33 358 7 466c20 -7 106 -53 112 -79c0 -5 2 -6 1 -10c-4 -108 -9 -293 -8 -399zM118 669l11 75c43 -10 281 -191 88 -143c-23 7 -101 47 -99 68z" />
    <glyph glyph-name="uacute" unicode="&#xfa;" horiz-adv-x="453" 
d="M128 25c11 -50 91 29 108 73c16 45 33 210 43 260c2 44 86 55 78 23c-2 -7 -7 -159 -8 -178c-6 -52 -19 -171 -11 -223c2 -7 15 -14 20 -11c30 20 92 235 95 257c5 14 5 9 13 12c1 -2 12 2 10 -15c-43 -141 -87 -353 -178 -295c-72 46 -26 212 -54 147
c-38 -63 -71 -81 -105 -89c-45 -13 -91 25 -123 61c-38 108 -33 358 7 466c20 -7 106 -53 112 -79c0 -5 2 -6 1 -10c-4 -108 -9 -293 -8 -399zM311 744l11 -75c2 -21 -76 -61 -99 -68c-193 -48 45 133 88 143z" />
    <glyph glyph-name="ucircumflex" unicode="&#xfb;" horiz-adv-x="453" 
d="M128 25c11 -50 91 29 108 73c16 45 33 210 43 260c2 44 86 55 78 23c-2 -7 -7 -159 -8 -178c-6 -52 -19 -171 -11 -223c2 -7 15 -14 20 -11c30 20 92 235 95 257c5 14 5 9 13 12c1 -2 12 2 10 -15c-43 -141 -87 -353 -178 -295c-72 46 -26 212 -54 147
c-38 -63 -71 -81 -105 -89c-45 -13 -91 25 -123 61c-38 108 -33 358 7 466c20 -7 106 -53 112 -79c0 -5 2 -6 1 -10c-4 -108 -9 -293 -8 -399zM322 609c-1 -4 -69 -46 -74 -26c-4 21 -32 102 -40 115c-9 16 -57 -107 -57 -107s-28 12 -26 24s75 134 90 150
c14 17 113 -130 107 -156z" />
    <glyph glyph-name="udieresis" unicode="&#xfc;" horiz-adv-x="453" 
d="M128 25c11 -50 91 29 108 73c16 45 33 210 43 260c2 44 86 55 78 23c-2 -7 -7 -159 -8 -178c-6 -52 -19 -171 -11 -223c2 -7 15 -14 20 -11c30 20 92 235 95 257c5 14 5 9 13 12c1 -2 12 2 10 -15c-43 -141 -87 -353 -178 -295c-72 46 -26 212 -54 147
c-38 -63 -71 -81 -105 -89c-45 -13 -91 25 -123 61c-38 108 -33 358 7 466c20 -7 106 -53 112 -79c0 -5 2 -6 1 -10c-4 -108 -9 -293 -8 -399zM77 641l28 74c6 -8 73 -30 80 -37c10 -8 -3 -43 -11 -52c-10 -13 -23 -20 -38 -25c-11 -4 -19 4 -28 9c-11 8 -35 18 -31 31z
M222 641l28 74c6 -8 73 -30 80 -37c10 -8 -3 -43 -11 -52c-10 -13 -23 -20 -38 -25c-11 -4 -19 4 -28 9c-11 8 -35 18 -31 31z" />
    <glyph glyph-name="yacute" unicode="&#xfd;" horiz-adv-x="464" 
d="M311 744l11 -75c2 -21 -76 -61 -99 -68c-193 -48 45 133 88 143zM463 219c8 24 19 20 19 0c-11 -79 -62 -158 -120 -220c-14 -16 -27 -38 -37 -54c-19 -39 -61 -163 -153 -163c-68 0 -163 62 -204 89c-14 9 -5 14 5 19c9 15 8 14 23 10c58 -19 119 10 170 37
c6 2 12 8 14 17c13 59 18 133 25 167c18 93 -16 17 -42 -20c-88 -126 -169 61 -175 111c-2 100 50 200 81 236c5 5 32 17 38 14c20 -13 -18 -108 -18 -243c0 -199 43 -118 60 -87c32 66 71 130 81 205c6 43 18 191 32 181c50 -18 133 -79 140 -100c16 -48 -30 -271 -48 -342
c-7 -26 11 -31 31 -3c47 67 59 90 78 146zM173 -97c3 0 -53 -30 -101 -30s-84 8 -84 8s60 -31 106 -50s43 -14 55 -7s21 79 24 79z" />
    <glyph glyph-name="ydieresis" unicode="&#xff;" horiz-adv-x="464" 
d="M52 641l28 74c6 -8 73 -30 80 -37c10 -8 -3 -43 -11 -52c-10 -13 -23 -20 -38 -25c-11 -4 -19 4 -28 9c-11 8 -35 18 -31 31zM197 641l28 74c6 -8 73 -30 80 -37c10 -8 -3 -43 -11 -52c-10 -13 -23 -20 -38 -25c-11 -4 -19 4 -28 9c-11 8 -35 18 -31 31zM463 219
c8 24 19 20 19 0c-11 -79 -62 -158 -120 -220c-14 -16 -27 -38 -37 -54c-19 -39 -61 -163 -153 -163c-68 0 -163 62 -204 89c-14 9 -5 14 5 19c9 15 8 14 23 10c58 -19 119 10 170 37c6 2 12 8 14 17c13 59 18 133 25 167c18 93 -16 17 -42 -20c-88 -126 -169 61 -175 111
c-2 100 50 200 81 236c5 5 32 17 38 14c20 -13 -18 -108 -18 -243c0 -199 43 -118 60 -87c32 66 71 130 81 205c6 43 18 191 32 181c50 -18 133 -79 140 -100c16 -48 -30 -271 -48 -342c-7 -26 11 -31 31 -3c47 67 59 90 78 146zM173 -97c3 0 -53 -30 -101 -30s-84 8 -84 8
s60 -31 106 -50s43 -14 55 -7s21 79 24 79z" />
    <glyph glyph-name="Zcaron" unicode="&#x17d;" horiz-adv-x="411" 
d="M333 -91c-9 0 -17 2 -26 -5c-3 -3 -7 -2 -10 -2c-85 14 -192 34 -310 -2c-56 -19 -128 64 -117 100c6 21 8 22 26 30c21 10 45 21 67 39c119 115 256 343 331 482c3 6 6 12 9 20c-10 -1 -149 -37 -154 -39c-173 -50 -214 85 -221 158c-1 10 2 19 7 28c1 0 4 0 7 -2
c54 -24 381 87 398 59c3 -1 7 -2 10 -5c63 -37 42 -117 58 -150c-4 -21 -10 -37 -25 -49c-54 -97 -175 -382 -245 -459c-1 -1 -2 -5 -5 -9c5 -2 7 -4 12 -5c51 -8 91 -8 133 -34c12 -5 21 -15 27 -25c10 -16 19 -34 29 -52c3 -7 6 -16 -1 -28c-3 -6 -1 -12 0 -18
c4 -9 4 -19 0 -32zM211 915c6 -26 -93 -173 -107 -156c-15 16 -88 138 -90 150s26 24 26 24s48 -123 57 -107c8 13 36 94 40 115c5 20 73 -22 74 -26z" />
    <glyph glyph-name="zcaron" unicode="&#x17e;" horiz-adv-x="440" 
d="M331 60c65 53 100 133 108 161c7 23 31 18 22 -2c-23 -81 -74 -156 -138 -202c-6 -6 -8 -14 -7 -23c1 -7 2 -15 3 -22c9 -81 -63 -182 -114 -220c-24 -19 -107 -23 -129 -13c-7 4 -11 8 -11 16c2 85 54 158 114 209c16 13 16 22 9 41c-2 5 -5 9 -7 13
c-9 1 -12 -6 -17 -10c-14 -13 -29 -25 -50 -26c-7 0 -13 1 -19 6c-8 6 -17 12 -26 18c-11 7 -13 14 -8 26c37 72 218 433 168 484c-20 0 -72 -91 -93 -133c-28 -55 -55 -101 -85 -146c-15 -21 -43 -54 -68 -18c-11 15 -23 47 -25 64c-5 40 68 57 68 11c0 -13 6 -30 20 -12
c19 24 51 81 71 114c61 100 98 201 196 111c73 -45 -31 -348 -45 -402c-3 -8 -1 -12 6 -14c28 -2 29 -66 57 -31zM190 -46c-39 -46 -112 -124 -109 -199c3 -1 13 -1 14 0c73 37 88 125 95 199zM228 699c6 -26 -93 -173 -107 -156c-15 16 -88 138 -90 150s26 24 26 24
s48 -123 57 -107c8 13 36 94 40 115c5 20 73 -22 74 -26z" />
    <glyph glyph-name="Thorn" unicode="&#xde;" horiz-adv-x="578" 
d="M55 698c3 29 22 7 64 -40c25 -28 27 -154 30 -188c15 42 63 59 143 66c305 25 233 -476 -90 -402c-18 4 -40 19 -40 10c0 -44 7 -189 16 -200c-51 -4 -87 -9 -138 -5c-74 6 -65 627 15 759zM305 408c-25 64 -142 69 -142 0c0 -50 -16 -133 -3 -180
c134 -124 153 160 145 180z" />
    <glyph glyph-name="thorn" unicode="&#xfe;" horiz-adv-x="594" 
d="M55 698c3 29 22 7 64 -40c25 -28 27 -154 30 -188c15 42 63 59 143 66c305 25 234 -610 -89 -536c-18 4 -40 19 -40 10c0 -44 14 -207 23 -218c-51 -4 -87 -9 -138 -5c-74 6 -73 779 7 911zM305 408c-25 64 -142 69 -142 0c0 -50 -15 -267 -2 -314
c134 -124 152 294 144 314z" />
    <glyph glyph-name="germandbls" unicode="&#xdf;" horiz-adv-x="521" 
d="M200 223c-37 29 -39 90 7 141c42 47 126 139 126 197c0 31 -42 47 -54 46c-25 -1 -135 -18 -171 -60c-12 -14 53 -50 42 -70c6 -250 -33 -520 -44 -549c-1 -3 -27 -68 -34 -69c-3 -17 -55 26 -62 78c-21 121 -17 367 5 574c-12 77 79 197 236 204
c176 8 192 -128 167 -202c-15 -44 -117 -131 -127 -147c-4 -5 -9 -21 18 -18c244 10 139 -391 -83 -455l-26 102c1 38 13 41 25 46c84 32 197 103 186 178c-2 13 -5 28 -18 23c-33 2 -123 -9 -193 -19z" />
    <glyph glyph-name="guilsinglright" unicode="&#x203a;" horiz-adv-x="368" 
d="M66 511c59 13 263 -211 226 -244c-37 -34 -195 -204 -222 -207c-27 -4 -20 32 -20 32s211 181 175 202c-30 18 -129 132 -158 157c-42 32 -11 57 -1 60z" />
    <glyph glyph-name="guilsinglleft" unicode="&#x2039;" horiz-adv-x="358" 
d="M288 69c-59 -13 -263 211 -226 244c37 34 195 204 222 207c27 4 20 -32 20 -32s-211 -181 -175 -202c30 -18 129 -132 158 -157c42 -32 11 -57 1 -60z" />
    <glyph glyph-name="Lslash" unicode="&#x141;" horiz-adv-x="361" 
d="M359 577l32 -97c-17 -33 -114 -136 -222 -252c-14 -131 -26 -252 -22 -313c2 -42 -1 -37 30 -37c60 5 303 25 353 22c9 -2 20 -17 19 -26c0 -2 -1 -5 -2 -6c-8 -6 -16 -17 -30 -13c-31 11 -450 -138 -461 -121c-10 0 -47 75 -48 84c0 7 1 110 1 239l-102 -117
c-62 -73 -67 -1 -45 31c10 19 72 103 148 203c2 196 5 407 13 438c-1 12 1 16 12 19c23 7 107 126 129 124c9 0 17 -1 25 -3c25 -29 14 -184 -3 -355c91 111 167 196 173 180z" />
    <glyph glyph-name="lslash" unicode="&#x142;" horiz-adv-x="315" 
d="M283 464l26 -76c-12 -24 -79 -97 -156 -181c2 -134 11 -277 20 -325c4 -20 12 -25 25 -11c39 41 108 316 116 348c5 12 20 18 21 6c-10 -79 -73 -355 -121 -390c-15 -11 -48 -20 -64 -18c-34 4 -148 124 -157 156c-4 15 -7 30 -9 45c-18 -20 -34 -39 -49 -57
c-47 -57 -53 -1 -36 25c6 11 36 54 77 109c-6 210 79 476 178 609c10 14 24 22 43 22c95 0 13 -210 -21 -250c-12 -15 -19 -72 -21 -147c68 84 123 147 128 135zM219 700c-37 -18 -59 -142 -59 -182c0 -12 4 -19 14 -1c13 16 52 155 48 182c-2 0 -3 0 -3 1z" />
    <glyph glyph-name="degree" unicode="&#xb0;" horiz-adv-x="303" 
d="M35 524c-33 259 169 202 188 83c5 -27 -5 -97 -19 -117c-18 -29 -40 -45 -67 -55c-19 -10 -33 8 -48 19c-19 18 -60 41 -54 70zM85 551c-3 -16 18 -23 28 -35c8 -6 14 -14 23 -9c15 3 25 15 33 24c9 14 16 50 9 61c-29 72 -118 53 -93 -41z" />
    <glyph glyph-name="onesuperior" unicode="&#xb9;" horiz-adv-x="277" 
d="M126 762c2 -3 18 3 21 -8c0 -2 4 -21 0 -36c32 -26 41 -71 39 -118c1 -21 -22 -247 -24 -263c-3 -24 -10 -25 -32 -30c-17 -3 -28 -30 -32 -14c-9 15 -9 143 -6 253c-20 -36 -29 -67 -53 -57c-8 3 -11 50 -24 59c-10 6 49 64 77 112s33 104 34 102z" />
    <glyph glyph-name="ordmasculine" unicode="&#xba;" horiz-adv-x="342" 
d="M174 749c4 -3 52 -14 54 -16c19 -8 19 9 24 -13c5 -28 7 -55 10 -84c4 -64 -6 -345 -94 -344c-13 -1 -95 40 -109 49c-35 54 -42 366 38 396c17 5 32 8 53 -5c18 -9 8 15 24 17zM155 676c-6 22 0 17 -22 25c-66 11 -64 -217 -60 -257c6 -52 33 -95 49 -103
c7 -2 13 0 18 7c32 62 22 279 15 328z" />
    <glyph glyph-name="twosuperior" unicode="&#xb2;" horiz-adv-x="400" 
d="M101 720c34 27 83 43 122 28c12 -5 13 -18 24 -24c18 -10 52 -20 57 -38c29 -103 -151 -222 -192 -277c-29 -37 96 -31 180 -55c0 0 -4 -3 -5 -6c-2 -1 -4 -28 -6 -32c-14 -7 -198 -26 -199 -26c-15 -1 -34 62 -45 94c-2 9 13 14 15 15c0 5 0 8 1 11
c36 104 156 183 158 273c0 10 -4 16 -10 14c-30 -15 -101 -117 -114 -151c-5 -13 -38 46 -41 60c-9 36 18 84 55 114z" />
    <glyph glyph-name="threesuperior" unicode="&#xb3;" horiz-adv-x="388" 
d="M219 559c68 -26 106 -115 45 -192c-128 -125 -231 -1 -233 32c-5 23 5 65 33 61c3 0 8 -3 7 -7c-9 -64 119 -127 156 -82c34 39 -37 149 -78 152c-5 0 -22 -16 -27 -15c0 -1 -8 -14 -48 24c26 25 112 96 115 171c0 9 -5 15 -12 15c-29 -16 -63 -82 -75 -115
c-6 -12 -60 19 -68 30c6 80 80 166 173 132c11 -5 11 -16 22 -14c11 1 43 -29 49 -47c17 -63 -22 -95 -67 -130c-18 -12 -8 -9 8 -15z" />
    <glyph glyph-name="perthousand" unicode="&#x2030;" horiz-adv-x="971" 
d="M421 746l76 -91c-9 -78 -208 -526 -292 -780c-35 -104 -71 -29 -62 15c8 67 247 893 278 856zM164 711c3 -3 49 -13 51 -15c17 -7 17 8 22 -13c5 -25 6 -51 9 -77c4 -59 -5 -322 -87 -321c-12 -1 -89 38 -102 47c-32 50 -39 340 36 368c15 4 29 7 49 -5c17 -9 8 14 22 16
zM146 643c-5 21 0 16 -20 23c-62 11 -60 -202 -56 -239c6 -48 32 -89 45 -95c7 -3 13 0 18 5c30 58 20 261 13 306zM536 311c3 -3 49 -13 51 -15c17 -7 17 8 22 -13c5 -25 6 -51 9 -77c4 -59 -5 -322 -87 -321c-12 -1 -89 38 -102 47c-32 50 -39 340 36 368c15 4 29 7 49 -5
c17 -9 8 14 22 16zM518 243c-5 21 0 16 -20 23c-62 11 -60 -202 -56 -239c6 -48 32 -89 45 -95c7 -3 13 0 18 5c30 58 20 261 13 306zM798 311c3 -3 49 -13 51 -15c17 -7 17 8 22 -13c5 -25 6 -51 9 -77c4 -59 -5 -322 -87 -321c-12 -1 -89 38 -102 47
c-32 50 -39 340 36 368c15 4 29 7 49 -5c17 -9 8 14 22 16zM780 243c-5 21 0 16 -20 23c-62 11 -60 -202 -56 -239c6 -48 32 -89 45 -95c7 -3 13 0 18 5c30 58 20 261 13 306z" />
    <glyph glyph-name="paragraph" unicode="&#xb6;" horiz-adv-x="736" 
d="M488 -245c-13 13 -26 99 -31 118c-11 140 -17 628 -1 752c0 1 -1 1 -1 1l-102 19c15 -15 31 -39 39 -75c16 -77 13 -581 -8 -685s-64 -109 -72 -69c-6 28 -9 197 -10 356c-86 -7 -294 85 -290 175c-27 112 -2 326 191 353c96 13 330 -23 400 -37c15 -3 32 -11 44 -30
c2 -5 1 -6 2 -16c-29 -11 -17 -10 -45 -8c-49 6 -28 -1 -82 3c79 -74 57 -253 70 -341c8 -191 -27 -407 -30 -397c-36 -49 -15 -113 -74 -119zM323 670c-1 0 0 -1 0 0z" />
    <glyph glyph-name="mu" unicode="&#xb5;" horiz-adv-x="424" 
d="M332 -6l-46 -56c-54 56 -16 198 -42 137c-38 -63 -71 -81 -105 -89c-12 -3 8 -130 -4 -127c-27 5 -82 4 -113 57c-38 108 -39 489 1 597c20 -7 106 -53 112 -79c0 -5 2 -6 1 -10c-4 -108 -9 -293 -8 -399c11 -50 91 29 108 73c16 45 33 210 43 260c2 44 86 55 78 23
c-2 -7 -7 -159 -8 -178c-5 -44 -9 -159 -17 -209z" />
    <glyph glyph-name="breve" unicode="&#x2d8;" horiz-adv-x="307" 
d="M285 736c6 -26 -50 -129 -145 -129c-123 0 -155 109 -157 121s26 24 26 24s42 -105 104 -105c66 0 94 94 98 115c5 20 73 -22 74 -26z" />
    <glyph glyph-name="dotaccent" unicode="&#x2d9;" horiz-adv-x="191" 
d="M33 664c-25 71 62 86 90 32c8 -9 0 -36 -7 -47c-9 -7 -18 -16 -33 -18c-9 -4 -15 2 -23 6c-9 9 -30 15 -27 27z" />
    <glyph glyph-name="ogonek" unicode="&#x2db;" horiz-adv-x="264" 
d="M92 11l49 4c9 -42 15 -83 -29 -117c-18 -5 -90 -4 -76 -52c16 -51 126 -38 157 -15c3 2 2 -5 6 -7c21 -6 14 -33 -16 -39c-70 -15 -144 1 -165 37c-21 58 -5 95 65 124c16 7 16 54 9 65z" />
    <glyph glyph-name="a" unicode="a" horiz-adv-x="503" 
d="M520 252c15 -3 -4 -73 -19 -140c-51 -227 -100 -245 -212 -170c-27 18 -40 53 -46 95c-14 92 7 193 -9 158c-20 -44 -79 -192 -111 -197c-16 -2 -85 19 -110 39c-19 15 -24 17 -30 55c-18 154 74 418 253 468c17 5 73 -41 73 -58c-2 -14 -65 -51 -55 -50
c37 7 136 -92 135 -114c-6 -47 -10 -66 -14 -107c-4 -65 -8 -215 7 -267c3 -16 12 -14 24 -8c47 24 84 221 101 274c6 17 5 24 13 22zM61 198c-19 -60 -26 -138 6 -79c41 76 97 185 139 256c28 47 -5 42 -45 1c-37 -38 -76 -101 -100 -178z" />
    <glyph glyph-name="_0014" horiz-adv-x="0" 
 />
    <glyph glyph-name="b" unicode="b" horiz-adv-x="506" 
d="M504 218c4 22 22 27 22 6c1 2 -6 -28 -8 -39c-16 -64 -38 -101 -85 -148c-53 -53 -221 -84 -236 -65c-4 22 -9 22 -1 39c15 32 36 33 59 37c64 13 58 233 59 269c1 31 -14 58 -32 45c-48 -32 -88 -152 -102 -208c-21 -67 0 -249 -20 -321c-10 -36 -17 -32 -43 -18
c-86 47 -137 217 -126 354c-2 187 57 365 84 443c38 107 101 206 156 220c17 2 34 -1 45 -15c12 -14 14 -33 10 -53c-11 -56 -40 -100 -74 -138c-10 -12 -12 -26 -14 -41c-6 -53 -25 -240 -23 -297s7 -26 18 -7c25 44 36 65 84 101c18 11 51 19 70 6c32 -30 90 -254 22 -344
c-13 -21 45 14 71 40c14 14 53 72 64 134zM204 673c-1 -8 -1 -17 -1 -25l3 -3c3 4 5 8 7 12c21 32 36 68 42 108c2 11 0 19 -4 29c-13 -1 -18 -12 -22 -23c-10 -32 -20 -64 -25 -98zM227 11c11 -3 20 4 24 19c-12 0 -16 -4 -24 -19z" />
    <glyph glyph-name="c" unicode="c" horiz-adv-x="374" 
d="M373 223c6 22 27 28 23 9c-2 -85 -71 -318 -204 -306c-32 4 -58 9 -83 24c-37 22 -84 63 -102 97c-47 95 -21 257 62 395c45 76 125 95 190 55c21 -14 29 -30 32 -56c4 -39 -9 -155 -21 -187c-2 -5 -4 -7 -5 -13c-1 -14 -19 -36 -31 -38c-49 -6 5 122 24 183
c5 15 5 51 -6 61c-36 25 -89 -131 -96 -161c-7 -24 -12 -50 -15 -73c-19 -201 49 -233 64 -233c66 -3 118 77 135 123c12 38 22 77 33 120z" />
    </font>
</defs>
</svg>
