<?xml version="1.0" encoding="utf-8"?>
<!-- Generator: Adobe Illustrator 19.2.1, SVG Export Plug-In . SVG Version: 6.00 Build 0)  -->
<svg version="1.1" id="Layer_1" xmlns="http://www.w3.org/2000/svg" xmlns:xlink="http://www.w3.org/1999/xlink" x="0px" y="0px"
	 viewBox="0 0 297.1 85" style="enable-background:new 0 0 297.1 85;" xml:space="preserve">
<style type="text/css">
	.st0{fill:url(#SVGID_1_);}
	.st1{fill:none;stroke:url(#SVGID_2_);stroke-miterlimit:10;stroke-dasharray:50, 750;stroke-dashoffset: 0;animation: dash 5s linear infinite;}
	@keyframes dash {to {stroke-dashoffset: -800;}}
</style>
<g>
	<g>
		<linearGradient id="SVGID_1_" gradientUnits="userSpaceOnUse" x1="77.8363" y1="42.2834" x2="208.9512" y2="42.2834">
			<stop  offset="0" style="stop-color:#206164"/>
			<stop  offset="1" style="stop-color:#32A69E"/>
		</linearGradient>
		<path class="st0" d="M202.2,62.1c0-1.2-0.1-2.6-0.1-4c0-1.6-0.1-3.2-0.2-4.9c-0.1-1.7-0.2-3.2-0.3-4.8s-0.3-2.9-0.4-4.1
			c-0.2-1.2-0.4-2.2-0.7-2.9c-0.2-0.6-0.5-1-0.9-1.4c-0.4-0.3-0.8-0.5-1.4-0.4c-0.4,0-0.6,0.2-0.8,0.3c-0.2,0.2-0.3,0.4-0.4,0.6
			c-0.1,0.2-0.1,0.4-0.1,0.7c0,0.2-0.1,0.4-0.2,0.6c-0.8,1.6-1.6,3.2-2.3,4.7c-0.7,1.6-1.5,3.1-2.3,4.7c-0.1-0.2-0.3-0.6-0.7-1.2
			c-0.3-0.6-0.7-1.2-1-1.9c-0.4-0.7-0.8-1.4-1.3-2.2c-0.4-0.8-0.9-1.5-1.3-2.1s-0.8-1.3-1.2-1.8c-0.1-0.2-0.3-0.4-0.4-0.5
			c0.1,0,0.2,0,0.4,0c1.1,0,2-0.3,2.8-0.8c0.8-0.5,1.4-1.1,1.9-1.9c0.5-0.8,0.9-1.7,1.2-2.7c0.3-1,0.5-2,0.7-3.1
			c0.2-1,0.3-2.1,0.3-3.1s0.1-2,0.1-2.9c0-1.1,0-2.1,0-3.2c0-1-0.1-2-0.3-2.9c-0.1-0.9-0.3-1.7-0.6-2.5c-0.2-0.7-0.5-1.3-0.9-1.8
			c-0.4-0.5-0.8-0.9-1.3-1.3c-0.5-0.3-1-0.6-1.7-0.9c-0.3-0.1-0.6-0.1-0.8-0.1c-0.2,0-0.3,0-0.4-0.1s-0.2-0.1-0.4-0.2
			c-0.1-0.1-0.3-0.2-0.6-0.4c-0.4-0.3-1-0.5-1.6-0.5c-1.1,0-2.1,0.2-2.9,0.7c-0.8,0.5-1.4,1.1-2,1.9c-0.5,0.8-0.9,1.7-1.2,2.7
			c-0.3,1-0.5,2-0.6,3.1c-0.1,1.1-0.2,2.1-0.2,3.1s0,1.9,0.1,2.7c0.1,1.3,0.2,2.5,0.3,3.8c0.1,1.2,0.3,2.5,0.4,3.6
			c0.1,0.9,0.4,1.8,0.9,2.6s1,1.5,1.7,2.1c0.5,0.4,1.1,0.8,1.7,1.1c0,0,0,0,0,0c-0.3,0.1-0.5,0.3-0.7,0.6c-0.1,0.3-0.1,0.6,0,1.1
			v1.9c0,2,0.2,4.2,0.3,6.4s0.4,4.3,0.5,6.2c0,0.2,0,0.6,0.1,1.1c0,0.5,0.1,1.1,0.1,1.8c0,0.7,0.1,1.3,0.2,2.1
			c0.1,0.7,0.2,1.4,0.3,2c0.1,0.7,0.2,1.4,0.4,1.9c0.2,0.5,0.4,0.8,0.6,0.8c0.4,0,0.7,0,0.8,0c0.2-0.1,0.3-0.2,0.4-0.4
			c0.1-0.2,0.1-0.4,0.1-0.7v-0.9c0-0.6,0-1.3,0-2c0-0.7,0-1.4-0.1-2.1c0-0.7-0.1-1.3-0.1-1.9c0-0.6,0-1.1,0-1.5v-2.4
			c0-0.8,0-1.6,0-2.3s0-1.4,0-2c0-0.6,0-1.1,0-1.5c0.4,0.6,0.9,1.4,1.5,2.4s1.1,1.8,1.8,2.7c0.4,0.5,0.8,1,1.3,1.4
			c0.4,0.4,0.9,0.7,1.3,0.9c0.3,0.1,0.6,0.2,1,0.2c0.3,0,0.6,0,0.9-0.1c0.3-0.1,0.4-0.3,0.5-0.5c0.1-0.2,0.1-0.6,0-1
			c-0.1-0.3-0.2-0.6-0.2-0.9c0-0.3,0-0.5,0.1-0.7c0.1-0.2,0.1-0.5,0.2-0.7c0.1-0.2,0.2-0.4,0.2-0.7c0.1-0.2,0.2-0.5,0.4-0.9
			c0.2-0.4,0.4-0.9,0.6-1.4s0.5-1,0.7-1.5c0.2-0.5,0.4-1,0.6-1.4c0.1,0.7,0.2,1.5,0.2,2.5s0.1,2,0.1,3.1c0,1.1,0,2.3,0,3.5
			c0,1.2,0,2.4,0,3.5c0,0.6,0,1.3,0,2c0,0.7,0,1.4,0,2.1c0,0.7,0.1,1.4,0.3,2s0.5,1.2,1,1.7c0.1,0.2,0.3,0.3,0.6,0.4
			c0.3,0.1,0.5,0.2,0.8,0.2c0.3,0,0.6,0.1,0.8,0c0.3,0,0.5,0,0.6-0.1c0.2-0.1,0.4-0.2,0.5-0.4s0.2-0.4,0.3-0.6s0.1-0.5,0.1-0.7
			s0-0.5,0-0.7C202.3,64.4,202.3,63.3,202.2,62.1z M186.2,38.9c-0.5,0.1-0.9-0.1-1.3-0.6c-0.4-0.5-0.7-1.1-0.9-1.9
			c-0.2-0.8-0.4-1.6-0.6-2.6s-0.3-1.9-0.3-2.7c-0.1-0.9-0.1-1.6-0.2-2.3c0-0.7,0-1.1,0-1.3c0-0.1,0-0.4,0-0.9s-0.1-1-0.1-1.6
			c0-0.6,0-1.3,0-2.1c0-0.8,0-1.5,0.1-2.3c0.1-0.8,0.2-1.5,0.3-2.1c0.1-0.7,0.3-1.3,0.6-1.8c0.3-0.5,0.6-0.8,1-1.1
			c0.4-0.2,0.8-0.3,1.4-0.1c0.1,0,0.3,0.2,0.6,0.4s0.5,0.4,0.8,0.6c0.3,0.2,0.6,0.5,1,0.8c0.3,0.1,0.5,0.2,0.7,0.2
			c0.2,0,0.3,0.2,0.4,0.5c0.2,0.4,0.3,0.9,0.4,1.5s0.2,1.3,0.3,2.1c0.1,0.8,0.1,1.6,0.2,2.4s0,1.8,0,2.7c0,0.4-0.1,1-0.1,1.7
			c0,0.7-0.1,1.5-0.2,2.4c-0.1,0.9-0.3,1.8-0.4,2.7c-0.2,0.9-0.4,1.8-0.7,2.5c-0.3,0.8-0.7,1.4-1.1,1.9
			C187.3,38.5,186.7,38.8,186.2,38.9z M113.7,66.2c-0.2-0.5-0.4-0.9-0.5-1.3c-1-2.1-2.1-4.2-3.1-6.3c-1.1-2.1-2.1-4.2-3.1-6.3
			c0.7-0.3,1.4-0.6,2.1-1.1c0.7-0.5,1.3-1.1,1.9-1.9c0.5-0.7,0.9-1.6,1.2-2.6c0.3-1,0.3-2.1,0.1-3.3c-0.2-1-0.5-1.9-1.2-2.6
			s-1.4-1.3-2.2-1.7c-0.4-0.2-0.9-0.4-1.4-0.6c0-1.3,0-2.6,0.1-3.8c0.1-2,0.1-4.1,0.1-6.1c0-1.5,0-3,0-4.5c0-1.5,0-2.9,0-4.1
			c0-1.2,0-2.3,0-3.1c0-0.8,0-1.3-0.1-1.3c-0.2-0.4-0.5-0.8-0.9-1c-0.4-0.3-0.8-0.4-1.2-0.5c-0.4-0.1-0.8,0-1.1,0.1
			c-0.3,0.1-0.5,0.4-0.6,0.7l-0.5,10.6c-0.2,0-0.5,0-1,0.1c-0.5,0.1-1,0.1-1.5,0.1c-0.5,0-1,0-1.4,0c-0.4-0.1-0.6-0.2-0.6-0.4
			c-0.1-1.5-0.1-3,0-4.5c0.1-1.5,0-3-0.2-4.6c0-0.3-0.1-0.6-0.3-1c-0.2-0.4-0.4-0.8-0.6-1.2c-0.4-0.6-0.8-1-1.1-1.2
			c-0.3-0.1-0.6-0.1-0.9,0c-0.3,0.2-0.4,0.4-0.6,0.8c-0.1,0.4-0.2,0.8-0.2,1.1c0,2-0.1,4-0.1,6c0,2-0.1,4-0.1,6.1c0,0.1,0,0.4,0,0.8
			c0,0.5,0,1,0,1.7c0,0.7,0,1.4,0,2.3c0,0.8,0,1.7,0,2.5v2.1c0,0.7,0,1.3,0,1.8c0,0.5,0,1,0,1.3c0,0.4,0.1,0.6,0.1,0.7
			c0.1,0.2,0.3,0.4,0.5,0.6c0.3,0.2,0.5,0.4,0.8,0.6c0.3,0.2,0.6,0.3,1,0.3c0.3,0.1,0.6,0,0.9-0.1s0.5-0.4,0.7-0.7
			c0.2-0.3,0.3-0.8,0.3-1.5c0-0.2,0-0.6,0-1.1c0-0.5,0-1.1,0-1.8V34c0-0.8,0-1.5,0-2.2c0-0.7,0-1.4,0-1.9c0-0.6,0-1,0-1.2
			c0.5,0,0.9-0.1,1.3-0.1c0.4-0.1,0.8-0.1,1.2-0.2c0.4-0.1,0.7-0.1,1-0.1c0.3,0,0.6,0,0.8,0.1v3.4c0,0.6,0,1.3-0.1,2
			c0,0.8,0,1.5-0.1,2.3c0,0.7,0,1.3,0,2c-0.4,0-0.8,0.1-1.2,0.1c-0.3,0.1-0.6,0.2-0.8,0.4c-0.2,0.2-0.2,0.4-0.2,0.7
			c0,0.3,0.2,0.6,0.5,1c-0.1,0.2-0.2,0.3-0.2,0.4c0,0.1-0.1,0.2-0.1,0.3c0,0.1,0,0.2,0,0.3v2.2c0,0.7,0,1.4,0,2.3c0,0.8,0,1.7,0,2.7
			c0,1,0,1.9,0,3v1.1c0,0.6,0,1.4,0,2.3c0,0.9,0,2,0,3.2c0,1.2,0,2.4,0.1,3.6c0,1.2,0.1,2.4,0.1,3.5c0,1.2,0.1,2.2,0.2,3.1
			c0,0.4,0.1,0.9,0.1,1.4c0.1,0.5,0.2,1.1,0.4,1.5c0.2,0.5,0.5,0.8,0.8,1.1s0.8,0.3,1.5,0.2c0.5-0.1,0.8-0.3,1-0.7s0.3-0.7,0.4-1.1
			c0.1-0.4,0.1-0.9,0-1.3c0-0.5-0.1-0.9-0.1-1.3c0-1.1-0.1-2.3-0.1-3.5c0-1.2-0.1-2.3,0-3.2c0-0.1,0-0.4,0-0.8c0-0.4,0-0.8,0-1.3
			c0-0.5,0-1-0.1-1.6c0-0.6,0-1.1,0-1.6c0-0.5,0-0.9,0-1.2c0-0.3,0-0.5,0.1-0.6l0,0.1c0.4,0.6,0.8,1.5,1.2,2.7
			c0.4,1.2,0.9,2.5,1.4,3.9c0.5,1.4,1,2.8,1.5,4.1c0.5,1.3,1,2.5,1.5,3.4c0.1,0.2,0.3,0.5,0.5,0.7c0.2,0.3,0.4,0.5,0.7,0.7
			c0.3,0.2,0.5,0.3,0.8,0.3c0.3,0,0.6-0.1,0.9-0.4c0.2-0.2,0.4-0.5,0.3-1c0-0.4-0.1-0.9-0.2-1.3C114.1,67.2,113.9,66.7,113.7,66.2z
			 M105.5,50.6c0-0.2,0-0.6-0.1-1.1c0-0.5-0.1-1.1-0.1-1.8c0-0.7-0.1-1.4-0.1-2.2c0-0.6-0.1-1.2-0.1-1.8c0.3,0.1,0.7,0.2,1.1,0.2
			c0.5,0,0.8-0.2,1.1-0.6c0.2-0.4,0.3-1.1,0.2-2c0.1,0.1,0.3,0.2,0.4,0.3c0.4,0.3,0.6,0.8,0.8,1.3c0.2,0.6,0.3,1.2,0.3,1.8
			c0,0.7-0.1,1.3-0.2,2c-0.2,0.7-0.4,1.3-0.7,1.9s-0.7,1-1.1,1.4C106.6,50.3,106.1,50.5,105.5,50.6z M116.7,39.4
			c0.7,0,1.3-0.1,2-0.2c0.7-0.1,1.2-0.4,1.5-0.8c0.1-0.2,0.2-0.3,0.2-0.5c0-0.3-0.3-0.6-0.9-0.8c-0.4-0.2-0.9-0.3-1.3-0.3
			c-0.4-0.1-0.8-0.1-1.3-0.1c-0.4,0-0.9,0-1.3,0c-0.4,0-0.9,0-1.4,0c-0.2,0-0.4-0.1-0.4-0.2c-0.1-0.1-0.1-0.3-0.1-0.5v-0.7
			c0-0.4,0-0.8,0-1.2c0-0.4,0-0.8,0-1.2c0-0.4,0-0.8,0-1.2c0-0.4,0-0.8,0-1.2c0-0.4,0-0.9,0-1.3V27c0.2,0,0.4,0,0.7,0
			c0.3,0,0.6,0,0.9-0.1c0.3,0,0.7-0.1,1-0.1c0.3-0.1,0.7-0.1,0.9-0.2c0.4-0.1,0.7-0.3,0.8-0.5c0.1-0.2,0.2-0.4,0.2-0.7v-0.1
			c0-0.2,0-0.3-0.1-0.5c-0.1-0.2-0.3-0.3-0.7-0.4c-0.2,0-0.4-0.1-0.5-0.1c-0.2,0-0.4,0-0.6,0c-0.4,0-0.7,0-1,0c-0.3,0-0.6,0-0.9,0
			c-0.4,0-0.7-0.1-0.8-0.2c0-0.6-0.1-1.1-0.1-1.5c0-0.4-0.1-0.9-0.1-1.5s-0.1-1.1-0.1-1.6c0-0.6-0.1-1.1-0.1-1.7c0-0.5,0-0.9,0-1.2
			v-0.4c0.2-0.1,0.3-0.1,0.6-0.2c0.2,0,0.5,0,0.8,0h0.8c0.3,0,0.6,0,0.9,0c0.3,0,0.6,0,0.9,0c0.7,0,1.3,0,1.8-0.1
			c0.5-0.1,0.9-0.3,1.1-0.7c0-0.1,0.1-0.2,0.1-0.3c0-0.2-0.1-0.4-0.2-0.5c-0.1-0.2-0.3-0.3-0.4-0.3c-0.3-0.1-0.8-0.2-1.6-0.3
			c-0.8-0.1-1.6-0.2-2.5-0.2c-0.2,0-0.4,0-0.6,0c-0.2,0-0.4,0-0.6,0c-0.9,0-1.7,0-2.5,0.1c-0.7,0.1-1.2,0.2-1.3,0.4
			c-0.1,0.1-0.1,0.2-0.1,0.3c0,0.1,0,0.2,0,0.3c0,0.2,0,0.3,0,0.4c0,0.2-0.1,0.4-0.1,0.4c0,0-0.1,0-0.1,0.1c-0.1,0-0.1,0.1-0.1,0.3
			c0,0.2,0,0.6,0,1.1c0,0.7,0,1.6,0,2.5c0,0.9,0,1.9,0,3c0,1,0,2.1,0,3.2c0,1.1,0.1,2.2,0.1,3.3c0,0.7,0,1.5,0,2.2
			c0,0.7,0,1.4,0,2.1c0,0.7,0,1.4,0,2.1c0,0.6-0.1,1.2-0.1,1.8c0,0,0,0.1-0.1,0.2s0,0.3,0,0.4c0,0.2,0.1,0.5,0.2,0.7
			c0.1,0.3,0.4,0.5,0.8,0.8c0.2,0.1,0.4,0.2,0.5,0.3c0.1,0.1,0.4,0.1,0.7,0.1c0.2,0,0.4,0,0.6,0c0.2,0,0.3-0.1,0.5-0.1
			c0.2,0,0.4,0,0.6-0.1c0.2,0,0.6,0,1,0h0.7c0.2,0,0.4,0,0.7,0C116.2,39.4,116.5,39.4,116.7,39.4z M97.4,43.6
			c-0.6-0.7-1.3-1.3-2.2-1.8c-0.8-0.5-1.7-0.9-2.6-1.1c-1.2-0.3-2.3-0.4-3.4-0.3c-0.3,0-0.7,0.1-1,0.2c0.1-0.2,0.1-0.5,0.1-0.8
			c0-2.2,0-4.3-0.1-6.4c0-2.1-0.1-4.2-0.2-6.4c-0.1-1.4-0.1-2.7-0.2-4s-0.1-2.5-0.2-3.5c-0.1-1-0.1-1.9-0.2-2.6c0-0.7-0.1-1-0.1-1
			c0,0,0,0,0,0c0,0,0,0,0,0c-0.1-0.2-0.2-0.3-0.3-0.4c-0.1-0.1-0.1-0.1-0.2-0.1s-0.1-0.1-0.1-0.1c0,0-0.1-0.1-0.1-0.3
			c0.5,0,1.1,0,1.8,0c0.6,0,1.2,0,1.8,0.1l2.5,0.1c0.2,0,0.3,0,0.4-0.1c0.1,0,0.2,0,0.2-0.1c0.1,0,0.1-0.1,0.2-0.1
			c0.1-0.1,0.1-0.1,0.2-0.2l0-0.6c0-0.3-0.3-0.5-0.7-0.7c-0.4-0.2-0.9-0.4-1.6-0.5c-0.6-0.1-1.4-0.2-2.2-0.3
			c-0.8-0.1-1.6-0.1-2.4-0.2c-0.6,0-1.1,0-1.6,0c-0.5,0-1,0-1.5,0c-0.5,0-0.9,0-1.2,0c-0.4,0-0.7,0-0.9,0c-0.4,0-0.8,0.1-1.1,0.1
			c-0.3,0-0.6,0.1-1,0.2c-0.6,0.2-1,0.3-1.2,0.5s-0.3,0.4-0.2,0.6c0.1,0.3,0.2,0.5,0.4,0.7c0.2,0.2,0.5,0.3,1.1,0.4
			c0.6,0.1,1.3,0.1,2.1,0.1c0.7,0,1.4,0,2-0.1c0,0.7,0,1.4,0.1,2.3c0,0.9,0.1,1.9,0.1,2.9s0.1,2.2,0.1,3.3s0.1,2.3,0.1,3.4
			c0,1.3,0,2.6,0.1,3.9c0,1.3,0,2.5,0,3.6c0,1.1,0,2.1,0,3.1c0,0.9-0.1,1.6-0.1,2.2c0,0.3,0,0.5,0.1,0.8c0.1,0.3,0.3,0.5,0.6,0.7
			c0.2,0.2,0.5,0.4,0.8,0.5c0.2,0.1,0.3,0.1,0.5,0.2c0,0-0.1,0.1-0.1,0.1c-0.2,0.3-0.3,0.6-0.3,0.9c-0.1,1.6-0.1,3.2-0.2,4.8
			c-0.1,1.6-0.1,3.1-0.1,4.6s0,3.1,0,4.7c0,1.6,0,3.2,0.1,4.8c0,0.5,0,1,0,1.6c0,0.6,0.1,1.1,0.1,1.7s0.1,1,0.1,1.4
			c0,0.4,0.1,0.7,0.1,0.9c0,0.1,0.2,0.2,0.4,0.4c0.3,0.2,0.6,0.4,1,0.5c0.4,0.1,0.7,0.2,1.1,0.2c0.3,0,0.6-0.2,0.8-0.6
			c0.1-0.2,0.2-0.6,0.2-1.1c0.1-0.5,0.1-1.1,0.1-1.8c0-0.7,0-1.4,0-2.1c0-0.8,0-1.5,0-2.2c0-0.7,0-1.4,0-2c0-0.6,0-1.1,0-1.5
			c1.2,0.1,2.3-0.1,3.5-0.5c1.2-0.4,2.2-1,3.2-1.8s1.7-1.7,2.4-2.7c0.6-1.1,1-2.2,1.1-3.4c0.1-1,0-1.9-0.4-2.8
			C98.5,45.1,98,44.3,97.4,43.6z M94.9,50.9c-0.4,0.9-1,1.6-1.6,2.3c-0.6,0.6-1.3,1.1-2.1,1.5c-0.8,0.3-1.5,0.4-2.1,0.2
			c0-1.3,0-2.6,0.1-3.9c0-1.3,0-2.6,0-3.9c0-1.7,0-3.3,0-4.9c0.5-0.2,1-0.2,1.5-0.2c0.5,0,1,0.1,1.4,0.3c0.5,0.2,1,0.5,1.5,1
			c0.5,0.4,0.9,0.9,1.2,1.4c0.3,0.5,0.6,1.1,0.8,1.7s0.2,1.3,0.2,1.9C95.6,49.2,95.4,50.1,94.9,50.9z M208.9,38.3l-0.4-10.9
			c0-0.4,0-0.9-0.1-1.7c0-0.7-0.1-1.5-0.1-2.3c0-0.9-0.1-1.7-0.2-2.6c-0.1-0.9-0.2-1.8-0.3-2.5c-0.1-0.8-0.3-1.5-0.4-2.1
			c-0.2-0.6-0.4-1-0.6-1.2c-0.4-0.3-0.8-0.6-1-0.7c-0.3-0.1-0.5-0.2-0.8-0.1c-0.3,0.1-0.5,0.2-0.7,0.3c-0.2,0.1-0.3,0.2-0.4,0.4
			c-0.1,0.2-0.1,0.3-0.1,0.5c0,0.2,0,0.4,0,0.7c0,0.7,0,1.4,0,2.1c0.1,0.7,0.1,1.5,0.2,2.2c0.1,0.7,0.1,1.4,0.1,2.1
			c0,0.7,0,1.3,0,1.9c-0.1-0.1-0.3-0.4-0.5-0.8c-0.2-0.4-0.5-0.8-0.8-1.3c-0.3-0.5-0.6-1-1-1.6c-0.4-0.6-0.7-1.1-1-1.6
			s-0.6-1-0.9-1.4c-0.3-0.4-0.5-0.7-0.7-0.9c-0.4-0.4-0.7-0.7-1-0.9c-0.3-0.2-0.6-0.3-1-0.3c-0.5,0-0.9,0.1-1.1,0.4
			c-0.2,0.2-0.3,0.5-0.3,0.9c0,0.3,0,0.7,0,1.2c0.1,0.4,0.1,0.9,0.1,1.3l0.1,3.3c0,0.5,0.1,1.1,0.1,2c0,0.8,0,1.8,0.1,2.8
			c0,1.2,0,2.4,0.1,3.6c0,1.2,0,2.4,0.1,3.5c0,1.1,0.1,2,0.1,2.7c0.1,0.7,0.1,1.2,0.2,1.3c0.1,0.2,0.3,0.3,0.6,0.5
			c0.3,0.2,0.6,0.3,0.9,0.4c0.3,0.1,0.6,0,0.9-0.1c0.3-0.1,0.4-0.4,0.5-0.8c0.1-0.4,0-0.9,0-1.4c-0.1-0.5-0.2-0.9-0.2-1.2
			c-0.2-1.4-0.3-2.8-0.4-4.2c-0.1-1.4-0.1-2.8-0.2-4.2c0-1-0.1-1.9-0.1-2.8s0-1.8,0.1-2.6c0-0.4,0-0.7,0-1c0-0.3,0-0.5,0-0.5
			c0.1,0.2,0.3,0.4,0.6,0.8c0.2,0.4,0.4,0.6,0.6,0.8c0.2,0.3,0.4,0.6,0.6,0.9s0.3,0.6,0.5,0.9c0.2,0.3,0.4,0.6,0.5,0.9
			c0.2,0.3,0.4,0.6,0.6,1c0.2,0.2,0.3,0.4,0.4,0.6s0.3,0.4,0.4,0.6c0.1,0.2,0.3,0.3,0.5,0.6s0.4,0.4,0.4,0.5c0,0.1,0.1,0.3,0.1,0.6
			c0,0.3,0,0.7,0,1.1v1.1c0,0.4,0,0.7,0,0.9l0.5,7.1c0,1,0.1,1.8,0.5,2.2c0.3,0.4,1,0.7,2,0.9c0.5,0.1,0.9,0,1.2-0.1
			c0.3-0.2,0.5-0.4,0.6-0.7s0.2-0.7,0.2-1.2C209,39.4,208.9,38.9,208.9,38.3z M167.4,27.1c-0.1-3.8-0.3-7.6-0.5-11.5
			c0-0.2,0-0.3-0.1-0.4c0,0-0.1-0.1-0.1-0.3c0.1,0,0.2,0,0.4,0h1.2c0.4,0,0.7,0,1.1,0c0.3,0,0.7-0.1,1-0.2c0.6-0.2,0.9-0.6,0.9-1
			c0-0.4-0.2-0.7-0.6-1c-0.2-0.2-0.6-0.3-1.1-0.3c-0.5-0.1-1-0.1-1.6-0.1c-0.5,0-1,0-1.4,0c-0.5,0-0.8,0.1-1.1,0.1
			c-1,0.1-1.9,0.2-2.7,0.2s-1.8,0.1-2.7,0.3c-0.6,0.1-0.9,0.3-0.9,0.7c0,0.2,0.1,0.5,0.4,0.7s0.7,0.4,1.2,0.6
			c0.3,0.1,0.6,0.1,1.1,0.1c0.2,0,0.4,0,0.6,0c0.2,0,0.4,0,0.6,0c0.1,0,0.2,0,0.3,0c0.1,0,0.2,0,0.2,0c-0.1,0.9-0.2,1.9-0.2,3
			c0,1,0,2.2,0,3.3c0,1,0,1.9,0,3c0,1,0.1,2,0.1,3.1c0.1,1.4,0.1,2.7,0.2,4c0.1,1.2,0.2,2.4,0.2,3.5c0.1,1.1,0.2,2.2,0.2,3.2
			c0.1,1,0.2,2.1,0.2,3.1c0,0.7,0.3,1.2,0.7,1.5c0.4,0.3,0.9,0.5,1.3,0.5c0.4,0,0.7-0.1,1-0.3c0.3-0.2,0.4-0.5,0.5-0.9
			c0.1-0.9,0.1-1.9,0.1-2.9c0-2-0.1-4-0.2-6C167.5,31,167.4,29,167.4,27.1z M130.8,47.3c-0.1-0.9-0.3-1.7-0.6-2.5
			c-0.2-0.7-0.5-1.3-0.9-1.8c-0.4-0.5-0.8-0.9-1.3-1.3c-0.5-0.3-1-0.6-1.7-0.9c-0.3-0.1-0.6-0.1-0.8-0.1c-0.2,0-0.3,0-0.4-0.1
			s-0.2-0.1-0.4-0.2c-0.1-0.1-0.3-0.2-0.6-0.4c-0.4-0.3-1-0.5-1.6-0.5c-1.1,0-2.1,0.2-2.9,0.7c-0.8,0.5-1.4,1.1-2,1.9
			c-0.5,0.8-0.9,1.7-1.2,2.7c-0.3,1-0.5,2-0.6,3.1s-0.2,2.1-0.2,3.1c0,1,0,1.9,0.1,2.7c0.1,1.3,0.2,2.5,0.3,3.8
			c0.1,1.2,0.3,2.5,0.4,3.6c0.1,0.9,0.4,1.8,0.9,2.6s1,1.5,1.7,2.1c0.7,0.6,1.4,1.1,2.3,1.4c0.9,0.3,1.7,0.5,2.7,0.4
			c1.1,0,2-0.3,2.8-0.8c0.8-0.5,1.4-1.1,1.9-1.9c0.5-0.8,0.9-1.7,1.2-2.7c0.3-1,0.5-2,0.7-3.1c0.2-1.1,0.3-2.1,0.3-3.1
			c0-1,0.1-2,0.1-2.9c0-1.1,0-2.1,0-3.2C131,49.2,130.9,48.2,130.8,47.3z M127.8,54.8c0,0.7-0.1,1.5-0.2,2.4
			c-0.1,0.9-0.3,1.8-0.4,2.7s-0.4,1.8-0.7,2.5s-0.7,1.4-1.1,1.9c-0.4,0.5-1,0.8-1.6,0.9c-0.5,0.1-0.9-0.1-1.3-0.6
			c-0.4-0.5-0.7-1.1-0.9-1.9c-0.2-0.8-0.4-1.6-0.6-2.6c-0.2-1-0.3-1.9-0.3-2.7c-0.1-0.9-0.1-1.6-0.2-2.3s0-1.1,0-1.3
			c0-0.1,0-0.4,0-0.9c0-0.5-0.1-1-0.1-1.6s0-1.3,0-2.1c0-0.8,0-1.5,0.1-2.3c0.1-0.8,0.2-1.5,0.3-2.1c0.1-0.7,0.3-1.3,0.6-1.8
			c0.3-0.5,0.6-0.8,1-1.1c0.4-0.2,0.8-0.3,1.4-0.1c0.1,0,0.3,0.2,0.6,0.4c0.3,0.2,0.5,0.4,0.8,0.6c0.3,0.2,0.6,0.5,1,0.8
			c0.3,0.1,0.5,0.2,0.7,0.2c0.2,0,0.3,0.2,0.4,0.5c0.2,0.4,0.3,0.9,0.4,1.5c0.1,0.6,0.2,1.3,0.3,2.1c0.1,0.8,0.1,1.6,0.2,2.4
			c0,0.9,0,1.8,0,2.7C127.8,53.5,127.8,54.1,127.8,54.8z M150.2,54.9c0-0.4-0.1-0.8-0.1-1.2c0-0.6-0.1-1.1-0.2-1.4
			c-0.1-0.3-0.3-0.6-0.5-0.7c-0.3-0.1-0.6-0.2-1-0.1c-0.4,0-1,0.1-1.6,0.2c-0.3,0-0.6,0.1-1.1,0.1c-0.4,0-0.9,0-1.3,0.1
			c-0.5,0-0.9,0.1-1.3,0.1c-0.4,0.1-0.7,0.2-1,0.3c-0.4,0.3-0.6,0.6-0.6,0.9c0,0.4,0.2,0.6,0.6,0.8c0.5,0.2,0.9,0.3,1.2,0.3
			s0.7,0,1-0.1c0.3-0.1,0.7-0.1,1-0.2c0.3-0.1,0.7-0.1,1,0c0,0.6,0,1.2,0,1.9c0,0.7,0,1.5-0.1,2.2c0,0.6-0.1,1.2-0.2,1.7
			c-0.1,0.6-0.3,1.1-0.5,1.6s-0.5,0.9-0.9,1.2c-0.4,0.3-0.8,0.6-1.4,0.8h-0.1c-0.8,0.2-1.6,0.2-2.5-0.2c-0.9-0.4-1.6-1.1-2.2-2.1
			c-0.7-1.3-1.2-2.8-1.4-4.5c-0.2-1.6-0.2-3.3,0-5c0.2-1.6,0.6-3.1,1.1-4.6c0.5-1.5,1.3-2.7,2.3-3.8c0.2-0.2,0.3-0.4,0.5-0.5
			c0.2,0.3,0.5,0.5,0.8,0.5c0.4,0.1,0.7,0.1,1,0.1c0.3,0,0.6-0.1,0.8-0.2c0.2-0.1,0.4-0.2,0.4-0.3c0-0.2,0.1-0.3,0.1-0.4
			c0-0.1,0-0.2,0-0.5c0-0.5-0.1-0.8-0.1-0.9c0,0,0-0.1,0-0.1c0.4-0.1,0.8-0.1,1.1-0.1c0.4,0,0.8,0.1,1.2,0.2
			c0.3,0.1,0.6,0.1,0.9,0.2c0.3,0,0.5,0,0.6-0.1c0.4-0.2,0.5-0.5,0.4-0.8c-0.1-0.3-0.3-0.5-0.7-0.8c-0.7-0.5-1.6-0.8-2.6-0.9
			c-0.3,0-0.7,0-1,0l0-7.8c0-0.3,0-0.8,0-1.4c0-0.7,0-1.4,0-2.1c0-0.7,0-1.4,0-2c0-0.6,0-1.1,0-1.3c0-0.7-0.1-1.4-0.1-2.2
			c-0.1-0.8-0.2-1.5-0.4-2.3c-0.2-0.8-0.4-1.5-0.8-2.2c-0.3-0.7-0.8-1.3-1.3-1.9c-0.4-0.4-0.7-0.6-1.1-0.8c-0.3-0.2-0.8-0.3-1.3-0.4
			c-1.2-0.2-2.3-0.1-3.1,0.4c-0.8,0.5-1.6,1.2-2.4,2.1c-0.4,0.5-0.8,1.1-1.1,1.8c-0.3,0.7-0.6,1.4-0.8,2.2c-0.2,0.8-0.3,1.5-0.4,2.3
			c-0.1,0.8-0.1,1.5,0,2.1c0,0.4,0,1,0.1,1.7c0,0.7,0,1.6,0.1,2.5c0,0.9,0,1.9,0.1,2.9c0,1,0.1,2,0.1,2.9c0.1,1.3,0.1,2.4,0.2,3.4
			s0.2,1.5,0.3,1.8c0.1,0.2,0.2,0.3,0.4,0.5c0.2,0.2,0.4,0.2,0.6,0.3c0.2,0,0.4,0,0.6-0.2c0.2-0.1,0.3-0.4,0.3-0.8v-1.4
			c0-0.6,0-1.3,0-2c0-0.7,0-1.3,0-1.9c0-0.6,0-1.1,0-1.4c0-0.4-0.1-0.8-0.1-1.1c0-0.3,0-0.7,0-1.1c1.1,0.2,2.1,0.3,3.1,0.3
			c1,0,2,0.1,3.2,0.1c0,0.2,0,0.4,0,0.5c0,0.2,0,0.5,0,0.9l0.4,6.7c-0.3,0.1-0.7,0.3-1,0.4c-0.9,0.4-1.6,1-2.2,1.6
			c-1.3,1.3-2.4,2.9-3.1,4.8c-0.8,1.9-1.2,3.8-1.4,5.8c-0.2,2,0,4,0.5,5.9c0.5,1.9,1.3,3.7,2.5,5.2c1,1.3,2.3,2.2,3.7,2.8
			s3,0.7,4.7,0.2c1.4-0.3,2.5-0.8,3.4-1.5s1.6-1.4,2-2.2c0.5-0.9,0.8-1.8,0.9-2.9s0.1-2.2-0.1-3.4C150.3,55.7,150.2,55.3,150.2,54.9
			z M140.1,28.6c0,0.2,0,0.3-0.1,0.4s-0.2,0.1-0.3,0.1c-0.2,0-0.4,0-0.7,0c-0.2,0-0.6,0-1.1,0.1c-0.5,0.1-1.1,0.1-1.7,0.1
			s-1.1,0-1.6-0.1c-0.5-0.1-0.8-0.3-0.9-0.6c0-0.1,0-0.3,0-0.7c0-0.4,0-0.9,0-1.4c0-0.6,0-1.2,0-1.8c0-0.6,0-1.3,0.1-1.9
			c0-0.6,0.1-1.1,0.1-1.6c0.1-0.4,0.1-0.7,0.2-0.9c0.1-0.7,0.4-1.3,0.7-1.9c0.3-0.6,0.7-1,1.1-1.3c0.4-0.3,0.9-0.5,1.3-0.6
			c0.5-0.1,0.9,0,1.3,0.3c0.4,0.3,0.7,0.7,1,1.4c0.3,0.6,0.4,1.5,0.5,2.6c0,0.3,0,0.7,0.1,1.1c0,0.4,0.1,0.8,0.1,1.2
			c0.1,0.8,0.1,1.6,0,2.4s0,1.7,0,2.5C140.1,28.2,140.1,28.5,140.1,28.6z M165.6,66.2c-0.2-0.5-0.4-0.9-0.5-1.3
			c-1-2.1-2.1-4.2-3.1-6.3c-1.1-2.1-2.1-4.2-3.1-6.3c0.7-0.3,1.4-0.6,2.1-1.1c0.7-0.5,1.3-1.1,1.9-1.9c0.5-0.7,0.9-1.6,1.2-2.6
			c0.3-1,0.3-2.1,0.1-3.3c-0.2-1-0.5-1.9-1.2-2.6c-0.6-0.7-1.4-1.3-2.2-1.7c-0.8-0.4-1.6-0.7-2.5-0.8c-0.2-0.1-0.4-0.2-0.6-0.3
			c-0.3-0.1-0.7-0.1-1.1-0.1c-0.2,0-0.4,0-0.6,0c-0.2,0-0.4,0-0.7,0c-0.4,0-0.7,0-1.1-0.1c-0.4-0.1-0.7-0.2-1-0.4
			c-0.3-0.2-0.7-0.5-1-0.9c-0.3-0.4-0.6-0.9-0.9-1.6c-0.4-0.9-0.7-2.1-0.9-3.5c-0.3-1.5-0.4-3.3-0.5-5.6c0-0.2,0-0.4,0-0.6
			c0-0.2,0-0.4,0-0.7c0-0.8,0.1-1.7,0.2-2.6c0.1-1,0.3-1.9,0.6-2.8c0.3-0.9,0.6-1.7,1.1-2.5c0.5-0.7,1-1.3,1.7-1.6
			c0.2-0.1,0.3-0.1,0.6-0.1c0.3,0,0.7,0,1.1,0.1c0.4,0.1,0.7,0.2,1,0.3c0,0,0,0,0,0c0,0,0,0,0,0c0.2,0.1,0.4,0.1,0.6,0.1
			c0.3,0,0.5-0.2,0.5-0.5c0-0.2-0.1-0.5-0.4-0.9c-0.3-0.4-0.8-0.8-1.6-1.1c-0.7-0.3-1.5-0.5-2.2-0.5c-0.4,0-0.8,0-1,0.1
			c-1,0.3-1.9,0.8-2.6,1.5s-1.3,1.4-1.7,2.2c-0.4,0.9-0.8,1.8-1,2.8c-0.3,1-0.4,2-0.6,3c-0.1,1.1-0.2,2.3-0.2,3.7
			c0,1.5,0.1,3.1,0.4,4.8c0.3,1.7,0.7,3.2,1.3,4.6c0.6,1.4,1.5,2.6,2.5,3.6c0.9,0.8,1.9,1.3,3.2,1.6c0,0.1-0.1,0.2-0.1,0.2
			c0,0.1-0.1,0.2-0.1,0.3c0,0.1,0,0.2,0,0.3v2.2c0,0.7,0,1.4,0,2.3c0,0.8,0,1.7,0,2.7c0,1,0,1.9,0,3v1.1c0,0.6,0,1.4,0,2.3
			c0,0.9,0,2,0,3.2c0,1.2,0,2.4,0.1,3.6c0,1.2,0.1,2.4,0.1,3.5c0,1.2,0.1,2.2,0.2,3.1c0,0.4,0.1,0.9,0.1,1.4s0.2,1.1,0.4,1.5
			c0.2,0.5,0.5,0.8,0.8,1.1s0.8,0.3,1.5,0.2c0.5-0.1,0.8-0.3,1-0.7c0.2-0.3,0.3-0.7,0.4-1.1c0.1-0.4,0.1-0.9,0-1.3
			c0-0.5-0.1-0.9-0.1-1.3c0-1.1-0.1-2.3-0.1-3.5c0-1.2-0.1-2.3,0-3.2c0-0.1,0-0.4,0-0.8c0-0.4,0-0.8,0-1.3c0-0.5,0-1-0.1-1.6
			c0-0.6,0-1.1,0-1.6c0-0.5,0-0.9,0-1.2c0-0.3,0-0.5,0.1-0.6l0,0.1c0.4,0.6,0.8,1.5,1.2,2.7c0.4,1.2,0.9,2.5,1.4,3.9s1,2.8,1.5,4.1
			c0.5,1.3,1,2.5,1.5,3.4c0.1,0.2,0.3,0.5,0.5,0.7c0.2,0.3,0.4,0.5,0.7,0.7c0.3,0.2,0.5,0.3,0.8,0.3s0.6-0.1,0.9-0.4
			c0.2-0.2,0.4-0.5,0.3-1c0-0.4-0.1-0.9-0.2-1.3C166,67.2,165.8,66.7,165.6,66.2z M157.4,50.6c0-0.2,0-0.6-0.1-1.1
			c0-0.5-0.1-1.1-0.1-1.8c0-0.7-0.1-1.4-0.1-2.2c0-0.8-0.1-1.4-0.1-2.1c0-0.6-0.1-1.1-0.1-1.6c0-0.4,0-0.6,0-0.7
			c0-0.2-0.1-0.4-0.1-0.5c0-0.1-0.1-0.2-0.2-0.3c0.1,0,0.2-0.1,0.3-0.1c0.5,0.1,1,0.2,1.5,0.4c0.6,0.3,1.1,0.5,1.5,0.9
			c0.4,0.3,0.6,0.8,0.8,1.3c0.2,0.6,0.3,1.2,0.3,1.8s-0.1,1.3-0.2,2c-0.2,0.7-0.4,1.3-0.7,1.9c-0.3,0.6-0.7,1-1.1,1.4
			C158.4,50.3,157.9,50.5,157.4,50.6z M180.3,47.1c-0.1-1-0.3-2-0.6-3c-0.2-1-0.5-1.8-0.9-2.5c-0.4-0.7-0.8-1.3-1.3-1.8
			c-0.2-0.2-0.4-0.3-0.6-0.4c-0.1-0.5-0.1-1-0.1-1.5c-0.1-1-0.1-2.1-0.2-3.3c0-1.2-0.1-2.4-0.1-3.6c0-1.2,0-2.4,0-3.5v-3.4
			c0-0.9,0-1.9,0-3c0-1.1,0-2,0-2.8c0-0.9,0-1.5-0.1-1.9c-0.1-0.5-0.2-1-0.4-1.3c-0.2-0.3-0.4-0.6-0.8-0.7c-0.5-0.2-1-0.4-1.4-0.4
			c-0.5,0-0.8,0.2-0.9,0.5s-0.2,0.8-0.2,1.2v1c-0.1,2.6-0.1,5.1-0.1,7.5c0,0.3,0,0.8,0,1.6c0,0.8,0,1.7,0,2.7c0,1.1,0,2.4,0,3.7
			c0,1.3,0,2.6,0.1,3.7c0,1.2,0.1,2.2,0.1,3.1c0,0.6,0.1,1,0.1,1.3c0,0,0,0,0,0c-0.4,0.3-0.8,0.7-1.2,1.1c-0.4,0.4-0.7,0.9-0.9,1.3
			c-0.5,0.9-1,1.9-1.3,3s-0.6,2.2-0.8,3.3c-0.2,1.1-0.3,2.2-0.4,3.3c-0.1,1.1-0.1,2.1-0.2,3c0,0.5,0,1.2,0,2c0,0.8,0,1.5,0,2.3
			s0,1.4,0,2c0,0.6,0,0.9,0,1.1c0,0.3,0,0.7,0,1.2s0,0.9,0.1,1.3c0.1,0.4,0.3,0.7,0.5,0.9c0.2,0.2,0.6,0.2,1.1,0
			c0.2-0.1,0.4-0.2,0.5-0.3c0.1-0.1,0.2-0.3,0.2-0.5c0-0.2,0.1-0.4,0.1-0.7c0-0.3,0-0.6,0-1c0-0.6,0-1.2,0-2c0-0.7,0-1.4,0-2.1
			c0-0.7,0-1.3,0-1.9s0-1,0-1.3c0.8,0,1.7-0.1,2.6-0.1c0.9-0.1,1.8-0.1,2.7-0.2v4.1c0,0.9,0,1.8,0,2.7s0.1,1.8,0.2,2.6
			c0.1,0.8,0.2,1.5,0.4,2c0.2,0.6,0.4,0.9,0.6,1c0.4,0.2,0.9,0.3,1.4,0.4c0.6,0.1,1-0.1,1.4-0.4c0.3-0.2,0.4-0.4,0.4-0.5
			c0-0.1,0-0.3,0-0.7c0-0.9,0-1.9,0-3s0-2.1,0-3.2c0-1.1,0-2.1,0.1-3.2c0-1,0-2.1,0-3c0-1.4,0-2.8,0-4.2
			C180.5,49.4,180.5,48.2,180.3,47.1z M176.3,51.8c0,1-0.1,1.7-0.1,2.1c-0.2,0-0.6,0.1-1.1,0.1s-1.1,0.1-1.7,0.1
			c-0.6,0-1.1,0.1-1.6,0.1c-0.5,0-0.7,0-0.8,0c0-0.7,0-1.4,0.1-2.3c0.1-0.9,0.2-1.7,0.4-2.6s0.3-1.8,0.5-2.6
			c0.2-0.9,0.4-1.6,0.7-2.3c0.3-0.7,0.5-1.2,0.8-1.6c0.3-0.4,0.6-0.6,0.9-0.7c0.3,0,0.5,0.2,0.8,0.6c0.2,0.4,0.4,0.9,0.5,1.5
			c0.1,0.6,0.3,1.3,0.3,2.1c0.1,0.8,0.2,1.5,0.2,2.3C176.3,49.8,176.3,50.8,176.3,51.8z"/>
	</g>
</g>
<linearGradient id="SVGID_2_" gradientUnits="userSpaceOnUse" x1="3.1667" y1="42.6667" x2="294.1667" y2="42.6667">
	<stop  offset="0" style="stop-color:#206164"/>
	<stop  offset="1" style="stop-color:#32A69E"/>
</linearGradient>
<rect x="3.7" y="4" class="st1" width="290" height="77.3"/>
</svg>
