<?xml version="1.0" encoding="utf-8"?>
<!-- Generator: Adobe Illustrator 19.2.1, SVG Export Plug-In . SVG Version: 6.00 Build 0)  -->
<svg version="1.1" id="Layer_1" xmlns="http://www.w3.org/2000/svg" xmlns:xlink="http://www.w3.org/1999/xlink" x="0px" y="0px"
	 viewBox="0 0 297.1 85" style="enable-background:new 0 0 297.1 85;" xml:space="preserve">
<style type="text/css">
	.st0{fill:url(#SVGID_1_);}
	.st1{fill:none;stroke:url(#SVGID_2_);stroke-miterlimit:10;stroke-dasharray:50, 750;
		stroke-dashoffset: 0;
		animation: dash 5s linear infinite;
	}
	@keyframes dash {
  		to {
    	stroke-dashoffset: -800;
  		}
	}
</style>
<linearGradient id="SVGID_1_" gradientUnits="userSpaceOnUse" x1="37.9265" y1="42.5" x2="259.1735" y2="42.5">
	<stop  offset="0" style="stop-color:#642B73"/>
	<stop  offset="1" style="stop-color:#C6426E"/>
</linearGradient>
<path class="st0" d="M258.8,43.8c-0.3,0-0.5,0.2-0.7,0.5c-0.3,0.4-0.6,0.9-0.9,1.3c-0.3,0.4-0.5,0.9-0.7,1.4c0,0.1-0.1,0.3-0.3,0.5
	c-0.4,0.6-0.8,1.2-1.1,1.9c-0.4,0.6-0.8,1.2-1.3,1.8c-0.1,0.1-0.2,0.2-0.2,0.3c-0.1,0.1-0.1,0.2-0.2,0.3c-0.3,0.6-0.6,1.1-0.9,1.5
	c-0.3,0.5-0.7,0.9-1.1,1.4c-0.2,0.3-0.5,0.5-0.8,0.8c-0.3,0.2-0.7,0.5-1,0.7c-0.3,0.2-0.7,0.5-1.1,0.7c-0.4,0.3-0.9,0.6-1.6,0.8
	c-0.4,0.1-0.6,0.1-0.8-0.1c-0.5-0.2-0.9-0.5-1.2-0.9c-0.5-0.6-0.8-1.4-0.8-2.3c-0.1-0.9,0-1.8,0.1-2.8c0.1-1,0.2-1.9,0.4-2.9
	c0.1-1,0.2-1.8,0.2-2.6c0-0.1,0-0.2,0-0.4c0-0.1,0.1-0.3,0.1-0.4c0.1-0.4,0.2-0.7,0.3-0.8c0.1-0.1,0.4-0.2,1-0.2
	c0.3-0.1,0.7-0.2,1-0.3c0.3-0.1,0.7-0.2,1.1-0.4c0.2-0.1,0.4-0.2,0.5-0.2c0.1-0.1,0.3-0.2,0.5-0.2c0.1,0,0.2-0.1,0.3-0.2
	c0.1-0.2,0.3-0.3,0.4-0.4c0.2-0.1,0.3-0.2,0.5-0.3c0.5-0.4,1-1.1,1.4-2c0.4-0.9,0.7-1.9,0.8-2.9c0.1-1,0-1.9-0.4-2.7
	c-0.3-0.8-1-1.2-2-1.2c-0.1,0-0.1,0-0.2,0c0,0-0.1,0-0.2,0c-0.4-0.1-0.7-0.1-1-0.1c-0.3-0.1-0.6-0.1-1,0c-0.3,0.1-0.6,0.1-1,0.2
	c-0.6,0.1-1.1,0.2-1.6,0.4c-0.5,0.2-1,0.4-1.6,0.7c-0.2,0.1-0.3,0.2-0.4,0.3c-0.3,0.3-0.6,0.7-0.9,1c-0.3,0.3-0.5,0.7-0.6,1.2
	c0,0,0,0.1,0,0.1c0,0,0,0,0,0.1c-0.1,0.2-0.2,0.4-0.3,0.6c-0.1,0.2-0.3,0.4-0.5,0.6c0,0.1-0.1,0.2-0.1,0.2c0,0.1-0.1,0.2-0.1,0.2
	c-0.2,0.6-0.5,1.2-0.7,1.8c-0.2,0.6-0.4,1.2-0.6,1.8c-0.1,0.5-0.2,1-0.3,1.5c-0.1,0.5-0.2,1-0.3,1.4c0,0.1-0.1,0.2-0.1,0.3
	c0,0.1,0,0.2,0,0.3c0,0.4-0.1,0.9-0.1,1.3c-0.1,0.1-0.1,0.2-0.2,0.3c-0.3,0.5-0.7,1-1.2,1.4c0,0-0.1,0.1-0.1,0.1c0,0,0,0.1-0.1,0.1
	c-0.4,0.6-0.8,1.1-1.3,1.6c-0.4,0.5-0.9,1-1.3,1.4c-0.3,0.3-0.6,0.7-1,1c-0.3,0.3-0.6,0.7-1,1c-0.2,0.2-0.5,0.5-0.7,0.7
	c-0.2,0.2-0.5,0.5-0.7,0.8c-0.2,0.2-0.3,0.4-0.5,0.5c-0.2,0.2-0.3,0.3-0.5,0.4c-0.5,0.3-1,0.5-1.4,0.7c-0.5,0.2-1,0.3-1.5,0.4
	c-0.1,0-0.3,0-0.5,0.1c-0.4,0.2-0.7,0.1-1.1-0.2c-0.2-0.2-0.4-0.5-0.5-0.8c-0.1-0.2-0.1-0.4-0.2-0.5c0-0.2-0.1-0.3-0.1-0.5
	c-0.1-0.2-0.1-0.3-0.2-0.5c0-0.1-0.1-0.3-0.1-0.4c-0.2-0.4-0.2-0.8-0.1-1.3v-0.7c0-0.2,0-0.5-0.1-0.7c-0.1-0.2-0.1-0.5,0-0.7v-0.3
	c-0.1-0.3-0.1-0.6-0.1-0.8c0-0.4,0-0.8,0-1.2c0-0.4,0-0.8,0.1-1.3c0-0.1,0-0.2,0.1-0.2c0.1-0.3,0.2-0.6,0.2-0.9
	c0.1-0.3,0.1-0.6,0.2-0.9c0.1-0.6,0.2-1.2,0.4-1.8c0-0.1,0.1-0.2,0.1-0.3c0-0.1,0.1-0.2,0.1-0.3c0-0.3,0.1-0.6,0.2-0.8
	c0.1-0.3,0.2-0.5,0.2-0.8c0.1-0.4,0.2-0.8,0.3-1.2c0.1-0.4,0.2-0.8,0.3-1.2c0-0.1,0-0.3,0.1-0.4c0.1-0.3,0.2-0.6,0.3-0.9
	c0.1-0.3,0.2-0.6,0.3-0.9c0.2-0.6,0.4-1.1,0.8-1.6c0.5-0.6,0.8-1.2,1.1-1.9c0.1-0.2,0.2-0.3,0.4-0.4c0.2-0.1,0.3-0.2,0.5-0.3
	c0.1-0.1,0.3-0.2,0.5-0.3c0.2-0.1,0.4-0.1,0.6,0c0.2,0.1,0.4,0.2,0.5,0.2c0.1,0.1,0.3,0.2,0.5,0.2c0.2,0.1,0.4,0.2,0.5,0.3
	c0.1,0.1,0.2,0.2,0.4,0.3c0.2,0.2,0.3,0.4,0.3,0.6c0,0.2,0.1,0.5,0.1,0.7c0,0.2,0,0.5-0.1,0.7c-0.1,0.2-0.1,0.4-0.1,0.6
	s0,0.4-0.1,0.6c0,0.1,0,0.2,0.2,0.3c0.2,0.1,0.5,0.1,0.8,0c0.3-0.1,0.6-0.3,0.8-0.5c0.1-0.2,0.2-0.5,0.3-0.8
	c0.1-0.3,0.1-0.6,0.1-0.9c-0.1-0.1-0.1-0.2,0-0.3c0-0.2,0-0.5,0-0.7c-0.1-0.2-0.1-0.4-0.2-0.6c0-0.1-0.1-0.2-0.1-0.4
	c0-0.1-0.1-0.2-0.1-0.4c0-0.2-0.1-0.4-0.3-0.5c-0.1-0.1-0.2-0.1-0.3-0.2c-0.1-0.1-0.2-0.1-0.3-0.1c-0.6-0.3-1.1-0.5-1.7-0.7
	c-0.6-0.2-1.2-0.2-1.8-0.1c-0.3,0-0.6,0-0.7,0.1c-0.2,0-0.4,0.1-0.7,0.1c-0.2,0-0.5,0-0.7,0.1c-0.2,0.1-0.5,0.1-0.7,0.2
	s-0.4,0.1-0.6,0.2c-0.4,0.2-0.8,0.3-1.1,0.5c-0.4,0.2-0.7,0.3-1.1,0.5c-0.3,0.2-0.6,0.4-0.8,0.6c-0.2,0.2-0.5,0.5-0.7,0.8
	c0,0,0,0.1-0.1,0.3c-0.2,0.3-0.3,0.5-0.5,0.8c-0.1,0.2-0.3,0.5-0.5,0.8c-0.2,0.3-0.3,0.7-0.5,1c-0.2,0.4-0.3,0.7-0.5,1.1
	c-0.2,0.3-0.3,0.7-0.4,1c-0.1,0.4-0.2,0.7-0.3,1c0,0.1-0.1,0.1-0.1,0.1c0,0,0,0.1-0.1,0.2c-0.1,0.7-0.2,1.4-0.4,2.1
	c-0.2,0.7-0.3,1.4-0.4,2.1c-0.1,0.7-0.2,1.3-0.2,1.9c0,0.1-0.1,0.1-0.1,0.2c-0.2,0.3-0.4,0.6-0.5,0.9c-0.1,0.3-0.3,0.6-0.5,0.9
	c-0.2,0.4-0.4,0.7-0.6,1.1c-0.2,0.4-0.4,0.7-0.7,1.1c-0.5,0.6-0.9,1.3-1.2,1.9c-0.4,0.8-0.8,1.6-1.2,2.4c-0.4,0.8-0.8,1.6-1.3,2.4
	c-0.3,0.6-0.7,1.1-1,1.7c-0.4,0.6-0.7,1.1-1.1,1.7c-0.1,0.1-0.1,0.1-0.1,0.2c0,0-0.1,0.1-0.2,0.2l-0.2,0.2c-0.1-0.2-0.2-0.3-0.2-0.3
	c0-0.1,0-0.1,0-0.3c0.1-0.2,0.1-0.3,0.1-0.4c0-0.3,0-0.5,0-0.8c0-0.2,0-0.5,0.1-0.8c0.1-1.4,0.2-2.8,0.3-4.3
	c0.1-1.4,0.3-2.9,0.6-4.3c0.3-1.4,0.6-2.8,0.9-4.1c0.3-1.3,0.7-2.7,1-4.1c0.1-0.3,0.1-0.6,0.2-0.8c0-0.3,0.1-0.6,0.1-0.8
	c0.1-0.7,0.1-1.5,0.1-2.4c0-0.9-0.1-1.6-0.3-2.2c-0.1-0.2-0.1-0.4-0.2-0.5c0-0.1,0-0.3,0-0.5c0-0.2-0.1-0.4-0.3-0.7
	c-0.2-0.2-0.4-0.4-0.6-0.6c-0.2-0.2-0.4-0.4-0.6-0.6c-0.4-0.3-0.8-0.5-1.3-0.4h-1.4c-1.2-0.1-2.3,0.3-3.1,1
	c-0.4,0.4-0.8,0.8-1.3,1.4c-0.2,0.3-0.4,0.6-0.6,0.9c-0.2,0.3-0.4,0.6-0.6,0.9c-0.2,0.3-0.4,0.6-0.6,0.9c-0.2,0.3-0.4,0.6-0.6,0.9
	l-2,3.6c-0.2,0.3-0.3,0.6-0.4,0.7c-0.1,0.2-0.2,0.4-0.3,0.7c-0.1,0.2-0.2,0.5-0.3,0.7c-0.2,0.4-0.3,0.7-0.4,0.8
	c-0.1,0.2-0.2,0.3-0.2,0.4c-0.1,0.1-0.1,0.3-0.2,0.4c-0.2,0.4-0.5,0.9-0.7,1.4s-0.5,0.9-0.7,1.4c0,0.1-0.1,0.1-0.1,0.2
	c0,0.1-0.1,0.1-0.2,0.1c0-0.2-0.1-0.5-0.1-0.7c0-0.2,0-0.5,0-0.7c0-0.5,0-1.1,0-1.6c0-0.2,0-0.4,0-0.6c0-0.2,0.1-0.4,0.1-0.6
	s0-0.4-0.1-0.5c-0.1-0.2-0.1-0.3-0.1-0.5c0-0.5,0-1,0-1.4c0.1-0.5,0.1-0.9,0.2-1.4c0.1-0.4,0.1-0.8,0.1-1.2c0-0.4,0.1-0.8,0.1-1.2
	c0.1-0.3,0.1-0.6-0.1-0.9c-0.1-0.3-0.2-0.6-0.3-0.9c-0.1-0.4-0.2-0.7-0.2-1.1c0-0.4,0-0.8,0-1.1c-0.1-0.6-0.4-1-0.8-1.3l-0.1-0.1
	c0-0.1-0.1-0.3-0.1-0.4c0-0.1-0.1-0.3-0.1-0.4c-0.1-0.1-0.3-0.2-0.4-0.2c-0.1-0.1-0.3-0.2-0.3-0.4c0-0.1,0-0.1-0.1-0.1
	c-0.6-0.3-1.4-0.4-2.2-0.3c-0.4,0.1-0.6,0.3-0.6,0.5c-0.1,0.2-0.1,0.4-0.2,0.6s-0.1,0.4-0.1,0.6c-0.1,0.5-0.1,1-0.2,1.5
	c0,0.5-0.1,1-0.1,1.5c-0.1,0.8-0.1,1.7-0.2,2.5c0,0.8-0.1,1.7-0.2,2.5V42c0,0.2,0.1,0.4,0.1,0.5c0,0.1,0,0.3,0,0.5c0,0.5,0,1,0,1.5
	c0,0.5,0,1,0.1,1.5v1.4c0,0.1,0,0.3,0,0.4c-0.3,0.5-0.6,1-0.9,1.5c-0.4,0.6-0.8,1.2-1.3,1.8c-0.1,0.1-0.2,0.2-0.2,0.3
	c-0.1,0.1-0.1,0.2-0.2,0.3c-0.3,0.6-0.6,1.1-0.9,1.5c-0.3,0.5-0.7,0.9-1.1,1.4c-0.2,0.3-0.5,0.5-0.8,0.8c-0.3,0.2-0.7,0.5-1,0.7
	c-0.3,0.2-0.7,0.5-1.1,0.7c-0.4,0.3-0.9,0.6-1.6,0.8c-0.4,0.1-0.6,0.1-0.8-0.1c-0.5-0.2-0.9-0.5-1.2-0.9c-0.5-0.6-0.8-1.4-0.8-2.3
	c-0.1-0.9,0-1.8,0.1-2.8c0.1-1,0.2-1.9,0.4-2.9c0.1-1,0.2-1.8,0.2-2.6c0-0.1,0-0.2,0-0.4c0-0.1,0.1-0.3,0.1-0.4
	c0.1-0.4,0.2-0.7,0.3-0.8c0.1-0.1,0.4-0.2,1-0.2c0.3-0.1,0.7-0.2,1-0.3c0.3-0.1,0.7-0.2,1.1-0.4c0.2-0.1,0.4-0.2,0.5-0.2
	c0.1-0.1,0.3-0.2,0.5-0.2c0.1,0,0.2-0.1,0.3-0.2c0.1-0.2,0.3-0.3,0.4-0.4c0.2-0.1,0.3-0.2,0.5-0.3c0.5-0.4,1-1.1,1.4-2
	c0.4-0.9,0.7-1.9,0.8-2.9c0.1-1,0-1.9-0.4-2.7c-0.3-0.8-1-1.2-2-1.2c-0.1,0-0.1,0-0.2,0c0,0-0.1,0-0.2,0c-0.4-0.1-0.7-0.1-1-0.1
	c-0.3-0.1-0.6-0.1-1,0c-0.3,0.1-0.6,0.1-1,0.2c-0.6,0.1-1.1,0.2-1.6,0.4s-1,0.4-1.6,0.7c-0.2,0.1-0.3,0.2-0.4,0.3
	c-0.3,0.3-0.6,0.7-0.9,1c-0.3,0.3-0.5,0.7-0.6,1.2c0,0,0,0.1,0,0.1c0,0,0,0,0,0.1c-0.1,0.2-0.2,0.4-0.3,0.6
	c-0.1,0.2-0.3,0.4-0.5,0.6c0,0.1-0.1,0.2-0.1,0.2c0,0.1-0.1,0.2-0.1,0.2c-0.2,0.6-0.5,1.2-0.7,1.8c-0.2,0.6-0.4,1.2-0.6,1.8
	c-0.1,0.5-0.2,1-0.3,1.5c-0.1,0.5-0.2,1-0.3,1.4c0,0.1-0.1,0.2-0.1,0.3c0,0.1,0,0.2,0,0.3c0,0.5-0.1,1-0.1,1.5c0,0.5-0.1,1-0.2,1.5
	c-0.1,0.8-0.1,1.6-0.1,2.3c0,0.5,0,1.1,0,1.6c-0.1,0.4-0.3,0.7-0.4,1.1c-0.1,0.4-0.3,0.8-0.4,1.3c-0.1,0.2-0.2,0.5-0.2,0.7
	c-0.1,0.2-0.2,0.4-0.2,0.7c-0.1,0.4-0.2,0.7-0.3,0.9c-0.1,0.3-0.3,0.6-0.3,0.9c-0.2,0.4-0.4,0.9-0.5,1.3c-0.2,0.4-0.3,0.9-0.5,1.3
	c0,0.1-0.1,0.2-0.1,0.2c0,0.1,0,0.1-0.1,0.2c-0.2,0.4-0.4,0.9-0.6,1.4c-0.2,0.5-0.5,0.9-0.7,1.4c-0.1,0.2-0.1,0.3-0.1,0.4
	c-0.2,0.3-0.4,0.6-0.5,0.8c-0.2,0.3-0.3,0.6-0.5,0.8c-0.1,0.2-0.2,0.3-0.2,0.4c-0.2,0.2-0.3,0.3-0.4,0.5s-0.3,0.3-0.5,0.4
	c-0.4,0.2-0.8,0.1-1.2-0.2c-0.4-0.4-0.6-0.7-0.8-1.1c-0.2-0.4-0.3-0.7-0.4-1.1c0-0.3-0.1-0.7-0.2-1.2c-0.1-0.2-0.2-0.5-0.2-0.7
	c-0.1-0.2-0.1-0.5-0.2-0.8c0-0.2,0-0.5,0-0.7c0-0.2,0-0.5,0-0.7c0-0.5,0.1-1.1,0.1-1.6c0-0.5,0.1-1.1,0.3-1.6
	c0.1-0.4,0.2-0.9,0.3-1.4c0.1-0.5,0.2-0.9,0.3-1.4c0.1-0.2,0.1-0.4,0.2-0.6c0-0.2,0.1-0.4,0.1-0.6c0.1-0.2,0.2-0.4,0.3-0.6
	s0.2-0.4,0.2-0.5c0-0.3,0.1-0.5,0.2-0.8c0.1-0.2,0.2-0.5,0.1-0.8v-0.1c0.1-0.3,0.1-0.6,0.1-0.9c0-0.3,0-0.6-0.1-0.9
	c0-0.1,0-0.1-0.1-0.2c0,0,0-0.1,0.1-0.1c0-0.2,0-0.4-0.1-0.6s-0.2-0.4-0.3-0.6c-0.1-0.2-0.3-0.4-0.5-0.6c-0.2-0.2-0.4-0.3-0.6-0.5
	c-0.7-0.5-1.3-0.8-1.9-1c-0.4-0.2-0.7-0.4-1.1-0.5c-0.3-0.1-0.7-0.3-1.1-0.5c-0.5-0.2-1-0.6-1.3-1c-0.4-0.4-0.7-0.9-1-1.4
	c-0.1-0.2-0.1-0.3,0.1-0.5l0.4-0.4c0.7-0.5,1.2-1.1,1.7-1.9c0.2-0.2,0.3-0.4,0.4-0.6c0.1-0.2,0.2-0.4,0.3-0.6
	c0.1-0.2,0.2-0.4,0.3-0.6c0.1-0.2,0.2-0.4,0.3-0.6c0.2-0.4,0.2-0.7,0.2-0.8c0-0.1,0-0.2,0-0.3c0-0.1,0-0.2,0.1-0.4
	c0-0.1,0.1-0.2,0.1-0.4c0-0.1,0-0.2,0-0.4c0-0.2-0.1-0.4-0.1-0.7c0-0.2,0-0.5-0.1-0.8c-0.1-0.2-0.3-0.5-0.6-0.7
	c-0.1-0.1-0.2-0.2-0.3-0.2c-0.1-0.1-0.2-0.2-0.3-0.3c-0.3-0.2-0.5-0.4-0.8-0.4c-0.3-0.1-0.6-0.2-0.8-0.2c-0.3-0.1-0.6-0.1-0.9-0.2
	c-0.3-0.1-0.7-0.1-1-0.1c-0.3,0-0.7,0-1,0.1c-0.3,0.1-0.6,0.3-0.8,0.6c0,0.1-0.2,0.3-0.4,0.5c-0.2,0.2-0.3,0.4-0.5,0.5
	c-0.2,0.2-0.3,0.4-0.4,0.6c0,0.2-0.1,0.4-0.3,0.7c-0.1,0.1-0.1,0.2-0.2,0.4c0,0.1-0.1,0.2-0.2,0.4c-0.2,0.3-0.3,0.7-0.5,1
	c-0.1,0.3-0.3,0.7-0.3,1c-0.2,1.2-0.3,2.4-0.2,3.6c0,0.2,0.1,0.3,0.1,0.5c0,0.2,0.1,0.4,0.1,0.6c0.2,0.8,0.5,1.4,1,2
	c0.4,0.5,1,1,1.5,1.4c-0.1,0.1-0.1,0.2-0.2,0.3c-0.3,0.4-0.5,0.9-0.7,1.4c0,0.1-0.1,0.3-0.3,0.5c-0.4,0.6-0.8,1.2-1.1,1.9
	c-0.4,0.6-0.8,1.2-1.3,1.8c-0.1,0.1-0.2,0.2-0.2,0.3c-0.1,0.1-0.1,0.2-0.2,0.3c-0.3,0.6-0.6,1.1-0.9,1.5c-0.3,0.5-0.7,0.9-1.1,1.4
	c-0.2,0.3-0.5,0.5-0.8,0.8c-0.3,0.2-0.7,0.5-1,0.7c-0.3,0.2-0.7,0.5-1.1,0.7c-0.4,0.3-0.9,0.6-1.6,0.8c-0.4,0.1-0.6,0.1-0.8-0.1
	c-0.5-0.2-0.9-0.5-1.2-0.9c-0.5-0.6-0.8-1.4-0.8-2.3c-0.1-0.9,0-1.8,0.1-2.8c0.1-1,0.2-1.9,0.4-2.9c0.1-1,0.2-1.8,0.2-2.6
	c0-0.1,0-0.2,0-0.4c0-0.1,0.1-0.3,0.1-0.4c0.1-0.4,0.2-0.7,0.3-0.8c0.1-0.1,0.4-0.2,1-0.2c0.3-0.1,0.7-0.2,1-0.3
	c0.3-0.1,0.7-0.2,1.1-0.4c0.2-0.1,0.4-0.2,0.5-0.2c0.1-0.1,0.3-0.2,0.5-0.2c0.1,0,0.2-0.1,0.3-0.2c0.1-0.2,0.3-0.3,0.4-0.4
	c0.2-0.1,0.3-0.2,0.5-0.3c0.5-0.4,1-1.1,1.4-2c0.4-0.9,0.7-1.9,0.8-2.9c0.1-1,0-1.9-0.4-2.7c-0.3-0.8-1-1.2-2-1.2
	c-0.1,0-0.1,0-0.2,0c0,0-0.1,0-0.2,0c-0.4-0.1-0.7-0.1-1-0.1c-0.3-0.1-0.6-0.1-1,0c-0.3,0.1-0.6,0.1-1,0.2c-0.6,0.1-1.1,0.2-1.6,0.4
	s-1,0.4-1.6,0.7c-0.2,0.1-0.3,0.2-0.4,0.3c-0.3,0.3-0.6,0.7-0.9,1c-0.3,0.3-0.5,0.7-0.6,1.2c0,0,0,0.1,0,0.1c0,0,0,0,0,0.1
	c-0.1,0.2-0.2,0.4-0.3,0.6c-0.1,0.2-0.3,0.4-0.5,0.6c0,0.1-0.1,0.2-0.1,0.2c0,0.1-0.1,0.2-0.1,0.2c-0.2,0.6-0.5,1.2-0.7,1.8
	c-0.2,0.6-0.4,1.2-0.6,1.8c-0.1,0.5-0.2,1-0.3,1.5c-0.1,0.5-0.2,1-0.3,1.4c0,0.1-0.1,0.2-0.1,0.3c0,0.1,0,0.2,0,0.3c0,0,0,0,0,0
	c0,0,0,0,0,0c-0.4,0.5-0.8,1-1.2,1.5c-0.2,0.3-0.4,0.5-0.6,0.8s-0.4,0.5-0.6,0.8c-0.1,0.2-0.2,0.3-0.4,0.4c-0.1,0.1-0.2,0.2-0.4,0.4
	c-0.3,0.3-0.5,0.6-0.8,0.9c-0.2,0.3-0.5,0.5-0.8,0.8c-0.2,0.2-0.4,0.4-0.6,0.6c-0.2,0.2-0.4,0.3-0.7,0.5c-0.4,0.3-0.9,0.6-1.3,1
	c-0.4,0.3-0.8,0.6-1.2,1c-0.4,0.3-0.8,0.6-1.2,0.8c-0.4,0.2-0.8,0.4-1.3,0.6c-0.7,0.2-1.3,0.5-1.8,0.9c-0.2,0.1-0.3,0.2-0.5,0.2
	c-0.1,0.1-0.3,0.2-0.5,0.3c-0.1-0.2-0.1-0.3-0.1-0.3c0.1-0.2,0.1-0.4,0.2-0.6c0-0.2,0-0.4-0.1-0.6c0-0.1,0-0.2,0-0.2
	c0-0.1,0.1-0.1,0.1-0.2c0.1-0.8,0.2-1.7,0.2-2.5c0.1-0.8,0.1-1.7,0.2-2.6c0.1-0.6,0.2-1.3,0.3-2c0.1-0.7,0.1-1.4-0.1-2
	c0-0.3,0-0.5,0.1-0.7c0-0.1,0.1-0.1,0.1-0.2c0,0,0.1-0.1,0.1-0.2c0.2-0.4,0.5-0.6,0.9-0.7c0.3-0.1,0.7-0.2,1-0.4
	c0.3-0.2,0.7-0.3,1-0.4c0.1,0,0.2,0,0.2-0.1c0.1-0.1,0.2-0.2,0.4-0.2c0.1-0.1,0.2-0.1,0.3-0.2c0.5-0.2,1-0.5,1.3-0.8
	c0.4-0.3,0.8-0.6,1.1-0.9c0.4-0.3,0.7-0.6,1.1-0.9c0.1-0.1,0.2-0.2,0.2-0.3c0.1,0,0.2-0.1,0.4-0.3c0.2-0.2,0.5-0.5,0.7-0.7
	c0.2-0.2,0.5-0.4,0.7-0.6c0.3-0.3,0.6-0.6,0.9-0.9c0.3-0.3,0.6-0.6,0.9-0.8c0.1-0.2,0.2-0.3,0.4-0.4c0.1-0.1,0.2-0.3,0.3-0.4
	c0.2-0.3,0.4-0.6,0.5-0.8c0.1-0.3,0.3-0.5,0.5-0.8c0.1-0.1,0.2-0.3,0.3-0.4c0.1-0.2,0.2-0.3,0.3-0.4c0.6-0.8,1.2-1.7,1.7-2.7
	c0.2-0.3,0.3-0.6,0.4-0.9c0.1-0.3,0.3-0.6,0.4-0.8c0.4-0.7,0.7-1.4,0.8-2c0.1-0.2,0.1-0.3,0.1-0.4c0-0.2,0-0.3,0-0.5
	c0-0.1,0.1-0.3,0.1-0.5c0.2-0.6,0.4-1.1,0.5-1.6c0-0.1,0.1-0.2,0.1-0.2c0-0.1,0.1-0.2,0.1-0.2c0.1-0.6,0.2-1.1,0.4-1.6l0.2-0.5
	c0.1-0.6,0.3-1.1,0.4-1.7c0.2-0.6,0.3-1.2,0.4-1.8c0.1-1,0-2.1-0.2-3.2c-0.3-1.1-0.8-2.1-1.6-2.7c-0.5-0.4-1-0.7-1.6-0.9
	c-0.6-0.2-1.1-0.3-1.7-0.4c-0.6-0.1-1.2-0.1-1.8,0c-0.6,0-1.2,0.1-1.8,0.1c-0.8,0-1.5,0.2-2.2,0.5c-0.7,0.3-1.3,0.7-1.8,1.2
	c-0.4,0.4-0.8,0.8-1.2,1.2c-0.4,0.4-0.8,0.8-1.1,1.3c-0.9,1.5-1.8,3.1-2.6,4.7c-0.8,1.6-1.5,3.2-2.1,5c-0.2,0.8-0.5,1.6-0.8,2.3
	c-0.3,0.7-0.5,1.5-0.8,2.3c-0.1,0.4-0.3,0.8-0.4,1.2c-0.1,0.4-0.3,0.8-0.5,1.2c-0.3,0.6-0.5,1.2-0.5,1.9c0,0.2-0.1,0.5-0.1,0.7
	c0,0.2-0.1,0.4-0.1,0.6c-0.4,2-0.8,3.9-1.1,5.7c-0.1,0.5-0.1,1-0.2,1.5c-0.1,0.5-0.1,1-0.2,1.5c-0.1,0.7-0.2,1.4-0.4,2.1
	c0,0.2-0.1,0.5-0.1,1c0,0.6,0,1.1,0.1,1.7c0,0.4,0,0.8,0,1.2c0,0.1-0.1,0.2-0.1,0.3c-0.2,0.4-0.4,0.7-0.7,1.1
	c-0.5,0.6-0.9,1.3-1.2,1.9c-0.4,0.8-0.8,1.6-1.2,2.4c-0.4,0.8-0.8,1.6-1.3,2.4c-0.3,0.6-0.7,1.1-1,1.7c-0.4,0.6-0.7,1.1-1.1,1.7
	c-0.1,0.1-0.1,0.1-0.1,0.2c0,0-0.1,0.1-0.2,0.2l-0.2,0.2c-0.1-0.2-0.2-0.3-0.2-0.3c0-0.1,0-0.1,0-0.3c0.1-0.2,0.1-0.3,0.1-0.4
	c0-0.3,0-0.5,0-0.8c0-0.2,0-0.5,0.1-0.8c0.1-1.4,0.2-2.8,0.3-4.3c0.1-1.4,0.3-2.9,0.6-4.3c0.3-1.4,0.6-2.8,0.9-4.1
	c0.3-1.3,0.7-2.7,1-4.1c0.1-0.3,0.1-0.6,0.2-0.8c0-0.3,0.1-0.6,0.1-0.8c0.1-0.7,0.1-1.5,0.1-2.4c0-0.9-0.1-1.6-0.3-2.2
	c-0.1-0.2-0.1-0.4-0.2-0.5c0-0.1,0-0.3,0-0.5c0-0.2-0.1-0.4-0.3-0.7c-0.2-0.2-0.4-0.4-0.6-0.6c-0.2-0.2-0.4-0.4-0.6-0.6
	c-0.4-0.3-0.8-0.5-1.3-0.4h-1.4c-1.2-0.1-2.3,0.3-3.1,1c-0.4,0.4-0.8,0.8-1.3,1.4c-0.2,0.3-0.4,0.6-0.6,0.9
	c-0.2,0.3-0.4,0.6-0.6,0.9c-0.2,0.3-0.4,0.6-0.6,0.9c-0.2,0.3-0.4,0.6-0.6,0.9l-2,3.6c-0.2,0.3-0.3,0.6-0.4,0.7
	c-0.1,0.2-0.2,0.4-0.3,0.7c-0.1,0.2-0.2,0.5-0.3,0.7c-0.2,0.4-0.3,0.7-0.4,0.8c-0.1,0.2-0.2,0.3-0.2,0.4c-0.1,0.1-0.1,0.3-0.2,0.4
	c-0.2,0.4-0.5,0.9-0.7,1.4S97.3,49,97,49.4c0,0.1-0.1,0.1-0.1,0.2c0,0.1-0.1,0.1-0.2,0.1c0-0.2-0.1-0.5-0.1-0.7c0-0.2,0-0.5,0-0.7
	c0-0.5,0-1.1,0-1.6c0-0.2,0-0.4,0-0.6c0-0.2,0.1-0.4,0.1-0.6s0-0.4-0.1-0.5c-0.1-0.2-0.1-0.3-0.1-0.5c0-0.5,0-1,0-1.4
	c0.1-0.5,0.1-0.9,0.2-1.4c0.1-0.4,0.1-0.8,0.1-1.2c0-0.4,0.1-0.8,0.1-1.2c0.1-0.3,0.1-0.6-0.1-0.9c-0.1-0.3-0.2-0.6-0.3-0.9
	c-0.1-0.4-0.2-0.7-0.2-1.1c0-0.4,0-0.8,0-1.1c-0.1-0.6-0.4-1-0.8-1.3l-0.1-0.1c0-0.1-0.1-0.3-0.1-0.4c0-0.1-0.1-0.3-0.1-0.4
	c-0.1-0.1-0.3-0.2-0.4-0.2c-0.1-0.1-0.3-0.2-0.3-0.4c0-0.1,0-0.1-0.1-0.1c-0.6-0.3-1.4-0.4-2.2-0.3c-0.4,0.1-0.6,0.3-0.6,0.5
	c-0.1,0.2-0.1,0.4-0.2,0.6s-0.1,0.4-0.1,0.6c-0.1,0.5-0.1,1-0.2,1.5c0,0.5-0.1,1-0.1,1.5c-0.1,0.8-0.1,1.7-0.2,2.5
	c0,0.8-0.1,1.7-0.2,2.5V42c0,0.2,0.1,0.4,0.1,0.5c0,0.1,0,0.3,0,0.5c0,0.5,0,1,0,1.5c0,0.5,0,1,0.1,1.5v0c-0.5,0.4-0.9,0.8-1.4,1.1
	c-1.1,0.6-2.3,1.1-3.5,1.3c-0.2,0-0.4,0.1-0.6,0.1c-0.2,0-0.4,0-0.6,0c-0.1,0-0.1,0-0.2-0.1c-0.1,0-0.1-0.1-0.2-0.1
	c0.1-0.2,0.1-0.5,0.1-0.7c0-0.2,0-0.4,0.1-0.6c0-0.3,0.1-0.5,0.3-0.8c0.1-0.2,0.2-0.5,0.3-0.8c0-0.4,0-0.8,0-1.2
	c0-0.4-0.1-0.8-0.2-1.2c0-0.2-0.1-0.3-0.1-0.5c0-0.1-0.1-0.3-0.1-0.5c0-0.4-0.1-0.8-0.2-1.2c-0.1-0.4-0.3-0.7-0.5-1.1
	c-0.2-0.5-0.6-0.9-1.1-1.1c-0.5-0.3-0.9-0.5-1.4-0.8c-0.4-0.2-0.7-0.4-1-0.5c-0.3-0.2-0.7-0.2-1.1-0.1c-0.3,0.1-0.6,0.1-0.7,0.1
	c-0.3,0-0.5,0.2-0.7,0.4c-0.2,0.2-0.4,0.3-0.6,0.4l-0.1,0.1c-0.2,0.4-0.4,0.9-0.6,1.3c-0.2,0.4-0.3,0.9-0.4,1.4
	c-0.2,0.8-0.3,1.6-0.2,2.4c0.1,0.8,0.3,1.5,0.7,2.3c0.1,0.2,0.3,0.4,0.4,0.6c0.1,0.2,0.3,0.4,0.5,0.6c0.7,0.9,1.6,1.7,2.7,2.4
	c0.2,0.1,0.4,0.2,0.5,0.4c0.2,0.1,0.3,0.2,0.5,0.3c0,0.1-0.1,0.2-0.1,0.2s0,0.1-0.1,0.2c-0.2,0.3-0.4,0.7-0.5,1c0,0,0,0.1-0.1,0.1
	c-0.3,0.5-0.7,1-1.3,1.6c-0.1,0.1-0.2,0.2-0.3,0.4c-0.1,0.1-0.2,0.2-0.4,0.3c-0.2,0.2-0.4,0.4-0.7,0.5c-0.3,0.1-0.5,0.3-0.7,0.5
	c-0.4,0.4-0.9,0.6-1.4,0.8c-0.5,0.2-1,0.3-1.5,0.5c-0.3,0.1-0.6,0.1-0.9-0.2c-0.1-0.1-0.3-0.2-0.4-0.4c-0.1-0.1-0.3-0.2-0.4-0.4
	c-0.3-0.2-0.4-0.4-0.4-0.7c-0.1-0.4-0.1-0.9-0.2-1.3c0-0.4-0.1-0.8-0.1-1.3c0-0.4,0-0.8,0-1.2c0.1-0.4,0.2-0.7,0.5-1.1
	c0.1-0.2,0.1-0.3,0.1-0.3c0.1-0.4,0.2-0.9,0.4-1.2c0.2-0.4,0.3-0.8,0.5-1.2c0.1-0.4,0.2-0.9,0.3-1.3c0.1-0.4,0.2-0.9,0.4-1.3
	c0.2-0.6,0.4-1.3,0.5-1.9c0.2-0.6,0.3-1.3,0.5-1.9c0.1-0.3,0.2-0.6,0.3-0.9c0.1-0.3,0.2-0.5,0.3-0.8c0.1-0.2,0.2-0.3,0.3-0.5
	c0.1-0.1,0.2-0.3,0.3-0.5c0.2-0.1,0.4-0.4,0.5-0.7c0-0.1,0.1-0.2,0.3-0.4c0.4-0.4,0.5-0.7,0.5-1.1c-0.5-0.3-1.1-0.5-1.7-0.6
	c-0.4,0-0.7,0-0.9,0.2c-0.4,0.2-0.7,0.5-1.1,0.7c-0.3,0.2-0.7,0.4-1,0.7c-0.2,0.2-0.4,0.3-0.6,0.5c-0.2,0.1-0.4,0.3-0.6,0.5
	c-0.2,0.2-0.4,0.5-0.6,0.7c-0.2,0.2-0.4,0.5-0.6,0.7c-0.4,0.4-0.6,0.7-0.8,1.1c-0.3,0.7-0.6,1.4-0.9,2c-0.3,0.7-0.6,1.4-0.8,2.1
	c-0.3,1-0.5,2-0.7,3c0,0.6,0,1.1,0,1.6c0,0.1,0,0.1,0,0.2c-0.3,0.5-0.6,1.1-1,1.6c-0.6,1-1.2,1.9-1.9,2.8c-0.7,0.9-1.4,1.7-2.2,2.5
	c-0.8,0.9-1.7,1.8-2.5,2.7c-0.8,0.9-1.7,1.7-2.7,2.5c-0.6,0.5-1.3,1.1-1.9,1.6c-0.6,0.5-1.3,1-2.1,1.3c-1.7,0.8-3.5,1-5.5,0.7
	c-0.8-0.2-1.4-0.5-1.8-1.1c-0.4-0.6-0.6-1.2-0.6-2c0-0.9,0-1.8-0.1-2.7s-0.1-1.8,0-2.7c0.1-0.6,0.2-1.3,0.2-2c0.1-0.7,0.2-1.3,0.2-2
	c0.3-1.8,0.7-3.5,1.1-5.1c0.5-1.7,0.9-3.3,1.4-5c0.2-0.8,0.4-1.6,0.7-2.4c0.3-0.8,0.6-1.6,0.9-2.3c0.4-0.8,0.7-1.6,1-2.4
	c0.3-0.8,0.6-1.6,1-2.4c0.4-1.1,0.9-2.2,1.5-3.3c0.5-1.1,1.1-2.1,1.7-3.2c0.3-0.5,0.6-1,0.8-1.5c0.3-0.5,0.6-1,1.1-1.4
	c0.3-0.2,0.7-0.5,1.1-0.8c0.5-0.3,0.9-0.4,1.4-0.5c0.5-0.1,0.9,0,1.3,0.1c0.4,0.2,0.7,0.5,0.8,1.1c0.1,0.5,0.2,1,0.3,1.6
	c0.1,0.5,0,1.1,0,1.6c-0.1,0.8-0.3,1.6-0.4,2.4c-0.2,0.8-0.4,1.6-0.8,2.2l0.4,0.8c0.1,0.2,0.2,0.3,0.3,0.4c0.2,0.1,0.4,0.1,0.5,0.2
	c0.2,0,0.3,0.1,0.4,0.1c0.4-0.5,0.7-1,1-1.4c0.1-0.1,0.1-0.2,0.2-0.3c0-0.1,0.1-0.2,0.2-0.3c0.4-0.6,0.6-1.1,0.7-1.7
	c0.1-0.6,0.3-1.2,0.4-1.8c0.1-0.3,0.1-0.6,0.2-0.9c0-0.3,0.1-0.5,0.1-0.8c0-0.3,0-0.6,0-0.9c0-0.3-0.1-0.6-0.1-0.9
	c0-0.3-0.1-0.6-0.1-0.8c0-0.3-0.1-0.6-0.1-0.9c-0.2-0.7-0.5-1.3-0.9-1.7c-0.4-0.5-1-0.8-1.8-0.8C61,19,59.8,19,58.6,19.3
	c-1.2,0.2-2.4,0.5-3.4,0.8c-2.2,0.6-4.1,1.7-5.7,3.1c-1.9,1.7-3.3,3.7-4.4,5.8c-1,2.2-1.9,4.4-2.7,6.7c-0.4,1.2-0.8,2.5-1.1,3.7
	c-0.3,1.2-0.6,2.5-0.9,3.7c-0.4,1.7-0.8,3.3-1.1,4.9c-0.4,1.6-0.6,3.3-0.8,5c-0.2,1.7-0.3,3.3-0.4,5c0,1.7,0.1,3.3,0.4,5
	c0.2,1.1,0.5,2.1,0.9,3c0.4,0.9,1.1,1.8,2,2.4c0.8,0.6,1.6,1,2.4,1.2c1.7,0.3,3.4,0.1,5.1-0.5c3.3-1.4,6.4-3.2,9.2-5.6
	c2.8-2.4,5.4-4.9,7.7-7.6c0.9-1.1,1.7-2.3,2.4-3.6c0.1,0.3,0.2,0.6,0.3,0.9c0.4,0.8,1,1.5,1.8,2.2c0.8,0.7,1.5,1.2,2.4,1.7
	c0.4,0.2,0.8,0.4,1.3,0.6c0.4,0.2,0.9,0.4,1.3,0.4s0.8-0.1,1.2-0.3c0.4-0.2,0.7-0.4,1.1-0.6c0.3-0.2,0.5-0.4,0.8-0.6
	c0.2-0.2,0.5-0.4,0.8-0.6c0.2-0.2,0.5-0.4,0.7-0.6c0.2-0.3,0.4-0.5,0.6-0.8c0.2-0.4,0.5-0.7,0.9-1c0.4-0.3,0.6-0.6,0.8-1.1
	c0.1-0.3,0.2-0.6,0.4-0.9c0.1-0.3,0.3-0.6,0.4-0.8c0.2-0.4,0.4-0.6,0.6-0.7c0.2,0,0.4-0.1,0.6-0.2c0.2-0.1,0.4,0,0.6,0
	c0.5,0.1,1,0.1,1.4,0c0.4-0.1,0.9-0.3,1.4-0.5c0.6-0.2,1.1-0.5,1.6-0.8c0.5-0.3,1-0.6,1.6-0.8c0,0,0.1-0.1,0.2-0.1
	c0,0.2,0,0.4,0,0.5c0,0.4,0,0.7,0.1,1c0,0.1,0.1,0.3,0.1,0.5c0,0.5,0,1,0,1.5c0,0.5,0,1,0.1,1.5c0,0.1,0.1,0.2,0,0.3
	c0,0.1,0,0.2,0,0.3c0,0.1,0.1,0.3,0.1,0.6c0,0.3,0,0.6,0,0.9c0,0.3,0,0.6,0.1,0.9c0,0.1,0.1,0.2,0.1,0.4c0,0.1,0,0.2,0.1,0.4
	c0.2,0.4,0.3,0.6,0.5,0.6c0.3,0.1,0.6,0.1,0.9,0.2c0.3,0,0.6,0,0.9-0.2c0.2-0.1,0.4-0.2,0.6-0.3c0.2-0.1,0.4-0.1,0.6-0.1
	c0,0,0.1-0.1,0.2-0.2c0.2-0.2,0.5-0.2,0.7-0.1c0.2,0,0.4,0,0.5-0.2c0.1-0.2,0.2-0.5,0.4-0.7c0.1-0.2,0.2-0.4,0.3-0.6
	c0.1-0.2,0.1-0.3,0.1-0.4c-0.1-0.2-0.1-0.4,0-0.5c0.1-0.2,0.2-0.3,0.2-0.5c0.1-0.2,0.2-0.3,0.2-0.5c0.1-0.2,0.1-0.3,0.2-0.5
	c0.1-0.3,0.1-0.6,0.2-0.8c0.1-0.3,0.2-0.5,0.4-0.7c0,0,0.1,0,0.1-0.1c0.2-0.5,0.4-1,0.7-1.5c0.3-0.5,0.5-1,0.8-1.5
	c0.3-0.6,0.6-1.1,0.8-1.7c0.3-0.5,0.6-1.1,1-1.6c0.4-0.6,0.8-1.1,1.2-1.6c0.4-0.5,0.8-1.1,1.1-1.6c0.3-0.4,0.6-0.9,0.8-1.5
	c0.3-0.5,0.6-1,1.1-1.2c0.1-0.1,0.1-0.2,0.1-0.2c0-0.1,0.1-0.1,0.2-0.2c0.1-0.1,0.1-0.2,0.2-0.3c0-0.1,0.1-0.2,0.2-0.3
	c0.1-0.2,0.2-0.3,0.2-0.3c0.2-0.2,0.5-0.3,0.8-0.4v0.3c0,0.6,0,1.1-0.1,1.6c-0.1,0.5-0.2,1-0.2,1.6c-0.1,0.4-0.2,0.9-0.2,1.4
	s-0.2,0.9-0.2,1.4c-0.1,0.6-0.2,1.1-0.3,1.8c-0.1,0.6-0.2,1.2-0.3,1.7c-0.1,0.4-0.2,0.9-0.2,1.4c-0.1,0.5-0.2,0.9-0.2,1.4
	c-0.5,2.3-0.8,4.5-0.9,6.7v1.6c0,1.4,0.1,2.7,0.4,4c0,0.3,0.1,0.5,0.2,0.8c0.1,0.2,0.2,0.5,0.3,0.7c0.3,0.7,0.8,1.2,1.5,1.3
	c1.1,0.2,2.2,0,3.2-0.6c1-0.6,1.9-1.3,2.6-2.1c0.7-0.8,1.3-1.7,1.7-2.7c0.5-0.9,0.9-1.9,1.4-2.8c0.4-0.8,0.9-1.6,1.3-2.5
	c0.1-0.2,0.2-0.3,0.3-0.5c0,0.4,0,0.7,0.1,1.1c0,0.1,0,0.2,0,0.4c0,0.1,0,0.2,0,0.4c0.1,0.6,0.2,1.1,0.2,1.7s0.2,1.1,0.2,1.7
	c0.2,0.8,0.2,1.6,0.2,2.5v0.7c0.2,0.6,0.3,1.1,0.4,1.7c0.1,0.6,0.2,1.2,0.4,1.7c0.1,0.3,0.1,0.6,0.2,0.8c0,0.5,0.1,1,0.4,1.4
	c0.1,0.1,0.2,0.2,0.2,0.5c0.2,0.5,0.4,1,0.7,1.5c0.3,0.5,0.5,1,0.8,1.5c0.1,0.2,0.2,0.4,0.3,0.5c0.1,0.2,0.2,0.3,0.3,0.5
	c0.1,0.2,0.2,0.3,0.4,0.5c0.1,0.2,0.3,0.3,0.4,0.5c0.3,0.2,0.6,0.4,0.9,0.5c0.3,0.1,0.7,0.1,1.1,0c0.2,0,0.3-0.1,0.4-0.1
	c0.1,0,0.2-0.1,0.4-0.1c0.3-0.1,0.6-0.2,0.8-0.4s0.4-0.4,0.6-0.6c0.9-1.4,1.4-2.9,1.5-4.5c0-0.8-0.1-1.4-0.3-2.1
	c-0.2-0.6-0.5-1.2-0.7-1.9c-0.1-0.3-0.2-0.6-0.2-0.9c0-0.3-0.1-0.6-0.1-0.9c-0.2-0.5-0.4-1-0.7-1.4c-0.3-0.5-0.6-0.9-0.9-1.3
	c-0.1-0.2-0.3-0.3-0.4-0.5c-0.1-0.2-0.3-0.3-0.4-0.5l-0.2-0.4c-0.1-0.2-0.1-0.4,0.2-0.5c0.6-0.4,1.2-0.7,1.7-1
	c0.6-0.3,1.2-0.7,1.8-1.3c0.2-0.2,0.5-0.5,0.8-0.6c0.3-0.2,0.6-0.4,0.8-0.6c0.3-0.2,0.6-0.4,0.8-0.6c0.2-0.2,0.5-0.4,0.8-0.6
	c0.1-0.1,0.1-0.2,0.1-0.2c0.2-0.2,0.4-0.5,0.6-0.7s0.5-0.5,0.8-0.7c0.2-0.2,0.5-0.4,0.7-0.6c0.2-0.2,0.4-0.4,0.6-0.6
	c0.3-0.3,0.5-0.6,0.5-1c0-0.1,0.1-0.2,0.3-0.4c0.1-0.2,0.3-0.3,0.4-0.5c0,0.4-0.1,0.9-0.2,1.3c-0.1,0.8-0.1,1.6-0.1,2.3
	c0,0.7,0,1.5,0,2.3c0.1,1.4,0.5,2.7,1.2,3.7c0.3,0.4,0.6,0.7,0.9,0.9c0.3,0.3,0.7,0.5,1,0.8l0.2,0.1c0.4,0.1,0.9,0.3,1.3,0.4
	c0.4,0.1,0.9,0.2,1.3,0.3c0.6,0,1.2,0,1.8-0.2c0.6-0.2,1.1-0.4,1.6-0.7c0.5-0.3,1-0.6,1.5-1c0.5-0.4,1-0.8,1.4-1.1
	c0.6-0.4,1.1-0.9,1.6-1.5c0.5-0.5,0.9-1.1,1.3-1.7c0.4-0.6,0.8-1.2,1.1-1.8c0.4-0.6,0.8-1.2,1.2-1.7c0.2-0.2,0.4-0.5,0.5-0.8
	c0.1-0.3,0.3-0.5,0.5-0.7c0.1-0.3,0.2-0.6,0.4-0.9c0.2-0.3,0.3-0.6,0.3-0.9c0-0.1,0-0.2,0.1-0.2c0.1-0.3,0.3-0.5,0.5-0.8
	c0.1,0.1,0.3,0.2,0.4,0.3c0.4,0.2,0.8,0.5,1.2,0.8c0.4,0.2,0.7,0.4,1.1,0.6c0.4,0.2,0.8,0.4,1.1,0.6c0.8,0.4,1.1,1,1,1.8
	c0,0.1,0,0.2-0.1,0.4c-0.1,0.3-0.1,0.6-0.2,0.9c-0.1,0.3-0.1,0.6-0.3,1c-0.2,0.6-0.3,1.1-0.5,1.7c-0.2,0.6-0.3,1.2-0.4,1.8
	c0,0.2,0,0.3,0,0.5c0,0.1,0,0.3-0.1,0.5c-0.1,0.5-0.1,1-0.2,1.4c0,0.5-0.1,0.9-0.2,1.4c-0.1,0.4-0.1,0.7-0.1,1.1
	c0,0.4,0,0.8-0.1,1.1c0,0.3,0,0.6,0,0.9c0,0.3,0,0.6,0.1,0.9c0.1,0.4,0.1,0.8,0.2,1.3s0.1,0.9,0.2,1.3c0.4,1.5,1.2,2.6,2.5,3.4
	c0.2,0.1,0.4,0.2,0.6,0.3c0.2,0.1,0.5,0.2,0.7,0.2c0.3,0.1,0.6,0.2,0.9,0.2c0.5,0.2,1,0.1,1.3-0.3c0.1-0.1,0.1-0.1,0.2-0.1
	c0,0,0.1,0,0.2-0.1c0.2,0,0.5-0.1,0.7-0.3c0.4-0.1,0.7-0.2,0.9-0.4c0.1-0.1,0.2-0.1,0.2-0.2s0.2-0.1,0.3-0.2
	c0.2-0.2,0.4-0.3,0.5-0.5c0.1-0.2,0.3-0.4,0.5-0.5c0.1-0.2,0.3-0.3,0.4-0.4c0.1-0.1,0.3-0.3,0.4-0.5c0.1-0.1,0.1-0.2,0.1-0.2
	c0-0.1,0.1-0.2,0.1-0.2c0.1-0.1,0.1-0.2,0.2-0.3c0-0.1,0.1-0.2,0.1-0.3c0.2-0.4,0.4-0.8,0.5-1.2c0.2-0.4,0.3-0.8,0.5-1.1
	c0.2-0.3,0.4-0.6,0.4-0.8c0.1-0.3,0.2-0.6,0.3-0.9c0.1-0.3,0.2-0.6,0.4-0.9c0.2-0.5,0.5-1.1,0.8-2c0.3-0.8,0.6-1.6,0.9-2.4
	c0.2,0.5,0.4,0.9,0.7,1.4c0.3,0.4,0.6,0.7,0.9,0.9c0.3,0.3,0.7,0.5,1,0.8l0.2,0.1c0.4,0.1,0.9,0.3,1.3,0.4c0.4,0.1,0.9,0.2,1.3,0.3
	c0.6,0,1.2,0,1.8-0.2c0.6-0.2,1.1-0.4,1.6-0.7c0.5-0.3,1-0.6,1.5-1s1-0.8,1.4-1.1c0.6-0.4,1.1-0.9,1.6-1.5c0.5-0.5,0.9-1.1,1.3-1.7
	c0.4-0.6,0.8-1.2,1.1-1.8c0.4-0.6,0.8-1.2,1.2-1.7c0.1-0.1,0.1-0.1,0.1-0.2c0,0,0,0,0,0.1c0,0.5,0,1,0,1.5c0,0.5,0,1,0.1,1.5
	c0,0.1,0.1,0.2,0,0.3c0,0.1,0,0.2,0,0.3c0,0.1,0.1,0.3,0.1,0.6c0,0.3,0,0.6,0,0.9c0,0.3,0,0.6,0.1,0.9c0,0.1,0.1,0.2,0.1,0.4
	c0,0.1,0,0.2,0.1,0.4c0.2,0.4,0.3,0.6,0.5,0.6c0.3,0.1,0.6,0.1,0.9,0.2c0.3,0,0.6,0,0.9-0.2c0.2-0.1,0.4-0.2,0.6-0.3
	c0.2-0.1,0.4-0.1,0.6-0.1c0,0,0.1-0.1,0.2-0.2c0.2-0.2,0.5-0.2,0.7-0.1c0.2,0,0.4,0,0.5-0.2c0.1-0.2,0.2-0.5,0.4-0.7
	c0.1-0.2,0.2-0.4,0.3-0.6c0.1-0.2,0.1-0.3,0.1-0.4c-0.1-0.2-0.1-0.4,0-0.5c0.1-0.2,0.2-0.3,0.2-0.5c0.1-0.2,0.2-0.3,0.2-0.5
	c0.1-0.2,0.1-0.3,0.2-0.5c0.1-0.3,0.1-0.6,0.2-0.8c0.1-0.3,0.2-0.5,0.4-0.7c0,0,0.1,0,0.1-0.1c0.2-0.5,0.4-1,0.7-1.5
	c0.3-0.5,0.5-1,0.8-1.5c0.3-0.6,0.6-1.1,0.8-1.7c0.3-0.5,0.6-1.1,1-1.6c0.4-0.6,0.8-1.1,1.2-1.6c0.4-0.5,0.8-1.1,1.1-1.6
	c0.3-0.4,0.6-0.9,0.8-1.5c0.3-0.5,0.6-1,1.1-1.2c0.1-0.1,0.1-0.2,0.1-0.2c0-0.1,0.1-0.1,0.2-0.2c0.1-0.1,0.1-0.2,0.2-0.3
	c0-0.1,0.1-0.2,0.2-0.3c0.1-0.2,0.2-0.3,0.2-0.3c0.2-0.2,0.5-0.3,0.8-0.4v0.3c0,0.6,0,1.1-0.1,1.6c-0.1,0.5-0.2,1-0.2,1.6
	c-0.1,0.4-0.2,0.9-0.2,1.4s-0.2,0.9-0.2,1.4c-0.1,0.6-0.2,1.1-0.3,1.8c-0.1,0.6-0.2,1.2-0.3,1.7c-0.1,0.4-0.2,0.9-0.2,1.4
	s-0.2,0.9-0.2,1.4c-0.5,2.3-0.8,4.5-0.9,6.7v1.6c0,1.4,0.1,2.7,0.4,4c0,0.3,0.1,0.5,0.2,0.8c0.1,0.2,0.2,0.5,0.3,0.7
	c0.3,0.7,0.8,1.2,1.5,1.3c1.1,0.2,2.2,0,3.2-0.6c1-0.6,1.9-1.3,2.6-2.1c0.7-0.8,1.3-1.7,1.7-2.7c0.5-0.9,0.9-1.9,1.4-2.8
	c0.4-0.8,0.9-1.6,1.3-2.5c0.4-0.8,0.8-1.7,1.3-2.5c0-0.1,0.1-0.1,0.1-0.2c0,0.2,0,0.5,0,0.7c0,0.5,0,1,0.1,1.4
	c0,0.5,0.1,0.9,0.2,1.3c0.1,0.2,0.1,0.3,0.2,0.4c0,0.1,0.1,0.3,0.1,0.4c0.2,0.5,0.3,0.9,0.5,1.4c0.2,0.4,0.5,0.8,0.9,1.2
	c0,0,0.1,0.2,0.3,0.4c0.5,0.5,1,0.9,1.6,1.1c0.2,0,0.4,0.1,0.7,0.3c0.2,0.1,0.5,0.1,0.9,0.1c0.6-0.1,1.1-0.2,1.6-0.3
	c0.5-0.1,1-0.3,1.6-0.5c0.7-0.2,1.3-0.5,1.9-0.8c0.6-0.3,1.2-0.7,1.7-1c0.5-0.3,0.9-0.6,1.3-1c0.4-0.4,0.7-0.8,1-1.2l0.5-0.7
	c0.4-0.4,0.8-0.8,1.2-1.1c0.4-0.3,0.8-0.7,1.1-1.2l0.1-0.1c0.2-0.2,0.4-0.4,0.5-0.7c0.2-0.2,0.4-0.4,0.6-0.6
	c0.1-0.1,0.1-0.2,0.2-0.2c0.1-0.2,0.2-0.4,0.4-0.5c0.1-0.1,0.1-0.2,0.2-0.3c0,0.5-0.1,1-0.1,1.5c0,0.7,0,1.5,0,2.3
	c0.1,1.4,0.5,2.7,1.2,3.7c0.3,0.4,0.6,0.7,0.9,0.9c0.3,0.3,0.7,0.5,1,0.8l0.2,0.1c0.4,0.1,0.9,0.3,1.3,0.4c0.4,0.1,0.9,0.2,1.3,0.3
	c0.6,0,1.2,0,1.8-0.2c0.6-0.2,1.1-0.4,1.6-0.7c0.5-0.3,1-0.6,1.5-1s1-0.8,1.4-1.1c0.6-0.4,1.1-0.9,1.6-1.5c0.5-0.5,0.9-1.1,1.3-1.7
	c0.4-0.6,0.8-1.2,1.1-1.8c0.4-0.6,0.8-1.2,1.2-1.7c0.2-0.2,0.4-0.5,0.5-0.8c0.1-0.3,0.3-0.5,0.5-0.7c0.1-0.3,0.2-0.6,0.4-0.9
	c0.2-0.3,0.3-0.6,0.3-0.9c0-0.1,0-0.2,0.1-0.2c0.3-0.8,0.7-1.4,1.1-2c0.1-0.1,0.2-0.2,0.2-0.5C259,44,258.9,43.9,258.8,43.8z
	 M245.5,42c0.1-0.2,0.1-0.5,0.2-0.7c0-0.2,0.1-0.5,0.1-0.8c0.1-0.3,0.1-0.7,0.2-1c0-0.4,0.1-0.7,0.3-1c0.1-0.2,0.2-0.4,0.2-0.6
	c0-0.4,0.1-0.8,0.3-1.1c0.1-0.3,0.3-0.7,0.4-1c0.2-0.6,0.7-1,1.4-1.1c0.4-0.1,0.8,0,1.2,0.1c0.3,0.2,0.7,0.4,1,0.7
	c0.1,0.1,0.2,0.2,0.2,0.3c0.1,0.4,0.3,0.8,0.6,1.1c0,0.1-0.1,0.2-0.1,0.3c0,0.1-0.1,0.2-0.1,0.3c-0.1,0.3-0.2,0.6-0.1,0.8
	c0.1,0.1,0.1,0.3-0.1,0.5c-0.2,0.4-0.5,0.8-0.7,1.1c-0.2,0.4-0.5,0.7-0.8,1.1c-0.3,0.5-0.8,0.9-1.4,1.2c-0.8,0.4-1.8,0.7-2.8,0.8
	c-0.1-0.2-0.1-0.4-0.1-0.5C245.3,42.4,245.4,42.2,245.5,42z M180.4,42c0.1-0.2,0.1-0.5,0.2-0.7c0-0.2,0.1-0.5,0.1-0.8
	c0.1-0.3,0.1-0.7,0.2-1c0-0.4,0.1-0.7,0.3-1c0.1-0.2,0.2-0.4,0.2-0.6c0-0.4,0.1-0.8,0.3-1.1c0.1-0.3,0.3-0.7,0.4-1
	c0.2-0.6,0.7-1,1.4-1.1c0.4-0.1,0.8,0,1.2,0.1c0.3,0.2,0.7,0.4,1,0.7c0.1,0.1,0.2,0.2,0.2,0.3c0.1,0.4,0.3,0.8,0.6,1.1
	c0,0.1-0.1,0.2-0.1,0.3c0,0.1-0.1,0.2-0.1,0.3c-0.1,0.3-0.2,0.6-0.1,0.8c0.1,0.1,0.1,0.3-0.1,0.5c-0.2,0.4-0.5,0.8-0.7,1.1
	c-0.2,0.4-0.5,0.7-0.8,1.1c-0.3,0.5-0.8,0.9-1.4,1.2c-0.8,0.4-1.8,0.7-2.8,0.8c-0.1-0.2-0.1-0.4-0.1-0.5
	C180.2,42.4,180.3,42.2,180.4,42z M143,42c0.1-0.2,0.1-0.5,0.2-0.7c0-0.2,0.1-0.5,0.1-0.8c0.1-0.3,0.1-0.7,0.2-1
	c0-0.4,0.1-0.7,0.3-1c0.1-0.2,0.2-0.4,0.2-0.6c0-0.4,0.1-0.8,0.3-1.1c0.1-0.3,0.3-0.7,0.4-1c0.2-0.6,0.7-1,1.4-1.1
	c0.4-0.1,0.8,0,1.2,0.1c0.3,0.2,0.7,0.4,1,0.7c0.1,0.1,0.2,0.2,0.2,0.3c0.1,0.4,0.3,0.8,0.6,1.1c0,0.1-0.1,0.2-0.1,0.3
	c0,0.1-0.1,0.2-0.1,0.3c-0.1,0.3-0.2,0.6-0.1,0.8c0.1,0.1,0.1,0.3-0.1,0.5c-0.2,0.4-0.5,0.8-0.7,1.1c-0.2,0.4-0.5,0.7-0.8,1.1
	c-0.3,0.5-0.8,0.9-1.4,1.2c-0.8,0.4-1.8,0.7-2.8,0.8c-0.1-0.2-0.1-0.4-0.1-0.5C142.9,42.4,142.9,42.2,143,42z M142,16.3
	C142.1,16.3,142.1,16.3,142,16.3c0.1,0.1,0.1,0.1,0.1,0.1c0,0-0.1,0-0.1,0.1L142,16.3L142,16.3z M124.1,42.6c0-0.1,0.1-0.2,0.1-0.3
	c0.2-0.3,0.2-0.6,0.2-0.9c0-0.2,0-0.5,0.2-0.8c0.7-1.8,1.2-3.6,1.5-5.5c0.3-1.9,0.8-3.7,1.4-5.5c0.2-0.6,0.5-1.3,0.8-1.8
	c0.3-0.6,0.5-1.2,0.7-1.8c0.2-0.7,0.4-1.4,0.6-2s0.4-1.3,0.8-2c0.4-0.8,0.7-1.7,1.1-2.5s0.8-1.7,1.2-2.4c0.1-0.1,0.1-0.3,0.2-0.5
	c0-0.2,0.1-0.4,0.2-0.5c0.1-0.2,0.3-0.5,0.4-0.7c0.2-0.2,0.3-0.4,0.4-0.6c0.2-0.3,0.5-0.7,0.8-1.2c0.4-0.5,0.8-0.6,1.2-0.5
	c0.3,0.1,0.7,0.2,1,0.2c0.4,0,0.6,0.1,0.8,0.3c0.6,0.5,1.1,1.1,1.4,1.9c0.3,0.8,0.6,1.5,0.7,2.3c0.3,1.5,0.3,2.9,0.1,4.3
	c-0.2,1.4-0.6,2.8-1.1,4.2c-0.3,1-0.7,1.9-1.1,2.9c-0.4,1-0.9,1.9-1.4,2.8c-0.3,0.4-0.6,0.9-0.8,1.4c-0.3,0.5-0.6,0.9-1,1.4
	c-0.2,0.3-0.4,0.6-0.6,1c-0.2,0.5-0.5,0.9-0.8,1.2c-2.1,2.1-4.2,3.9-6.6,5.5c-0.6,0.5-1.2,0.9-1.9,1.1c-0.1,0.1-0.2,0.1-0.4,0.1
	c0-0.2,0-0.3,0-0.4c0-0.1,0-0.2,0-0.4C124.1,42.9,124.1,42.7,124.1,42.6z M83,45.6c-0.1,0.4-0.2,0.8-0.5,1.1c0,0.1-0.1,0.2-0.1,0.4
	c0,0.2,0,0.4-0.1,0.5c-0.1,0.1-0.2,0.3-0.3,0.5c-0.2,0-0.4-0.1-0.5-0.3c-0.1-0.1-0.3-0.3-0.5-0.5c-0.5-0.6-0.8-1.3-1.1-2.1
	c-0.2-0.8-0.2-1.5,0.2-2.3c0.1-0.2,0.1-0.3,0.1-0.4c0.1-0.7,0.3-1.4,0.6-2c0.1-0.1,0.1-0.2,0.1-0.3c0-0.1,0.1-0.2,0.1-0.3
	c0-0.2,0.1-0.2,0.3-0.2c0.1,0,0.1,0,0.2,0.1c0,0,0.1,0.1,0.1,0.1V40c0.1,0.3,0.2,0.6,0.3,0.8c0.1,0.2,0.3,0.5,0.5,0.7
	C82.8,42,83,42.5,83,43c0,0.5,0.1,1,0.1,1.5C83.1,44.8,83.1,45.2,83,45.6z M125.3,62.9c0.1,0.1,0.1,0.3,0.2,0.4
	c0,0.1,0.1,0.3,0.2,0.4c0.1,0.2,0.1,0.3,0.2,0.4c0,0.1,0.1,0.3,0.1,0.4c0,0.1,0.1,0.2,0.1,0.3s0,0.2,0.1,0.3
	c0.2,0.6,0.4,1.2,0.6,1.8c0.2,0.6,0.3,1.2,0.5,1.8c0,0.1,0.1,0.3,0.1,0.6c0,0.3,0,0.6,0,0.9c0,0.3-0.1,0.6-0.2,0.9
	c-0.1,0.4-0.4,0.6-0.8,0.5c-0.1,0-0.2,0-0.2-0.1c-0.2-0.2-0.5-0.3-0.7-0.5c-0.2-0.2-0.3-0.4-0.4-0.8c0-0.1-0.1-0.2-0.1-0.3
	c0-0.1-0.1-0.2-0.1-0.3c0-0.4-0.1-0.6-0.2-0.8c-0.1-0.2-0.2-0.3-0.2-0.5s0-0.4-0.1-0.6c0-0.2,0-0.3,0-0.5c0-0.1,0-0.3-0.1-0.5
	c-0.1-0.4-0.2-0.7-0.3-1.1c-0.1-0.4-0.2-0.7-0.3-1.1c-0.2-0.6-0.3-1.1-0.4-1.6c-0.1-0.5-0.2-1-0.3-1.6c-0.1-0.3-0.1-0.7-0.1-1
	c0-0.3,0-0.7,0.1-1c0.2,0.2,0.4,0.4,0.6,0.5c0.2,0.2,0.4,0.4,0.5,0.7c0.2,0.3,0.3,0.6,0.5,0.9c0.1,0.3,0.3,0.5,0.5,0.8
	c0.1,0.1,0.1,0.2,0.2,0.3C125.2,62.7,125.2,62.8,125.3,62.9z M157.2,40.3c0-0.3-0.1-0.5-0.1-0.8c0-0.2,0.1-0.5,0.1-0.7s0-0.4,0-0.6
	v-0.6c0-0.1,0-0.1,0-0.2c0,0,0-0.1,0-0.2c0-0.4,0.1-0.8,0.2-1.2c0.1-0.4,0.3-0.8,0.5-1.1c0.1-0.2,0.2-0.3,0.2-0.5
	c0-0.2,0.1-0.5,0.3-0.8c0-0.1,0.1-0.2,0.2-0.3c0.1-0.1,0.1-0.2,0.1-0.3c0-0.1,0.1-0.1,0.2-0.1h0.2c0.6,0.3,1,0.7,1.3,1.1
	c0,0.1,0.1,0.3,0.1,0.4c-0.1,0.4-0.1,0.9-0.2,1.3c-0.1,0.4-0.1,0.8-0.1,1.2c0,0.3-0.1,0.6-0.2,0.8c-0.1,0.2-0.2,0.5-0.3,0.7
	s-0.2,0.4-0.4,0.6c-0.1,0.1-0.2,0.2-0.3,0.4c-0.1,0.2-0.2,0.3-0.2,0.5c-0.1,0.2-0.3,0.4-0.5,0.6s-0.4,0.4-0.6,0.5
	C157.3,40.8,157.3,40.5,157.2,40.3z"/>
<linearGradient id="SVGID_2_" gradientUnits="userSpaceOnUse" x1="5.6058" y1="43.5" x2="291.4942" y2="43.5" gradientTransform="matrix(1 0 0 -1 0 86)">
	<stop  offset="0" style="stop-color:#642B73"/>
	<stop  offset="1" style="stop-color:#C6426E"/>
</linearGradient>
<rect x="6.1" y="5.7" class="st1" width="284.9" height="73.7"/>
</svg>
