<?xml version="1.0" encoding="utf-8"?>
<!-- Generator: Adobe Illustrator 19.2.1, SVG Export Plug-In . SVG Version: 6.00 Build 0)  -->
<svg version="1.1" id="Layer_1" xmlns="http://www.w3.org/2000/svg" xmlns:xlink="http://www.w3.org/1999/xlink" x="0px" y="0px"
	 viewBox="0 0 297.1 85" style="enable-background:new 0 0 297.1 85;" xml:space="preserve">
<style type="text/css">
	.st0{fill:#551A8B;}
	.st1{fill:url(#SVGID_1_);}
	.st2{fill:url(#SVGID_2_);}
	.st3{fill:url(#SVGID_3_);}
	.st4{fill:none;stroke:url(#SVGID_4_);stroke-miterlimit:10;stroke-dasharray:50, 750;
		stroke-dashoffset: 0;
		animation: dash 5s linear infinite;
	}
	@keyframes dash {
  		to {
    	stroke-dashoffset: -800;
  		}
	}
</style>
<path class="st0" d="M41.1,59.1c-1.5-0.3-2.5,0.4-1.2-1.4c1.1-2.4,1.1-37.2,0.4-39.9c-0.5-2.3,0.2-1.9,2.4-2.5
	c0.8-0.1,1.8-0.3,2.6-0.3c0.4,0.1,1.3-0.7,1.1-1.1c-0.1-0.6-0.3-1.3-0.6-1.8c-1.7-1.6-13.3-1-15.1-0.8c-0.6,0.1-0.7,0.2-0.6,0.8
	c0.4,1.3,1.8,2,3,2.6c0.4,0.4,0.6,0.8,0.4,1.4c-0.6,2.4-4.5,26.5-4.1,34.4c-0.1,1.7-0.1,6,0.7,7.4c0.4,0.8,0.4,1.1-0.8,1.2
	c-0.6,0.1-1.1,0.2-1.6,0.2c-0.3,0.1-0.6,0.1-0.7,0.5c0.2,0.3,0.9,2.8,1,3.1c0.3,0.8,0.8,1.4,1.5,1.3c1.4-0.2,12.4-2.5,15.2-2.7
	c0.4-0.1,0.6-0.6,0.3-0.9C45,59.5,41.7,59.3,41.1,59.1z"/>
<g>
	<linearGradient id="SVGID_1_" gradientUnits="userSpaceOnUse" x1="127.9" y1="22.9625" x2="131.4729" y2="22.9625">
		<stop  offset="0" style="stop-color:#551A8B"/>
		<stop  offset="0.4975" style="stop-color:#4B0082"/>
		<stop  offset="1" style="stop-color:#000000"/>
	</linearGradient>
	<path class="st1" d="M128.9,24.5c0.2,0.2,0.4,0.3,0.7,0.3c0.3,0,0.5,0,0.7,0l0.1-0.1c0.1-0.2,0.3-0.4,0.6-0.6
		c0.1-0.4,0.2-0.8,0.3-1.1c0.1-0.4,0.1-0.8,0.2-1.1c-0.4-0.6-0.9-0.8-1.7-0.7c-0.2,0-0.3,0-0.5,0c-0.2,0-0.3,0-0.4,0
		c0-0.1-0.1-0.1-0.3,0c-0.2,0-0.3,0-0.4,0.1c-0.1,0-0.2,0.1-0.3,0.1c0,0.2,0,0.3,0,0.5c0,0.2,0,0.3,0,0.5c0,0.5,0.1,0.9,0.4,1.3
		C128.4,23.9,128.6,24.2,128.9,24.5z"/>
	<linearGradient id="SVGID_2_" gradientUnits="userSpaceOnUse" x1="203.5" y1="22.9625" x2="207.073" y2="22.9625">
		<stop  offset="0" style="stop-color:#551A8B"/>
		<stop  offset="0.4975" style="stop-color:#4B0082"/>
		<stop  offset="1" style="stop-color:#000000"/>
	</linearGradient>
	<path class="st2" d="M204.5,24.5c0.2,0.2,0.4,0.3,0.7,0.3s0.5,0,0.7,0l0.1-0.1c0.1-0.2,0.3-0.4,0.6-0.6c0.1-0.4,0.2-0.8,0.3-1.1
		c0.1-0.4,0.1-0.8,0.2-1.1c-0.4-0.6-0.9-0.8-1.7-0.7c-0.2,0-0.3,0-0.5,0s-0.3,0-0.4,0c0-0.1-0.1-0.1-0.3,0c-0.2,0-0.3,0-0.4,0.1
		c-0.1,0-0.2,0.1-0.3,0.1c0,0.2,0,0.3,0,0.5c0,0.2,0,0.3,0,0.5c0,0.5,0.1,0.9,0.4,1.3C204,23.9,204.2,24.2,204.5,24.5z"/>
	<linearGradient id="SVGID_3_" gradientUnits="userSpaceOnUse" x1="46.7" y1="45.2817" x2="270.2054" y2="45.2817">
		<stop  offset="0" style="stop-color:#551A8B"/>
		<stop  offset="0.4975" style="stop-color:#4B0082"/>
		<stop  offset="1" style="stop-color:#000000"/>
	</linearGradient>
	<path class="st3" d="M269.3,37c-0.1,0.2-0.2,0.3-0.3,0.5s-0.2,0.4-0.3,0.6c-0.1,0.2-0.2,0.4-0.3,0.6s-0.2,0.4-0.3,0.6
		s-0.3,0.4-0.4,0.6c-0.1,0.2-0.3,0.4-0.4,0.6c-0.2,0.3-0.4,0.7-0.5,1c-0.1,0.3-0.3,0.6-0.5,1c-0.2,0.4-0.4,0.8-0.6,1.2
		c-0.2,0.4-0.4,0.8-0.7,1.1c-0.5,0.7-0.9,1.3-1.3,2c-0.4,0.8-0.8,1.7-1.3,2.5c-0.4,0.8-0.9,1.6-1.3,2.5c-0.3,0.6-0.7,1.2-1.1,1.8
		c-0.4,0.6-0.8,1.2-1.1,1.8c-0.1,0.1-0.1,0.1-0.2,0.2c0,0-0.1,0.1-0.2,0.2l-0.2,0.2c-0.1-0.2-0.2-0.3-0.2-0.3c0-0.1,0-0.2,0-0.3
		c0.1-0.2,0.1-0.3,0.1-0.4c0-0.3-0.1-0.6,0-0.8c0.1-0.2,0.1-0.5,0.1-0.8c0.1-1.5,0.2-3,0.3-4.5s0.3-3,0.6-4.5s0.6-2.9,1-4.3
		c0.4-1.4,0.7-2.8,1-4.2c0.1-0.3,0.1-0.6,0.2-0.9c0-0.3,0.1-0.6,0.1-0.9c0.1-0.7,0.1-1.5,0.1-2.5c0-0.9-0.1-1.7-0.3-2.3
		c-0.1-0.2-0.1-0.4-0.2-0.5c0-0.1,0-0.3,0-0.5s-0.1-0.4-0.3-0.8c-0.2-0.2-0.4-0.4-0.6-0.6c-0.2-0.2-0.4-0.4-0.6-0.6
		c-0.4-0.3-0.9-0.5-1.3-0.4h-1.5c-1.3-0.1-2.4,0.3-3.3,1.1c-0.4,0.4-0.9,0.9-1.4,1.5c-0.2,0.3-0.4,0.7-0.7,1c-0.2,0.3-0.5,0.6-0.7,1
		c-0.2,0.3-0.4,0.7-0.6,1c-0.2,0.3-0.4,0.6-0.6,1l-2.1,3.8c-0.2,0.3-0.3,0.6-0.4,0.8c-0.1,0.2-0.2,0.4-0.3,0.7
		c-0.1,0.3-0.2,0.5-0.3,0.7c-0.2,0.4-0.3,0.7-0.4,0.9c-0.1,0.2-0.2,0.3-0.2,0.4c-0.1,0.1-0.1,0.3-0.2,0.4c-0.3,0.5-0.5,0.9-0.7,1.4
		c-0.2,0.5-0.5,1-0.7,1.4c0,0.1-0.1,0.2-0.1,0.2c0,0.1-0.1,0.1-0.2,0.1c0-0.3-0.1-0.5-0.1-0.7c0-0.2,0-0.5,0-0.7c0-0.5,0-1.1,0-1.7
		c0-0.2,0-0.4,0-0.7c0-0.2,0.1-0.4,0.1-0.7c0-0.2,0-0.4-0.1-0.6c-0.1-0.2-0.1-0.4-0.1-0.6c0-0.5,0-1,0-1.5c0.1-0.5,0.1-1,0.2-1.5
		c0.1-0.4,0.1-0.8,0.2-1.2c0-0.4,0.1-0.8,0.1-1.3c0.1-0.3,0.1-0.7-0.1-1c-0.1-0.3-0.2-0.6-0.3-1c-0.1-0.4-0.2-0.8-0.2-1.2
		c0-0.4,0-0.8,0-1.2c-0.1-0.6-0.4-1.1-0.9-1.3l-0.1-0.1c0-0.1-0.1-0.3-0.1-0.4c0-0.1-0.1-0.3-0.1-0.4c-0.1-0.1-0.3-0.2-0.4-0.3
		c-0.1-0.1-0.3-0.2-0.3-0.4c0-0.1,0-0.1-0.1-0.1c-0.7-0.3-1.4-0.4-2.3-0.3c-0.4,0.1-0.6,0.3-0.6,0.6c-0.1,0.2-0.1,0.4-0.2,0.7
		c0,0.2-0.1,0.5-0.1,0.7c-0.1,0.5-0.1,1-0.2,1.5c0,0.5-0.1,1-0.1,1.5c-0.1,0.9-0.1,1.8-0.2,2.6c0,0.9-0.1,1.7-0.2,2.6V35
		c0,0.2,0.1,0.4,0.1,0.5s0,0.3,0,0.5c0,0.5,0,1.1,0,1.6s0,1,0.1,1.6v0.2c-0.5,0.3-1,0.7-1.5,1c-1.2,0.7-2.4,1.1-3.6,1.3
		c-0.2,0-0.4,0.1-0.6,0.1s-0.4,0-0.6,0c-0.1,0-0.2,0-0.2-0.1c-0.1,0-0.1-0.1-0.2-0.1c0.1-0.3,0.1-0.5,0.1-0.7c0-0.2,0-0.4,0.1-0.6
		c0-0.3,0.1-0.6,0.3-0.8c0.1-0.3,0.2-0.5,0.3-0.9c0-0.4,0.1-0.8,0-1.2c0-0.4-0.1-0.8-0.2-1.2c0-0.2-0.1-0.3-0.1-0.5
		c0-0.1-0.1-0.3-0.1-0.5c0-0.5-0.1-0.9-0.2-1.3c-0.1-0.4-0.3-0.8-0.5-1.2c-0.3-0.5-0.6-0.9-1.1-1.2s-1-0.5-1.4-0.8
		c-0.4-0.2-0.7-0.4-1.1-0.6c-0.3-0.2-0.7-0.2-1.2-0.1c-0.3,0.1-0.6,0.1-0.8,0.1c-0.3,0-0.5,0.2-0.7,0.4s-0.4,0.4-0.6,0.4l-0.1,0.1
		c-0.2,0.5-0.4,0.9-0.6,1.4c-0.2,0.4-0.4,0.9-0.4,1.4c-0.2,0.8-0.3,1.7-0.2,2.5c0.1,0.8,0.3,1.6,0.7,2.4c0.1,0.2,0.3,0.4,0.4,0.7
		c0.1,0.2,0.3,0.5,0.5,0.7c0.7,0.9,1.6,1.8,2.8,2.5c0.2,0.1,0.4,0.3,0.6,0.4s0.4,0.2,0.6,0.3c0,0.1-0.1,0.2-0.1,0.2
		c0,0.1,0,0.1-0.1,0.2c-0.3,0.3-0.4,0.7-0.6,1.1c0,0,0,0.1-0.1,0.1c-0.3,0.5-0.8,1.1-1.3,1.6c-0.1,0.1-0.2,0.3-0.3,0.4
		c-0.1,0.1-0.2,0.2-0.4,0.3c-0.2,0.2-0.5,0.4-0.7,0.5c-0.3,0.1-0.5,0.3-0.7,0.5c-0.5,0.4-0.9,0.7-1.4,0.8c-0.5,0.2-1,0.4-1.6,0.6
		c-0.3,0.1-0.6,0.1-0.9-0.2c-0.1-0.1-0.3-0.3-0.4-0.4s-0.3-0.3-0.4-0.4c-0.3-0.2-0.4-0.5-0.4-0.8c-0.1-0.5-0.1-0.9-0.2-1.3
		c0-0.4-0.1-0.9-0.1-1.3c0-0.4,0-0.8,0-1.2c0.1-0.4,0.2-0.8,0.5-1.1c0.1-0.2,0.1-0.3,0.1-0.3c0.1-0.5,0.2-0.9,0.4-1.3
		c0.2-0.4,0.3-0.8,0.5-1.3s0.2-0.9,0.3-1.4c0.1-0.4,0.2-0.9,0.4-1.4c0.2-0.7,0.4-1.3,0.6-2s0.3-1.3,0.5-2c0.1-0.3,0.2-0.6,0.3-0.9
		c0.1-0.3,0.2-0.5,0.3-0.8c0.1-0.2,0.2-0.3,0.3-0.5c0.1-0.1,0.2-0.3,0.3-0.5c0.3-0.1,0.4-0.4,0.6-0.8c0-0.1,0.1-0.2,0.3-0.4
		c0.4-0.4,0.5-0.8,0.5-1.2c-0.5-0.3-1.1-0.5-1.8-0.6c-0.4,0-0.7,0-0.9,0.2c-0.4,0.3-0.7,0.5-1.1,0.7c-0.4,0.2-0.7,0.4-1,0.7
		c-0.2,0.2-0.4,0.3-0.7,0.5c-0.2,0.1-0.5,0.3-0.7,0.5c-0.2,0.3-0.4,0.5-0.6,0.8c-0.2,0.3-0.4,0.5-0.6,0.7c-0.4,0.4-0.6,0.8-0.8,1.2
		c-0.3,0.7-0.7,1.4-1,2.1c-0.3,0.7-0.6,1.4-0.8,2.2c-0.3,1.1-0.6,2.1-0.7,3.1c0,0.6-0.1,1.2,0,1.7c0,0.4,0.1,0.9,0.1,1.4
		c-0.1,0.2-0.2,0.4-0.3,0.6c-0.2,0.3-0.3,0.5-0.4,0.9c-0.4,0.7-0.8,1.3-1.3,1.9c-0.5,0.6-0.9,1.2-1.4,1.8c-0.1,0.2-0.2,0.3-0.3,0.4
		c-0.1,0.1-0.3,0.3-0.4,0.4c-0.2,0.2-0.4,0.3-0.6,0.5s-0.4,0.3-0.7,0.4c-0.1,0-0.3,0.1-0.6,0.1c-0.2,0-0.3,0-0.3-0.1
		c-0.3-0.4-0.4-0.9-0.4-1.4c0-0.6,0-1.2-0.1-1.8c0-0.2-0.1-0.4,0-0.6c0-0.2,0.1-0.4,0.1-0.6s0-0.3,0-0.5s0-0.4-0.1-0.6
		c0,0,0-0.1,0-0.2c0-0.1,0-0.1,0-0.2c0-0.3,0.1-0.7,0.2-1s0.1-0.7,0-1.1l0.1-0.1V41c0-0.5,0.1-0.9,0.1-1.2c0-0.4,0-0.7,0.1-1.1
		c0.1-0.3,0.1-0.6,0.1-0.9s0-0.5-0.1-0.9c0-0.1,0-0.3,0-0.4s0-0.3,0-0.4c0.1-0.4,0.1-0.9,0.1-1.3c0-0.5,0-1.1,0.1-1.6
		c0-0.5,0-1.1-0.1-1.7c-0.1-0.3-0.1-0.6-0.1-0.8c0-0.3,0-0.6-0.1-0.8c0-0.1,0-0.2-0.1-0.3c0-0.1-0.1-0.2-0.1-0.3
		c-0.1-0.2-0.2-0.4-0.3-0.5c-0.1-0.1-0.2-0.3-0.3-0.5c-0.1-0.2-0.3-0.4-0.6-0.5c-0.2-0.1-0.4-0.2-0.7-0.2c-0.2,0-0.5,0-0.7-0.1
		c-0.3,0-0.4,0.1-0.4,0.3c-0.1,0.4-0.3,0.8-0.4,1.2c-0.1,0.4-0.3,0.7-0.4,1.1c-0.1,0.5-0.2,0.9-0.2,1.3c-0.1,0.4-0.1,0.8-0.2,1.3
		c-0.1,0.5-0.1,0.9-0.2,1.3c0,0.4-0.1,0.9-0.2,1.3c-0.1,0.8-0.1,1.6-0.2,2.5c-0.2,0.3-0.3,0.6-0.5,0.9c-0.1,0.2-0.3,0.4-0.4,0.6
		c-0.1,0.2-0.3,0.4-0.4,0.6l-0.1,0.1c0,0,0,0.1-0.1,0.2c-0.3,0.5-0.7,1-1,1.5c-0.4,0.5-0.7,1-1,1.6c-0.2,0.3-0.4,0.5-0.6,0.8
		s-0.3,0.5-0.5,0.8c-0.2,0.3-0.4,0.7-0.7,1c-0.2,0.3-0.5,0.7-0.7,1c-0.2,0.3-0.4,0.7-0.6,1c-0.2,0.3-0.4,0.6-0.6,1
		c-0.1,0-0.2,0.2-0.3,0.4c-0.6,0.9-1.2,1.8-1.8,2.7c-0.6,0.9-1.2,1.8-1.9,2.7c-0.2,0.3-0.4,0.5-0.6,0.8s-0.4,0.5-0.6,0.8
		c-0.2,0.2-0.3,0.3-0.4,0.4c-0.1,0.1-0.2,0.2-0.3,0.3c-0.2,0.1-0.4,0.2-0.6,0.1c-0.3-0.1-0.4-0.2-0.6-0.5c-0.1-0.2-0.1-0.5-0.1-0.7
		c0-0.2,0-0.3,0-0.5c0-0.1,0-0.3,0-0.4v-0.3c0-0.1,0-0.3,0-0.4s0-0.3,0-0.4v-0.6c0-1.9,0.1-3.8,0.2-5.6c0.1-1.9,0.2-3.7,0.3-5.6
		c0.1-1.9,0.1-3.7,0.2-5.6c0-1.9,0-3.7-0.2-5.6c-0.1-0.3-0.1-0.6,0.1-0.9v-0.3v-0.8c0-0.5,0.1-0.9,0-1.4c0-0.4,0-0.9,0-1.3
		c0-0.2,0-0.4,0-0.7s0-0.5,0-0.7h0.5h0.4c0.2,0,0.4,0.1,0.6,0.1s0.4,0,0.6,0s0.4,0.1,0.7,0c0.2,0,0.4-0.1,0.7-0.2l0.1-0.1
		c0.3,0,0.4-0.1,0.6-0.2c0.1-0.1,0.2-0.1,0.3-0.2c0.1,0,0.2-0.1,0.3-0.1c0.2,0.1,0.3,0.2,0.4,0.2c0.1,0,0.1-0.1,0.2-0.3
		c0,0,0.1,0,0.1-0.1c0.1-0.2,0.3-0.3,0.5-0.3c0.1,0,0.2,0,0.2-0.1c0.1,0,0.1-0.1,0.2-0.1c0.1-0.1,0.2-0.1,0.3-0.2
		c0.1,0,0.2-0.1,0.3-0.1c0.1,0,0.1-0.1,0.2-0.1c0,0,0.1,0,0.2-0.1c0.2-0.1,0.3-0.2,0.5-0.3c0.1,0,0.3-0.1,0.5-0.2h0.2
		c0.2-0.1,0.4-0.2,0.7-0.3c0.3-0.1,0.5-0.2,0.7-0.3c0.2-0.1,0.3-0.1,0.3-0.2c0.2-0.1,0.3-0.3,0.5-0.4c0.2-0.1,0.3-0.3,0.5-0.5
		c-0.1-0.2-0.1-0.3,0-0.4c0.1-0.1,0.1-0.3,0.1-0.5c-0.4-0.3-0.8-0.3-1.1-0.1c-0.1,0.1-0.3,0.1-0.4,0.2c-0.2,0-0.3,0.1-0.4,0.2
		c-0.6,0.2-1.2,0.4-1.8,0.7c-0.6,0.2-1.2,0.5-1.8,0.7c-0.8,0.3-1.7,0.4-2.7,0.3c-0.1,0-0.3,0-0.4-0.1c-0.3-0.1-0.7-0.2-1.1-0.3
		c-0.4-0.1-0.8-0.2-1.1-0.4c-0.4-0.2-0.6-0.5-0.6-0.9c0-0.1,0.1-0.2,0-0.3c0-0.1,0-0.2,0-0.3v-0.3c-0.1-0.3-0.1-0.6-0.2-0.9
		c0-0.3-0.1-0.6-0.1-0.9c0-0.1,0-0.2,0-0.3c0-0.1,0-0.3,0.1-0.3c0.2-0.3,0.1-0.7-0.1-1.1c0-0.1-0.1-0.2-0.1-0.3
		c0-0.1-0.1-0.2-0.2-0.3c-0.2-0.3-0.6-0.4-1.1-0.4l-0.1,0.1c-0.3,0.6-0.5,1.2-0.5,1.8c-0.1,0.5-0.2,1-0.3,1.5
		c-0.1,0.5-0.2,1-0.3,1.5c0,0.1,0,0.2,0,0.3c0,0.1-0.1,0.2-0.2,0.3c-0.2,0-0.4,0-0.7-0.1c-0.7,0-1.4,0-2.1,0
		c-0.4,0.1-0.9,0.1-1.3-0.1c-0.1,0-0.3-0.1-0.4-0.1c-0.1,0-0.3,0-0.5-0.1c-0.3,0-0.6-0.1-0.8-0.1c-0.3,0-0.6,0-0.8,0
		c-0.4,0-0.8-0.1-1.2-0.1c-0.4,0-0.8,0-1.2,0c-0.4,0-0.7,0.1-1.1,0.1c-0.4,0-0.7,0.2-1.1,0.4c-0.2,0.1-0.4,0.2-0.6,0.3
		c-0.2,0.1-0.4,0.2-0.6,0.3c0,0,0,0.1-0.1,0.2c-0.2,0.1-0.1,0.2,0.1,0.3c0.1,0,0.3,0,0.4,0c0.1,0,0.3,0,0.4,0c0.2,0,0.3,0,0.5,0
		c0.2,0,0.4,0,0.6,0c0.3-0.1,0.6-0.1,0.9-0.1s0.5,0.1,0.9,0.2c0.2,0.1,0.3,0.2,0.5,0.2c0.2,0.1,0.4,0.1,0.5,0.2
		c0.8,0,1.7,0.2,2.6,0.6c0.2,0.1,0.4,0.2,0.6,0.3c0.2,0.1,0.4,0.1,0.7,0.2c0.3,0,0.5,0.1,0.7,0.2c0.3,0.1,0.6,0.2,0.9,0.3
		c0.3,0.1,0.6,0.2,1,0.3c0.1,0.1,0.3,0.2,0.4,0.2c0.1,0.1,0.3,0.1,0.4,0.2c0,0.2-0.1,0.4-0.1,0.5s0,0.3-0.1,0.4c0,0.3-0.1,0.7-0.1,1
		c0,0.4-0.1,0.7-0.2,1c-0.2,0.7-0.3,1.4-0.3,2.2c-0.1,0.8-0.2,1.5-0.3,2.2c0,0.5-0.1,0.9-0.1,1.4c0,0.4-0.1,0.9-0.1,1.3
		c-0.1,0.6-0.2,1.3-0.3,1.9c-0.1,0.6-0.1,1.3-0.2,2c0,0.1,0,0.2,0,0.2c-0.4,0.9-0.9,2-1.5,3.2c-0.7,1.4-1.2,2.7-1.7,3.7
		c-0.3,0.5-0.6,1.2-1.1,1.9c-0.5,0.7-0.9,1.3-1.2,1.7c-0.2,0.2-0.5,0.6-1,1c-0.5,0.5-0.9,0.8-1.2,0.9c-0.5,0.2-0.8,0.2-1,0
		c-0.2-0.2-0.3-0.5-0.3-0.8c0-0.4,0-0.7,0-1.1c0-0.4,0.1-0.6,0.1-0.7c0-0.2,0-0.4,0-0.6s0.1-0.4,0.1-0.6c0.1-0.5,0.1-1,0.2-1.5
		c0-0.5,0.1-1,0.2-1.4c0-0.3,0.1-0.5,0.1-0.7c0-0.2,0.1-0.5,0.2-0.7c0.1-0.8,0.2-1.4,0.3-2c0-0.6,0.1-1.3,0.3-2
		c0.1-0.7,0.3-1.4,0.5-2.2c0.2-0.8,0.3-1.6,0.3-2.2c0-0.2,0-0.3,0-0.5c0-0.1,0-0.3,0-0.5c-0.2-0.3-0.2-0.6,0-0.9
		c0.2-0.3,0.2-0.6,0.1-0.9l-0.2-0.4c-0.1-0.5-0.4-0.7-0.9-0.6c-0.2,0-0.4,0.1-0.6,0.1s-0.4,0.1-0.6,0.2c-0.5,0-0.9,0.4-1.1,1.1
		c-0.1,0.4-0.2,0.8-0.3,1.2c-0.1,0.4-0.3,0.8-0.4,1.2c-0.1,0.4-0.3,0.8-0.4,1.1c-0.1,0.4-0.3,0.8-0.3,1.1c-0.1,0.2-0.1,0.5-0.2,0.7
		c0,0.3-0.1,0.5-0.2,0.8c-0.1,0.3-0.1,0.5-0.2,0.8c0,0.3-0.1,0.5-0.2,0.7c-0.4,0.7-0.9,1.5-1.5,2.4c-0.6,0.9-1.3,1.6-2,1.9
		c-0.5,0.3-1.2,0.2-1.8-0.2c-0.7-0.4-1.1-0.9-1.2-1.4c-0.3-1-0.3-2.1-0.1-3c0.2-1,0.4-1.9,0.8-3c0.2-0.4,0.3-0.8,0.4-1.3
		c0.1-0.4,0.3-0.8,0.4-1.3c0.3-0.8,0.6-1.7,0.9-2.6c0.3-0.9,0.7-1.7,1.1-2.5c0.3-0.5,0.8-0.9,1.3-1.2s1-0.4,1.6-0.6
		c0.7-0.2,1.4-0.1,2.1,0.1l0.2,0.2c0.3,0.4,0.6,0.7,0.9,1.1c0.3,0.4,0.5,0.8,0.6,1.3c0.1,0.3,0.2,0.4,0.4,0.3c0.3,0,0.5-0.1,0.6-0.2
		c0.5-0.5,0.6-1.1,0.3-1.8c-0.1-0.2-0.2-0.4-0.3-0.6c-0.1-0.2-0.3-0.4-0.4-0.6c-0.2-0.3-0.4-0.5-0.7-0.7c-0.2-0.2-0.5-0.3-0.8-0.3
		c-0.4-0.1-0.7-0.1-1.1-0.2c-0.4,0-0.7,0-1.1,0.2c-0.1,0-0.3,0.1-0.6,0.1c-0.5,0.1-0.9,0.1-1.4,0.2c-0.4,0-0.9,0.1-1.4,0.3l-1.5,0.6
		c-0.4,0.1-0.7,0.3-1.1,0.5c-0.4,0.2-0.7,0.5-0.9,0.8c-0.3,0.5-0.7,0.9-1,1.2c-1,1.2-1.8,2.6-2.2,4.1c-0.1,0.4-0.2,0.8-0.3,1.1
		c-0.1,0.4-0.3,0.8-0.4,1.1l-0.6,1.9c-0.1,0.3-0.1,0.7-0.2,0.9c0,0.3-0.1,0.6-0.2,0.9c-0.3,1.4-0.3,2.8,0.1,4.2
		c0.1,0.4,0.3,0.8,0.4,1c-0.1,0.3-0.2,0.7-0.2,1c-0.1,0.4-0.1,0.7-0.2,1.1c-0.2,0.5-0.3,0.9-0.5,1.3c-0.1,0.4-0.3,0.9-0.4,1.3
		c-0.1,0.3-0.2,0.5-0.3,0.7c-0.1,0.2-0.2,0.4-0.3,0.7c-0.1,0.4-0.2,0.7-0.3,1c-0.1,0.3-0.3,0.6-0.3,0.9c-0.2,0.5-0.4,0.9-0.6,1.4
		c-0.2,0.4-0.3,0.9-0.5,1.4c0,0.1-0.1,0.2-0.1,0.2c0,0.1,0,0.1-0.1,0.2c-0.2,0.5-0.4,0.9-0.7,1.4c-0.2,0.5-0.5,1-0.7,1.4
		c-0.1,0.2-0.1,0.3-0.1,0.4c-0.2,0.3-0.4,0.6-0.6,0.9c-0.2,0.3-0.3,0.6-0.5,0.9c-0.1,0.2-0.2,0.4-0.3,0.4c-0.2,0.2-0.3,0.3-0.4,0.5
		c-0.1,0.1-0.3,0.3-0.5,0.4c-0.5,0.2-0.9,0.1-1.3-0.3c-0.4-0.4-0.7-0.8-0.9-1.2c-0.2-0.4-0.3-0.7-0.4-1.1c0-0.4-0.1-0.8-0.2-1.2
		c-0.1-0.3-0.2-0.5-0.2-0.7c-0.1-0.2-0.1-0.5-0.2-0.8c0-0.3,0-0.5,0-0.8s0-0.5,0-0.8c0-0.5,0.1-1.1,0.1-1.7c0-0.6,0.1-1.1,0.3-1.7
		c0.1-0.5,0.2-0.9,0.3-1.4c0.1-0.5,0.2-1,0.3-1.5c0.1-0.2,0.1-0.4,0.2-0.7c0-0.2,0.1-0.4,0.1-0.7c0.1-0.2,0.2-0.4,0.3-0.6
		c0.1-0.2,0.2-0.4,0.2-0.6c0-0.3,0.1-0.6,0.2-0.8c0.1-0.3,0.2-0.5,0.1-0.8v-0.1c0.1-0.3,0.1-0.7,0.1-1s0-0.6-0.1-0.9
		c0-0.1,0-0.1-0.1-0.2c0,0,0-0.1,0.1-0.1c0-0.2,0-0.4-0.1-0.6c-0.1-0.2-0.2-0.4-0.3-0.6c-0.1-0.3-0.3-0.5-0.5-0.6
		c-0.2-0.2-0.4-0.3-0.6-0.5c-0.7-0.5-1.4-0.9-1.9-1.1c-0.4-0.2-0.7-0.4-1.1-0.5c-0.4-0.1-0.7-0.3-1.2-0.5c-0.5-0.3-1-0.6-1.4-1
		c-0.4-0.4-0.7-0.9-1.1-1.4c-0.1-0.2-0.1-0.3,0.1-0.5l0.4-0.4c0.7-0.5,1.3-1.2,1.8-2c0.2-0.2,0.3-0.4,0.4-0.6
		c0.1-0.2,0.2-0.4,0.3-0.6c0.1-0.2,0.2-0.4,0.3-0.6c0.1-0.2,0.2-0.4,0.3-0.6c0.2-0.4,0.3-0.7,0.3-0.9c0-0.1,0-0.2,0-0.3
		c0-0.1,0.1-0.2,0.1-0.4c0-0.1,0.1-0.3,0.1-0.4c0-0.1,0-0.3,0-0.4c0-0.2-0.1-0.4-0.1-0.7c0-0.2,0-0.5-0.1-0.8
		c-0.1-0.3-0.3-0.5-0.6-0.7c-0.1-0.1-0.2-0.2-0.3-0.3c-0.1-0.1-0.2-0.2-0.3-0.3c-0.3-0.3-0.6-0.4-0.8-0.4c-0.3-0.1-0.6-0.2-0.8-0.2
		c-0.3-0.1-0.6-0.1-0.9-0.2c-0.3-0.1-0.7-0.1-1-0.1c-0.4,0-0.7,0-1,0.1c-0.3,0.1-0.6,0.3-0.9,0.6c0,0.1-0.2,0.3-0.4,0.5
		c-0.2,0.2-0.3,0.4-0.5,0.6c-0.2,0.2-0.3,0.4-0.4,0.6c0,0.2-0.1,0.4-0.3,0.8c-0.1,0.1-0.1,0.3-0.2,0.4c0,0.1-0.1,0.3-0.2,0.4
		c-0.2,0.3-0.3,0.7-0.5,1c-0.1,0.4-0.3,0.7-0.3,1c-0.3,1.3-0.3,2.5-0.2,3.8c0,0.2,0.1,0.3,0.1,0.5c0,0.2,0.1,0.4,0.1,0.6
		c0.2,0.8,0.6,1.5,1,2.1c0.4,0.4,0.8,0.8,1.2,1.2l-0.1,0.1c-0.1,0.1-0.1,0.2-0.2,0.4c-0.2,0.5-0.3,1-0.5,1.4
		c-0.2,0.4-0.4,0.8-0.6,1.3c-0.2,0.4-0.3,0.7-0.5,1c-0.1,0.3-0.3,0.6-0.5,0.9c-0.1,0.3-0.3,0.6-0.4,0.9c-0.2,0.3-0.3,0.5-0.4,0.9
		c-0.4,0.7-0.8,1.3-1.3,1.9c-0.5,0.6-0.9,1.2-1.4,1.8c-0.1,0.2-0.2,0.3-0.3,0.4c-0.1,0.1-0.3,0.3-0.4,0.4c-0.2,0.2-0.4,0.3-0.6,0.5
		c-0.2,0.2-0.4,0.3-0.7,0.4c-0.1,0-0.3,0.1-0.6,0.1c-0.2,0-0.3,0-0.3-0.1c-0.3-0.4-0.4-0.9-0.4-1.4c0-0.6,0-1.2-0.1-1.8
		c0-0.2-0.1-0.4,0-0.6c0-0.2,0.1-0.4,0.1-0.6c0-0.2,0-0.3,0-0.5s0-0.4-0.1-0.6c0,0,0-0.1,0-0.2c0-0.1,0-0.1,0-0.2
		c0-0.3,0.1-0.7,0.2-1c0.1-0.3,0.1-0.7,0-1.1l0.1-0.1V41c0-0.5,0.1-0.9,0.1-1.2c0-0.4,0-0.7,0.1-1.1c0.1-0.3,0.1-0.6,0.1-0.9
		s0-0.5-0.1-0.9c0-0.1,0-0.3,0-0.4s0-0.3,0-0.4c0.1-0.4,0.1-0.9,0.1-1.3c0-0.5,0-1.1,0.1-1.6c0-0.5,0-1.1-0.1-1.7
		c-0.1-0.3-0.1-0.6-0.1-0.8c0-0.3,0-0.6-0.1-0.8c0-0.1,0-0.2-0.1-0.3c0-0.1-0.1-0.2-0.1-0.3c-0.1-0.2-0.2-0.4-0.3-0.5
		c-0.1-0.1-0.2-0.3-0.3-0.5c-0.1-0.2-0.3-0.4-0.6-0.5c-0.2-0.1-0.4-0.2-0.7-0.2c-0.2,0-0.5,0-0.7-0.1c-0.3,0-0.4,0.1-0.4,0.3
		c-0.1,0.4-0.3,0.8-0.4,1.2s-0.3,0.7-0.4,1.1c-0.1,0.5-0.2,0.9-0.2,1.3c-0.1,0.4-0.1,0.8-0.2,1.3c-0.1,0.5-0.1,0.9-0.2,1.3
		c0,0.4-0.1,0.9-0.2,1.3c-0.1,0.7-0.1,1.4-0.1,2c-0.4,0.2-0.9,0.5-1.5,0.8c-0.7,0.4-1.4,0.8-2.2,1.2s-1.5,0.8-2.1,1.3
		c-0.7,0.4-1.2,0.8-1.6,1.2c-0.1,0.1-0.2,0.2-0.3,0.2c-0.1,0.1-0.3,0.1-0.4,0.2c0-0.7,0.1-1.5,0.1-2.4s0-1.6,0-2.3
		c0-0.4,0-0.8,0-1.2s-0.1-0.8-0.1-1.2c0-0.4,0-0.8,0-1.2c0-0.4,0-0.8-0.1-1.2c-0.2-0.9-0.3-1.8-0.5-2.6c-0.1-0.9-0.4-1.8-0.7-2.6
		c-0.4-1-1-1.8-1.9-2.3c-0.9-0.5-1.9-0.6-2.9-0.4c-0.8,0.2-1.6,0.5-2.3,0.9c-0.7,0.5-1.4,1-1.9,1.6c-1.2,1.3-2.2,2.7-3.1,4.4
		c-0.2,0.3-0.3,0.7-0.5,1c-0.2,0.3-0.3,0.7-0.5,1c-0.1,0-0.1,0-0.2-0.1c-0.1-0.3-0.1-0.5-0.2-0.6c-0.2-0.5-0.3-0.9-0.5-1.3
		c-0.2-0.4-0.5-0.8-0.8-1.1c-0.3-0.3-0.7-0.6-1-0.9s-0.6-0.5-1-0.9c-0.1-0.1-0.3-0.2-0.4-0.3c-0.1-0.1-0.2-0.3-0.3-0.4
		c-0.3-0.3-0.5-0.6-0.8-0.9s-0.6-0.4-1-0.5l-1.3-0.2c-0.4,0-0.6,0.1-0.7,0.4c-0.1,0.5-0.2,1.1-0.3,1.6c-0.1,0.5-0.1,1,0,1.6
		c0.1,0.5,0.2,0.9,0.3,1.4s0.1,0.9,0.2,1.4c0.1,0.8,0.1,1.7,0.1,2.5c0,0.7,0,1.4,0,2c-0.2,0.2-0.3,0.4-0.5,0.6c-0.4,0.3-0.7,0.6-1,1
		c-0.2,0.2-0.4,0.4-0.6,0.6c-0.2,0.2-0.4,0.4-0.6,0.6c-0.3,0.3-0.5,0.6-0.7,0.8c-0.2,0.3-0.5,0.5-0.8,0.7c-0.2,0.2-0.3,0.3-0.4,0.4
		c-0.3,0.3-0.6,0.5-0.9,0.7c-0.1-0.1-0.3-0.2-0.4-0.3c-0.1-0.1-0.3-0.2-0.4-0.3c-0.2-0.2-0.4-0.4-0.6-0.7c-0.2-0.3-0.4-0.5-0.6-0.7
		c-0.3-0.3-0.7-0.7-0.9-1c-0.3-0.3-0.6-0.7-0.9-1c-0.6-0.6-1.2-1.1-1.8-1.6c-0.6-0.5-1.2-1-1.8-1.5c-0.1-0.1-0.2-0.2-0.3-0.3
		c-0.1-0.1-0.2-0.2-0.3-0.3c-0.3-0.3-0.5-0.6-0.8-0.9c-0.3-0.3-0.5-0.6-0.7-1c0,0,0-0.1-0.1-0.1c-0.2-0.2-0.3-0.3-0.3-0.5
		c-0.1-0.2-0.1-0.4-0.2-0.6c-0.1-0.6-0.1-1.2,0.1-1.6c0.1-0.1,0.1-0.2,0.2-0.3c0-0.1,0.1-0.2,0.1-0.3c0.1-0.3,0.2-0.6,0.4-0.8
		c0.2-0.2,0.4-0.5,0.6-0.7c0.2-0.1,0.4-0.2,0.6-0.3c0.3,0,0.6-0.1,0.9-0.3c0.3-0.1,0.6-0.2,0.9-0.3c0.6-0.3,0.6-0.6,0.1-1
		c-0.3-0.2-0.7-0.4-1-0.6s-0.7-0.3-1.1-0.4c-0.1,0-0.4-0.1-0.7-0.2C81.2,25,80.8,25,80.3,25c-0.4,0-0.9,0.1-1.3,0.2
		c-0.8,0.3-1.4,0.7-1.9,1.3c-1,1.2-1.7,2.5-1.9,4C75.1,31,75,31.4,75,31.9c0.1,1.5,0.5,2.8,1.1,4c0.5,0.8,0.9,1.5,1.5,2.2
		c0,0.1-0.1,0.2-0.1,0.3c-0.1,0.2-0.2,0.4-0.3,0.6c-0.1,0.2-0.2,0.4-0.3,0.6c-0.1,0.2-0.3,0.4-0.4,0.6c-0.1,0.2-0.3,0.4-0.4,0.6
		c-0.2,0.3-0.4,0.7-0.5,1c-0.1,0.3-0.3,0.6-0.5,1c-0.2,0.4-0.4,0.8-0.6,1.2c-0.2,0.4-0.4,0.8-0.7,1.1c-0.5,0.7-0.9,1.3-1.3,2
		c-0.4,0.8-0.8,1.7-1.3,2.5c-0.4,0.8-0.9,1.6-1.3,2.5c-0.3,0.6-0.7,1.2-1.1,1.8c-0.4,0.6-0.8,1.2-1.1,1.8c-0.1,0.1-0.1,0.1-0.2,0.2
		c0,0-0.1,0.1-0.2,0.2l-0.2,0.2C67,56.1,66.9,56,66.9,56c0-0.1,0-0.2,0-0.3c0.1-0.2,0.1-0.3,0.1-0.4c0-0.3-0.1-0.6,0-0.8
		c0-0.3,0.1-0.5,0.1-0.8c0.1-1.5,0.2-3,0.3-4.5s0.3-3,0.6-4.5c0.3-1.5,0.6-2.9,1-4.3c0.4-1.4,0.7-2.8,1-4.2c0.1-0.3,0.1-0.6,0.2-0.9
		c0-0.3,0.1-0.6,0.1-0.9c0.1-0.7,0.1-1.5,0.1-2.5c0-0.9-0.1-1.7-0.3-2.3c-0.1-0.2-0.1-0.4-0.2-0.5c0-0.1,0-0.3,0-0.5
		s-0.1-0.4-0.3-0.8c-0.2-0.2-0.4-0.4-0.6-0.6c-0.2-0.2-0.4-0.4-0.6-0.6c-0.4-0.3-0.9-0.5-1.3-0.4h-1.5c-1.3-0.1-2.4,0.3-3.3,1.1
		c-0.4,0.4-0.9,0.9-1.4,1.5c-0.2,0.3-0.4,0.7-0.7,1c-0.2,0.3-0.5,0.6-0.7,1c-0.2,0.3-0.4,0.7-0.6,1s-0.4,0.6-0.6,1l-2.1,3.8
		c-0.2,0.3-0.3,0.6-0.4,0.8c-0.1,0.2-0.2,0.4-0.3,0.7c-0.1,0.3-0.2,0.5-0.3,0.7c-0.2,0.4-0.3,0.7-0.4,0.9c-0.1,0.2-0.2,0.3-0.2,0.4
		c-0.1,0.1-0.1,0.3-0.2,0.4c-0.3,0.5-0.5,0.9-0.7,1.4s-0.5,1-0.7,1.4c0,0.1-0.1,0.2-0.1,0.2c0,0.1-0.1,0.1-0.2,0.1
		c0-0.3-0.1-0.5-0.1-0.7c0-0.2,0-0.5,0-0.7c0-0.5,0-1.1,0-1.7c0-0.2,0-0.4,0-0.7c0-0.2,0.1-0.4,0.1-0.7c0-0.2,0-0.4-0.1-0.6
		c-0.1-0.2-0.1-0.4-0.1-0.6c0-0.5,0-1,0-1.5c0.1-0.5,0.1-1,0.2-1.5C53,33.8,53,33.4,53,33s0.1-0.8,0.1-1.3c0.1-0.3,0.1-0.7-0.1-1
		c-0.1-0.3-0.2-0.6-0.3-1c-0.1-0.4-0.2-0.8-0.2-1.2s0-0.8,0-1.2c-0.1-0.6-0.4-1.1-0.9-1.3c0-0.1-0.1-0.3-0.1-0.4
		c0-0.1-0.1-0.3-0.1-0.4c-0.1-0.1-0.3-0.2-0.4-0.3c-0.1-0.1-0.3-0.2-0.3-0.4c0-0.1,0-0.1-0.1-0.1c-0.7-0.3-1.4-0.4-2.3-0.3
		c-0.4,0.1-0.6,0.3-0.6,0.6c-0.1,0.2-0.1,0.4-0.2,0.7c0,0.2-0.1,0.5-0.1,0.7c-0.1,0.5-0.1,1-0.2,1.5c0,0.5-0.1,1-0.1,1.5
		C47,30,47,30.9,46.9,31.7c0,0.9-0.1,1.7-0.2,2.6v0.4c0,0.2,0.1,0.4,0.1,0.5c0,0.1,0,0.3,0,0.5c0,0.5,0,1.1,0,1.6s0,1,0.1,1.6v1.5
		c0,0.4,0,0.8,0,1.1c0,0.4,0,0.7,0.1,1.1c0,0.1,0.1,0.3,0.1,0.6c0,0.5,0,1.1,0,1.6s0,1.1,0.1,1.6c0,0.1,0.1,0.2,0,0.3
		c0,0.1,0,0.2,0,0.3c0,0.1,0.1,0.3,0.1,0.6s0,0.6,0,0.9s0.1,0.6,0.1,0.9c0,0.1,0.1,0.3,0.1,0.4s0,0.3,0.1,0.4
		c0.2,0.4,0.4,0.6,0.6,0.6c0.3,0.1,0.7,0.1,0.9,0.2c0.2,0.1,0.6,0,0.9-0.2c0.2-0.1,0.4-0.2,0.6-0.3c0.2-0.1,0.4-0.1,0.7-0.1
		c0,0,0.1-0.1,0.3-0.2c0.3-0.2,0.5-0.2,0.8-0.1c0.3,0,0.4,0,0.6-0.3c0.1-0.3,0.3-0.5,0.4-0.7c0.1-0.2,0.2-0.4,0.3-0.7
		c0.1-0.2,0.1-0.3,0.1-0.4c-0.1-0.2-0.1-0.4,0-0.6c0.1-0.2,0.2-0.4,0.3-0.6c0.1-0.2,0.2-0.3,0.3-0.5c0.1-0.2,0.1-0.4,0.2-0.6
		c0.1-0.3,0.2-0.6,0.2-0.8c0.1-0.3,0.2-0.5,0.4-0.7c0,0,0.1,0,0.1-0.1c0.2-0.5,0.5-1.1,0.8-1.6s0.6-1.1,0.8-1.6
		c0.3-0.6,0.6-1.2,0.9-1.7c0.3-0.6,0.6-1.1,1-1.7s0.8-1.2,1.3-1.7c0.4-0.5,0.8-1.1,1.2-1.7c0.3-0.5,0.6-1,0.9-1.5
		c0.3-0.6,0.7-1,1.1-1.3c0.1-0.1,0.1-0.2,0.2-0.2c0-0.1,0.1-0.1,0.2-0.2c0.1-0.1,0.1-0.2,0.2-0.3c0-0.1,0.1-0.2,0.2-0.3
		c0.1-0.2,0.2-0.3,0.3-0.3c0.2-0.2,0.5-0.3,0.8-0.4v0.3c0,0.6,0,1.1-0.1,1.7c-0.1,0.5-0.2,1.1-0.3,1.7c-0.1,0.5-0.2,0.9-0.3,1.4
		s-0.2,1-0.3,1.4c-0.1,0.6-0.2,1.2-0.3,1.8c-0.1,0.6-0.2,1.2-0.3,1.8c-0.1,0.5-0.2,0.9-0.3,1.4s-0.2,1-0.3,1.4
		c-0.5,2.3-0.8,4.7-0.9,7v1.6c0,1.4,0.1,2.8,0.4,4.2c0,0.3,0.1,0.6,0.2,0.8c0.1,0.3,0.2,0.5,0.3,0.8c0.3,0.8,0.9,1.2,1.6,1.4
		c1.1,0.2,2.2,0,3.3-0.6c1.1-0.6,2-1.3,2.7-2.2c0.7-0.9,1.3-1.8,1.8-2.8s1-2,1.5-2.9c0.5-0.8,0.9-1.7,1.3-2.6
		c0.4-0.9,0.9-1.7,1.4-2.6c0.2-0.3,0.4-0.6,0.5-0.9c0.1-0.3,0.3-0.6,0.5-0.9c0.2-0.3,0.4-0.7,0.5-1.1c0.1-0.4,0.2-0.8,0.4-1.1
		c0.2-0.5,0.4-1,0.4-1.5v-0.3c0-0.1,0-0.2,0.1-0.4c0.4,0.5,0.7,0.9,1.1,1.4c0.7,0.9,1.6,1.8,2.6,2.6c0.5,0.5,1.1,1,1.6,1.5
		s1.1,1,1.6,1.5c0.4,0.5,0.9,1,1.3,1.5c-0.1,0.1-0.2,0.2-0.3,0.3c-0.1,0.1-0.2,0.2-0.3,0.3c-0.4,0.5-0.8,1-1.3,1.4
		c-0.4,0.5-0.9,0.9-1.4,1.4c-0.2,0.2-0.4,0.4-0.5,0.6c-0.1,0.2-0.3,0.4-0.5,0.6c-0.1,0.2-0.3,0.4-0.4,0.6c-0.1,0.2-0.3,0.4-0.4,0.5
		c-1.1,1.3-1.9,2.9-2.5,4.6c-0.5,1.7-0.7,3.3-0.4,4.9c0.1,0.3,0.2,0.6,0.4,0.7c0.2,0.1,0.4,0.3,0.5,0.5c0.1,0.2,0.2,0.3,0.3,0.4
		c0.1,0.1,0.3,0.2,0.4,0.3c0.2,0,0.3,0.1,0.4,0.3c0.6,0.6,1.3,1.2,2,1.6c0.7,0.4,1.5,0.7,2.4,0.8c0.8,0,1.6,0,2.6-0.2
		s1.8-0.5,2.4-1.1c1-0.9,1.9-1.7,2.7-2.5s1.5-1.8,1.9-3.2c0.2-0.6,0.3-1.2,0.5-1.9c0.2-0.7,0.3-1.4,0.3-2.1c0.1-0.7,0.1-1.4,0-2.1
		c-0.1-0.7-0.2-1.4-0.5-1.9c-0.2-0.4-0.2-0.8-0.2-1.3c0-0.4,0-0.8-0.1-1.3c-0.2-0.5-0.4-0.9-0.5-1.4c-0.1-0.4-0.4-0.8-0.7-1.2
		c-0.1-0.1-0.1-0.2-0.2-0.3c0-0.1-0.1-0.2-0.2-0.3c-0.1-0.1-0.2-0.3-0.3-0.4c-0.1-0.1-0.2-0.3-0.3-0.4c-0.3-0.3-0.3-0.5,0-0.7
		c0.2-0.2,0.4-0.4,0.6-0.6c0.2-0.2,0.4-0.4,0.6-0.6c0,0,0.2-0.1,0.4-0.3c0,0,0.1-0.1,0.2-0.1c0.1,0,0.1-0.1,0.1-0.1
		c0-0.2,0.1-0.4,0.2-0.5c0.1-0.1,0.2-0.2,0.3-0.3c0.3-0.3,0.6-0.6,0.8-0.9c0.3-0.3,0.4-0.5,0.6-0.6c0.1-0.1,0.1-0.1,0.2-0.2
		c0,0.1,0,0.2,0,0.3c0,0.9,0,1.8,0,2.7c0,1.1,0,2.1,0.1,3.2c0,1,0.1,2.1,0.1,3.1c0,0.8,0,1.7,0,2.5s0,1.6,0,2.5l0.2,8.5
		c0,1.7,0,3.3,0,5c0,0.6,0,1.2-0.1,1.8c0,0.6-0.1,1.2-0.1,1.8c0,0.5,0,0.9,0,1.3s-0.1,0.9-0.1,1.3c0,0.1,0,0.2,0.1,0.3
		c0.1,0.2,0.3,0.4,0.4,0.5c0.1,0.1,0.3,0.3,0.5,0.5c0.6,0.5,1.2,0.5,1.8-0.1c0.1-0.1,0.1-0.2,0.2-0.2c0-0.1,0.1-0.1,0.2-0.2
		c0.3,0,0.4-0.1,0.5-0.3s0.1-0.4,0.2-0.6c0.1-0.3,0.1-0.6,0.2-0.9c0-0.3,0.2-0.5,0.5-0.7c0,0,0-0.1,0.1-0.3c0.1-0.2,0.2-0.4,0.3-0.7
		c0.1-0.3,0.2-0.5,0.3-0.8c0.1,0.1,0.1,0.1,0.1,0.2c0,0,0,0.1,0.1,0.2c0-0.3,0.1-0.5,0.2-0.7s0.1-0.4,0.1-0.7c0-0.5,0.1-0.9,0.1-1.3
		s0-0.9,0-1.3c0-0.8,0-1.5,0-2.3c0-0.8,0-1.5,0.1-2.2c0-0.3,0.1-0.6,0.1-0.8c0-0.3,0.1-0.5,0.1-0.8c0-0.8,0-1.7-0.1-2.5
		c-0.1-0.9-0.1-1.7,0.1-2.5c0.3-0.8,0.6-1.6,0.7-2.4c0.1-0.8,0.1-1.5-0.1-2.4l0.6-3c0-0.4,0.1-0.8,0.1-1.2c0-0.4,0.1-0.8,0.2-1.2
		c0.2-0.9,0.4-1.9,0.5-2.8c0.1-0.9,0.2-1.9,0.3-2.9c0-0.5,0.2-1.1,0.4-1.6c0.2-0.5,0.5-1,0.8-1.5s0.6-1,0.9-1.5
		c0.3-0.5,0.5-1,0.8-1.5c0.4-1,0.9-2,1.5-2.9c0.6-0.9,1.2-1.8,1.9-2.7c0.2-0.3,0.4-0.5,0.7-0.7s0.6-0.3,1-0.4
		c0.1,0.3,0.2,0.5,0.2,0.8s0,0.5,0,0.8c-0.1,1.3-0.2,2.6-0.2,3.9c-0.1,1.3-0.1,2.6-0.2,3.9c-0.1,0.9-0.1,1.8-0.2,2.7
		c0,0.9-0.1,1.8-0.2,2.7c-0.1,0.8-0.2,1.5-0.4,2.3s-0.3,1.5-0.4,2.3c0,1.2-0.5,2.3-1.5,3.1c-1.1,1.2-1.8,2.7-2.1,4.5
		c-0.1,0.3-0.1,0.6-0.1,0.9s0.2,0.5,0.4,0.8c0.3,0.3,0.7,0.6,1.1,0.9c0.4,0.3,0.8,0.5,1.3,0.8c0.1-0.2,0.2-0.3,0.3-0.4
		c0.1-0.1,0.2-0.3,0.3-0.4c0.1,0,0.1-0.1,0.2-0.1c0,0,0.1-0.1,0.2-0.1c0.3-0.1,0.6-0.3,0.8-0.5c0.2-0.3,0.4-0.5,0.6-0.6
		c0.2-0.5,0.5-0.9,0.9-1.1c0.5-0.2,0.8-0.5,1.1-0.8c0.3-0.1,0.6-0.2,0.7-0.5c0.1-0.2,0.3-0.5,0.4-0.7c0.2-0.3,0.4-0.7,0.5-1
		c0.1-0.3,0.3-0.7,0.5-1c0.4-0.6,0.7-1.2,0.8-1.9c0.1-0.7,0.3-1.4,0.5-2.1c0.1-0.6,0.4-1,0.8-1.4c0.3-0.3,0.7-0.7,1-1
		c0.4-0.3,0.7-0.6,1.1-0.9c0.3-0.3,0.8-0.6,1.4-1c0.6-0.4,1.2-0.8,1.8-1.2c0.6-0.4,1.2-0.8,1.8-1.3c0.4-0.3,0.7-0.6,0.9-0.8
		c0,0.6,0,1.1,0,1.7c0,0.5,0,1.1,0,1.6s0,1,0,1.5s0,0.9,0,1.4s0,0.9,0.1,1.4c0.1,0.5,0.2,0.9,0.2,1.4c0.1,0.4,0.2,0.9,0.4,1.4
		c0.2,0.4,0.5,0.8,0.8,1.1c0.3,0.3,0.7,0.6,1.1,0.8c0.3,0.1,0.6,0.2,0.9,0.3c0.3,0.1,0.6,0.2,1,0.3c0.2,0.1,0.5,0.1,1,0.1
		c0.2-0.1,0.4-0.1,0.7-0.2c0.3,0,0.6-0.1,0.8-0.2c0.1-0.1,0.2-0.1,0.3-0.1c0.3-0.1,0.5-0.2,0.8-0.3c0.3-0.1,0.5-0.3,0.7-0.5
		c0.4-0.3,0.8-0.6,1.2-0.8c0.4-0.3,0.7-0.6,0.9-1c0.2-0.3,0.4-0.5,0.5-0.7c0.1-0.2,0.3-0.5,0.4-0.7l0.1-0.1c0.1-0.5,0.3-1,0.5-1.4
		c0.2-0.5,0.4-0.9,0.6-1.4c0-0.1,0.1-0.2,0.2-0.3c0.1-0.1,0.1-0.2,0.2-0.3c0-0.2,0.1-0.4,0.2-0.5s0.2-0.3,0.3-0.5
		c0.1-0.1,0.1-0.2,0.2-0.3c0-0.1,0.1-0.2,0.2-0.3c0.1-0.2,0.2-0.4,0.2-0.6c0.1-0.2,0.2-0.3,0.3-0.4c0.1-0.2,0.2-0.4,0.3-0.6
		c0.2-0.3,0.3-0.6,0.4-0.9c0-0.1,0.1-0.3,0.1-0.4l0.1,0.1c0.4,0.2,0.8,0.5,1.2,0.8c0.4,0.2,0.8,0.4,1.2,0.6c0.4,0.2,0.8,0.4,1.2,0.6
		c0.8,0.4,1.2,1,1.1,1.9c0,0.1,0,0.3-0.1,0.4c-0.1,0.3-0.2,0.7-0.2,1c0,0.3-0.2,0.7-0.3,1c-0.2,0.6-0.3,1.2-0.5,1.8
		c-0.2,0.6-0.3,1.2-0.4,1.9c0,0.2,0,0.3,0,0.5c0,0.1-0.1,0.3-0.1,0.5c-0.1,0.5-0.1,1-0.2,1.5c0,0.5-0.1,1-0.2,1.5
		c-0.1,0.4-0.1,0.8-0.1,1.2c0,0.4,0,0.8-0.1,1.2c0,0.3,0,0.6,0,0.9c0,0.3,0.1,0.6,0.1,0.9c0.1,0.4,0.1,0.9,0.2,1.3
		c0,0.5,0.1,0.9,0.2,1.4c0.4,1.5,1.3,2.7,2.6,3.5c0.2,0.1,0.4,0.2,0.7,0.3c0.2,0.1,0.5,0.2,0.7,0.2c0.3,0.1,0.6,0.2,0.9,0.2
		c0.5,0.2,1,0.1,1.4-0.3c0.1-0.1,0.1-0.1,0.2-0.1c0,0,0.1,0,0.2-0.1c0.3,0,0.5-0.1,0.7-0.3c0.4-0.1,0.7-0.3,0.9-0.4
		c0.1-0.1,0.2-0.1,0.3-0.2c0.1,0,0.2-0.1,0.3-0.2c0.2-0.2,0.4-0.3,0.5-0.5c0.1-0.2,0.3-0.4,0.5-0.5c0.1-0.2,0.3-0.3,0.4-0.4
		c0.1-0.1,0.3-0.3,0.4-0.5c0.1-0.1,0.1-0.2,0.2-0.3c0-0.1,0.1-0.2,0.1-0.3c0.1-0.1,0.1-0.2,0.2-0.3c0-0.1,0.1-0.2,0.1-0.3
		c0.2-0.4,0.4-0.8,0.6-1.2s0.4-0.8,0.6-1.2c0.3-0.3,0.4-0.6,0.4-0.9c0.1-0.3,0.2-0.6,0.3-0.9c0.1-0.3,0.2-0.6,0.4-1
		c0.2-0.5,0.5-1.2,0.8-2.1c0.3-0.9,0.7-1.8,1-2.6c0.3-0.9,0.6-1.7,0.9-2.4c0.3-0.7,0.4-1.1,0.4-1.4v-0.1c0.1,0.1,0.2,0.1,0.3,0.1
		c0.6,0.2,1.3,0.3,2,0.3c0.4,0,0.7-0.1,1.1-0.2c0.4-0.1,0.7-0.2,1.1-0.2c0.6,0,1.1-0.2,1.5-0.5c0.4-0.3,0.8-0.6,1.2-0.9
		c0.1-0.1,0.2-0.2,0.3-0.2c0.1-0.1,0.2-0.1,0.3-0.2v0.6c-0.1,0.6-0.1,1.2-0.2,1.8c0,0.6-0.1,1.2-0.1,1.8c0,0.8,0,1.5,0.1,2.2
		c0.1,0.7,0.3,1.4,0.8,2.1c0.1,0.3,0.3,0.5,0.6,0.7c0.4,0.4,1,0.6,1.8,0.7c0.8,0.1,1.4,0,1.9-0.1c1-0.4,2-1,2.8-1.8
		c0.8-0.8,1.5-1.7,2.2-2.7c0.6-1,1.2-2,1.7-3.1c0.5-1.1,1-2.1,1.4-3c0.1-0.1,0.1-0.3,0.2-0.6c0,0.2,0,0.3,0,0.5c0,0.3,0,0.5,0,0.8
		c0,0.2,0,0.4,0,0.5s0,0.3-0.1,0.5c0,0.3,0,0.7,0,1s0,0.7,0,1V49v0.9c0,0.3,0,0.6,0,0.8c0,0.3,0.1,0.6,0.1,0.8s0.1,0.4,0.1,0.6
		c0,0.2,0.1,0.4,0.1,0.6s0.1,0.4,0.1,0.6c0,0.5,0.1,0.9,0.2,1.4c0.1,0.4,0.2,0.9,0.4,1.4c0.5,1.5,1.5,2.3,2.9,2.6
		c0.5,0.1,0.9,0.2,1.3,0.2s0.8,0,1.3,0c0.3,0,0.5-0.1,0.8-0.3c0,0,0.1,0,0.1-0.1c0,0,0.1-0.1,0.2-0.1c0.4-0.1,0.8-0.4,1.1-0.9
		c0.5-0.5,1-0.9,1.5-1.3s1-0.9,1.4-1.4c0.4-0.6,0.7-1.2,1-1.8c0.3-0.6,0.6-1.2,0.9-1.8c0.6-1.3,1.3-2.5,2-3.7
		c0.8-1.2,1.5-2.3,2.4-3.5c0.5-0.7,0.9-1.4,1.3-2.2c0.1-0.3,0.3-0.5,0.4-0.8c0,0.5,0,1,0,1.5s0,1,0,1.5s0,0.9,0,1.4s0,0.9,0.1,1.4
		c0.1,0.5,0.2,0.9,0.2,1.4c0.1,0.4,0.2,0.9,0.4,1.4c0.2,0.4,0.5,0.8,0.8,1.1c0.3,0.3,0.7,0.6,1.1,0.8c0.3,0.1,0.6,0.2,0.9,0.3
		c0.3,0.1,0.6,0.2,1,0.3c0.2,0.1,0.5,0.1,1,0.1c0.2-0.1,0.4-0.1,0.7-0.2c0.3,0,0.6-0.1,0.8-0.2c0.1-0.1,0.2-0.1,0.3-0.1
		c0.3-0.1,0.5-0.2,0.8-0.3c0.3-0.1,0.5-0.3,0.7-0.5c0.4-0.3,0.8-0.6,1.2-0.8c0.4-0.3,0.7-0.6,0.9-1c0.2-0.3,0.4-0.5,0.5-0.7
		c0.1-0.2,0.3-0.5,0.4-0.7l0.1-0.1c0.1-0.2,0.1-0.4,0.2-0.6c0.5,0.8,1.1,1.6,1.9,2.3c0.8,0.7,1.6,1.3,2.5,1.8
		c0.4,0.2,0.9,0.4,1.3,0.7c0.5,0.2,0.9,0.4,1.4,0.4s0.9-0.1,1.3-0.3c0.4-0.2,0.8-0.4,1.1-0.7c0.3-0.2,0.6-0.4,0.8-0.6
		c0.2-0.2,0.5-0.4,0.8-0.6c0.3-0.2,0.5-0.4,0.7-0.7c0.2-0.3,0.4-0.5,0.6-0.8c0.3-0.4,0.6-0.7,0.9-1c0.4-0.3,0.7-0.7,0.9-1.1
		c0.1-0.3,0.3-0.6,0.4-0.9c0.1-0.3,0.3-0.6,0.4-0.9c0.2-0.4,0.4-0.6,0.6-0.7c0.2,0,0.4-0.1,0.7-0.2c0.2-0.1,0.4-0.1,0.7,0
		c0.5,0.1,1,0.1,1.5,0s0.9-0.3,1.4-0.5c0.6-0.2,1.1-0.5,1.6-0.8s1-0.6,1.6-0.8c0.1,0,0.1-0.1,0.2-0.1c0,0.2,0,0.4,0,0.5
		c0,0.4,0,0.7,0.1,1.1c0,0.1,0.1,0.3,0.1,0.6c0,0.5,0,1.1,0,1.6s0,1.1,0.1,1.6c0,0.1,0.1,0.2,0,0.3c0,0.1,0,0.2,0,0.3
		c0,0.1,0.1,0.3,0.1,0.6c0,0.3,0,0.6,0,0.9s0.1,0.6,0.1,0.9c0,0.1,0.1,0.3,0.1,0.4c0,0.1,0,0.3,0.1,0.4c0.2,0.4,0.4,0.6,0.6,0.6
		c0.3,0.1,0.7,0.1,0.9,0.2c0.3,0,0.6,0,0.9-0.2c0.2-0.1,0.4-0.2,0.6-0.3c0.2-0.1,0.4-0.1,0.7-0.1c0,0,0.1-0.1,0.3-0.2
		c0.3-0.2,0.5-0.2,0.8-0.1c0.3,0,0.4,0,0.6-0.3c0.1-0.3,0.3-0.5,0.4-0.7c0.1-0.2,0.2-0.4,0.3-0.7c0.1-0.2,0.1-0.3,0.1-0.4
		c-0.1-0.2-0.1-0.4,0-0.6c0.1-0.2,0.2-0.4,0.3-0.6c0.1-0.2,0.2-0.3,0.3-0.5c0.1-0.2,0.1-0.4,0.2-0.6c0.1-0.3,0.2-0.6,0.2-0.8
		c0.1-0.3,0.2-0.5,0.4-0.7c0,0,0.1,0,0.1-0.1c0.2-0.5,0.5-1.1,0.8-1.6c0.3-0.5,0.6-1.1,0.8-1.6c0.3-0.6,0.6-1.2,0.9-1.7
		c0.3-0.6,0.6-1.1,1-1.7c0.4-0.6,0.8-1.2,1.3-1.7c0.4-0.5,0.8-1.1,1.2-1.7c0.3-0.5,0.6-1,0.9-1.5c0.3-0.6,0.7-1,1.1-1.3
		c0.1-0.1,0.1-0.2,0.2-0.2c0-0.1,0.1-0.1,0.2-0.2s0.1-0.2,0.2-0.3c0-0.1,0.1-0.2,0.2-0.3c0.1-0.2,0.2-0.3,0.3-0.3
		c0.2-0.2,0.5-0.3,0.8-0.4v0.3c0,0.6,0,1.1-0.1,1.7c-0.1,0.5-0.2,1.1-0.3,1.7c-0.1,0.5-0.2,0.9-0.3,1.4s-0.2,1-0.3,1.4
		c-0.1,0.6-0.2,1.2-0.3,1.8s-0.2,1.2-0.3,1.8c-0.1,0.5-0.2,0.9-0.3,1.4c-0.1,0.5-0.2,1-0.3,1.4c-0.5,2.3-0.8,4.7-0.9,7v1.6
		c0,1.4,0.1,2.8,0.4,4.2c0,0.3,0.1,0.6,0.2,0.8c0.1,0.3,0.2,0.5,0.3,0.8c0.3,0.8,0.9,1.2,1.6,1.4c1.1,0.2,2.2,0,3.3-0.6
		c1.1-0.6,2-1.3,2.7-2.2c0.7-0.9,1.3-1.8,1.8-2.8s1-2,1.5-2.9c0.5-0.8,0.9-1.7,1.3-2.6c0.4-0.9,0.9-1.7,1.4-2.6
		c0.2-0.3,0.4-0.6,0.5-0.9c0.1-0.3,0.3-0.6,0.5-0.9c0.2-0.3,0.4-0.7,0.5-1.1c0.1-0.4,0.2-0.8,0.4-1.1c0.2-0.5,0.4-1,0.4-1.5v-0.3
		c0-0.2,0.1-0.4,0.1-0.6s0.1-0.4,0.2-0.6c0.1-0.1,0.1-0.3,0.2-0.4c0-0.1,0.1-0.3,0.2-0.4C269.8,36.7,269.5,36.7,269.3,37z
		 M89.2,58.3c-0.2,0.3-0.3,0.4-0.4,0.6c-0.2,0.2-0.4,0.3-0.6,0.4c-0.2,0.1-0.4,0.2-0.7,0.3c-0.3,0.1-0.6,0.2-0.8,0.4
		c-0.3,0.2-0.7,0.4-1,0.6c-0.3,0.2-0.6,0.4-1,0.6c-0.6,0.4-1.3,0.7-2,0.8c-0.1,0-0.2,0.1-0.3,0.1c-0.1,0-0.2,0-0.3,0.1
		c-0.3,0.1-0.5,0.1-0.7,0.1c-0.3,0.1-0.6,0-0.9-0.2s-0.4-0.5-0.4-0.8c0-0.5-0.1-0.9-0.1-1.4s0.1-1,0.2-1.4c0.1-0.3,0.1-0.5,0.2-0.7
		c0-0.2,0.1-0.5,0.2-0.7c0.1-0.2,0.1-0.4,0.2-0.6c0-0.2,0.1-0.4,0.3-0.6v-0.1c0.1-0.3,0.2-0.5,0.3-0.7c0.1-0.2,0.3-0.4,0.5-0.6
		c0.3-0.4,0.7-0.8,1-1.2c0.3-0.4,0.7-0.7,1.2-1.1c0.3-0.2,0.4-0.3,0.4-0.4c0.1-0.2,0.3-0.3,0.4-0.4c0.1-0.1,0.3-0.3,0.4-0.4
		c0.2-0.2,0.4-0.3,0.5-0.5c0.1-0.1,0.3-0.3,0.4-0.5c0.2-0.2,0.4-0.4,0.6-0.7c0.2-0.2,0.5-0.4,0.8-0.5L88,49c0.5,0.7,0.8,1.4,1,2.2
		c0,0.1,0.1,0.2,0.1,0.3s0,0.2,0.1,0.3c0.2,0.6,0.3,1.3,0.4,1.9c0.1,0.7,0.1,1.3,0.1,2C89.7,56.5,89.5,57.3,89.2,58.3z M110.1,54.1
		c-0.2,0.6-0.5,1.1-1,1.4c0,0,0-0.1-0.1-0.1c0,0-0.1-0.1-0.1-0.2c0-0.1-0.1-0.2-0.1-0.4l0.9-2.1c0-0.1,0.1-0.1,0.1-0.2
		c0,0,0.1-0.1,0.2-0.2C110.3,52.9,110.3,53.4,110.1,54.1z M143.4,32.1c0-0.3,0.1-0.5,0.1-0.7c0-0.2,0-0.4,0-0.7v-0.6
		c0-0.1,0-0.1,0-0.2c0,0,0-0.1,0-0.2c0-0.4,0.1-0.8,0.2-1.3c0.1-0.4,0.3-0.8,0.5-1.2c0.1-0.2,0.2-0.3,0.2-0.5c0-0.3,0.1-0.5,0.3-0.8
		c0-0.1,0.1-0.2,0.2-0.3c0.1-0.1,0.2-0.2,0.2-0.3c0-0.1,0.1-0.1,0.2-0.1h0.2c0.6,0.3,1,0.7,1.3,1.2c0,0.1,0.1,0.3,0.1,0.4
		c-0.1,0.5-0.2,0.9-0.2,1.4c-0.1,0.4-0.1,0.9-0.2,1.3c0,0.3-0.1,0.6-0.3,0.9c-0.1,0.3-0.2,0.5-0.3,0.7c-0.1,0.2-0.2,0.5-0.4,0.7
		c-0.1,0.1-0.2,0.2-0.3,0.4c-0.1,0.2-0.2,0.3-0.3,0.5c-0.1,0.2-0.3,0.4-0.5,0.7c-0.2,0.2-0.5,0.4-0.7,0.5c-0.1-0.4-0.2-0.7-0.2-1
		C143.5,32.6,143.4,32.3,143.4,32.1z M229.7,38.5c-0.1,0.5-0.2,0.8-0.5,1.1c0,0.1-0.1,0.2-0.1,0.4s0,0.4-0.1,0.5
		c-0.1,0.1-0.2,0.3-0.3,0.5c-0.2,0-0.4-0.1-0.5-0.3c-0.1-0.1-0.3-0.3-0.5-0.5c-0.5-0.6-0.9-1.4-1.1-2.2c-0.3-0.8-0.2-1.6,0.2-2.4
		c0.1-0.2,0.1-0.3,0.1-0.4c0.1-0.8,0.3-1.4,0.6-2.1c0.1-0.1,0.1-0.2,0.2-0.3c0-0.1,0.1-0.2,0.1-0.3c0-0.2,0.1-0.3,0.3-0.3
		c0.1,0,0.1,0,0.2,0.1c0,0,0.1,0.1,0.2,0.1v0.1c0.1,0.3,0.2,0.6,0.3,0.9c0.1,0.3,0.3,0.5,0.5,0.8c0.3,0.5,0.4,1,0.4,1.5
		c0,0.6,0.1,1.1,0.1,1.5C229.7,37.6,229.7,38,229.7,38.5z"/>
</g>
<linearGradient id="SVGID_4_" gradientUnits="userSpaceOnUse" x1="5.4643" y1="43.0625" x2="291.8333" y2="43.0625">
	<stop  offset="0" style="stop-color:#551A8B"/>
	<stop  offset="0.4975" style="stop-color:#4B0082"/>
	<stop  offset="1" style="stop-color:#000000"/>
</linearGradient>
<rect x="6" y="6.5" class="st4" width="285.4" height="73.2"/>
</svg>
